<svg xmlns="http://www.w3.org/2000/svg" xmlns:xlink="http://www.w3.org/1999/xlink" width="46.01611328125" height="45.109375" viewBox="0 0 46.01611328125 45.109375" fill="none"><path     fill="#000000"  d="M23.0177 28.4829C24.9657 28.4829 26.6184 27.8144 27.9759 26.4774C29.3333 25.1405 30.0126 23.5171 30.014 21.6075C30.0153 19.6979 29.3333 18.0771 27.9682 16.7451C26.6031 15.4131 24.9471 14.7472 23.0004 14.7472C21.0537 14.7472 19.4003 15.4157 18.0403 16.7526C16.6803 18.0896 16.0009 19.7136 16.0022 21.6244C16.0034 23.5353 16.6854 25.1555 18.0479 26.485C19.4105 27.8144 21.0671 28.4805 23.0177 28.4829ZM23.0081 26.6898C21.5701 26.6898 20.3481 26.1968 19.3421 25.2106C18.3362 24.2245 17.8326 23.026 17.8313 21.615C17.83 20.2041 18.3336 19.0062 19.3421 18.0213C20.3507 17.0364 21.5726 16.5427 23.0081 16.5402C24.4436 16.5377 25.6661 17.0314 26.6759 18.0213C27.6858 19.0112 28.1887 20.2091 28.1849 21.615C28.181 23.0209 27.6781 24.2195 26.6759 25.2106C25.6737 26.2018 24.4512 26.6948 23.0081 26.6898ZM23.0138 33.8321C18.8596 33.8321 15.0748 32.7245 11.6594 30.5091C8.24401 28.2937 5.68501 25.329 3.98242 21.615C5.68245 17.901 8.23952 14.9364 11.6537 12.721C15.0678 10.5056 18.8513 9.39795 23.0042 9.39795C27.1572 9.39795 30.9414 10.5056 34.3567 12.721C37.7721 14.9364 40.3311 17.901 42.0337 21.615C40.3336 25.329 37.7767 28.2937 34.3625 30.5091C30.9483 32.7245 27.1648 33.8321 23.0119 33.8321M23.0081 31.9526C26.619 31.9526 29.9348 31.0209 32.9552 29.1577C35.9755 27.2944 38.284 24.7802 39.8806 21.615C38.2829 18.4511 35.9736 15.9375 32.9533 14.0743C29.9329 12.211 26.6178 11.2788 23.0081 11.2775C19.3984 11.2762 16.0833 12.2085 13.0629 14.0743C10.0425 15.9401 7.73335 18.4536 6.13558 21.615C7.73335 24.7789 10.0425 27.2932 13.0629 29.1577C16.0833 31.0222 19.3984 31.9539 23.0081 31.9526Z"></path></svg>