<svg xmlns="http://www.w3.org/2000/svg" xmlns:xlink="http://www.w3.org/1999/xlink" width="42.89599609375" height="41.28662109375" viewBox="0 0 42.89599609375 41.28662109375" fill="none"><path d="M21.444 17.2025C21.5463 17.2025 21.6536 17.1949 21.7559 17.1949C21.8582 17.1949 21.9582 17.1816 22.0601 17.1719C22.162 17.1623 22.263 17.1483 22.3643 17.1337C22.4655 17.1193 22.5681 17.107 22.6685 17.0878C22.7689 17.0687 22.8655 17.043 22.9648 17.019C23.0641 16.9951 23.1632 16.9712 23.2612 16.9426C23.3591 16.9139 23.4611 16.884 23.5576 16.8508C23.654 16.8176 23.7437 16.7815 23.8384 16.7438C23.9329 16.706 24.0265 16.6636 24.1191 16.6215C24.2116 16.5794 24.3096 16.538 24.3999 16.4915C24.4902 16.445 24.5772 16.3969 24.6651 16.3462C24.7529 16.2956 24.8373 16.2404 24.9225 16.1857C25.0076 16.1309 25.0898 16.0761 25.172 16.0175C25.2542 15.9587 25.3346 15.8965 25.4138 15.834C25.4929 15.7714 25.5719 15.709 25.6478 15.6428C25.7237 15.5767 25.8016 15.5061 25.874 15.4364C25.9464 15.3667 26.0158 15.2953 26.0845 15.2223C26.1533 15.1493 26.2224 15.0767 26.2873 15.0006C26.3523 14.9244 26.4135 14.8503 26.4745 14.7712C26.5355 14.6921 26.5892 14.6085 26.6461 14.5266C26.703 14.4446 26.7572 14.3588 26.8099 14.2742C26.8625 14.1897 26.9176 14.1088 26.9659 14.0219C27.0142 13.935 27.0626 13.8434 27.1063 13.7543C27.15 13.6652 27.1918 13.5777 27.231 13.4867C27.2702 13.3957 27.3057 13.3043 27.3402 13.2115C27.3747 13.1187 27.4041 13.0229 27.4338 12.9286C27.4636 12.8343 27.4948 12.7413 27.5196 12.6457C27.5446 12.5501 27.5621 12.4519 27.582 12.3552C27.6019 12.2586 27.6216 12.1621 27.6366 12.0647C27.6516 11.9672 27.6655 11.8722 27.6756 11.7741C27.6856 11.6761 27.699 11.5743 27.699 11.4759C27.699 11.3775 27.7068 11.2763 27.7068 11.1778C27.7068 11.0793 27.699 10.9857 27.699 10.8872C27.699 10.7888 27.6856 10.6871 27.6756 10.589C27.6655 10.491 27.6516 10.396 27.6366 10.2985C27.6216 10.201 27.6019 10.1046 27.582 10.008C27.5621 9.9113 27.5446 9.81303 27.5196 9.71745C27.4948 9.62186 27.4636 9.52883 27.4338 9.43456C27.4041 9.34029 27.3747 9.24445 27.3402 9.15167C27.3057 9.05889 27.2702 8.96749 27.231 8.87643C27.1918 8.78542 27.15 8.69794 27.1063 8.60883C27.0625 8.51976 27.0141 8.42813 26.9659 8.34123C26.9176 8.25433 26.8625 8.17344 26.8099 8.08892C26.7572 8.00441 26.703 7.91855 26.6461 7.83662C26.5892 7.75469 26.5355 7.67111 26.4745 7.59196C26.4135 7.51282 26.3523 7.43875 26.2873 7.36259C26.2224 7.28642 26.1533 7.21387 26.0845 7.14087C26.0158 7.06785 25.9464 6.99647 25.874 6.92679C25.8016 6.85711 25.7237 6.78653 25.6478 6.72036C25.5719 6.65419 25.4929 6.59172 25.4138 6.52921C25.3346 6.4667 25.2542 6.40441 25.172 6.34572C25.0898 6.28701 25.0076 6.23226 24.9225 6.17751C24.8373 6.12277 24.7529 6.06761 24.6651 6.01696C24.5772 5.9663 24.4902 5.91814 24.3999 5.87169C24.3096 5.82524 24.2116 5.78385 24.1191 5.74171C24.0265 5.69958 23.9329 5.65709 23.8384 5.61938C23.7437 5.58167 23.654 5.54554 23.5576 5.51234C23.4611 5.47915 23.3591 5.4492 23.2612 5.4206C23.1632 5.39199 23.0641 5.36808 22.9648 5.34414C22.8655 5.3202 22.7689 5.29456 22.6685 5.27533C22.5681 5.25611 22.4655 5.24392 22.3643 5.22946C22.263 5.215 22.162 5.20088 22.0601 5.19123C21.9582 5.18156 21.8582 5.16829 21.7559 5.16829C21.6536 5.16829 21.5463 5.16064 21.444 5.16064C21.3416 5.16064 21.2421 5.16829 21.1398 5.16829C21.0376 5.16829 20.9375 5.18156 20.8356 5.19123C20.7337 5.20088 20.6327 5.215 20.5314 5.22946C20.4302 5.24392 20.3276 5.25611 20.2273 5.27533C20.1268 5.29456 20.0302 5.3202 19.9309 5.34414C19.8316 5.36808 19.7326 5.39199 19.6345 5.4206C19.5366 5.4492 19.4346 5.47915 19.3382 5.51234C19.2417 5.54554 19.152 5.58167 19.0574 5.61938C18.9628 5.65709 18.8692 5.69958 18.7766 5.74171C18.6841 5.78385 18.5862 5.82524 18.4958 5.87169C18.4056 5.91814 18.3185 5.9663 18.2307 6.01696C18.1428 6.06761 18.0584 6.12277 17.9733 6.17751C17.8881 6.23226 17.8059 6.28701 17.7237 6.34572C17.6415 6.40441 17.5611 6.4667 17.4819 6.52921C17.4028 6.59172 17.3238 6.65419 17.2479 6.72036C17.1721 6.78653 17.0942 6.85711 17.0218 6.92679C16.9493 6.99647 16.8799 7.06785 16.8112 7.14087C16.7425 7.21387 16.6734 7.28642 16.6084 7.36259C16.5434 7.43875 16.4823 7.51282 16.4212 7.59196C16.3603 7.67111 16.3066 7.75469 16.2496 7.83662C16.1927 7.91855 16.1385 8.00441 16.0858 8.08892C16.0332 8.17344 15.9781 8.25433 15.9299 8.34123C15.8815 8.42813 15.8332 8.51976 15.7895 8.60883C15.7457 8.69794 15.7039 8.78542 15.6647 8.87643C15.6255 8.96749 15.59 9.05889 15.5555 9.15167C15.521 9.24445 15.4917 9.34029 15.4619 9.43456C15.4321 9.52883 15.401 9.62186 15.3761 9.71745C15.3512 9.81303 15.3336 9.9113 15.3137 10.008C15.2938 10.1046 15.2741 10.201 15.2591 10.2985C15.2441 10.396 15.2302 10.491 15.2201 10.589C15.2101 10.6871 15.1967 10.7888 15.1967 10.8872C15.1967 10.9857 15.1889 11.0793 15.1889 11.1778C15.1889 11.2763 15.1967 11.3775 15.1967 11.4759C15.1967 11.5743 15.2101 11.6761 15.2201 11.7741C15.2302 11.8722 15.2441 11.9672 15.2591 12.0647C15.2741 12.1621 15.2938 12.2586 15.3137 12.3552C15.3336 12.4519 15.3512 12.5501 15.3761 12.6457C15.401 12.7413 15.4321 12.8343 15.4619 12.9286C15.4917 13.0229 15.521 13.1187 15.5555 13.2115C15.59 13.3043 15.6255 13.3957 15.6647 13.4867C15.7039 13.5777 15.7457 13.6652 15.7895 13.7543C15.8332 13.8434 15.8816 13.935 15.9299 14.0219C15.9782 14.1088 16.0332 14.1897 16.0858 14.2742C16.1385 14.3588 16.1927 14.4446 16.2496 14.5266C16.3066 14.6085 16.3603 14.6921 16.4212 14.7712C16.4823 14.8503 16.5434 14.9244 16.6084 15.0006C16.6734 15.0767 16.7425 15.1493 16.8112 15.2223C16.8799 15.2953 16.9493 15.3667 17.0218 15.4364C17.0942 15.5061 17.1721 15.5767 17.2479 15.6428C17.3238 15.709 17.4028 15.7714 17.4819 15.834C17.5611 15.8965 17.6415 15.9587 17.7237 16.0175C17.8059 16.0761 17.8881 16.1309 17.9733 16.1857C18.0584 16.2404 18.1428 16.2956 18.2307 16.3462C18.3185 16.3969 18.4056 16.445 18.4958 16.4915C18.5862 16.538 18.6841 16.5794 18.7766 16.6215C18.8692 16.6636 18.9628 16.706 19.0574 16.7438C19.152 16.7815 19.2417 16.8176 19.3382 16.8508C19.4346 16.884 19.5366 16.9139 19.6345 16.9426C19.7325 16.9712 19.8316 16.9951 19.9309 17.019C20.0302 17.043 20.1268 17.0687 20.2273 17.0878C20.3276 17.107 20.4302 17.1193 20.5314 17.1337C20.6327 17.1483 20.7337 17.1623 20.8356 17.1719C20.9375 17.1816 21.0376 17.1949 21.1398 17.1949C21.2421 17.1949 21.3416 17.2025 21.444 17.2025ZM5.36182 35.0933L5.36182 36.1255L37.5339 36.1255L37.5339 35.0933C37.5339 31.2399 37.5333 29.3102 36.754 27.8376C36.5837 27.5159 36.3895 27.2122 36.169 26.9201C35.9486 26.628 35.7089 26.3573 35.4437 26.1021C35.1786 25.8468 34.8893 25.6108 34.5858 25.3987C34.2824 25.1865 33.9607 24.9967 33.6265 24.8329C32.0965 24.0828 30.096 24.0836 26.0923 24.0836L16.8034 24.0836C12.7997 24.0836 10.7914 24.0828 9.26147 24.8329C8.92725 24.9967 8.61341 25.1865 8.30995 25.3987C8.00649 25.6108 7.71726 25.8468 7.45203 26.1021C7.1868 26.3573 6.94717 26.628 6.72669 26.9201C6.50622 27.2122 6.31203 27.5159 6.14175 27.8376C5.36247 29.3102 5.36182 31.2399 5.36182 35.0933Z" stroke="rgba(0, 0, 0, 0.5)" stroke-width="2.5" stroke-linejoin="round" stroke-linecap="round" ></path></svg>