<svg width="431" height="423" viewBox="0 0 431 423" fill="none" xmlns="http://www.w3.org/2000/svg">
<g filter="url(#filter0_d_71_19)">
<g filter="url(#filter1_d_71_19)">
<path d="M223.545 219.114V399.665H407.51V219.114H223.545Z" fill="#F7F7F7"/>
<path d="M351.625 273.612C347.889 272.272 341.424 269.946 333.235 268.677C329.284 268.042 316.785 266.421 301.269 269.946C291.141 272.272 283.024 275.938 277.062 279.393C277.062 281.931 277.062 285.808 277.349 290.461C277.995 301.389 279.504 309.708 281.156 318.661C281.946 322.962 283.096 328.884 284.748 335.863C286.184 341.221 287.693 346.579 289.13 351.937C313.768 352.854 338.479 353.7 363.118 354.616C363.333 351.726 363.549 348.765 363.693 345.874C365.129 323.314 365.704 301.248 365.632 279.816C362.112 277.983 357.371 275.727 351.625 273.612Z" fill="#040844"/>
<path d="M296.457 257.468C297.822 257.468 297.822 255.353 296.457 255.353C295.092 255.353 295.092 257.468 296.457 257.468Z" fill="#202124"/>
<path d="M365.992 296.735C365.202 315.981 364.196 335.298 362.831 354.545C362.831 354.897 363.334 354.897 363.406 354.545C364.771 335.298 365.848 316.052 366.566 296.735C366.566 296.453 365.992 296.453 365.992 296.735Z" fill="#202124"/>
<path d="M223.832 335.792V399.383H407.223V335.792H223.832Z" fill="#C1C1C1"/>
<path d="M298.394 337.273C293.366 344.394 288.409 351.514 283.381 358.635C297.245 358.282 311.109 357.93 325.044 357.507C326.625 350.739 328.205 344.041 329.857 337.273C319.298 337.203 308.882 337.203 298.394 337.273Z" fill="white"/>
<path d="M302.488 355.321C305.505 355.321 308.522 355.321 311.611 355.321C311.97 355.321 311.97 354.757 311.611 354.757C308.594 354.757 305.577 354.757 302.488 354.757C302.129 354.827 302.129 355.321 302.488 355.321Z" fill="#202124"/>
<path d="M301.341 352.784C305.507 352.784 309.602 352.784 313.768 352.784C314.127 352.784 314.127 352.22 313.768 352.22C309.602 352.22 305.507 352.22 301.341 352.22C300.982 352.22 300.982 352.784 301.341 352.784Z" fill="#202124"/>
<path d="M301.484 350.668C308.308 350.668 315.204 350.668 322.028 350.668C322.388 350.668 322.388 350.104 322.028 350.104C315.204 350.104 308.308 350.104 301.484 350.104C301.197 350.104 301.197 350.668 301.484 350.668Z" fill="#202124"/>
<path d="M299.545 347.848C303.998 347.848 308.452 347.848 312.978 347.848C313.337 347.848 313.337 347.284 312.978 347.284C308.524 347.284 304.07 347.284 299.545 347.284C299.186 347.355 299.186 347.848 299.545 347.848Z" fill="#202124"/>
<path d="M296.526 342.983C305.649 342.983 314.7 342.983 323.823 342.983C324.182 342.983 324.182 342.419 323.823 342.419C314.7 342.419 305.649 342.419 296.526 342.419C296.167 342.489 296.167 342.983 296.526 342.983Z" fill="#202124"/>
<path d="M287.765 338.26C286.543 338.401 285.825 339.035 285.61 339.247C284.891 339.881 284.604 340.586 284.173 341.785C284.029 342.137 283.526 343.547 283.167 346.085C283.024 347.143 282.952 348.059 282.88 348.694C283.67 349.681 284.388 350.527 285.035 351.091C286.112 352.148 287.046 352.994 288.483 353.488C289.417 353.84 290.135 353.911 291.572 353.981C292.649 354.052 294.158 354.122 296.025 353.911C297.318 353.276 298.18 352.148 298.18 350.879C298.18 350.104 297.821 349.54 297.606 349.258C296.169 347.284 294.732 345.31 293.296 343.336C293.368 342.913 293.511 341.926 293.08 340.939C292.506 339.74 291.428 339.247 290.494 338.824C289.704 338.471 288.842 338.048 287.765 338.26Z" fill="#F7CD5B"/>
<path d="M261.186 341.715C270.524 345.029 280.796 348.06 282.807 348.695C282.879 347.637 282.951 346.439 283.167 345.17C283.526 342.914 284.1 341.01 284.747 339.389C283.382 338.049 282.089 336.71 280.724 335.37C277.851 332.48 274.978 329.589 272.176 326.699C274.403 323.667 276.773 320.565 279.359 317.463C283.741 312.105 288.195 307.241 292.433 302.87C293.367 300.402 293.511 298.287 293.367 296.736C292.936 289.334 286.399 282.777 277.061 279.393C276.271 280.38 275.193 281.72 273.9 283.412C268.297 290.673 264.274 295.89 259.821 302.729C256.157 308.439 254.146 312.246 251.919 316.476C248.327 323.315 250.985 319.296 248.256 324.936C247.537 326.346 246.819 327.827 246.891 329.801C247.034 331.916 248.04 333.467 248.399 334.031C249.62 335.793 251.129 336.639 252.494 337.415C258.959 340.94 261.186 341.715 261.186 341.715Z" fill="#040844"/>
<path d="M291.786 303.364C284.818 310.343 278.425 317.887 272.607 325.924C272.391 326.206 272.894 326.488 273.038 326.206C278.784 318.239 285.177 310.766 292.073 303.787C292.361 303.505 292.002 303.152 291.786 303.364Z" fill="white"/>
<path d="M284.459 339.459C284.603 340.305 283.956 341.362 283.741 342.138C283.525 342.843 283.31 343.618 283.166 344.394C282.879 345.804 282.663 347.284 282.663 348.694C282.663 349.047 283.166 349.047 283.238 348.694C283.31 346.72 283.597 344.817 284.172 342.913C284.531 341.785 285.393 340.516 285.105 339.318C284.962 338.965 284.387 339.106 284.459 339.459Z" fill="#202124"/>
<path d="M284.818 339.531C285.896 339.601 286.614 339.037 287.548 338.544C289.487 337.627 291.427 339.954 292.792 341.082C293.079 341.293 293.438 340.941 293.151 340.729C292.002 339.813 290.493 337.98 288.985 337.698C287.404 337.486 286.399 339.037 284.818 338.967C284.459 339.037 284.459 339.531 284.818 339.531Z" fill="#202124"/>
<path d="M282.592 348.835C284.244 350.668 285.753 352.783 288.123 353.629C290.35 354.475 292.936 354.264 295.235 354.052C295.594 354.052 295.594 353.488 295.235 353.488C292.936 353.7 290.565 353.911 288.339 353.065C286.04 352.219 284.531 350.175 283.023 348.412C282.807 348.271 282.376 348.624 282.592 348.835Z" fill="#202124"/>
<path d="M291.643 342.068C293.798 344.324 295.665 346.791 297.317 349.47C297.461 349.752 297.964 349.47 297.748 349.188C296.096 346.509 294.157 343.971 292.002 341.715C291.786 341.433 291.355 341.785 291.643 342.068Z" fill="#202124"/>
<path d="M290.852 345.169C292.145 347.425 294.156 349.046 296.096 350.668C296.383 350.879 296.742 350.527 296.455 350.315C294.516 348.764 292.504 347.143 291.283 344.957C291.139 344.605 290.708 344.887 290.852 345.169Z" fill="#202124"/>
<path d="M289.704 348.13C291.356 349.963 293.296 351.373 295.523 352.36C295.81 352.501 296.097 352.007 295.81 351.937C293.583 350.95 291.644 349.61 290.063 347.777C289.848 347.495 289.489 347.848 289.704 348.13Z" fill="#202124"/>
<path d="M288.769 351.655C290.565 352.501 292.433 353.135 294.444 353.488C294.803 353.558 294.947 353.065 294.588 352.994C292.648 352.642 290.853 352.007 289.057 351.232C288.769 351.02 288.482 351.514 288.769 351.655Z" fill="#202124"/>
<path d="M321.597 349.681C320.735 349.47 320.304 348.624 320.52 347.778L328.709 318.943C328.924 318.097 329.786 317.674 330.648 317.886C331.51 318.097 331.941 318.943 331.726 319.789L323.537 348.624C323.321 349.399 322.459 349.893 321.597 349.681Z" fill="#5185EC"/>
<path d="M338.192 344.041C340.131 342.138 340.419 341.503 340.491 341.08C341.065 338.331 337.833 335.793 337.258 335.37C336.54 334.242 335.75 333.466 335.175 332.902C334.097 331.915 332.445 330.364 331.152 330.787C330.721 330.928 330.29 331.281 330.218 331.704C330.147 331.986 330.29 332.268 330.937 333.114C331.224 333.537 331.655 334.101 332.158 334.665C330.865 335.863 329.644 336.78 328.638 337.485C326.986 338.542 326.196 339.106 325.046 339.459C323.61 339.952 322.891 339.811 321.742 340.587C321.239 340.939 320.521 341.433 320.09 342.279C319.515 343.548 320.018 344.887 320.521 346.368C320.952 347.496 321.455 348.412 321.886 349.047C322.676 349.399 323.897 349.893 325.406 350.034C328.063 350.386 330.147 349.681 331.08 349.329C333.738 348.412 335.247 346.932 338.192 344.041Z" fill="#F7CD5B"/>
<path d="M337.402 335.368C337.618 336.073 337.833 336.778 338.049 337.624C338.624 340.303 338.624 342.63 338.408 344.533C344.801 344.956 350.404 344.956 354.858 344.815C358.952 344.674 367.07 344.322 377.342 342.771C381.939 342.066 385.818 341.29 388.691 340.726C388.476 338.752 388.045 335.862 387.542 332.478C385.818 321.057 383.95 313.443 382.226 306.393C380.79 300.541 379.64 296.593 377.414 292.152C375.833 289.05 374.325 286.864 372.313 284.82C369.871 282.423 367.572 280.942 365.992 280.026C364.627 281.224 363.191 282.705 361.898 284.397C356.223 291.658 355.145 299.695 354.93 304.066C357.731 310.623 360.533 317.109 363.406 323.665C354.714 327.543 346.022 331.42 337.402 335.368Z" fill="#040844"/>
<path d="M337.616 335.088C350.403 330.153 362.83 324.513 374.97 318.239C375.257 318.098 374.97 317.604 374.682 317.816C362.614 324.09 350.187 329.73 337.473 334.665C337.114 334.665 337.257 335.159 337.616 335.088Z" fill="white"/>
<path d="M337.258 335.793C337.617 335.793 337.617 335.229 337.258 335.229C336.898 335.3 336.898 335.793 337.258 335.793Z" fill="#202124"/>
<path d="M337.043 335.44C337.833 337.696 338.12 340.093 337.833 342.49C337.761 342.842 338.336 342.842 338.408 342.49C338.695 340.022 338.408 337.696 337.618 335.299C337.402 334.946 336.899 335.087 337.043 335.44Z" fill="#202124"/>
<path d="M339.198 344.675C355.576 345.662 371.954 344.393 388.045 340.868C388.404 340.797 388.26 340.304 387.901 340.374C371.882 343.899 355.576 345.168 339.198 344.181C338.839 344.181 338.839 344.675 339.198 344.675Z" fill="#202124"/>
<path d="M337.115 334.594C336.253 333.466 335.248 332.408 334.026 331.633C333.164 331.069 331.8 330.364 330.722 330.505C328.495 330.857 331.297 334.171 332.015 334.876C332.231 335.158 332.662 334.735 332.374 334.523C331.8 333.889 330.866 332.902 330.65 331.985C330.363 331.633 330.435 331.28 330.866 330.998C331.081 330.998 331.297 331.069 331.512 331.069C332.015 331.21 332.518 331.351 333.021 331.633C334.529 332.408 335.679 333.607 336.756 334.946C336.972 335.228 337.331 334.876 337.115 334.594Z" fill="#202124"/>
<path d="M320.449 342.702C323.251 343.125 325.98 343.125 328.71 342.632C329.069 342.561 328.926 342.068 328.566 342.138C325.909 342.632 323.251 342.632 320.593 342.209C320.234 342.138 320.09 342.632 320.449 342.702Z" fill="#202124"/>
<path d="M320.521 343.83C322.605 345.804 326.555 345.452 329.141 345.24C329.501 345.24 329.501 344.676 329.141 344.676C326.699 344.888 322.82 345.311 320.881 343.478C320.665 343.196 320.234 343.619 320.521 343.83Z" fill="#202124"/>
<path d="M320.666 345.875C322.965 347.919 325.91 347.99 328.855 347.708C329.214 347.637 329.214 347.144 328.855 347.144C326.125 347.496 323.252 347.426 321.025 345.522C320.81 345.24 320.379 345.663 320.666 345.875Z" fill="#202124"/>
<path d="M354.641 304.138C357.37 310.483 360.028 316.828 362.758 323.173C362.902 323.455 363.404 323.314 363.261 323.032C360.531 316.687 357.873 310.342 355.144 303.997C355 303.715 354.497 303.856 354.641 304.138Z" fill="white"/>
<path d="M308.381 276.715C311.038 278.407 313.624 278.689 314.917 278.689C315.061 278.9 315.205 279.112 315.348 279.323C315.205 279.323 314.415 279.535 314.127 280.169C313.84 280.874 314.415 281.579 314.846 282.002C316.57 283.412 320.089 281.579 320.305 281.438C321.167 280.945 322.173 280.451 322.675 279.253C323.25 277.913 322.819 276.644 322.675 276.292C323.25 275.798 323.968 275.164 324.687 274.177C325.621 272.908 326.123 271.709 326.339 271.145C326.626 270.37 327.129 268.819 326.985 266.774C326.77 264.518 325.764 262.967 324.902 261.698C324.328 260.852 322.747 258.455 320.089 257.045C314.055 253.732 305.004 257.045 303.352 261.064C303.209 261.487 302.706 262.897 302.562 264.73C302.49 266.14 302.634 267.338 302.778 268.114C303.209 270.511 304.214 272.203 304.502 272.696C306.01 275.093 307.878 276.362 308.381 276.715Z" fill="#F7CD5B"/>
<path d="M319.444 258.455C318.941 259.019 318.151 259.794 317.073 260.429C315.349 261.416 313.769 261.627 309.818 261.839C307.735 261.98 305.436 262.05 302.922 262.05C302.85 262.755 302.779 263.46 302.707 264.165C302.276 264.236 301.557 264.377 300.695 264.236C297.894 263.742 296.601 261.063 296.385 260.57C296.026 259.724 295.164 257.891 296.098 256.199C296.673 255.212 297.607 254.718 298.038 254.577C297.966 253.943 297.966 252.744 298.756 251.757C299.259 251.123 300.336 250.488 303.138 250.488C306.155 250.488 307.304 251.264 311.542 252.321C316.786 253.661 319.372 254.225 319.372 254.225C320.593 254.507 322.245 254.859 323.538 256.269C324.257 257.045 324.616 257.891 324.76 258.525C325.119 258.455 326.268 258.314 327.202 259.019C328.351 259.794 328.495 261.134 328.639 261.909C328.926 264.306 327.489 266.21 327.058 266.774C325.981 265.928 324.76 264.87 323.538 263.601C321.743 261.698 320.45 260.006 319.444 258.455Z" fill="#EB506E"/>
<path d="M313.193 266.774C312.762 269.594 312.403 272.625 314.63 274.881C314.846 275.093 315.277 274.74 314.989 274.529C312.906 272.484 313.265 269.594 313.696 266.915C313.768 266.562 313.193 266.421 313.193 266.774Z" fill="#202124"/>
<path d="M314.846 278.899C315.134 279.322 315.349 279.816 315.636 280.239C315.78 280.521 316.283 280.239 316.067 279.957C315.78 279.534 315.565 279.04 315.277 278.617C315.134 278.335 314.703 278.617 314.846 278.899Z" fill="#202124"/>
<path d="M310.608 269.029C310.608 269.575 310.351 270.016 310.034 270.016C309.716 270.016 309.459 269.575 309.459 269.029C309.459 268.484 309.716 268.042 310.034 268.042C310.351 268.042 310.608 268.484 310.608 269.029Z" fill="#202124"/>
<path d="M317.934 269.029C317.934 269.575 317.677 270.016 317.36 270.016C317.042 270.016 316.785 269.575 316.785 269.029C316.785 268.484 317.042 268.042 317.36 268.042C317.677 268.042 317.934 268.484 317.934 269.029Z" fill="#202124"/>
<path d="M284.674 376.964C284.674 383.739 279.078 389.231 272.175 389.231C265.272 389.231 259.676 383.739 259.676 376.964C259.676 370.189 265.272 364.697 272.175 364.697C279.078 364.697 284.674 370.189 284.674 376.964Z" fill="white"/>
<path d="M377.697 376.964C377.697 383.739 372.101 389.231 365.198 389.231C358.295 389.231 352.699 383.739 352.699 376.964C352.699 370.189 358.295 364.697 365.198 364.697C372.101 364.697 377.697 370.189 377.697 376.964Z" fill="#EB506E"/>
<path d="M331.151 378.233C331.151 385.008 325.555 390.5 318.652 390.5C311.749 390.5 306.153 385.008 306.153 378.233C306.153 371.458 311.749 365.966 318.652 365.966C325.555 365.966 331.151 371.458 331.151 378.233Z" fill="white"/>
<path d="M345.947 368.505C347.312 368.505 347.312 366.39 345.947 366.39C344.583 366.39 344.583 368.505 345.947 368.505Z" fill="white"/>
<path d="M361.392 384.226H365.989C366.492 384.226 366.923 384.085 367.354 383.803C368.432 383.31 369.222 382.182 369.222 380.913V372.876C369.222 371.607 368.144 370.549 366.851 370.549H366.708H364.912H362.254C361.464 370.549 360.817 371.184 360.817 371.959V372.523V374.568H363.475V373.933H364.912V380.842H363.691V380.067H361.033V381.195V382.605V383.874C361.033 384.085 361.177 384.226 361.392 384.226Z" fill="white"/>
<path d="M323.536 376.964H313.336C312.618 376.964 312.043 376.4 312.043 375.695C312.043 374.99 312.618 374.426 313.336 374.426H323.536C324.255 374.426 324.829 374.99 324.829 375.695C324.829 376.33 324.255 376.964 323.536 376.964Z" fill="#202124"/>
<path d="M323.608 382.816H313.336C312.618 382.816 312.043 382.252 312.043 381.547C312.043 380.842 312.618 380.278 313.336 380.278H323.608C324.326 380.278 324.901 380.842 324.901 381.547C324.901 382.181 324.326 382.816 323.608 382.816Z" fill="#202124"/>
<path d="M278.497 377.176C278.497 380.758 275.538 383.662 271.888 383.662C268.238 383.662 265.279 380.758 265.279 377.176C265.279 373.594 268.238 370.69 271.888 370.69C275.538 370.69 278.497 373.594 278.497 377.176Z" fill="#EB506E"/>
</g>
<g filter="url(#filter2_d_71_19)">
<path d="M21.6943 219.114V399.665H205.659V219.114H21.6943Z" fill="#F7F7F7"/>
<path d="M182.96 322.255C184.396 323.877 185.187 325.357 185.689 326.556C190.574 337.695 191.652 342.63 191.652 342.63C194.094 353.698 194.74 355.179 195.818 358.986C197.183 364.132 197.901 368.01 198.619 371.887C199.912 378.867 201.565 388.243 203.504 399.453C194.381 399.453 185.258 399.453 176.064 399.453C175.13 396.844 174.196 394.236 173.262 391.557C168.88 379.431 164.211 367.798 159.398 356.659C166.366 344.392 173.406 332.266 180.517 320.07C181.092 320.493 182.026 321.198 182.96 322.255Z" fill="#EB506E"/>
<path d="M80.166 313.373C84.5479 312.457 94.82 310.342 106.457 309.496C112.707 309.002 127.361 308.227 145.965 311.117C159.326 313.162 170.963 316.546 180.445 320.141C180.517 327.896 180.589 335.722 180.661 343.477C178.937 349.963 177.285 356.66 175.632 363.428C172.687 375.695 170.101 387.68 167.803 399.383C139.069 399.383 110.264 399.383 81.5309 399.383C80.4534 395.224 79.4477 390.994 78.5139 386.623C73.0545 361.243 70.8995 337.343 70.7559 315.559C73.0545 314.995 76.287 314.219 80.166 313.373Z" fill="#EB506E"/>
<path d="M115.148 271.074C116.512 271.074 116.512 268.959 115.148 268.959C113.783 268.959 113.783 271.074 115.148 271.074Z" fill="#202124"/>
<path d="M82.3219 361.596C83.8304 357.789 85.4826 351.797 85.0516 344.465C84.1178 328.532 73.7019 318.239 70.7568 315.56C69.8948 316.124 68.7454 316.899 67.5243 318.027C64.7228 320.495 62.9988 323.033 61.7058 325.289C58.7606 330.365 57.1803 335.511 55.9591 339.6C53.2294 348.413 51.9364 352.854 49.9969 360.468C48.9913 364.416 47.7701 369.21 46.4771 375.555C45.2559 381.689 43.8193 389.726 42.6699 399.384C53.1576 399.384 63.6453 399.384 74.1329 399.384C74.4202 395.225 74.9231 390.713 75.7851 385.989C77.3654 376.683 79.8078 368.505 82.3219 361.596Z" fill="#EB506E"/>
<path d="M116.226 313.728C115.723 315.067 116.154 316.477 117.016 317.323C117.95 318.381 119.315 318.451 120.68 318.522C121.183 318.522 123.05 318.663 125.349 317.746C126.355 317.323 128.51 316.407 130.234 314.151C132.101 311.613 132.173 308.934 132.173 308.017C131.886 306.325 131.599 304.563 131.311 302.871C131.814 302.307 132.532 301.461 133.251 300.333C134.544 298.288 134.975 296.385 135.262 295.116C136.627 288.63 137.345 285.387 136.699 281.721C136.196 278.901 135.406 274.177 131.886 271.428C123.841 264.942 106.601 272.626 104.302 279.747C104.086 280.452 103.584 282.426 103.224 284.752C102.937 286.726 102.65 289.053 102.865 291.802C103.081 293.706 103.368 296.596 105.236 299.769C107.463 303.435 110.48 305.197 111.27 305.691C113.999 307.171 116.585 307.594 118.022 307.665C118.525 308.863 119.028 310.132 119.531 311.331C118.022 311.472 116.729 312.388 116.226 313.728Z" fill="#F7CD5B"/>
<path d="M108.469 264.307C105.596 266.07 104.015 269.454 104.375 272.838C103.656 272.767 102.291 272.697 100.711 273.331C100.065 273.613 97.263 274.812 96.6165 277.773C96.0418 280.452 97.6222 282.849 99.2743 284.118C100.783 285.246 102.435 285.528 103.153 285.528C103.297 284.541 103.513 283.554 103.656 282.567C104.375 282.496 105.38 282.426 106.458 282.073C107.104 281.862 108.469 281.368 110.768 279.606C111.989 278.619 113.713 277.138 115.437 274.882C115.94 274.812 116.443 274.812 117.017 274.741C117.592 275.094 118.238 275.376 119.029 275.658C122.189 276.786 125.134 276.363 126.787 275.94C126.858 276.645 126.93 277.632 127.289 278.83C127.649 280.17 128.223 282.073 129.947 283.554C130.45 283.977 131.456 284.752 133.108 285.175C133.395 286.303 133.754 287.502 134.329 288.841C135.191 290.956 136.269 292.719 137.274 294.058C137.993 293.917 139.142 293.635 140.363 292.93C141.081 292.507 142.087 291.943 142.805 290.745C143.021 290.322 143.883 288.982 143.667 287.149C143.308 284.47 140.866 283.201 140.579 283.131C141.153 282.778 142.087 282.214 142.805 281.227C144.314 279.183 144.17 276.926 144.098 276.291C143.811 272.696 140.794 269.524 137.202 268.819C135.335 268.396 133.683 268.819 132.749 269.101C132.461 268.608 131.312 266.704 128.942 265.929C126.499 265.153 123.698 265.998 121.758 267.972C121.327 267.126 119.962 265.083 117.305 263.884C116.802 263.673 112.492 261.769 108.469 264.307Z" fill="#202124"/>
<path d="M115.293 286.656C114.431 290.463 112.994 297.16 116.945 299.769C117.233 299.98 117.52 299.487 117.233 299.346C113.713 296.949 115.078 290.251 115.868 286.797C115.868 286.444 115.365 286.303 115.293 286.656Z" fill="#202124"/>
<path d="M104.086 270.016C103.871 271.003 104.23 271.919 103.296 272.483C103.009 272.695 101.572 272.695 101.141 272.836C99.4173 273.4 98.0524 274.669 97.3341 276.29C95.6819 280.168 97.9806 284.962 102.219 285.667C102.65 285.878 102.793 285.314 102.434 285.244C94.8199 283.904 96.5439 272.342 104.374 273.118C104.517 273.118 104.661 272.977 104.661 272.836C103.44 263.177 116.945 259.934 121.47 268.112C121.614 268.394 122.117 268.112 121.901 267.83C117.878 260.569 105.81 261.274 104.086 270.016Z" fill="#202124"/>
<path d="M132.46 268.183C131.311 267.549 130.88 266.421 129.515 265.857C126.641 264.658 123.624 265.645 121.541 267.76C121.254 268.042 121.613 268.395 121.9 268.183C125.061 265.011 130.089 265.293 132.46 269.241C132.532 269.311 132.675 269.382 132.747 269.382C139.571 267.196 146.683 278.406 140.721 283.059C140.433 283.27 140.864 283.623 141.08 283.411C146.827 278.97 142.086 271.285 136.626 269.029C135.261 268.465 133.681 268.818 132.46 268.183Z" fill="#202124"/>
<path d="M140.363 283.412C142.949 284.117 143.739 287.078 143.021 289.404C142.302 291.801 140.076 293.282 137.561 293.282C137.202 293.282 137.202 293.846 137.561 293.846C140.578 293.775 143.093 291.872 143.667 288.981C144.17 286.514 143.093 283.694 140.507 282.989C140.147 282.777 140.076 283.271 140.363 283.412Z" fill="#202124"/>
<path d="M103.657 282.848C107.823 282.495 110.84 280.169 113.57 277.278C114.001 276.855 114.36 276.432 114.791 276.009C115.869 274.881 116.874 274.74 117.88 275.586C118.455 275.657 119.604 276.221 120.179 276.362C122.19 276.855 124.201 276.714 126.213 276.291C126.572 276.221 126.428 275.727 126.069 275.798C124.129 276.221 122.262 276.362 120.322 275.868C119.173 275.586 117.736 274.458 116.587 274.388C116.012 274.317 116.012 274.317 115.509 274.529C114.145 275.093 112.923 277.208 111.846 278.195C109.475 280.451 106.889 282.072 103.513 282.354C103.298 282.354 103.298 282.918 103.657 282.848Z" fill="#202124"/>
<path d="M126.499 276.08C127.002 279.464 127.721 282.284 130.594 284.399C131.671 285.174 132.964 285.668 133.539 286.796C133.97 287.571 134.114 288.488 134.473 289.263C135.191 290.955 136.125 292.295 137.49 293.564C137.777 293.775 138.136 293.423 137.849 293.211C135.981 291.519 135.119 289.545 134.257 287.219C133.97 286.443 133.826 285.668 133.252 285.104C132.246 284.046 130.378 283.764 129.301 282.566C127.721 280.803 127.361 278.265 127.074 276.009C127.002 275.657 126.428 275.798 126.499 276.08Z" fill="#202124"/>
<path d="M111.845 289.756C111.845 290.729 111.427 291.518 110.911 291.518C110.396 291.518 109.978 290.729 109.978 289.756C109.978 288.782 110.396 287.993 110.911 287.993C111.427 287.993 111.845 288.782 111.845 289.756Z" fill="#202124"/>
<path d="M124.776 288.84C124.776 289.814 124.358 290.603 123.842 290.603C123.326 290.603 122.908 289.814 122.908 288.84C122.908 287.867 123.326 287.078 123.842 287.078C124.358 287.078 124.776 287.867 124.776 288.84Z" fill="#202124"/>
<path d="M109.978 298.005H100.353C98.5568 298.005 97.1201 296.595 97.1201 294.832V284.539C97.1201 282.777 98.5568 281.367 100.353 281.367H109.978C111.774 281.367 113.211 282.777 113.211 284.539V294.832C113.211 296.595 111.774 298.005 109.978 298.005Z" stroke="#202124" stroke-width="0.21045"/>
<path d="M131.023 298.005H121.398C119.602 298.005 118.165 296.595 118.165 294.832V284.539C118.165 282.777 119.602 281.367 121.398 281.367H131.023C132.819 281.367 134.256 282.777 134.256 284.539V294.832C134.256 296.595 132.819 298.005 131.023 298.005Z" stroke="#202124" stroke-width="0.21045"/>
<path d="M113.568 289.826C114.718 288.627 116.657 289.05 117.878 289.896C118.166 290.108 118.453 289.614 118.166 289.473C116.729 288.557 114.502 288.204 113.209 289.544C112.922 289.685 113.281 290.037 113.568 289.826Z" fill="#202124"/>
<path d="M84.1874 374.355C84.1874 381.13 78.5915 386.622 71.6885 386.622C64.7854 386.622 59.1895 381.13 59.1895 374.355C59.1895 367.581 64.7854 362.088 71.6885 362.088C78.5915 362.088 84.1874 367.581 84.1874 374.355Z" fill="white"/>
<path d="M177.211 374.355C177.211 381.13 171.615 386.622 164.712 386.622C157.809 386.622 152.213 381.13 152.213 374.355C152.213 367.581 157.809 362.088 164.712 362.088C171.615 362.088 177.211 367.581 177.211 374.355Z" fill="#709AEE"/>
<path d="M130.665 375.625C130.665 382.4 125.069 387.892 118.166 387.892C111.263 387.892 105.667 382.4 105.667 375.625C105.667 368.85 111.263 363.358 118.166 363.358C125.069 363.358 130.665 368.85 130.665 375.625Z" fill="white"/>
<path d="M145.461 365.895C146.826 365.895 146.826 363.78 145.461 363.78C144.096 363.78 144.096 365.895 145.461 365.895Z" fill="white"/>
<path d="M163.204 377.458H160.547V378.586V379.996V381.265C160.547 381.476 160.69 381.617 160.906 381.617H165.503C166.006 381.617 166.437 381.476 166.868 381.194C167.945 380.701 168.736 379.573 168.736 378.304V370.267C168.736 368.998 167.658 367.94 166.365 367.94H166.221H164.426H161.768C160.978 367.94 160.331 368.575 160.331 369.35V369.914V371.959H162.989V371.324H164.426V378.233H163.204V377.458Z" fill="white"/>
<path d="M123.05 374.355H112.777C112.059 374.355 111.484 373.791 111.484 373.086C111.484 372.381 112.059 371.817 112.777 371.817H122.978C123.696 371.817 124.271 372.381 124.271 373.086C124.343 373.791 123.768 374.355 123.05 374.355Z" fill="#202124"/>
<path d="M123.121 380.207H112.777C112.059 380.207 111.484 379.643 111.484 378.938C111.484 378.233 112.059 377.669 112.777 377.669H123.05C123.768 377.669 124.343 378.233 124.343 378.938C124.414 379.643 123.84 380.207 123.121 380.207Z" fill="#202124"/>
<path d="M78.0103 374.567C78.0103 378.149 75.0515 381.053 71.4016 381.053C67.7518 381.053 64.793 378.149 64.793 374.567C64.793 370.985 67.7518 368.081 71.4016 368.081C75.0515 368.081 78.0103 370.985 78.0103 374.567Z" fill="#709AEE"/>
</g>
<g filter="url(#filter3_d_71_19)">
<path d="M223.4 24.6035V205.154H407.366V24.6035H223.4Z" fill="#F7F7F7"/>
<path d="M224.047 172.091C284.172 172.091 344.296 172.091 404.492 172.091C405.857 172.091 405.857 169.976 404.492 169.976C344.368 169.976 284.243 169.976 224.047 169.976C222.682 169.976 222.682 172.091 224.047 172.091Z" fill="#202124"/>
<path d="M357.801 94.1169C361.105 95.7384 363.763 97.3599 365.631 98.5584C365.918 101.379 366.205 105.538 366.277 110.544C366.493 121.542 365.415 129.579 364.697 135.078C363.476 144.666 362.039 157.003 360.315 174.205C335.532 174.417 310.75 174.558 285.896 174.769C284.674 167.931 283.525 160.951 282.448 153.76C279.79 134.302 278.066 115.831 277.132 98.4174C279.574 96.7959 282.519 95.0334 286.039 93.3414C286.039 93.3414 291.068 90.8739 296.527 89.1114C313.551 83.6124 331.222 85.8684 331.222 85.8684C333.593 86.1504 344.871 87.7014 357.801 94.1169Z" fill="#B1CEFC"/>
<path fill-rule="evenodd" clip-rule="evenodd" d="M294.588 161.793C294.588 158.197 297.608 155.173 301.918 153.693V144.313H323.398V177.093H301.918V169.903C297.608 168.422 294.588 165.388 294.588 161.793ZM301.917 157.144V166.524C300.696 165.184 299.977 163.556 299.977 161.864C299.977 160.172 300.696 158.554 301.917 157.144Z" fill="#040844"/>
<path d="M323.394 144.313C323.394 146.182 318.602 147.697 312.69 147.697C306.779 147.697 301.987 146.182 301.987 144.313C301.987 142.444 306.779 140.929 312.69 140.929C318.602 140.929 323.394 142.444 323.394 144.313Z" fill="white" stroke="#202124" stroke-width="0.21045"/>
<path d="M312.475 155.311C313.84 155.311 313.84 153.196 312.475 153.196C311.038 153.196 311.038 155.311 312.475 155.311Z" fill="#202124"/>
<path d="M308.81 118.017C304.788 119.286 302.058 126.054 305.721 128.945C306.727 129.72 308.595 130.143 309.313 131.201C311.037 133.739 308.954 135.783 308.02 138.039C306.943 140.577 307.158 143.045 309.241 144.948C309.529 145.16 309.888 144.807 309.6 144.596C304.141 139.59 312.546 136.488 310.319 131.835C309.816 130.707 308.81 130.284 307.805 129.65C305.937 128.451 305.434 128.451 304.931 126.125C304.213 124.644 304.357 123.234 305.506 121.965C306.224 120.555 307.374 119.427 308.81 118.581C309.313 118.44 309.169 117.947 308.81 118.017Z" fill="#202124"/>
<path d="M320.231 127.815C320.375 127.744 320.088 127.251 319.8 127.462C317.214 128.802 312.473 133.173 313.694 136.486C314.125 137.685 314.197 137.05 314.916 138.037C315.203 138.249 315.49 138.46 315.778 138.672C316.927 140.223 317.071 141.562 316.065 142.69C315.634 144.1 314.916 144.735 315.849 146.145C316.065 146.427 316.496 146.145 316.28 145.863C315.275 144.312 317.286 142.338 317.502 140.857C317.573 140.293 317.645 139.941 317.358 139.377C317.214 139.095 316.927 138.883 316.783 138.672C316.568 138.46 316.28 138.319 316.065 138.108C315.706 136.416 315.347 134.794 314.987 133.102C315.418 131.128 318.507 128.731 320.231 127.815Z" fill="#202124"/>
<path d="M301.772 177.308C300.766 178.224 299.402 178.436 297.678 178.436C294.014 178.436 290.494 177.308 288.339 176.532C287.693 176.25 285.969 175.404 285.178 173.571C284.245 171.104 285.322 167.72 288.195 165.605C289.919 163.631 290.997 162.221 291.643 161.163C291.859 160.811 292.29 160.106 293.008 159.965C293.87 159.824 294.66 160.458 294.804 160.599C295.666 161.304 295.81 162.291 295.81 162.573C296.313 162.926 297.175 163.349 298.18 163.419C298.54 163.49 299.904 163.56 301.341 162.855C302.49 162.221 302.778 161.586 303.209 161.727C303.424 161.798 303.783 162.15 303.783 164.688C303.783 166.451 303.64 167.297 303.496 168.636C303.209 172.232 303.855 173.289 302.921 175.475C302.419 176.673 301.988 177.167 301.772 177.308Z" fill="#F4DE5B"/>
<path d="M275.624 150.73C281.442 142.975 284.387 141.353 288.841 135.431C293.797 128.804 297.964 123.305 297.533 117.172C296.743 105.539 279.574 98.7001 277.779 97.9951C276.917 98.8411 275.767 100.04 274.402 101.521C272.104 104.059 267.866 108.994 261.688 119.075C255.079 129.862 251.128 138.392 248.686 143.68C242.149 157.921 246.316 152.633 242.724 159.965C241.862 161.728 240.353 164.618 241.215 167.861C242.006 170.752 244.232 172.444 244.807 172.867C247.537 174.911 250.626 175.052 252.062 175.123C258.815 175.475 265.495 176.462 272.247 176.462C276.27 176.462 282.089 176.533 289.272 176.744C289.559 175.475 289.775 173.783 289.559 171.809C289.344 168.989 288.482 166.804 287.835 165.464C281.658 163.702 275.552 161.939 269.374 160.177C270.667 157.921 272.75 154.537 275.624 150.73Z" fill="#B1CEFC"/>
<path d="M287.906 135.854C281.082 143.045 274.976 150.8 269.66 159.119C269.445 159.401 269.948 159.683 270.091 159.401C275.407 151.153 281.441 143.398 288.265 136.207C288.553 135.995 288.122 135.572 287.906 135.854Z" fill="white"/>
<path d="M288.267 166.45C289.991 169.34 289.344 172.654 288.698 175.756C288.626 176.108 289.129 176.249 289.201 175.897C289.919 172.654 290.494 169.199 288.698 166.168C288.554 165.886 288.051 166.097 288.267 166.45Z" fill="white"/>
<path d="M295.736 162.854C298.465 164.475 300.98 163.629 303.422 162.008C303.709 161.796 303.422 161.373 303.135 161.585C300.908 163.136 298.537 163.982 296.023 162.431C295.664 162.219 295.448 162.642 295.736 162.854Z" fill="#202124"/>
<path d="M298.97 167.93C300.837 169.128 303.28 166.238 303.998 164.828C304.142 164.546 303.711 164.264 303.567 164.546C303.208 165.321 302.705 165.956 302.058 166.52C301.412 167.084 300.119 168.071 299.257 167.436C298.97 167.295 298.682 167.718 298.97 167.93Z" fill="#202124"/>
<path d="M299.831 171.526C300.477 172.019 301.268 171.526 301.842 171.103C302.704 170.398 303.423 169.622 303.854 168.635C303.997 168.353 303.494 168.071 303.423 168.353C303.135 168.988 302.704 169.552 302.201 170.116C301.77 170.539 300.837 171.596 300.118 171.103C299.831 170.891 299.544 171.314 299.831 171.526Z" fill="#202124"/>
<path d="M300.909 174.698C302.13 174.346 303.064 173.359 303.208 172.09C303.28 171.737 302.705 171.737 302.633 172.09C302.49 173.077 301.699 173.923 300.766 174.205C300.406 174.275 300.55 174.769 300.909 174.698Z" fill="#202124"/>
<path d="M327.488 172.655C327.776 173.854 328.35 174.77 328.71 175.264C331.439 175.475 334.6 175.546 338.12 175.334C341.711 175.123 344.872 174.559 347.53 173.995C347.171 170.611 346.883 167.368 346.596 164.054C345.734 162.997 344.944 162.221 344.369 161.728C343.004 160.529 342.214 159.824 341.137 159.965C340.849 159.965 340.849 160.036 339.485 160.67C337.545 161.587 337.545 161.587 336.97 161.869C335.677 162.574 335.031 163.279 334.313 163.984C330.721 167.227 328.566 166.663 327.632 168.989C326.986 170.54 327.345 172.232 327.488 172.655Z" fill="#F4DE5B"/>
<path d="M390.197 170.892C395.585 169.835 400.038 168.636 403.127 167.79C404.205 166.944 405.21 166.169 406.288 165.323C405.282 161.516 403.917 156.933 401.978 151.716C399.32 144.525 396.447 138.533 394.148 134.091C390.341 126.759 386.677 119.78 379.997 112.025C376.692 108.288 372.023 103.424 365.486 98.6299C364.624 99.8284 363.762 101.097 362.9 102.507C356.148 114.14 356.866 126.618 358.159 134.303C362.254 141.212 366.42 148.05 370.515 154.959C362.541 157.85 354.496 160.67 346.522 163.56C346.882 167.226 347.241 170.822 347.528 174.488C355.573 174.488 362.326 174.135 367.498 173.712C374.394 173.219 381.29 172.655 390.197 170.892Z" fill="#B1CEFC"/>
<path d="M347.457 172.443C347.529 169.411 347.313 166.45 346.811 163.489C346.739 163.137 346.236 163.278 346.308 163.63C346.811 166.591 347.026 169.482 346.954 172.443C346.882 172.795 347.457 172.795 347.457 172.443Z" fill="white"/>
<path d="M357.945 134.374C361.968 141.071 365.99 147.698 370.013 154.396C370.157 154.678 370.659 154.396 370.444 154.114C366.421 147.416 362.399 140.789 358.376 134.092C358.232 133.88 357.801 134.092 357.945 134.374Z" fill="white"/>
<path d="M338.191 163.349C334.168 164.759 330.433 166.662 326.913 169.13C326.626 169.341 326.913 169.764 327.2 169.553C330.648 167.156 334.384 165.252 338.334 163.842C338.694 163.701 338.55 163.208 338.191 163.349Z" fill="#202124"/>
<path d="M327.633 172.021C331.081 171.175 334.457 170.188 337.761 168.99C338.121 168.849 337.977 168.355 337.618 168.496C334.313 169.695 330.937 170.682 327.489 171.528C327.13 171.598 327.274 172.092 327.633 172.021Z" fill="#202124"/>
<path d="M328.207 173.218C330.937 173.783 333.666 173.571 336.252 172.584C336.54 172.443 336.468 171.948 336.109 172.089C333.595 173.006 331.009 173.218 328.351 172.725C327.992 172.654 327.848 173.148 328.207 173.218Z" fill="#202124"/>
<path d="M327.848 175.264C331.296 176.11 334.672 176.181 338.12 175.476C338.479 175.405 338.335 174.912 337.976 174.982C334.6 175.687 331.296 175.617 327.991 174.771C327.632 174.7 327.489 175.194 327.848 175.264Z" fill="#202124"/>
<path d="M323.392 65.7751C324.829 66.6916 325.763 67.6786 326.122 68.1721C327.702 70.0051 328.205 71.9086 328.492 73.1071C329.067 75.2221 329.354 76.4206 328.78 77.4076C328.564 77.7601 327.63 79.1701 322.961 79.0996C319.944 78.9586 313.982 78.2536 305.937 73.0366C305.29 72.6841 303.925 71.8381 302.92 70.2871C302.704 69.8641 300.98 66.9736 302.345 63.6601C303.279 61.4746 305.29 59.7826 307.517 59.4301C309.313 59.1481 310.965 59.9236 314.269 61.4746C316.855 62.7436 316.784 63.0961 319.082 64.0126C321.022 64.7881 321.884 64.7881 323.392 65.7751Z" fill="#202124"/>
<path d="M316.068 91.0153C316.427 91.7203 316.786 92.4253 317.073 93.1303C317.001 93.1303 315.708 93.2713 315.206 94.2583C314.703 95.3158 315.421 96.3733 315.493 96.4438C316.642 97.9948 319.444 97.5718 320.09 97.4308C322.461 97.0783 324.041 95.6683 324.759 95.0338C325.765 94.1173 326.412 93.2008 326.771 92.4958C325.837 92.3548 324.903 92.2138 323.969 92.0728C323.538 91.2268 323.107 90.3808 322.676 89.5348C323.179 89.2528 323.826 88.7593 324.544 88.1248C324.544 88.1248 325.55 87.2083 326.34 86.0803C329.931 80.9338 328.638 76.6333 328.638 76.6333C327.705 73.4608 325.047 71.8393 323.969 71.1343C320.306 68.8078 316.499 69.1603 314.99 69.3013C310.536 69.8653 307.448 72.0508 306.155 73.0378C305.939 74.0248 305.652 75.5053 305.652 77.2678C305.652 79.3828 305.58 82.0618 307.232 84.8818C309.172 88.2658 312.332 89.8168 313.697 90.3103C314.631 90.6628 315.493 90.8743 316.068 91.0153Z" fill="#F4DE5B"/>
<path d="M313.985 74.1661C312.979 77.0566 312.045 81.0751 314.272 83.6836C314.487 83.9656 314.847 83.5426 314.631 83.3311C312.62 80.9341 313.554 76.9861 314.487 74.3071C314.631 73.9546 314.128 73.8136 313.985 74.1661Z" fill="#202124"/>
<path d="M315.778 91.0854C316.209 92.1429 316.712 93.2004 317.431 94.1874C317.646 94.4694 318.077 94.1874 317.862 93.9054C317.215 92.9889 316.712 92.0019 316.281 90.9444C316.138 90.5919 315.635 90.7329 315.778 91.0854Z" fill="#202124"/>
<path d="M305.723 73.2489C306.082 73.4604 306.369 73.0374 306.01 72.8259C301.628 70.2174 300.335 63.8019 305.148 60.6999C309.602 57.8094 312.691 61.4049 316.354 63.3084C319.156 64.7889 322.388 65.0709 324.759 67.2564C327.416 69.6534 328.566 73.1079 328.278 76.5624C328.278 76.9149 328.781 76.9149 328.853 76.5624C329.212 72.6144 327.632 68.6664 324.399 66.1989C322.101 64.4364 319.227 64.0839 316.641 62.8149C314.415 61.6869 312.906 59.7129 310.392 59.2194C301.485 57.4569 298.683 69.0894 305.723 73.2489Z" fill="#202124"/>
<path d="M306.298 73.2493C312.619 67.3273 325.262 68.1028 328.351 76.8448C328.494 77.1973 328.997 77.0563 328.854 76.7038C325.621 67.5388 312.547 66.6928 305.867 72.8968C305.723 73.1083 306.082 73.4608 306.298 73.2493Z" fill="#202124"/>
<path d="M320.375 75.7159C320.375 76.5336 319.989 77.1964 319.513 77.1964C319.037 77.1964 318.651 76.5336 318.651 75.7159C318.651 74.8983 319.037 74.2354 319.513 74.2354C319.989 74.2354 320.375 74.8983 320.375 75.7159Z" fill="#202124"/>
<path d="M312.116 67.2576C313.48 67.2576 313.48 65.1426 312.116 65.1426C310.679 65.1426 310.679 67.2576 312.116 67.2576Z" fill="#202124"/>
<path d="M314.344 86.4331C316.57 86.7151 318.725 86.0101 320.306 84.4591C320.521 84.2476 320.162 83.8246 319.947 84.1066C318.438 85.5166 316.427 86.1511 314.344 85.9396C313.984 85.8691 313.984 86.3626 314.344 86.4331Z" fill="#202124"/>
<path d="M311.183 75.7159C311.183 76.5336 310.797 77.1964 310.321 77.1964C309.845 77.1964 309.459 76.5336 309.459 75.7159C309.459 74.8983 309.845 74.2354 310.321 74.2354C310.797 74.2354 311.183 74.8983 311.183 75.7159Z" fill="#202124"/>
<path d="M284.674 186.049C284.674 192.824 279.078 198.316 272.175 198.316C265.272 198.316 259.676 192.824 259.676 186.049C259.676 179.274 265.272 173.782 272.175 173.782C279.078 173.782 284.674 179.274 284.674 186.049Z" fill="white"/>
<path d="M377.697 186.049C377.697 192.824 372.101 198.316 365.198 198.316C358.295 198.316 352.699 192.824 352.699 186.049C352.699 179.274 358.295 173.782 365.198 173.782C372.101 173.782 377.697 179.274 377.697 186.049Z" fill="#EB506E"/>
<path d="M331.151 187.319C331.151 194.094 325.555 199.586 318.652 199.586C311.749 199.586 306.153 194.094 306.153 187.319C306.153 180.544 311.749 175.052 318.652 175.052C325.555 175.052 331.151 180.544 331.151 187.319Z" fill="white"/>
<path d="M345.947 177.59C347.312 177.59 347.312 175.475 345.947 175.475C344.583 175.475 344.583 177.59 345.947 177.59Z" fill="white"/>
<path d="M361.033 192.959C361.033 193.171 361.177 193.312 361.392 193.312H365.989C366.492 193.312 366.923 193.171 367.354 192.889C368.432 192.395 369.222 191.267 369.222 189.998V181.961C369.222 180.692 368.144 179.635 366.851 179.635H366.708H364.912H362.254C361.464 179.635 360.817 180.269 360.817 181.045V181.609V183.653H363.475V183.019H364.912V189.928H363.691V189.152H361.033V190.28V191.69V192.959Z" fill="white"/>
<path d="M323.536 186.05H313.336C312.618 186.05 312.043 185.486 312.043 184.781C312.043 184.076 312.618 183.512 313.336 183.512H323.536C324.255 183.512 324.829 184.076 324.829 184.781C324.829 185.486 324.255 186.05 323.536 186.05Z" fill="#202124"/>
<path d="M323.608 191.9H313.336C312.618 191.9 312.043 191.336 312.043 190.631C312.043 189.926 312.618 189.362 313.336 189.362H323.608C324.326 189.362 324.901 189.926 324.901 190.631C324.901 191.336 324.326 191.9 323.608 191.9Z" fill="#202124"/>
<path d="M278.497 186.26C278.497 189.843 275.538 192.746 271.888 192.746C268.238 192.746 265.279 189.843 265.279 186.26C265.279 182.678 268.238 179.774 271.888 179.774C275.538 179.774 278.497 182.678 278.497 186.26Z" fill="#5185EC" stroke="#5185EC" stroke-width="0.2806"/>
</g>
<g filter="url(#filter4_d_71_19)">
<path d="M24.0645 24.6035V205.154H208.03V24.6035H24.0645Z" fill="#F7F7F7"/>
<path d="M33.1152 71.417V113.858H89.2889V71.417H33.1152Z" fill="white"/>
<path d="M46.9067 80.3C46.9067 83.1813 44.5268 85.517 41.5911 85.517C38.6553 85.517 36.2754 83.1813 36.2754 80.3C36.2754 77.4187 38.6553 75.083 41.5911 75.083C44.5268 75.083 46.9067 77.4187 46.9067 80.3Z" fill="#EB506E"/>
<path d="M49.3488 78.6785C50.7137 78.6785 50.7137 76.5635 49.3488 76.5635C47.984 76.5635 47.984 78.6785 49.3488 78.6785Z" fill="#202124"/>
<path d="M52.3652 77.691C61.0571 77.691 69.8208 77.691 78.5126 77.691C78.8717 77.691 78.8717 77.127 78.5126 77.127C69.8208 77.127 61.0571 77.127 52.3652 77.127C52.0779 77.1975 52.0061 77.691 52.3652 77.691Z" fill="#202124"/>
<path d="M49.493 80.5113C52.2945 80.5113 55.0242 80.5113 57.8257 80.5113C58.1848 80.5113 58.1848 79.9473 57.8257 79.9473C55.0242 79.9473 52.2945 79.9473 49.493 79.9473C49.1338 80.0178 49.1338 80.5113 49.493 80.5113Z" fill="#202124"/>
<path d="M49.2059 83.6822C59.6217 83.6822 69.9657 83.6822 80.3816 83.6822C80.7407 83.6822 80.7407 83.1182 80.3816 83.1182C69.9657 83.1182 59.6217 83.1182 49.2059 83.1182C48.8467 83.1182 48.8467 83.6822 49.2059 83.6822Z" fill="#202124"/>
<path d="M64.7928 81.0035C69.2465 81.0035 73.772 81.0035 78.2256 81.0035C78.5848 81.0035 78.5848 80.4395 78.2256 80.4395C73.772 80.4395 69.2465 80.4395 64.7928 80.4395C64.4336 80.4395 64.4336 81.0035 64.7928 81.0035Z" fill="#202124"/>
<path d="M38.5037 92.0025C51.2901 92.0025 64.0046 92.0025 76.7909 92.0025C77.1501 92.0025 77.1501 91.4385 76.7909 91.4385C64.0046 91.4385 51.2901 91.4385 38.5037 91.4385C38.1446 91.4385 38.1446 92.0025 38.5037 92.0025Z" fill="#202124"/>
<path d="M39.077 94.8228C41.4475 94.8228 43.818 94.8228 46.1885 94.8228C46.5477 94.8228 46.5477 94.2588 46.1885 94.2588C43.818 94.2588 41.4475 94.2588 39.077 94.2588C38.7178 94.2588 38.7178 94.8228 39.077 94.8228Z" fill="#202124"/>
<path d="M40.4422 97.7827C45.3269 97.7827 50.2116 97.7827 55.0962 97.7827C55.4554 97.7827 55.4554 97.2188 55.0962 97.2188C50.2116 97.2188 45.3269 97.2188 40.4422 97.2188C40.0831 97.2188 40.0831 97.7827 40.4422 97.7827Z" fill="#202124"/>
<path d="M57.6834 95.2447C62.3526 95.2447 66.9499 95.2447 71.6191 95.2447C71.9783 95.2447 71.9783 94.6807 71.6191 94.6807C66.9499 94.6807 62.3526 94.6807 57.6834 94.6807C57.3243 94.6807 57.3243 95.2447 57.6834 95.2447Z" fill="#202124"/>
<path d="M38.9325 101.028C51.8625 101.028 64.7206 101.028 77.6506 101.028C78.0098 101.028 78.0098 100.464 77.6506 100.464C64.7206 100.464 51.8625 100.464 38.9325 100.464C38.5733 100.534 38.5733 101.028 38.9325 101.028Z" fill="#202124"/>
<path d="M33.1152 38.4932V65.5652H130.378V38.4932H33.1152Z" fill="#709AEE"/>
<path d="M38.3596 47.1638C61.7054 47.1638 84.9794 47.1638 108.325 47.1638C109.69 47.1638 109.69 45.0488 108.325 45.0488C84.9794 45.0488 61.7054 45.0488 38.3596 45.0488C36.9947 45.0488 36.9947 47.1638 38.3596 47.1638Z" fill="white"/>
<path d="M38.6462 52.0995C44.1773 52.0995 49.6367 52.0995 55.1678 52.0995C55.8862 52.0995 55.8862 51.042 55.1678 51.042C49.6367 51.042 44.1773 51.042 38.6462 51.042C37.9278 51.042 37.9278 52.0995 38.6462 52.0995Z" fill="white"/>
<path d="M60.0534 52.3807C75.3539 52.3807 90.5826 52.3807 105.883 52.3807C106.601 52.3807 106.601 51.3232 105.883 51.3232C90.5826 51.3232 75.3539 51.3232 60.0534 51.3232C59.3351 51.3232 59.3351 52.3807 60.0534 52.3807Z" fill="white"/>
<path d="M38.9323 55.9061C59.6921 55.9061 80.3801 55.9061 101.14 55.9061C101.858 55.9061 101.858 54.8486 101.14 54.8486C80.3801 54.8486 59.6921 54.8486 38.9323 54.8486C38.214 54.8486 38.214 55.9061 38.9323 55.9061Z" fill="white"/>
<path d="M70.2533 90.6622C69.3913 90.8737 67.5955 91.3672 66.1588 92.9887C65.5841 93.6232 64.1475 95.1742 64.5785 96.9367C64.794 97.9237 65.5841 98.6287 66.6616 99.6157C67.3081 100.251 67.9546 100.674 68.3856 100.885C68.6011 101.308 69.0321 101.872 69.3913 102.718C70.5406 104.904 70.6125 105.82 71.4026 107.019C71.8336 107.653 72.6238 108.499 73.9886 109.275C78.586 108.147 79.6635 106.666 79.9508 105.679C80.0945 104.974 79.8071 104.904 79.6635 102.718C79.448 100.039 79.879 99.1927 79.1606 98.2057C78.8733 97.7827 78.2986 97.2187 77.0056 96.8662C75.0661 93.6232 74.2041 90.8032 73.7013 88.7587C73.3421 86.9962 72.983 84.5287 71.259 83.6122C71.0435 83.5417 70.397 83.1892 69.8223 83.4007C68.8885 83.8237 68.9603 85.6567 68.9603 86.4322C68.9603 87.2782 69.1758 88.8292 70.2533 90.6622Z" fill="#F7CD5B"/>
<path d="M121.974 134.585C123.554 130.708 125.278 126.407 124.775 120.838C123.985 112.025 118.023 106.033 115.509 103.847C114.575 104.2 113.21 104.764 111.63 105.68C108.972 107.302 107.32 109.135 105.093 111.884C102.291 115.339 100.424 117.595 97.5504 121.895C96.0419 124.081 94.1024 127.042 91.9474 130.708C90.2234 127.465 88.4994 124.081 86.8472 120.556C84.5486 115.409 82.3217 110.404 80.2385 105.469C79.5202 105.469 78.3709 105.539 77.1497 106.103C74.5637 107.372 73.7736 109.981 73.6299 110.474C74.8511 115.973 75.8567 120.415 76.4314 123.235C78.73 133.88 81.9625 144.385 84.4767 155.03C84.4767 155.03 84.9796 157.145 86.4162 160.177C88.2839 163.984 89.5769 164.689 90.0797 164.9C91.66 165.605 93.2404 165.253 93.9587 165.112C95.6827 164.759 96.832 163.913 97.5504 163.349C101.86 160.106 103.944 158.485 104.734 157.78C108.541 154.184 111.127 150.941 112.204 149.602C116.874 143.75 119.747 140.084 121.974 134.585Z" fill="#040844"/>
<path d="M75.5703 100.675C74.3491 101.591 72.6251 100.534 72.9843 99.0532C73.0561 98.7007 72.5533 98.5597 72.4815 98.9122C71.9786 100.816 74.2055 102.367 75.8576 101.168C76.0731 100.957 75.8576 100.534 75.5703 100.675Z" fill="#202124"/>
<path d="M69.751 88.1958C69.1045 86.7858 68.458 84.8118 69.9665 83.6838C70.2538 83.4723 69.9665 83.0493 69.6792 83.2608C67.8833 84.6003 68.458 86.7858 69.2482 88.4778C69.3918 88.7598 69.8947 88.4778 69.751 88.1958Z" fill="#202124"/>
<path d="M68.172 91.0148C67.3818 91.4378 67.31 92.4248 67.3818 93.2003C67.5255 94.4693 68.172 95.5973 68.8903 96.6548C69.1058 96.9368 69.5368 96.6548 69.3213 96.3728C68.8903 95.7383 68.5312 95.1743 68.2438 94.4693C67.9565 93.7643 67.4537 92.0018 68.3875 91.4378C68.7467 91.2968 68.4593 90.8033 68.172 91.0148Z" fill="#202124"/>
<path d="M66.015 92.8491C65.2249 94.6116 65.584 96.6561 66.9489 98.0661C67.1644 98.2776 67.5954 97.9251 67.308 97.7136C66.0869 96.5151 65.7277 94.7526 66.446 93.2016C66.5897 92.7786 66.1587 92.5671 66.015 92.8491Z" fill="#202124"/>
<path d="M64.651 95.1747C63.9327 96.7962 64.5074 98.6292 65.944 99.6162C66.2314 99.8277 66.5187 99.3342 66.2314 99.1932C65.0102 98.4177 64.5074 96.7962 65.082 95.5272C65.2975 95.1747 64.7947 94.8927 64.651 95.1747Z" fill="#202124"/>
<path d="M180.518 120.697C176.639 118.159 170.82 114.352 162.703 110.897C158.824 109.276 151.784 106.597 142.59 104.975C132.102 103.072 122.907 103.142 115.652 103.918C115.221 105.751 114.79 108.007 114.359 110.686C114.216 111.461 114 113.153 113.785 115.198C113.354 119.075 113.282 122.248 113.21 124.856C112.994 133.951 112.851 140.789 113.21 148.615C114.216 172.303 119.531 200.291 120.393 204.874C141.728 204.874 163.134 204.874 184.469 204.874C185.905 194.51 186.839 185.698 187.414 178.93C188.491 166.804 189.569 153.973 188.779 137.264C188.563 132.611 188.276 128.663 187.988 125.984C186.193 124.574 183.678 122.741 180.518 120.697Z" fill="#040844"/>
<path d="M113.211 119.991C111.128 148.402 114.792 176.743 120.035 204.661C120.107 205.014 120.61 204.873 120.538 204.52C115.294 176.673 111.631 148.332 113.714 119.991C113.786 119.709 113.211 119.709 113.211 119.991Z" fill="white"/>
<path d="M188.062 131.694C190.002 156.017 187.2 180.339 184.039 204.521C183.968 204.873 184.542 204.873 184.614 204.521C187.775 180.41 190.576 156.087 188.637 131.694C188.565 131.412 188.062 131.412 188.062 131.694Z" fill="#202124"/>
<path d="M180.086 127.181C172.687 134.654 169.742 143.325 168.449 149.036C169.814 152.208 171.179 155.381 172.544 158.553C179.512 174.557 186.695 189.926 194.022 204.872C198.619 204.872 203.217 204.872 207.742 204.872C207.742 192.746 207.742 180.69 207.742 168.564C205.084 161.726 202.714 156.086 200.918 151.997C198.116 145.652 196.536 142.056 193.95 137.474C190.502 131.199 187.054 126.405 184.612 123.233C183.103 124.361 181.595 125.63 180.086 127.181Z" fill="#040844"/>
<path d="M168.162 149.108C175.92 167.367 184.181 185.345 193.088 203.111C193.232 203.393 193.735 203.181 193.519 202.829C184.612 185.133 176.351 167.156 168.665 148.967C168.521 148.614 168.019 148.755 168.162 149.108Z" fill="white"/>
<path d="M151.425 92.4258C146.899 89.6058 140.075 89.8878 136.627 93.4833C135.406 94.7523 134.831 96.1623 134.616 96.8673C134.328 97.6428 133.179 100.956 134.544 104.622C134.759 105.186 135.334 106.596 136.555 108.006C138.495 110.191 140.721 111.037 141.224 111.178C143.667 112.024 145.822 111.742 146.827 111.601C146.971 111.954 147.186 112.377 147.33 112.729C147.186 112.729 146.324 112.8 145.822 113.505C145.247 114.28 145.606 115.197 145.75 115.479C146.181 116.677 147.402 117.171 147.617 117.241C149.126 117.876 150.634 117.171 151.353 116.889C154.37 115.549 155.591 112.447 155.878 111.531C155.591 110.896 155.304 110.262 154.944 109.557C154.513 108.64 154.011 107.794 153.508 107.019C153.795 106.102 154.226 104.763 154.729 103.071C155.806 99.4758 155.878 99.0528 155.878 98.6298C155.878 95.2458 151.927 92.7078 151.425 92.4258Z" fill="#F7CD5B"/>
<path d="M178.722 81.076C177.86 79.5955 175.705 75.7885 171.107 74.167C169.671 73.6735 166.582 72.5455 163.565 73.6735C162.631 74.026 161.554 74.59 159.758 74.8015C158.752 74.872 157.603 75.013 156.597 74.449C155.232 73.6735 155.376 72.475 154.298 71.77C152.574 70.642 149.917 71.9815 149.342 72.2635C147.187 73.3915 146.325 75.3655 145.822 76.3525C144.457 79.384 144.96 82.2745 145.247 83.5435C144.17 83.332 142.518 83.191 140.65 83.5435C139.501 83.755 137.058 84.2485 135.047 86.293C134.113 87.2095 132.964 88.3375 132.964 90.1C133.036 92.7085 135.478 94.189 135.694 94.33C135.981 94.048 136.484 93.6955 137.058 93.2725C137.633 92.92 139.213 92.1445 142.446 92.215C144.529 92.2855 148.121 92.356 151.353 94.753C152.215 95.3875 153.293 96.2335 154.083 97.714C155.376 100.252 154.729 102.79 154.514 103.636C154.873 103.001 155.232 102.296 155.591 101.662C155.879 102.226 156.597 103.495 158.034 104.411C158.249 104.552 159.183 105.116 160.835 105.469C161.841 105.68 163.421 105.892 166.079 105.469C168.162 105.116 171.036 104.623 174.124 102.508C175.13 101.803 177.285 100.322 178.937 97.5025C180.805 94.33 180.877 91.2985 180.949 89.8885C181.02 85.306 179.225 82.063 178.722 81.076Z" fill="#5492ED"/>
<path d="M146.54 111.601C146.899 112.447 147.259 113.223 147.761 113.998C147.977 114.28 148.408 113.998 148.192 113.716C147.761 113.011 147.33 112.236 147.043 111.46C146.971 111.178 146.468 111.319 146.54 111.601Z" fill="#202124"/>
<path d="M140.218 95.034C139.069 96.5145 135.621 102.647 139.356 103.141C139.715 103.211 139.715 102.647 139.356 102.577C137.56 102.365 138.566 99.3345 138.925 98.418C139.356 97.29 139.931 96.303 140.649 95.3865C140.793 95.175 140.434 94.8225 140.218 95.034Z" fill="#202124"/>
<path d="M139.429 105.609C141.153 105.962 142.949 105.327 144.026 103.988C144.242 103.706 143.882 103.353 143.667 103.635C142.661 104.834 141.153 105.398 139.572 105.116C139.213 105.045 139.07 105.539 139.429 105.609Z" fill="#202124"/>
<path d="M142.901 97.4247C143.17 97.4929 143.283 97.9453 143.154 98.4354C143.026 98.9255 142.703 99.2676 142.434 99.1994C142.165 99.1313 142.052 98.6789 142.181 98.1888C142.31 97.6987 142.632 97.3566 142.901 97.4247Z" fill="#202124"/>
<path d="M137.507 96.995C137.776 97.0632 137.89 97.5157 137.761 98.0058C137.632 98.4959 137.309 98.838 137.041 98.7698C136.772 98.7017 136.658 98.2492 136.787 97.7591C136.916 97.269 137.239 96.9269 137.507 96.995Z" fill="#202124"/>
<path d="M151.64 84.4594C152.789 84.9529 154.369 85.7284 156.021 87.1384C158.607 89.3239 159.829 91.8619 160.403 93.2719C161.409 90.5929 160.691 87.5614 158.536 85.7284C156.596 84.1069 154.01 83.6839 151.64 84.4594Z" fill="#EB506E"/>
<path d="M83.04 185.98C83.04 192.755 77.444 198.247 70.541 198.247C63.638 198.247 58.042 192.755 58.042 185.98C58.042 179.205 63.638 173.713 70.541 173.713C77.444 173.713 83.04 179.205 83.04 185.98Z" fill="white"/>
<path d="M176.063 185.98C176.063 192.755 170.467 198.247 163.564 198.247C156.661 198.247 151.065 192.755 151.065 185.98C151.065 179.205 156.661 173.713 163.564 173.713C170.467 173.713 176.063 179.205 176.063 185.98Z" fill="#EB506E"/>
<path d="M129.518 187.247C129.518 194.022 123.922 199.514 117.019 199.514C110.116 199.514 104.52 194.022 104.52 187.247C104.52 180.473 110.116 174.98 117.019 174.98C123.922 174.98 129.518 180.473 129.518 187.247Z" fill="white"/>
<path d="M144.387 177.449C145.752 177.449 145.752 175.334 144.387 175.334C142.95 175.334 142.95 177.449 144.387 177.449Z" fill="white"/>
<path d="M160.62 179.564C159.83 179.564 159.184 180.198 159.184 180.974V181.538V183.582H161.841V182.948H163.278V189.857H162.057V189.081H159.471V190.209V191.619V192.888C159.471 193.1 159.615 193.241 159.83 193.241H164.427C164.93 193.241 165.361 193.1 165.792 192.818C166.87 192.324 167.66 191.196 167.66 189.927V181.89C167.588 180.621 166.511 179.564 165.218 179.564H165.074H163.278H160.62Z" fill="white"/>
<path d="M121.903 185.978H111.702C110.984 185.978 110.409 185.414 110.409 184.709C110.409 184.004 110.984 183.44 111.702 183.44H121.903C122.621 183.44 123.196 184.004 123.196 184.709C123.196 185.343 122.621 185.978 121.903 185.978Z" fill="#202124"/>
<path d="M121.974 191.83H111.702C110.984 191.83 110.409 191.266 110.409 190.561C110.409 189.856 110.984 189.292 111.702 189.292H121.974C122.693 189.292 123.267 189.856 123.267 190.561C123.267 191.196 122.693 191.83 121.974 191.83Z" fill="#202124"/>
<path d="M76.8628 186.19C76.8628 189.772 73.904 192.676 70.2542 192.676C66.6043 192.676 63.6455 189.772 63.6455 186.19C63.6455 182.607 66.6043 179.704 70.2542 179.704C73.904 179.704 76.8628 182.607 76.8628 186.19Z" fill="#5185EC" stroke="#5185EC" stroke-width="0.2806"/>
</g>
</g>
<defs>
<filter id="filter0_d_71_19" x="-4" y="0" width="439" height="431" filterUnits="userSpaceOnUse" color-interpolation-filters="sRGB">
<feFlood flood-opacity="0" result="BackgroundImageFix"/>
<feColorMatrix in="SourceAlpha" type="matrix" values="0 0 0 0 0 0 0 0 0 0 0 0 0 0 0 0 0 0 127 0" result="hardAlpha"/>
<feOffset dy="4"/>
<feGaussianBlur stdDeviation="2"/>
<feComposite in2="hardAlpha" operator="out"/>
<feColorMatrix type="matrix" values="0 0 0 0 0 0 0 0 0 0 0 0 0 0 0 0 0 0 0.25 0"/>
<feBlend mode="normal" in2="BackgroundImageFix" result="effect1_dropShadow_71_19"/>
<feBlend mode="normal" in="SourceGraphic" in2="effect1_dropShadow_71_19" result="shape"/>
</filter>
<filter id="filter1_d_71_19" x="215.545" y="213.114" width="199.965" height="196.551" filterUnits="userSpaceOnUse" color-interpolation-filters="sRGB">
<feFlood flood-opacity="0" result="BackgroundImageFix"/>
<feColorMatrix in="SourceAlpha" type="matrix" values="0 0 0 0 0 0 0 0 0 0 0 0 0 0 0 0 0 0 127 0" result="hardAlpha"/>
<feOffset dy="2"/>
<feGaussianBlur stdDeviation="4"/>
<feComposite in2="hardAlpha" operator="out"/>
<feColorMatrix type="matrix" values="0 0 0 0 0 0 0 0 0 0 0 0 0 0 0 0 0 0 0.25 0"/>
<feBlend mode="normal" in2="BackgroundImageFix" result="effect1_dropShadow_71_19"/>
<feBlend mode="normal" in="SourceGraphic" in2="effect1_dropShadow_71_19" result="shape"/>
</filter>
<filter id="filter2_d_71_19" x="13.6943" y="213.114" width="199.965" height="196.551" filterUnits="userSpaceOnUse" color-interpolation-filters="sRGB">
<feFlood flood-opacity="0" result="BackgroundImageFix"/>
<feColorMatrix in="SourceAlpha" type="matrix" values="0 0 0 0 0 0 0 0 0 0 0 0 0 0 0 0 0 0 127 0" result="hardAlpha"/>
<feOffset dy="2"/>
<feGaussianBlur stdDeviation="4"/>
<feComposite in2="hardAlpha" operator="out"/>
<feColorMatrix type="matrix" values="0 0 0 0 0 0 0 0 0 0 0 0 0 0 0 0 0 0 0.25 0"/>
<feBlend mode="normal" in2="BackgroundImageFix" result="effect1_dropShadow_71_19"/>
<feBlend mode="normal" in="SourceGraphic" in2="effect1_dropShadow_71_19" result="shape"/>
</filter>
<filter id="filter3_d_71_19" x="215.023" y="18.6035" width="200.343" height="196.55" filterUnits="userSpaceOnUse" color-interpolation-filters="sRGB">
<feFlood flood-opacity="0" result="BackgroundImageFix"/>
<feColorMatrix in="SourceAlpha" type="matrix" values="0 0 0 0 0 0 0 0 0 0 0 0 0 0 0 0 0 0 127 0" result="hardAlpha"/>
<feOffset dy="2"/>
<feGaussianBlur stdDeviation="4"/>
<feComposite in2="hardAlpha" operator="out"/>
<feColorMatrix type="matrix" values="0 0 0 0 0 0 0 0 0 0 0 0 0 0 0 0 0 0 0.25 0"/>
<feBlend mode="normal" in2="BackgroundImageFix" result="effect1_dropShadow_71_19"/>
<feBlend mode="normal" in="SourceGraphic" in2="effect1_dropShadow_71_19" result="shape"/>
</filter>
<filter id="filter4_d_71_19" x="16.0645" y="18.6035" width="199.966" height="196.55" filterUnits="userSpaceOnUse" color-interpolation-filters="sRGB">
<feFlood flood-opacity="0" result="BackgroundImageFix"/>
<feColorMatrix in="SourceAlpha" type="matrix" values="0 0 0 0 0 0 0 0 0 0 0 0 0 0 0 0 0 0 127 0" result="hardAlpha"/>
<feOffset dy="2"/>
<feGaussianBlur stdDeviation="4"/>
<feComposite in2="hardAlpha" operator="out"/>
<feColorMatrix type="matrix" values="0 0 0 0 0 0 0 0 0 0 0 0 0 0 0 0 0 0 0.25 0"/>
<feBlend mode="normal" in2="BackgroundImageFix" result="effect1_dropShadow_71_19"/>
<feBlend mode="normal" in="SourceGraphic" in2="effect1_dropShadow_71_19" result="shape"/>
</filter>
</defs>
</svg>
