<svg width="201" height="19" viewBox="0 0 201 19" fill="none" xmlns="http://www.w3.org/2000/svg">
<path d="M5.6234e-06 16.9418V15.6587L4.81877 10.3838C5.38428 9.76598 5.85 9.22898 6.21592 8.77276C6.58184 8.3118 6.85272 7.87935 7.02855 7.47541C7.20914 7.06671 7.29943 6.63901 7.29943 6.1923C7.29943 5.67906 7.17587 5.23473 6.92876 4.8593C6.68639 4.48388 6.35374 4.19399 5.93079 3.98965C5.50784 3.7853 5.03262 3.68313 4.50512 3.68313C3.94436 3.68313 3.45488 3.79956 3.03668 4.03242C2.62324 4.26052 2.30246 4.5813 2.07435 4.99474C1.851 5.40819 1.73932 5.89291 1.73932 6.44892H0.0570323C0.0570323 5.59352 0.25425 4.84267 0.648685 4.19637C1.04312 3.55006 1.58012 3.04633 2.25969 2.68516C2.94401 2.32399 3.7115 2.1434 4.56215 2.1434C5.41755 2.1434 6.17553 2.32399 6.83609 2.68516C7.49665 3.04633 8.01464 3.53343 8.39007 4.14647C8.76549 4.75951 8.95321 5.44145 8.95321 6.1923C8.95321 6.72931 8.85579 7.25443 8.66095 7.76767C8.47086 8.27616 8.1382 8.84405 7.66298 9.47134C7.19251 10.0939 6.53907 10.8542 5.70268 11.7524L2.42364 15.2596V15.3736H9.20983V16.9418H5.6234e-06ZM13.4084 17.0559C13.0568 17.0559 12.755 16.93 12.5031 16.6781C12.2513 16.4262 12.1253 16.1245 12.1253 15.7728C12.1253 15.4211 12.2513 15.1194 12.5031 14.8675C12.755 14.6156 13.0568 14.4897 13.4084 14.4897C13.7601 14.4897 14.0619 14.6156 14.3137 14.8675C14.5656 15.1194 14.6915 15.4211 14.6915 15.7728C14.6915 16.0057 14.6321 16.2195 14.5133 16.4144C14.3993 16.6092 14.2448 16.766 14.05 16.8848C13.8599 16.9989 13.646 17.0559 13.4084 17.0559ZM22.0658 17.1414C21.1249 17.1414 20.2861 16.9799 19.5495 16.6567C18.8176 16.3336 18.2355 15.8845 17.803 15.3095C17.3753 14.7297 17.1425 14.0572 17.1045 13.2921H18.9008C18.9388 13.7626 19.1004 14.1689 19.3855 14.5111C19.6707 14.8485 20.0437 15.1099 20.5047 15.2952C20.9657 15.4805 21.4765 15.5732 22.0373 15.5732C22.6646 15.5732 23.2206 15.4639 23.7053 15.2453C24.19 15.0267 24.5702 14.7226 24.8459 14.3329C25.1215 13.9432 25.2593 13.4917 25.2593 12.9785C25.2593 12.4415 25.1262 11.9686 24.8601 11.5599C24.594 11.1465 24.2043 10.8234 23.6911 10.5905C23.1778 10.3576 22.5505 10.2412 21.8092 10.2412H20.6401V8.67297H21.8092C22.3889 8.67297 22.8974 8.56842 23.3346 8.35932C23.7766 8.15022 24.1211 7.85558 24.3683 7.47541C24.6201 7.09523 24.7461 6.64852 24.7461 6.13528C24.7461 5.64104 24.6368 5.21097 24.4182 4.84505C24.1995 4.47912 23.8907 4.19399 23.4915 3.98965C23.097 3.7853 22.6313 3.68313 22.0943 3.68313C21.5906 3.68313 21.1154 3.7758 20.6686 3.96113C20.2267 4.14172 19.8655 4.40547 19.5851 4.75238C19.3048 5.09454 19.1527 5.50798 19.1289 5.99271H17.4181C17.4466 5.2276 17.6771 4.55754 18.1096 3.98252C18.542 3.40274 19.1075 2.95128 19.8061 2.62813C20.5094 2.30498 21.2817 2.1434 22.1228 2.1434C23.0257 2.1434 23.8004 2.32636 24.4467 2.69229C25.093 3.05346 25.5896 3.53105 25.9365 4.12508C26.2834 4.71911 26.4569 5.36066 26.4569 6.04974C26.4569 6.87187 26.2406 7.57283 25.8082 8.1526C25.3805 8.73237 24.7983 9.13393 24.0617 9.35729V9.47134C24.9837 9.62341 25.7036 10.0155 26.2216 10.6475C26.7396 11.2748 26.9986 12.0518 26.9986 12.9785C26.9986 13.7721 26.7824 14.4849 26.3499 15.117C25.9222 15.7443 25.3377 16.2385 24.5964 16.5997C23.855 16.9609 23.0115 17.1414 22.0658 17.1414ZM30.7178 17.0559C30.3662 17.0559 30.0644 16.93 29.8125 16.6781C29.5607 16.4262 29.4347 16.1245 29.4347 15.7728C29.4347 15.4211 29.5607 15.1194 29.8125 14.8675C30.0644 14.6156 30.3662 14.4897 30.7178 14.4897C31.0695 14.4897 31.3713 14.6156 31.6231 14.8675C31.875 15.1194 32.0009 15.4211 32.0009 15.7728C32.0009 16.0057 31.9415 16.2195 31.8227 16.4144C31.7087 16.6092 31.5542 16.766 31.3594 16.8848C31.1693 16.9989 30.9554 17.0559 30.7178 17.0559ZM39.3289 17.1414C38.7301 17.1319 38.1313 17.0179 37.5325 16.7993C36.9337 16.5807 36.3872 16.2124 35.893 15.6944C35.3988 15.1716 35.002 14.4659 34.7026 13.5773C34.4032 12.6839 34.2535 11.5623 34.2535 10.2127C34.2535 8.92008 34.3747 7.7748 34.617 6.77683C34.8594 5.77411 35.2111 4.93059 35.672 4.24627C36.133 3.55719 36.689 3.03445 37.3401 2.67803C37.9959 2.32161 38.7348 2.1434 39.557 2.1434C40.3744 2.1434 41.1014 2.30736 41.7382 2.63526C42.3798 2.95841 42.9025 3.40987 43.3065 3.98965C43.7104 4.56942 43.9718 5.23711 44.0906 5.99271H42.3513C42.1897 5.3369 41.8761 4.79277 41.4103 4.36032C40.9446 3.92787 40.3268 3.71164 39.557 3.71164C38.4259 3.71164 37.5349 4.2035 36.8838 5.18721C36.2375 6.17092 35.912 7.55144 35.9073 9.32878H36.0213C36.2874 8.92484 36.6035 8.5803 36.9694 8.29517C37.3401 8.00528 37.7488 7.78193 38.1955 7.6251C38.6422 7.46828 39.115 7.38987 39.614 7.38987C40.4504 7.38987 41.2155 7.59896 41.9093 8.01716C42.6032 8.4306 43.1592 9.00325 43.5774 9.73509C43.9956 10.4622 44.2047 11.2962 44.2047 12.2371C44.2047 13.1401 44.0027 13.967 43.5987 14.7178C43.1948 15.4639 42.6269 16.0579 41.8951 16.4999C41.168 16.9371 40.3126 17.1509 39.3289 17.1414ZM39.3289 15.5732C39.9276 15.5732 40.4647 15.4235 40.9399 15.1241C41.4198 14.8247 41.7977 14.4232 42.0733 13.9194C42.3537 13.4157 42.4939 12.8549 42.4939 12.2371C42.4939 11.6336 42.3584 11.0847 42.0875 10.5905C41.8214 10.0915 41.4531 9.6947 40.9826 9.40006C40.5169 9.10542 39.9847 8.9581 39.3859 8.9581C38.9344 8.9581 38.5139 9.04839 38.1242 9.22898C37.7345 9.40481 37.3923 9.64718 37.0977 9.95607C36.8078 10.265 36.5797 10.619 36.4134 11.0182C36.247 11.4126 36.1639 11.8284 36.1639 12.2657C36.1639 12.8454 36.2993 13.3872 36.5702 13.8909C36.8458 14.3947 37.2213 14.801 37.6965 15.1099C38.1765 15.4188 38.7206 15.5732 39.3289 15.5732ZM50.2584 17.1985C49.5646 17.1985 48.9349 17.0678 48.3694 16.8064C47.8039 16.5403 47.3548 16.1577 47.0221 15.6587C46.6895 15.155 46.5231 14.5467 46.5231 13.8339C46.5231 13.2066 46.6467 12.6981 46.8938 12.3084C47.1409 11.914 47.4712 11.6051 47.8847 11.3817C48.2981 11.1584 48.7543 10.9921 49.2533 10.8828C49.757 10.7687 50.2632 10.6784 50.7716 10.6119C51.437 10.5263 51.9763 10.4622 52.3898 10.4194C52.808 10.3719 53.1121 10.2935 53.3022 10.1842C53.497 10.0749 53.5945 9.88479 53.5945 9.61391V9.55688C53.5945 8.85355 53.402 8.30705 53.0171 7.91736C52.6369 7.52768 52.0595 7.33284 51.2849 7.33284C50.4818 7.33284 49.8521 7.50867 49.3959 7.86034C48.9397 8.212 48.6189 8.58743 48.4335 8.98661L46.8368 8.41635C47.1219 7.75104 47.5021 7.23304 47.9773 6.86237C48.4573 6.48694 48.9801 6.22557 49.5456 6.07825C50.1158 5.92618 50.6766 5.85014 51.2279 5.85014C51.5795 5.85014 51.9835 5.89291 52.4397 5.97845C52.9006 6.05924 53.345 6.22795 53.7727 6.48457C54.2051 6.74119 54.5639 7.12849 54.8491 7.64649C55.1342 8.16448 55.2768 8.85831 55.2768 9.72796V16.9418H53.5945V15.4592H53.5089C53.3949 15.6968 53.2048 15.951 52.9387 16.2219C52.6725 16.4928 52.3185 16.7232 51.8765 16.9133C51.4346 17.1034 50.8952 17.1985 50.2584 17.1985ZM50.515 15.6873C51.1803 15.6873 51.7411 15.5566 52.1973 15.2952C52.6583 15.0338 53.0052 14.6964 53.2381 14.283C53.4757 13.8695 53.5945 13.4347 53.5945 12.9785V11.4388C53.5232 11.5243 53.3664 11.6027 53.124 11.674C52.8864 11.7405 52.6108 11.7999 52.2971 11.8522C51.9882 11.8997 51.6864 11.9425 51.3918 11.9805C51.1019 12.0138 50.8667 12.0423 50.6861 12.0661C50.2489 12.1231 49.8402 12.2158 49.46 12.3441C49.0846 12.4676 48.7805 12.6553 48.5476 12.9072C48.3195 13.1543 48.2054 13.4917 48.2054 13.9194C48.2054 14.504 48.4217 14.9459 48.8541 15.2453C49.2913 15.5399 49.845 15.6873 50.515 15.6873ZM72.9315 0.98348H81.3423V2.34847H72.9315V0.98348ZM65.1431 5.64051H71.2654V6.98543H65.1431V5.64051ZM72.9717 6.1825H80.158V7.56756H72.9717V6.1825ZM68.1139 0.0400279H69.499V6.44345H68.1139V0.0400279ZM72.1888 0.98348H73.614V6.74455C73.614 7.60102 73.5873 8.53778 73.5337 9.55483C73.4936 10.5585 73.3999 11.5889 73.2527 12.6461C73.1055 13.7033 72.8914 14.7405 72.6104 15.7575C72.3427 16.7612 71.9814 17.6846 71.5264 18.5276C71.4461 18.4474 71.3257 18.3537 71.1651 18.2466C71.0045 18.1529 70.8439 18.0593 70.6833 17.9656C70.5361 17.8853 70.4023 17.8251 70.2819 17.7849C70.7101 16.9686 71.0513 16.0921 71.3056 15.1553C71.5732 14.2052 71.7673 13.2416 71.8877 12.2647C72.0215 11.2745 72.1018 10.3109 72.1286 9.37417C72.1688 8.42403 72.1888 7.54749 72.1888 6.74455V0.98348ZM65.2033 9.89608H70.041V18.5276H68.6559V11.2611H65.2033V9.89608ZM64.5609 0.481643H65.9058V8.45079C65.9058 9.32064 65.8858 10.2106 65.8456 11.1206C65.8055 12.0172 65.7185 12.9071 65.5847 13.7903C65.4642 14.6736 65.2769 15.5233 65.0226 16.3396C64.7817 17.1426 64.4539 17.8853 64.039 18.5678C63.9587 18.4741 63.8584 18.3738 63.7379 18.2667C63.6175 18.1596 63.4903 18.0459 63.3565 17.9254C63.2227 17.8184 63.0956 17.7381 62.9751 17.6846C63.3231 17.0288 63.5974 16.3263 63.7981 15.5769C64.0123 14.8274 64.1728 14.0513 64.2799 13.2483C64.4003 12.4454 64.4739 11.6358 64.5007 10.8195C64.5409 10.0031 64.5609 9.21358 64.5609 8.45079V0.481643ZM79.6963 6.1825H79.9773L80.2383 6.14235L81.1616 6.42338C80.8405 8.48425 80.3319 10.3042 79.6361 11.8833C78.9536 13.4491 78.1172 14.7873 77.1269 15.898C76.1366 16.9954 75.0393 17.8786 73.8348 18.5477C73.7679 18.4139 73.681 18.2734 73.5739 18.1262C73.4668 17.979 73.3531 17.8318 73.2326 17.6846C73.1122 17.5374 72.9918 17.4169 72.8713 17.3232C73.9821 16.7746 74.9991 15.9984 75.9225 14.9947C76.8592 13.9777 77.6555 12.7532 78.3112 11.3213C78.967 9.88939 79.4286 8.27682 79.6963 6.4836V6.1825ZM75.0794 7.06573C75.414 8.65822 75.8823 10.1303 76.4845 11.4819C77.0867 12.8335 77.8428 14.0111 78.7528 15.0148C79.6628 16.0051 80.7401 16.7746 81.9847 17.3232C81.8776 17.4169 81.7572 17.5374 81.6233 17.6846C81.4895 17.8318 81.3624 17.979 81.2419 18.1262C81.1215 18.2868 81.0211 18.434 80.9408 18.5678C79.6561 17.9254 78.5521 17.0623 77.6287 15.9783C76.7053 14.8944 75.9359 13.623 75.3203 12.1644C74.7047 10.7057 74.2096 9.09983 73.8348 7.34675L75.0794 7.06573ZM83.8314 4.31567H101.335V5.84125H83.8314V4.31567ZM87.826 13.2684H97.1802V14.794H87.826V13.2684ZM91.7604 0.100249H93.3462V18.5477H91.7604V0.100249ZM91.2786 4.8175L92.6436 5.25912C92.0414 6.67764 91.3054 8.03594 90.4356 9.33402C89.5657 10.6187 88.6022 11.783 87.545 12.8268C86.4878 13.8572 85.3838 14.707 84.2329 15.3761C84.1526 15.2557 84.0455 15.1219 83.9117 14.9747C83.7779 14.8141 83.6441 14.6602 83.5102 14.513C83.3898 14.3658 83.2694 14.2386 83.1489 14.1316C83.992 13.69 84.8083 13.1413 85.5979 12.4855C86.4008 11.8298 87.1569 11.0938 87.8662 10.2775C88.5888 9.44777 89.2379 8.57123 89.8133 7.64785C90.3887 6.72448 90.8772 5.78103 91.2786 4.8175ZM93.828 4.87772C94.3633 6.14904 95.0525 7.38021 95.8955 8.57123C96.7386 9.74887 97.6821 10.8128 98.7259 11.7629C99.7831 12.6997 100.887 13.4491 102.038 14.0111C101.918 14.1182 101.784 14.2453 101.637 14.3925C101.503 14.5397 101.369 14.7003 101.235 14.8743C101.101 15.0349 100.987 15.1888 100.894 15.336C99.7296 14.6802 98.6121 13.8439 97.5416 12.8268C96.4844 11.7964 95.5275 10.6388 94.6711 9.3541C93.8146 8.0694 93.0919 6.73117 92.5031 5.33941L93.828 4.87772ZM104.387 1.38495H121.027V2.83023H104.387V1.38495ZM103.644 8.55116H121.65V9.99645H103.644V8.55116ZM115.628 2.14774H117.173V18.5678H115.628V2.14774ZM108.482 2.12766H110.007V7.688C110.007 8.66491 109.954 9.64851 109.847 10.6388C109.74 11.6291 109.512 12.5993 109.164 13.5494C108.83 14.4862 108.321 15.3895 107.638 16.2594C106.956 17.1158 106.039 17.9054 104.888 18.628C104.795 18.4942 104.681 18.3604 104.547 18.2265C104.413 18.0927 104.266 17.9589 104.106 17.8251C103.958 17.6913 103.818 17.5842 103.684 17.5039C104.768 16.8348 105.631 16.1121 106.273 15.336C106.916 14.5598 107.391 13.7502 107.699 12.9071C108.02 12.064 108.227 11.2009 108.321 10.3176C108.428 9.43439 108.482 8.55785 108.482 7.688V2.12766ZM130.843 8.81211C131.74 11.0068 133.132 12.8335 135.019 14.2922C136.919 15.7374 139.254 16.7277 142.024 17.263C141.931 17.3701 141.817 17.4972 141.683 17.6444C141.563 17.805 141.449 17.9656 141.342 18.1262C141.235 18.3002 141.148 18.4607 141.081 18.6079C139.194 18.1797 137.508 17.5441 136.022 16.701C134.537 15.8579 133.259 14.8074 132.188 13.5494C131.118 12.2915 130.241 10.8462 129.559 9.21358L130.843 8.81211ZM138.01 8.25006H138.311L138.592 8.16976L139.615 8.65153C139.174 10.0567 138.572 11.3012 137.809 12.3852C137.046 13.4691 136.163 14.4126 135.159 15.2155C134.169 16.0185 133.092 16.6943 131.927 17.2429C130.763 17.7916 129.552 18.2399 128.294 18.5879C128.214 18.4005 128.093 18.173 127.933 17.9054C127.786 17.6511 127.638 17.4504 127.491 17.3032C128.669 17.0221 129.806 16.6341 130.904 16.1389C132.001 15.6304 133.011 15.0148 133.935 14.2922C134.871 13.5561 135.688 12.713 136.384 11.7629C137.08 10.7994 137.621 9.71542 138.01 8.51101V8.25006ZM130.402 8.25006H138.25V9.69534H129.96L130.402 8.25006ZM131.767 -0.00011845L133.453 0.280909C133.185 2.18119 132.831 3.96104 132.389 5.62044C131.947 7.26646 131.372 8.78535 130.663 10.1771C129.953 11.5689 129.084 12.8335 128.053 13.971C127.036 15.0951 125.818 16.0921 124.4 16.9619C124.333 16.8549 124.233 16.7277 124.099 16.5805C123.965 16.4199 123.824 16.2727 123.677 16.1389C123.543 15.9917 123.41 15.878 123.276 15.7977C125.056 14.7137 126.514 13.4022 127.652 11.8633C128.803 10.3109 129.706 8.54447 130.362 6.56389C131.017 4.56993 131.486 2.38193 131.767 -0.00011845ZM136.183 1.08385L137.347 0.361203C137.642 0.655614 137.949 0.98348 138.271 1.3448C138.605 1.69274 138.92 2.03399 139.214 2.36855C139.508 2.7031 139.749 2.99082 139.937 3.2317L138.752 4.05471C138.565 3.80045 138.324 3.49935 138.03 3.15141C137.735 2.80347 137.427 2.44884 137.106 2.08752C136.785 1.7262 136.477 1.39164 136.183 1.08385ZM125.564 6.44345C125.537 6.32301 125.49 6.1758 125.424 6.00183C125.37 5.82786 125.31 5.65389 125.243 5.47993C125.189 5.29257 125.129 5.13868 125.062 5.01824C125.209 4.97809 125.337 4.89111 125.444 4.75728C125.564 4.62346 125.684 4.4428 125.805 4.2153C125.885 4.08148 126.006 3.8339 126.166 3.47258C126.34 3.09788 126.521 2.66295 126.708 2.16781C126.896 1.65928 127.043 1.15076 127.15 0.642231L128.756 0.943332C128.595 1.50539 128.401 2.07413 128.174 2.64957C127.959 3.21163 127.732 3.74023 127.491 4.23537C127.25 4.73052 127.016 5.16544 126.789 5.54015V5.58029C126.789 5.58029 126.728 5.60706 126.608 5.66059C126.487 5.71412 126.34 5.78772 126.166 5.88139C126.006 5.96169 125.865 6.05536 125.745 6.16242C125.624 6.2561 125.564 6.34977 125.564 6.44345ZM125.564 6.44345V5.25912L126.588 4.65691H141.362L141.342 6.1022H127.712C127.07 6.1022 126.574 6.13566 126.226 6.20257C125.892 6.2561 125.671 6.33639 125.564 6.44345ZM149.552 3.71346H161.295V5.17882H149.552V3.71346ZM152.402 0.501717H153.888V7.54749C153.888 8.18984 153.847 8.87233 153.767 9.59498C153.7 10.3042 153.56 11.0135 153.346 11.7228C153.145 12.432 152.837 13.1078 152.422 13.7502C152.021 14.3791 151.486 14.9479 150.816 15.4564C150.763 15.3494 150.669 15.2289 150.535 15.0951C150.402 14.9479 150.261 14.8074 150.114 14.6736C149.967 14.5397 149.84 14.4394 149.732 14.3725C150.535 13.7569 151.124 13.0677 151.499 12.3049C151.874 11.5421 152.114 10.7525 152.222 9.93622C152.342 9.10652 152.402 8.30359 152.402 7.52741V0.501717ZM149.431 8.77197H161.696V10.2173H149.431V8.77197ZM148.006 7.34675V15.1152H146.521V8.75189H143.751V7.34675H148.006ZM147.243 14.3725C147.578 14.3725 147.892 14.4996 148.187 14.7538C148.495 14.9947 148.923 15.2958 149.471 15.6571C150.127 16.072 150.89 16.3396 151.76 16.4601C152.63 16.5671 153.627 16.6207 154.751 16.6207C155.353 16.6207 155.975 16.614 156.618 16.6006C157.273 16.5738 157.922 16.5471 158.565 16.5203C159.22 16.4802 159.849 16.44 160.452 16.3999C161.054 16.3463 161.603 16.2928 162.098 16.2393C162.031 16.3731 161.964 16.5337 161.897 16.721C161.843 16.9084 161.79 17.0957 161.736 17.2831C161.696 17.4838 161.669 17.6578 161.656 17.805C161.295 17.8184 160.826 17.8385 160.251 17.8652C159.675 17.892 159.047 17.9121 158.364 17.9254C157.695 17.9522 157.039 17.9723 156.397 17.9857C155.754 17.999 155.192 18.0057 154.711 18.0057C153.466 18.0057 152.402 17.9321 151.519 17.7849C150.636 17.6377 149.846 17.3433 149.15 16.9017C148.735 16.6341 148.367 16.3731 148.046 16.1188C147.725 15.8512 147.451 15.7174 147.223 15.7174C146.996 15.7174 146.735 15.8378 146.44 16.0787C146.159 16.3062 145.852 16.614 145.517 17.0021C145.196 17.3902 144.861 17.8117 144.513 18.2667L143.51 16.9017C144.192 16.1657 144.855 15.5635 145.497 15.0951C146.153 14.6133 146.735 14.3725 147.243 14.3725ZM144.373 1.32473L145.457 0.501717C145.832 0.822892 146.213 1.18421 146.601 1.58568C147.002 1.97377 147.377 2.36185 147.725 2.74994C148.086 3.12464 148.381 3.4592 148.608 3.75361L147.444 4.71714C147.243 4.39596 146.969 4.04133 146.621 3.65324C146.273 3.25178 145.905 2.85031 145.517 2.44884C145.129 2.03399 144.748 1.65928 144.373 1.32473ZM157.2 0.501717H158.705V15.336H157.2V0.501717ZM171.552 1.28458H181.428V2.72987H171.552V1.28458ZM177.434 7.26646H178.959V16.6207C178.959 17.0891 178.892 17.4437 178.759 17.6846C178.625 17.9388 178.391 18.1329 178.056 18.2667C177.708 18.3738 177.233 18.434 176.631 18.4474C176.042 18.4741 175.252 18.4875 174.262 18.4875C174.235 18.2868 174.175 18.0459 174.082 17.7649C173.988 17.4838 173.881 17.2296 173.76 17.0021C174.242 17.0155 174.697 17.0288 175.125 17.0422C175.554 17.0556 175.928 17.0556 176.249 17.0422C176.571 17.0422 176.791 17.0422 176.912 17.0422C177.099 17.0288 177.233 16.9954 177.313 16.9418C177.394 16.8749 177.434 16.7612 177.434 16.6006V7.26646ZM170.669 6.82484H181.99V8.27013H170.669V6.82484ZM166.674 8.39057L167.999 7.06573L168.16 7.14602V18.6079H166.674V8.39057ZM168.983 4.37589L170.408 4.8978C169.9 5.74088 169.311 6.58396 168.642 7.42705C167.972 8.27013 167.27 9.05969 166.534 9.79571C165.811 10.5184 165.095 11.1674 164.386 11.7428C164.306 11.6358 164.199 11.502 164.065 11.3414C163.944 11.1808 163.817 11.0202 163.683 10.8596C163.55 10.699 163.429 10.5719 163.322 10.4782C164.018 9.98306 164.707 9.40762 165.39 8.75189C166.086 8.09616 166.741 7.39359 167.357 6.64418C167.986 5.89478 168.528 5.13868 168.983 4.37589ZM168.18 0.0601022L169.625 0.662304C169.184 1.23774 168.668 1.83325 168.08 2.44884C167.504 3.05104 166.895 3.63317 166.253 4.19523C165.624 4.7439 165.008 5.23235 164.406 5.66059C164.339 5.55353 164.252 5.4264 164.145 5.27919C164.051 5.1186 163.944 4.96471 163.824 4.8175C163.717 4.65691 163.617 4.53647 163.523 4.45618C164.085 4.06809 164.654 3.62648 165.229 3.13134C165.818 2.63619 166.367 2.12097 166.875 1.58568C167.397 1.05039 167.832 0.541864 168.18 0.0601022ZM184.821 3.67332H201V13.1078H199.454V5.13868H186.326V13.2082H184.821V3.67332ZM185.624 10.4782H200.358V11.9636H185.624V10.4782ZM192.087 0.0801754H193.673V18.5276H192.087V0.0801754Z" fill="#999999"/>
</svg>
