<svg width="957" height="45" viewBox="0 0 957 45" fill="none" xmlns="http://www.w3.org/2000/svg">
<path d="M27.7148 36.6969H40.7796V40.1552H27.7148V36.6969ZM1.20081 9.31837H19.6933V12.8728H1.20081V9.31837ZM26.1297 6.19625H42.5088V43.3254H38.9063V9.70263H29.588V43.7097H26.1297V6.19625ZM18.7327 9.31837H22.191C22.191 9.31837 22.191 9.44645 22.191 9.70263C22.191 9.92678 22.191 10.199 22.191 10.5192C22.191 10.8074 22.191 11.0315 22.191 11.1916C22.095 16.5393 21.9989 21.0383 21.9028 24.6888C21.8068 28.3392 21.6787 31.3333 21.5186 33.6709C21.3585 35.9764 21.1503 37.7536 20.8941 39.0025C20.67 40.2513 20.3658 41.1319 19.9815 41.6443C19.5332 42.2527 19.0689 42.685 18.5886 42.9411C18.1083 43.2293 17.5159 43.4215 16.8114 43.5175C16.1389 43.6136 15.2743 43.6456 14.2176 43.6136C13.1929 43.6136 12.1522 43.5816 11.0955 43.5175C11.0635 42.9732 10.9514 42.3647 10.7593 41.6923C10.5992 41.0198 10.359 40.4274 10.0388 39.9151C11.1596 40.0112 12.2003 40.0752 13.1609 40.1072C14.1216 40.1072 14.81 40.1072 15.2263 40.1072C15.5785 40.1392 15.8828 40.1072 16.1389 40.0112C16.3951 39.8831 16.6353 39.6589 16.8594 39.3387C17.1156 38.9865 17.3397 38.2339 17.5319 37.0812C17.724 35.8964 17.9001 34.1832 18.0602 31.9417C18.2203 29.7002 18.3484 26.8022 18.4445 23.2478C18.5406 19.6614 18.6366 15.3064 18.7327 10.183V9.31837ZM8.02143 0.864643H11.5758C11.5438 5.31566 11.4638 9.65459 11.3357 13.8815C11.2076 18.1083 10.8714 22.111 10.327 25.8896C9.81464 29.6681 8.95006 33.1425 7.73324 36.3126C6.54843 39.4508 4.89932 42.1726 2.78588 44.4782C2.59375 44.19 2.33758 43.8858 2.01736 43.5656C1.69715 43.2774 1.36092 42.9892 1.00868 42.701C0.656443 42.4128 0.320215 42.1726 -1.72971e-06 41.9805C1.60108 40.3154 2.89796 38.362 3.89063 36.1205C4.91533 33.879 5.71587 31.4293 6.29226 28.7715C6.86865 26.0817 7.26892 23.2318 7.49307 20.2218C7.74925 17.1797 7.89334 14.0416 7.92536 10.8074C7.98941 7.54116 8.02143 4.22692 8.02143 0.864643ZM59.2721 19.2131V36.2166H55.7658V22.5753H49.0412V19.2131H59.2721ZM59.2721 34.6315C60.4249 36.3927 62.026 37.7056 64.0754 38.5702C66.1248 39.4348 68.5424 39.9151 71.3283 40.0112C72.6412 40.0752 74.2263 40.1232 76.0835 40.1552C77.9728 40.1552 79.9421 40.1392 81.9915 40.1072C84.0729 40.0752 86.0743 40.0272 87.9956 39.9631C89.9169 39.8991 91.598 39.819 93.039 39.723C92.8789 39.9791 92.7188 40.3314 92.5587 40.7797C92.3986 41.228 92.2545 41.6763 92.1264 42.1246C91.9983 42.6049 91.9022 43.0212 91.8382 43.3734C90.5253 43.4375 88.9722 43.4855 87.179 43.5175C85.3858 43.5495 83.5286 43.5656 81.6073 43.5656C79.686 43.5976 77.8127 43.5976 75.9875 43.5656C74.1942 43.5656 72.6412 43.5495 71.3283 43.5175C68.1902 43.3894 65.5004 42.8771 63.2588 41.9805C61.0493 41.0839 59.1761 39.6749 57.639 37.7536C56.4862 38.7783 55.3014 39.803 54.0846 40.8277C52.8678 41.8844 51.6029 42.9571 50.2901 44.0459L48.4168 40.3474C49.5696 39.5789 50.8024 38.6983 52.1153 37.7056C53.4602 36.6809 54.7571 35.6562 56.0059 34.6315H59.2721ZM49.5696 3.55446L52.2114 1.393C53.2681 2.06546 54.3408 2.84999 55.4295 3.74659C56.5183 4.61118 57.5109 5.49178 58.4075 6.38838C59.3362 7.28499 60.0887 8.11755 60.6651 8.88607L57.7831 11.2877C57.3028 10.5192 56.5983 9.67061 55.6697 8.74198C54.7731 7.81335 53.7804 6.90073 52.6917 6.00412C51.635 5.07549 50.5943 4.25894 49.5696 3.55446ZM67.3416 15.2264V21.3745H86.3625V15.2264H67.3416ZM63.9793 12.2964H89.8689V24.2565H63.9793V12.2964ZM61.962 5.2356H92.0783V8.35772H61.962V5.2356ZM74.8827 0.288252H78.3891V38.2339H74.8827V0.288252ZM73.6819 23.1517L76.3717 24.1604C75.4111 25.8576 74.2263 27.5227 72.8173 29.1558C71.4404 30.7569 69.9354 32.2299 68.3022 33.5748C66.6691 34.8877 65.036 35.9604 63.4029 36.793C63.2428 36.5048 63.0187 36.2006 62.7305 35.8804C62.4743 35.5281 62.2021 35.1919 61.9139 34.8717C61.6257 34.5515 61.3535 34.2793 61.0974 34.0551C62.6985 33.3506 64.2835 32.438 65.8526 31.3173C67.4537 30.1645 68.9427 28.8836 70.3196 27.4747C71.6965 26.0337 72.8173 24.5927 73.6819 23.1517ZM79.2056 23.1517C80.1663 24.5607 81.3671 25.9536 82.8081 27.3306C84.249 28.7075 85.8021 29.9724 87.4672 31.1251C89.1324 32.2459 90.7494 33.1585 92.3185 33.863C92.0623 34.0871 91.7741 34.3753 91.4539 34.7276C91.1337 35.0478 90.8295 35.384 90.5413 35.7363C90.2851 36.0565 90.061 36.3607 89.8689 36.6489C88.2998 35.8163 86.6827 34.7276 85.0176 33.3827C83.3845 32.0378 81.8314 30.5808 80.3584 29.0117C78.9174 27.4426 77.6846 25.8576 76.6599 24.2565L79.2056 23.1517ZM117.055 19.0209H138.862V22.1431H117.055V19.0209ZM117.055 28.7235H138.862V31.8456H117.055V28.7235ZM116.671 38.5702H140.831V41.9325H116.671V38.5702ZM126.806 10.9515H130.216V39.819H126.806V10.9515ZM130.168 0.336283L133.915 1.2489C133.21 3.07414 132.41 4.97943 131.513 6.96477C130.616 8.91809 129.8 10.5832 129.063 11.9602L125.989 11.0956C126.502 10.1349 127.014 9.03017 127.526 7.78133C128.071 6.50046 128.567 5.21959 129.015 3.93873C129.464 2.62584 129.848 1.42502 130.168 0.336283ZM119.073 0.144153L122.579 1.00874C121.81 3.6025 120.882 6.13221 119.793 8.59788C118.704 11.0315 117.504 13.3051 116.191 15.4185C114.878 17.5319 113.469 19.4052 111.964 21.0383C111.804 20.7821 111.58 20.4779 111.291 20.1257C111.003 19.7414 110.699 19.3572 110.379 18.9729C110.059 18.5886 109.77 18.2684 109.514 18.0123C111.628 15.8988 113.501 13.273 115.134 10.1349C116.799 6.96477 118.112 3.63452 119.073 0.144153ZM119.025 9.31837H140.015V12.5365H119.025V44.3821H115.518V11.3357L117.488 9.31837H119.025ZM96.017 25.7935C97.9703 25.3132 100.324 24.6728 103.078 23.8722C105.832 23.0717 108.634 22.2551 111.483 21.4226L111.916 24.6407C109.29 25.4733 106.664 26.3059 104.038 27.1384C101.413 27.939 99.0271 28.6595 96.8816 29.2999L96.017 25.7935ZM96.8336 9.94279H111.483V13.3051H96.8336V9.94279ZM103.366 0.288252H106.824V40.0112C106.824 41.0679 106.696 41.8684 106.44 42.4128C106.216 42.9892 105.784 43.4215 105.143 43.7097C104.535 43.9979 103.718 44.19 102.694 44.286C101.669 44.3821 100.372 44.4141 98.8029 44.3821C98.7389 43.9338 98.5948 43.3734 98.3706 42.701C98.1785 42.0285 97.9543 41.4361 97.6982 40.9238C98.7869 40.9558 99.7796 40.9718 100.676 40.9718C101.573 40.9718 102.181 40.9718 102.501 40.9718C102.822 40.9718 103.046 40.8917 103.174 40.7316C103.302 40.6036 103.366 40.3794 103.366 40.0592V0.288252ZM167.105 11.3357H186.414V14.7941H167.105V11.3357ZM184.637 11.3357H188.143C188.143 11.3357 188.143 11.4478 188.143 11.672C188.143 11.8961 188.143 12.1523 188.143 12.4405C188.143 12.7287 188.143 12.9688 188.143 13.161C187.983 18.1243 187.807 22.3192 187.615 25.7455C187.455 29.1398 187.263 31.9417 187.039 34.1512C186.847 36.3287 186.606 38.0258 186.318 39.2426C186.03 40.4595 185.662 41.3401 185.213 41.8844C184.733 42.4928 184.221 42.9251 183.676 43.1813C183.164 43.4375 182.524 43.6136 181.755 43.7097C181.019 43.7737 180.042 43.8057 178.825 43.8057C177.608 43.8057 176.359 43.7577 175.079 43.6616C175.047 43.1493 174.934 42.5569 174.742 41.8844C174.55 41.212 174.294 40.6196 173.974 40.1072C175.319 40.2353 176.568 40.3154 177.72 40.3474C178.873 40.3794 179.706 40.3954 180.218 40.3954C180.634 40.3954 180.987 40.3474 181.275 40.2513C181.595 40.1552 181.867 39.9631 182.091 39.6749C182.444 39.2907 182.732 38.5382 182.956 37.4174C183.212 36.2646 183.436 34.6315 183.628 32.5181C183.82 30.3726 183.997 27.6348 184.157 24.3045C184.317 20.9743 184.477 16.9235 184.637 12.1523V11.3357ZM174.118 1.05677H177.672C177.64 4.41905 177.576 7.76531 177.48 11.0956C177.416 14.4258 177.208 17.692 176.856 20.8942C176.536 24.0644 176.023 27.0904 175.319 29.9724C174.614 32.8543 173.622 35.5121 172.341 37.9458C171.092 40.3794 169.507 42.5249 167.585 44.3821C167.361 44.0939 167.089 43.7737 166.769 43.4215C166.449 43.1012 166.112 42.781 165.76 42.4608C165.408 42.1726 165.072 41.9485 164.752 41.7884C166.609 40.0912 168.114 38.1059 169.267 35.8323C170.451 33.5588 171.364 31.0611 172.004 28.3392C172.677 25.6174 173.157 22.7515 173.445 19.7414C173.734 16.7314 173.91 13.6573 173.974 10.5192C174.07 7.34903 174.118 4.1949 174.118 1.05677ZM147.028 4.17889H165.616V7.39707H147.028V4.17889ZM145.346 15.6106H166.481V18.9249H145.346V15.6106ZM159.468 23.8722L162.446 23.0557C163.054 24.4966 163.679 26.0497 164.319 27.7148C164.96 29.3479 165.552 30.933 166.096 32.47C166.641 34.0071 167.057 35.336 167.345 36.4567L164.175 37.5135C163.919 36.3607 163.519 35.0158 162.974 33.4787C162.462 31.9097 161.902 30.2926 161.293 28.6274C160.685 26.9303 160.076 25.3452 159.468 23.8722ZM147.076 38.5221L146.787 35.4481L148.613 34.1512L164.319 30.8369C164.383 31.3173 164.463 31.8616 164.559 32.47C164.655 33.0785 164.752 33.5748 164.848 33.9591C161.87 34.6315 159.388 35.1919 157.403 35.6402C155.417 36.0885 153.784 36.4728 152.503 36.793C151.254 37.0812 150.262 37.3373 149.525 37.5615C148.821 37.7856 148.292 37.9618 147.94 38.0899C147.588 38.2179 147.3 38.362 147.076 38.5221ZM147.028 38.4741C146.964 38.2179 146.867 37.8977 146.739 37.5135C146.611 37.0972 146.467 36.6809 146.307 36.2646C146.147 35.8163 146.003 35.4481 145.875 35.1599C146.259 35.0318 146.611 34.6795 146.931 34.1032C147.284 33.4947 147.668 32.7262 148.084 31.7976C148.276 31.3493 148.549 30.6288 148.901 29.6361C149.253 28.6114 149.653 27.4106 150.102 26.0337C150.55 24.6568 150.966 23.1838 151.35 21.6147C151.767 20.0136 152.119 18.4285 152.407 16.8595L155.962 18.0123C155.449 20.1257 154.841 22.3032 154.136 24.5447C153.464 26.7542 152.727 28.8836 151.927 30.933C151.158 32.9504 150.374 34.7756 149.573 36.4087V36.5048C149.573 36.5048 149.445 36.5688 149.189 36.6969C148.933 36.825 148.629 37.0011 148.276 37.2253C147.956 37.4174 147.668 37.6255 147.412 37.8497C147.156 38.0738 147.028 38.282 147.028 38.4741ZM196.693 4.89937H233.006V8.54985H196.693V4.89937ZM199.767 20.606H229.259V24.2084H199.767V20.606ZM193.907 37.2733H235.648V40.9238H193.907V37.2733ZM242.132 31.8456C242.1 31.5894 242.02 31.2692 241.892 30.885C241.764 30.5007 241.62 30.1165 241.459 29.7322C241.331 29.3159 241.187 28.9637 241.027 28.6755C241.572 28.5794 242.132 28.2432 242.708 27.6668C243.285 27.0904 243.925 26.3539 244.63 25.4573C245.046 25.009 245.638 24.2885 246.407 23.2958C247.175 22.2711 248.04 21.0703 249.001 19.6934C249.961 18.2844 250.922 16.7634 251.883 15.1303C252.875 13.4972 253.788 11.8641 254.62 10.231L257.502 11.9602C255.613 15.2584 253.532 18.4926 251.258 21.6627C249.017 24.8329 246.759 27.6027 244.486 29.9724V30.0684C244.486 30.0684 244.357 30.1325 244.101 30.2605C243.877 30.3566 243.605 30.5007 243.285 30.6928C242.997 30.8529 242.724 31.0451 242.468 31.2692C242.244 31.4614 242.132 31.6535 242.132 31.8456ZM242.132 31.8456L241.94 28.9637L243.717 27.7629L256.446 25.5053C256.382 25.9536 256.35 26.466 256.35 27.0424C256.35 27.6188 256.366 28.0991 256.398 28.4833C253.484 29.0597 251.13 29.5401 249.337 29.9243C247.576 30.3086 246.215 30.6128 245.254 30.8369C244.293 31.0611 243.589 31.2532 243.141 31.4133C242.692 31.5734 242.356 31.7175 242.132 31.8456ZM241.748 20.2698C241.716 20.0456 241.636 19.7414 241.508 19.3572C241.379 18.9409 241.235 18.5246 241.075 18.1083C240.947 17.66 240.803 17.2758 240.643 16.9555C241.091 16.8595 241.508 16.5553 241.892 16.0429C242.308 15.4986 242.772 14.8261 243.285 14.0256C243.573 13.6093 243.973 12.9368 244.486 12.0082C244.998 11.0796 245.558 9.99082 246.167 8.74198C246.775 7.46111 247.384 6.10019 247.992 4.65921C248.6 3.18621 249.113 1.74524 249.529 0.336283L252.843 1.77726C252.075 3.7626 251.194 5.74795 250.201 7.73329C249.241 9.71864 248.216 11.6239 247.127 13.4492C246.071 15.2744 244.982 16.9075 243.861 18.3485V18.4445C243.861 18.4445 243.749 18.5086 243.525 18.6367C243.333 18.7648 243.093 18.9249 242.804 19.117C242.548 19.3091 242.308 19.5013 242.084 19.6934C241.86 19.8855 241.748 20.0777 241.748 20.2698ZM241.748 20.2698L241.7 17.7241L243.381 16.6673L252.123 15.7547C252.027 16.171 251.947 16.6673 251.883 17.2437C251.851 17.7881 251.851 18.2364 251.883 18.5886C249.865 18.8448 248.232 19.069 246.983 19.2611C245.766 19.4212 244.806 19.5653 244.101 19.6934C243.429 19.7895 242.916 19.8855 242.564 19.9816C242.244 20.0777 241.972 20.1737 241.748 20.2698ZM240.979 38.0418C242.324 37.7536 243.877 37.4174 245.638 37.0331C247.4 36.6489 249.273 36.2326 251.258 35.7843C253.243 35.304 255.245 34.8236 257.262 34.3433L257.598 37.4174C254.781 38.1219 251.963 38.8263 249.145 39.5308C246.359 40.2353 243.861 40.8757 241.652 41.4521L240.979 38.0418ZM262.882 18.3004H282.864V21.5667H262.882V18.3004ZM262.978 27.7629H282.96V31.0291H262.978V27.7629ZM262.642 37.6095H284.785V40.9718H262.642V37.6095ZM272.296 10.0869H275.659V39.4348H272.296V10.0869ZM264.563 8.93411H284.064V12.2003H264.563V44.4782H261.153V11.1916L263.266 8.93411H264.563ZM265.043 0.480382L268.55 1.48907C267.781 3.63452 266.853 5.87604 265.764 8.21362C264.707 10.5192 263.506 12.7447 262.162 14.8901C260.849 17.0036 259.456 18.9089 257.983 20.606C257.855 20.3178 257.678 19.9816 257.454 19.5973C257.262 19.2131 257.038 18.8288 256.782 18.4445C256.558 18.0603 256.35 17.7401 256.157 17.4839C257.438 15.9789 258.655 14.2657 259.808 12.3444C260.961 10.3911 261.985 8.38974 262.882 6.34035C263.779 4.29096 264.499 2.33764 265.043 0.480382ZM270.519 1.72923L273.545 0.480382C274.282 1.5371 274.954 2.68988 275.563 3.93873C276.203 5.18757 276.683 6.2603 277.004 7.1569L273.737 8.64591C273.513 7.68526 273.081 6.5645 272.44 5.28364C271.8 4.00277 271.16 2.81797 270.519 1.72923ZM288.724 25.8896H312.356V28.8676H288.724V25.8896ZM289.012 9.0782H312.163V12.0562H289.012V9.0782ZM297.658 21.7108L301.068 22.4793C300.331 24.0163 299.515 25.6654 298.618 27.4266C297.754 29.1558 296.889 30.8369 296.024 32.47C295.192 34.0711 294.407 35.5121 293.671 36.793L290.501 35.6882C291.205 34.4714 291.99 33.0624 292.854 31.4614C293.719 29.8603 294.567 28.2112 295.4 26.514C296.265 24.7848 297.017 23.1838 297.658 21.7108ZM304.862 27.6668L308.225 28.0991C307.84 30.4367 307.2 32.5021 306.303 34.2953C305.439 36.0565 304.286 37.5935 302.845 38.9064C301.436 40.1873 299.707 41.276 297.658 42.1726C295.64 43.0692 293.239 43.8217 290.453 44.4301C290.325 43.9498 290.1 43.4215 289.78 42.8451C289.492 42.2687 289.188 41.7884 288.868 41.4041C292.23 40.8277 295 39.9951 297.177 38.9064C299.355 37.7856 301.052 36.3126 302.269 34.4874C303.518 32.6302 304.382 30.3566 304.862 27.6668ZM307.888 1.15284L311.011 2.49775C310.306 3.61851 309.57 4.73927 308.801 5.86002C308.065 6.98078 307.36 7.94143 306.688 8.74198L304.238 7.54116C304.846 6.7086 305.503 5.68391 306.207 4.46708C306.912 3.21824 307.472 2.11349 307.888 1.15284ZM298.954 0.192188H302.317V22.2871H298.954V0.192188ZM290.837 2.49775L293.527 1.393C294.231 2.35365 294.872 3.41037 295.448 4.56315C296.056 5.71593 296.473 6.72461 296.697 7.5892L293.815 8.83804C293.623 8.00548 293.239 6.99679 292.662 5.81199C292.086 4.59517 291.477 3.49042 290.837 2.49775ZM299.05 10.4231L301.452 11.8161C300.684 13.161 299.691 14.5059 298.474 15.8508C297.289 17.1957 295.992 18.4445 294.583 19.5973C293.207 20.7181 291.83 21.6627 290.453 22.4312C290.261 22.015 289.972 21.5346 289.588 20.9903C289.204 20.4459 288.836 20.0136 288.483 19.6934C289.828 19.085 291.173 18.3004 292.518 17.3398C293.863 16.3791 295.112 15.2904 296.265 14.0736C297.417 12.8568 298.346 11.6399 299.05 10.4231ZM301.932 12.0562C302.349 12.2804 302.973 12.6486 303.806 13.161C304.67 13.6733 305.583 14.2337 306.544 14.8421C307.504 15.4505 308.385 16.0109 309.185 16.5232C309.986 17.0356 310.562 17.4359 310.915 17.7241L308.897 20.3178C308.481 19.9336 307.888 19.4372 307.12 18.8288C306.351 18.2204 305.519 17.58 304.622 16.9075C303.758 16.2351 302.925 15.5946 302.125 14.9862C301.324 14.3778 300.668 13.9135 300.155 13.5933L301.932 12.0562ZM315.862 9.0782H332.961V12.4405H315.862V9.0782ZM317.063 0.192188L320.665 0.720544C320.153 3.85867 319.48 6.88472 318.648 9.79869C317.847 12.6806 316.903 15.3705 315.814 17.8682C314.725 20.3338 313.476 22.4953 312.067 24.3525C311.875 24.1284 311.603 23.8722 311.251 23.584C310.899 23.2638 310.514 22.9596 310.098 22.6714C309.714 22.3512 309.393 22.095 309.137 21.9029C310.482 20.2057 311.667 18.2204 312.692 15.9469C313.716 13.6413 314.581 11.1596 315.285 8.50181C316.022 5.81199 316.614 3.04212 317.063 0.192188ZM326.477 10.9995L330.176 11.3838C329.407 16.9235 328.254 21.7908 326.717 25.9857C325.212 30.1805 323.163 33.7989 320.569 36.841C318.007 39.8831 314.709 42.4608 310.674 44.5742C310.546 44.254 310.354 43.8858 310.098 43.4695C309.842 43.0852 309.57 42.685 309.281 42.2687C309.025 41.8844 308.769 41.5642 308.513 41.308C312.323 39.5148 315.43 37.2413 317.831 34.4874C320.233 31.7015 322.106 28.3713 323.451 24.4966C324.828 20.59 325.837 16.091 326.477 10.9995ZM317.783 12.0562C318.488 16.4752 319.48 20.622 320.761 24.4966C322.074 28.3392 323.771 31.7175 325.853 34.6315C327.934 37.5135 330.464 39.739 333.442 41.308C333.154 41.5642 332.833 41.8684 332.481 42.2206C332.161 42.5729 331.857 42.9411 331.569 43.3254C331.28 43.7097 331.04 44.0779 330.848 44.4301C327.742 42.5729 325.116 40.0912 322.971 36.9851C320.825 33.847 319.08 30.2125 317.735 26.0817C316.39 21.9509 315.318 17.4519 314.517 12.5846L317.783 12.0562ZM293.383 35.0638L295.256 32.6141C297.177 33.3186 299.083 34.1352 300.972 35.0638C302.861 35.9604 304.622 36.889 306.255 37.8497C307.888 38.8103 309.281 39.739 310.434 40.6356L307.937 43.2293C306.848 42.3007 305.519 41.3561 303.95 40.3954C302.381 39.4348 300.684 38.4901 298.858 37.5615C297.065 36.6329 295.24 35.8003 293.383 35.0638ZM346.074 14.1216H369.13V17.4359H346.074V14.1216ZM338.293 26.1778H379.649V29.6361H338.293V26.1778ZM357.026 22.5753H360.868V39.9631C360.868 41.0198 360.692 41.8364 360.34 42.4128C360.02 42.9892 359.427 43.4375 358.563 43.7577C357.73 44.0459 356.641 44.206 355.297 44.238C353.984 44.3021 352.319 44.3341 350.301 44.3341C350.205 43.9818 350.061 43.5816 349.869 43.1333C349.709 42.717 349.517 42.3007 349.293 41.8844C349.1 41.4681 348.908 41.0839 348.716 40.7316C349.805 40.7637 350.846 40.7797 351.838 40.7797C352.831 40.8117 353.679 40.8277 354.384 40.8277C355.12 40.8277 355.633 40.8277 355.921 40.8277C356.369 40.7957 356.658 40.7156 356.786 40.5875C356.946 40.4274 357.026 40.1873 357.026 39.8671V22.5753ZM368.073 14.1216H368.986L369.802 13.9295L372.156 15.7547C371.131 16.9075 369.93 18.0763 368.554 19.2611C367.209 20.4139 365.784 21.5186 364.279 22.5753C362.806 23.6 361.333 24.4806 359.86 25.2171C359.636 24.8969 359.315 24.5447 358.899 24.1604C358.483 23.7441 358.13 23.4079 357.842 23.1517C359.123 22.4793 360.404 21.6627 361.685 20.7021C362.966 19.7414 364.167 18.7488 365.287 17.7241C366.408 16.6994 367.337 15.7387 368.073 14.8421V14.1216ZM356.93 0.144153H360.724V7.92542H356.93V0.144153ZM338.725 5.42773H379.073V16.7634H375.374V8.88607H342.28V16.7634H338.725V5.42773ZM406.259 1.393H409.91V37.0812C409.91 37.9778 409.99 38.6662 410.15 39.1466C410.31 39.5949 410.614 39.9151 411.062 40.1072C411.543 40.2673 412.231 40.3474 413.128 40.3474C413.448 40.3474 414.024 40.3474 414.857 40.3474C415.721 40.3474 416.666 40.3474 417.691 40.3474C418.748 40.3474 419.724 40.3474 420.621 40.3474C421.517 40.3474 422.158 40.3474 422.542 40.3474C423.439 40.3474 424.095 40.1072 424.511 39.6269C424.96 39.1145 425.28 38.2179 425.472 36.9371C425.696 35.6562 425.856 33.863 425.952 31.5574C426.401 31.8776 426.945 32.1979 427.586 32.5181C428.258 32.8063 428.85 32.9984 429.363 33.0945C429.203 35.7202 428.914 37.8177 428.498 39.3867C428.114 40.9238 427.473 42.0285 426.577 42.701C425.712 43.3734 424.431 43.7097 422.734 43.7097C422.478 43.7097 422.014 43.7097 421.341 43.7097C420.701 43.7097 419.932 43.7097 419.036 43.7097C418.171 43.7097 417.307 43.7097 416.442 43.7097C415.577 43.7097 414.809 43.7097 414.136 43.7097C413.496 43.7097 413.064 43.7097 412.84 43.7097C411.174 43.7097 409.862 43.5175 408.901 43.1333C407.94 42.749 407.252 42.0605 406.835 41.0679C406.451 40.1072 406.259 38.7463 406.259 36.9851V1.393ZM424.319 9.3664L426.913 12.4405C425.312 13.7854 423.503 15.1143 421.485 16.4272C419.468 17.708 417.355 18.9569 415.145 20.1737C412.968 21.3905 410.822 22.5433 408.709 23.6321C408.581 23.2158 408.357 22.7515 408.036 22.2391C407.748 21.6947 407.476 21.2144 407.22 20.7981C409.269 19.7094 411.351 18.5246 413.464 17.2437C415.577 15.9629 417.579 14.65 419.468 13.3051C421.357 11.9281 422.974 10.6152 424.319 9.3664ZM397.949 0.960707L401.456 2.16152C400.239 4.94741 398.814 7.68526 397.181 10.3751C395.548 13.0649 393.787 15.5946 391.897 17.9642C390.04 20.3018 388.103 22.3672 386.085 24.1604C385.989 23.8402 385.797 23.4559 385.509 23.0076C385.253 22.5593 384.981 22.111 384.692 21.6627C384.404 21.1824 384.148 20.7981 383.924 20.5099C385.781 18.9729 387.574 17.1797 389.304 15.1303C391.065 13.0489 392.682 10.8074 394.155 8.40575C395.628 5.9721 396.893 3.49042 397.949 0.960707ZM392.426 13.5452L395.98 9.99082L396.028 10.0869V44.3341H392.426V13.5452ZM435.031 4.46708L436.856 1.96939C438.009 2.35365 439.225 2.83398 440.506 3.41037C441.787 3.95473 443.004 4.53113 444.157 5.13954C445.31 5.74795 446.254 6.34035 446.991 6.91674L445.069 9.70263C444.365 9.15826 443.436 8.56586 442.283 7.92542C441.163 7.25297 439.962 6.62855 438.681 6.05215C437.432 5.44374 436.215 4.91539 435.031 4.46708ZM433.301 16.8114C435.063 16.2991 437.176 15.6587 439.642 14.8901C442.107 14.1216 444.637 13.3211 447.231 12.4885L447.807 15.6587C445.47 16.4272 443.116 17.1957 440.746 17.9642C438.409 18.7327 436.279 19.4532 434.358 20.1257L433.301 16.8114ZM454.196 0.43235L457.654 0.912675C456.853 2.99408 455.765 5.0915 454.388 7.20493C453.011 9.31837 451.25 11.2557 449.104 13.0169C448.912 12.7287 448.656 12.4565 448.336 12.2003C448.047 11.9121 447.743 11.6399 447.423 11.3838C447.103 11.1276 446.815 10.9194 446.558 10.7593C448.512 9.28634 450.113 7.62122 451.362 5.76396C452.642 3.87468 453.587 2.09748 454.196 0.43235ZM454.244 4.70724H472.448V7.49313H452.274L454.244 4.70724ZM471.631 4.70724H472.256L472.832 4.51511L475.474 5.2356C474.866 6.54849 474.209 7.8934 473.505 9.27034C472.832 10.6152 472.192 11.752 471.583 12.6806L468.461 11.768C468.974 10.9355 469.518 9.91077 470.094 8.69394C470.703 7.47712 471.215 6.30833 471.631 5.18757V4.70724ZM439.69 22.7194H470.815V35.7843H467.068V26.0817H443.244V36.1205H439.69V22.7194ZM453.667 27.4747H457.222C456.805 29.8763 456.165 32.0217 455.3 33.911C454.436 35.7683 453.171 37.3854 451.506 38.7623C449.873 40.1392 447.711 41.292 445.021 42.2206C442.364 43.1813 439.001 43.9498 434.935 44.5262C434.87 44.238 434.742 43.9018 434.55 43.5175C434.358 43.1653 434.15 42.813 433.926 42.4608C433.734 42.1086 433.542 41.8044 433.349 41.5482C437.16 41.0999 440.298 40.4915 442.764 39.723C445.261 38.9224 447.231 37.9458 448.672 36.793C450.145 35.6402 451.25 34.3113 451.986 32.8063C452.755 31.2692 453.315 29.492 453.667 27.4747ZM455.733 36.9851L457.702 34.3433C459.207 34.7916 460.792 35.304 462.457 35.8804C464.122 36.4567 465.787 37.0652 467.453 37.7056C469.118 38.314 470.671 38.9384 472.112 39.5789C473.585 40.1873 474.834 40.7476 475.858 41.26L473.745 44.238C472.72 43.7257 471.487 43.1493 470.046 42.5088C468.637 41.8684 467.116 41.228 465.483 40.5875C463.85 39.9151 462.185 39.2747 460.488 38.6662C458.823 38.0258 457.238 37.4654 455.733 36.9851ZM460.248 6.14822H463.85C463.466 7.87739 462.905 9.52651 462.169 11.0956C461.464 12.6646 460.536 14.1216 459.383 15.4665C458.23 16.8114 456.757 18.0283 454.964 19.117C453.203 20.1737 451.057 21.0863 448.528 21.8549C448.336 21.4706 448.047 21.0223 447.663 20.5099C447.311 19.9656 446.959 19.5493 446.606 19.2611C448.944 18.6207 450.913 17.8521 452.514 16.9555C454.115 16.0269 455.428 15.0022 456.453 13.8815C457.478 12.7287 458.278 11.4958 458.855 10.183C459.463 8.87006 459.927 7.52515 460.248 6.14822ZM462.313 9.41443C463.178 10.8874 464.314 12.2484 465.723 13.4972C467.164 14.714 468.797 15.7707 470.623 16.6673C472.48 17.564 474.449 18.2364 476.531 18.6847C476.178 19.0049 475.794 19.4532 475.378 20.0296C474.962 20.574 474.625 21.0703 474.369 21.5186C472.224 20.9102 470.19 20.0616 468.269 18.9729C466.38 17.8521 464.699 16.5553 463.226 15.0823C461.753 13.5773 460.552 11.9281 459.623 10.1349L462.313 9.41443ZM487.05 18.3004H523.555V21.8549H487.05V18.3004ZM484.264 6.00412H522.306V9.46247H484.264V6.00412ZM484.936 18.3004H488.683V24.977C488.683 26.3859 488.619 27.955 488.491 29.6842C488.363 31.3813 488.107 33.1265 487.722 34.9197C487.37 36.6809 486.858 38.4101 486.185 40.1072C485.545 41.8044 484.696 43.3574 483.639 44.7664C483.447 44.5422 483.159 44.254 482.775 43.9018C482.423 43.5816 482.054 43.2614 481.67 42.9411C481.286 42.6529 480.95 42.4288 480.661 42.2687C481.942 40.5395 482.887 38.6502 483.495 36.6008C484.104 34.5515 484.488 32.5021 484.648 30.4527C484.84 28.4033 484.936 26.546 484.936 24.8809V18.3004ZM491.613 11.1916L494.735 9.89476C495.536 10.9194 496.336 12.0882 497.137 13.4011C497.969 14.682 498.594 15.7867 499.01 16.7154L495.696 18.2044C495.343 17.2437 494.767 16.107 493.966 14.7941C493.198 13.4492 492.413 12.2483 491.613 11.1916ZM512.075 10.1349L515.965 11.4798C515.133 12.8888 514.252 14.3458 513.324 15.8508C512.427 17.3558 511.594 18.6367 510.826 19.6934L507.992 18.5406C508.472 17.7721 508.969 16.9075 509.481 15.9469C509.993 14.9542 510.474 13.9455 510.922 12.9208C511.37 11.8961 511.755 10.9675 512.075 10.1349ZM499.394 1.15284L502.997 0.192188C503.733 1.02475 504.438 1.9854 505.11 3.07414C505.782 4.16288 506.279 5.12353 506.599 5.95609L502.804 7.1569C502.548 6.32434 502.084 5.34768 501.412 4.22692C500.771 3.07414 500.099 2.04944 499.394 1.15284ZM540.03 40.0112H565.439V42.8451H540.03V40.0112ZM549.156 9.94279H552.662V15.2744H549.156V9.94279ZM530.952 13.7374H571.491V22.7675H567.985V16.5713H534.362V22.7675H530.952V13.7374ZM539.838 19.5493H564.478V29.2038H539.838V26.466H560.876V22.3352H539.838V19.5493ZM539.982 32.5181H567.552V44.3821H563.95V35.352H539.982V32.5181ZM537.916 19.5493H541.327V44.4782H537.916V19.5493ZM534.89 3.93873H550.405V6.86871H534.89V3.93873ZM553.575 3.93873H572.98V6.86871H553.575V3.93873ZM535.803 5.72592e-05L539.165 0.912675C538.3 2.99408 537.196 5.02746 535.851 7.0128C534.538 8.99815 533.193 10.6633 531.816 12.0082C531.592 11.8481 531.288 11.6399 530.903 11.3838C530.551 11.1276 530.183 10.8714 529.799 10.6152C529.447 10.3591 529.126 10.1669 528.838 10.0389C530.247 8.79001 531.576 7.28499 532.825 5.5238C534.074 3.73058 535.066 1.88934 535.803 5.72592e-05ZM554.68 5.72592e-05L558.138 0.864643C557.273 2.91403 556.137 4.86735 554.728 6.72461C553.319 8.58187 551.846 10.1349 550.309 11.3838C550.084 11.2237 549.78 11.0315 549.396 10.8074C549.044 10.5512 548.66 10.311 548.243 10.0869C547.859 9.86274 547.507 9.68662 547.187 9.55853C548.788 8.40575 550.245 6.99679 551.557 5.33167C552.902 3.63452 553.943 1.85731 554.68 5.72592e-05ZM537.532 6.19625L540.654 5.3797C541.23 6.21226 541.791 7.1569 542.335 8.21362C542.88 9.23831 543.28 10.1189 543.536 10.8554L540.222 11.8161C540.03 11.0796 539.677 10.183 539.165 9.12624C538.653 8.0375 538.108 7.06084 537.532 6.19625ZM557.946 6.24429L561.068 5.28364C561.836 6.1162 562.589 7.06084 563.325 8.11755C564.094 9.14225 564.67 10.0549 565.055 10.8554L561.788 11.9602C561.436 11.1596 560.892 10.231 560.155 9.17427C559.419 8.08553 558.682 7.10887 557.946 6.24429ZM597.909 14.65V20.8462H615.729V14.65H597.909ZM597.909 5.61986V11.72H615.729V5.61986H597.909ZM594.595 2.44972H619.187V23.9683H594.595V2.44972ZM594.018 29.6361H619.86V32.9023H594.018V29.6361ZM590.32 39.5308H621.493V42.8451H590.32V39.5308ZM577.255 3.4584H592.241V6.86871H577.255V3.4584ZM577.735 17.3878H591.521V20.7501H577.735V17.3878ZM576.727 35.7843C578.039 35.4 579.512 34.9677 581.146 34.4874C582.811 33.9751 584.556 33.4147 586.381 32.8063C588.238 32.1658 590.096 31.5414 591.953 30.933L592.577 34.4394C589.983 35.304 587.374 36.1846 584.748 37.0812C582.122 37.9458 579.753 38.7303 577.639 39.4348L576.727 35.7843ZM583.211 4.80331H586.669V34.5835L583.211 35.2559V4.80331ZM605.258 3.93873H608.38V22.4312H608.668V41.0198H604.97V22.4312H605.258V3.93873ZM635.614 17.676H658.526V21.0383H635.614V17.676ZM637.92 7.10887H663.617V10.5672H637.92V7.10887ZM625.672 28.0991H668.661V31.5094H625.672V28.0991ZM657.277 17.676H660.976C660.976 17.676 660.96 17.7881 660.928 18.0123C660.928 18.2364 660.912 18.4926 660.88 18.7808C660.88 19.0369 660.863 19.2611 660.831 19.4532C660.351 24.4486 659.871 28.5314 659.39 31.7015C658.91 34.8396 658.382 37.2733 657.805 39.0025C657.261 40.6996 656.605 41.9325 655.836 42.701C655.228 43.3094 654.587 43.7097 653.915 43.9018C653.274 44.1259 652.474 44.286 651.513 44.3821C650.649 44.4141 649.416 44.4141 647.815 44.3821C646.246 44.3501 644.596 44.286 642.867 44.19C642.835 43.6456 642.707 43.0372 642.483 42.3647C642.259 41.6923 641.971 41.0999 641.618 40.5875C643.444 40.7797 645.157 40.8917 646.758 40.9238C648.391 40.9558 649.544 40.9718 650.216 40.9718C650.825 40.9718 651.305 40.9398 651.657 40.8757C652.042 40.8117 652.394 40.6516 652.714 40.3954C653.354 39.819 653.931 38.7143 654.443 37.0812C654.988 35.4481 655.484 33.1105 655.932 30.0684C656.38 27.0264 656.829 23.1197 657.277 18.3485V17.676ZM637.632 0.144153L641.378 0.528414C640.994 2.38567 640.594 4.35501 640.177 6.43642C639.761 8.51782 639.329 10.5992 638.881 12.6806C638.432 14.7621 637.984 16.7314 637.536 18.5886C637.087 20.4459 636.671 22.095 636.287 23.536L632.588 23.1998C633.005 21.7268 633.437 20.0456 633.885 18.1564C634.334 16.2671 634.782 14.2817 635.23 12.2003C635.71 10.0869 636.159 8.00548 636.575 5.95609C636.991 3.9067 637.344 1.96939 637.632 0.144153ZM680.477 24.5927H710.065V44.3341H706.414V27.5707H684.031V44.4301H680.477V24.5927ZM682.494 32.0858H707.711V34.9197H682.494V32.0858ZM678.652 4.22692H694.022V7.1569H678.652V4.22692ZM673.512 11.72H695.271V14.698H673.512V11.72ZM682.494 39.6749H707.711V42.6529H682.494V39.6749ZM683.503 5.2356H686.913V9.99082C686.913 11.1436 686.785 12.3924 686.529 13.7374C686.273 15.0823 685.744 16.4592 684.944 17.8682C684.175 19.2771 683.022 20.654 681.485 21.999C679.948 23.3118 677.915 24.5447 675.385 25.6975C675.129 25.3132 674.777 24.8809 674.329 24.4006C673.88 23.8882 673.448 23.488 673.032 23.1998C675.465 22.2391 677.387 21.1984 678.796 20.0777C680.205 18.9249 681.245 17.7561 681.918 16.5713C682.59 15.3865 683.022 14.2337 683.215 13.1129C683.407 11.9602 683.503 10.9195 683.503 9.99082V5.2356ZM678.892 0.0961211L682.206 0.768576C681.566 2.81796 680.717 4.80331 679.66 6.72461C678.636 8.61389 677.547 10.215 676.394 11.5279C676.17 11.3357 675.882 11.1276 675.529 10.9034C675.177 10.6793 674.809 10.4551 674.425 10.231C674.072 10.0068 673.768 9.84672 673.512 9.75066C674.729 8.50181 675.802 7.02882 676.73 5.33167C677.659 3.63452 678.379 1.88934 678.892 0.0961211ZM685.856 15.3705C686.305 15.6266 686.945 16.0109 687.778 16.5232C688.642 17.0036 689.539 17.5319 690.468 18.1083C691.428 18.6847 692.309 19.2291 693.109 19.7414C693.942 20.2218 694.534 20.59 694.887 20.8462L692.389 23.2958C691.941 22.9436 691.316 22.4793 690.516 21.9029C689.747 21.3265 688.914 20.7181 688.018 20.0777C687.153 19.4372 686.305 18.8448 685.472 18.3004C684.672 17.7561 684.015 17.3238 683.503 17.0036L685.856 15.3705ZM700.65 7.39707V17.628H710.641V7.39707H700.65ZM697.288 4.13085H714.148V20.8942H697.288V4.13085ZM729.134 0.192188L732.832 1.10481C732.256 2.41769 731.631 3.79463 730.959 5.2356C730.319 6.64456 729.646 7.98947 728.942 9.27034C728.269 10.5512 727.613 11.704 726.972 12.7287L723.85 11.8641C724.491 10.8074 725.131 9.60656 725.771 8.26165C726.444 6.88472 727.068 5.49178 727.645 4.08282C728.253 2.64184 728.749 1.34497 729.134 0.192188ZM721.064 10.4231C722.729 10.3591 724.651 10.295 726.828 10.231C729.006 10.1349 731.327 10.0389 733.793 9.94279C736.259 9.8147 738.74 9.70263 741.238 9.60656L741.19 12.7767C738.82 12.9368 736.435 13.0809 734.033 13.209C731.663 13.3371 729.39 13.4652 727.212 13.5933C725.067 13.7213 723.114 13.8334 721.352 13.9295L721.064 10.4231ZM723.946 17.3398H739.173V20.4139H727.308V44.3821H723.946V17.3398ZM737.539 17.3398H741.094V40.2513C741.094 41.1799 740.982 41.9004 740.758 42.4128C740.533 42.9571 740.085 43.3894 739.413 43.7097C738.74 43.9658 737.876 44.1259 736.819 44.19C735.762 44.254 734.481 44.286 732.976 44.286C732.88 43.8057 732.72 43.2453 732.496 42.6049C732.272 41.9645 732.032 41.4201 731.776 40.9718C732.896 41.0038 733.921 41.0198 734.85 41.0198C735.778 41.0519 736.419 41.0519 736.771 41.0198C737.091 41.0198 737.299 40.9558 737.395 40.8277C737.491 40.7316 737.539 40.5235 737.539 40.2033V17.3398ZM725.579 24.5447H739.413V27.3786H725.579V24.5447ZM725.579 31.7496H739.413V34.5835H725.579V31.7496ZM745.609 0.336283H749.211V16.2351C749.211 17.0036 749.355 17.4999 749.644 17.7241C749.964 17.9482 750.684 18.0603 751.805 18.0603C752.029 18.0603 752.478 18.0603 753.15 18.0603C753.854 18.0603 754.623 18.0603 755.456 18.0603C756.288 18.0603 757.073 18.0603 757.809 18.0603C758.546 18.0603 759.074 18.0603 759.394 18.0603C760.035 18.0603 760.515 17.9322 760.835 17.676C761.155 17.3878 761.38 16.8595 761.508 16.091C761.636 15.2904 761.732 14.0896 761.796 12.4885C762.084 12.6806 762.404 12.8728 762.756 13.0649C763.141 13.257 763.541 13.4332 763.957 13.5933C764.374 13.7213 764.742 13.8174 765.062 13.8815C764.934 15.8348 764.694 17.3558 764.342 18.4445C763.989 19.5333 763.445 20.2858 762.708 20.7021C762.004 21.1184 761.011 21.3265 759.73 21.3265C759.506 21.3265 759.106 21.3265 758.53 21.3265C757.985 21.3265 757.345 21.3265 756.608 21.3265C755.904 21.3265 755.183 21.3265 754.447 21.3265C753.742 21.3265 753.118 21.3265 752.574 21.3265C752.029 21.3265 751.661 21.3265 751.469 21.3265C749.932 21.3265 748.731 21.1824 747.866 20.8942C747.034 20.606 746.441 20.0937 746.089 19.3572C745.769 18.6207 745.609 17.596 745.609 16.2831V0.336283ZM760.355 3.84266L762.756 6.53248C761.38 7.14089 759.859 7.76531 758.193 8.40575C756.528 9.01416 754.815 9.59055 753.054 10.1349C751.293 10.6793 749.58 11.1916 747.914 11.672C747.85 11.3197 747.706 10.9034 747.482 10.4231C747.29 9.91077 747.082 9.47847 746.858 9.12624C748.427 8.64591 750.044 8.10154 751.709 7.49313C753.374 6.88472 754.959 6.27631 756.464 5.66789C757.969 5.02746 759.266 4.41905 760.355 3.84266ZM745.609 22.6714H749.163V38.9064C749.163 39.6749 749.323 40.1873 749.644 40.4434C749.996 40.6676 750.748 40.7797 751.901 40.7797C752.157 40.7797 752.638 40.7797 753.342 40.7797C754.047 40.7797 754.831 40.7797 755.696 40.7797C756.592 40.7797 757.409 40.7797 758.145 40.7797C758.914 40.7797 759.474 40.7797 759.827 40.7797C760.499 40.7797 761.011 40.6356 761.364 40.3474C761.716 40.0592 761.956 39.4668 762.084 38.5702C762.212 37.6415 762.308 36.2646 762.372 34.4394C762.821 34.7276 763.349 34.9998 763.957 35.2559C764.598 35.5121 765.158 35.7042 765.638 35.8323C765.51 37.9778 765.27 39.6429 764.918 40.8277C764.566 42.0125 764.005 42.8291 763.237 43.2774C762.5 43.7577 761.46 43.9979 760.115 43.9979C759.891 43.9979 759.49 43.9979 758.914 43.9979C758.337 43.9979 757.681 43.9979 756.945 43.9979C756.208 43.9979 755.456 43.9979 754.687 43.9979C753.918 43.9979 753.246 43.9979 752.67 43.9979C752.125 43.9979 751.757 43.9979 751.565 43.9979C750.028 43.9979 748.811 43.8538 747.914 43.5656C747.05 43.2774 746.441 42.765 746.089 42.0285C745.769 41.292 745.609 40.2513 745.609 38.9064V22.6714ZM760.931 25.2652L763.285 27.955C761.972 28.7235 760.451 29.46 758.722 30.1645C756.993 30.8369 755.199 31.4774 753.342 32.0858C751.485 32.6622 749.692 33.1905 747.962 33.6709C747.866 33.3186 747.706 32.8863 747.482 32.374C747.258 31.8616 747.05 31.4293 746.858 31.0771C748.523 30.5968 750.22 30.0364 751.949 29.396C753.71 28.7555 755.375 28.0831 756.945 27.3786C758.514 26.6741 759.843 25.9696 760.931 25.2652ZM735.138 4.75528L738.116 3.6025C738.98 4.69123 739.813 5.89205 740.613 7.20493C741.446 8.4858 742.199 9.75066 742.871 10.9995C743.543 12.2484 744.056 13.3691 744.408 14.3618L741.286 15.7547C740.966 14.7621 740.469 13.6253 739.797 12.3444C739.157 11.0635 738.42 9.76667 737.587 8.45378C736.787 7.14089 735.97 5.90806 735.138 4.75528ZM799.645 4.65921H803.056V31.2692H799.645V4.65921ZM808.195 0.720544H811.75V39.4348C811.75 40.6196 811.59 41.5162 811.269 42.1246C810.949 42.733 810.421 43.2133 809.684 43.5656C808.948 43.8538 807.923 44.0299 806.61 44.0939C805.329 44.19 803.792 44.238 801.999 44.238C801.903 43.7257 801.743 43.1012 801.519 42.3647C801.295 41.6603 801.054 41.0198 800.798 40.4434C802.239 40.4755 803.552 40.5075 804.737 40.5395C805.954 40.5395 806.786 40.5235 807.235 40.4915C807.587 40.4915 807.827 40.4274 807.955 40.2993C808.115 40.1392 808.195 39.8671 808.195 39.4828V0.720544ZM781.057 0.43235H784.515V44.3821H781.057V0.43235ZM791.192 23.7281H794.506V36.889C794.506 37.7216 794.41 38.3941 794.218 38.9064C794.026 39.3867 793.625 39.771 793.017 40.0592C792.473 40.3154 791.72 40.4755 790.759 40.5395C789.831 40.6036 788.71 40.6356 787.397 40.6356C787.333 40.1552 787.205 39.6269 787.013 39.0505C786.821 38.4421 786.613 37.9137 786.388 37.4654C787.413 37.4974 788.294 37.5135 789.03 37.5135C789.767 37.5135 790.263 37.5135 790.519 37.5135C790.968 37.5135 791.192 37.2893 791.192 36.841V23.7281ZM771.546 23.7281H792.537V26.9943H774.813V40.4915H771.546V23.7281ZM769.337 15.5146H796.187V18.8288H769.337V15.5146ZM773.948 7.1569H794.314V10.4711H773.276L773.948 7.1569ZM773.996 1.393L777.358 2.06545C776.782 4.56315 776.045 7.01281 775.149 9.41443C774.284 11.784 773.356 13.7854 772.363 15.4185C772.107 15.2904 771.787 15.1463 771.402 14.9862C771.018 14.7941 770.618 14.618 770.202 14.4578C769.817 14.2977 769.465 14.1697 769.145 14.0736C770.266 12.4405 771.226 10.5032 772.027 8.26165C772.827 5.98811 773.484 3.69856 773.996 1.393ZM835.718 6.29232H858.677V9.41443H835.718V6.29232ZM829.858 15.6106H860.791V18.6847H829.858V15.6106ZM836.534 0.864643L839.897 1.63316C839.064 4.09883 837.991 6.46844 836.679 8.74198C835.366 11.0155 833.989 12.9368 832.548 14.5059C832.324 14.3137 832.019 14.1056 831.635 13.8815C831.283 13.6573 830.915 13.4492 830.53 13.257C830.146 13.0329 829.794 12.8568 829.474 12.7287C831.011 11.2557 832.388 9.47847 833.604 7.39707C834.821 5.28363 835.798 3.10616 836.534 0.864643ZM843.595 0.24022H847.15V17.628H843.595V0.24022ZM827.793 19.2131V36.2166H824.286V22.5753H817.562V19.2131H827.793ZM827.793 34.6315C828.945 36.3927 830.546 37.7056 832.596 38.5702C834.645 39.4348 837.063 39.9151 839.849 40.0112C841.162 40.0752 842.747 40.1232 844.604 40.1552C846.493 40.1552 848.463 40.1392 850.512 40.1072C852.593 40.0752 854.595 40.0272 856.516 39.9631C858.437 39.8991 860.118 39.819 861.559 39.723C861.399 39.9791 861.239 40.3314 861.079 40.7797C860.919 41.228 860.775 41.6763 860.647 42.1246C860.519 42.6049 860.423 43.0212 860.359 43.3734C859.046 43.4375 857.493 43.4855 855.699 43.5175C853.906 43.5495 852.049 43.5656 850.128 43.5656C848.206 43.5976 846.333 43.5976 844.508 43.5656C842.715 43.5656 841.162 43.5495 839.849 43.5175C836.711 43.3894 834.021 42.8771 831.779 41.9805C829.57 41.0839 827.696 39.6749 826.159 37.7536C825.007 38.7783 823.822 39.803 822.605 40.8277C821.388 41.8844 820.123 42.9571 818.81 44.0459L816.937 40.3474C818.09 39.5789 819.323 38.6983 820.636 37.7056C821.981 36.6809 823.277 35.6562 824.526 34.6315H827.793ZM818.09 3.55446L820.732 1.393C821.788 2.06546 822.861 2.84999 823.95 3.74659C825.039 4.61118 826.031 5.49178 826.928 6.38838C827.857 7.28499 828.609 8.11755 829.185 8.88607L826.304 11.2877C825.823 10.5192 825.119 9.67061 824.19 8.74198C823.293 7.81335 822.301 6.90073 821.212 6.00412C820.155 5.07549 819.115 4.25894 818.09 3.55446ZM837.735 25.4573V33.0945H853.634V25.4573H837.735ZM834.229 22.4793H857.333V36.1205H834.229V22.4793ZM865.45 5.86002H883.27V9.2223H865.45V5.86002ZM874.912 13.3531H878.371V44.238H874.912V13.3531ZM865.162 32.5661C866.795 32.3099 868.668 32.0057 870.782 31.6535C872.927 31.3013 875.185 30.917 877.554 30.5007C879.924 30.0844 882.309 29.6681 884.711 29.2519L884.855 32.374C881.525 33.0464 878.179 33.7189 874.816 34.3913C871.486 35.0318 868.524 35.5922 865.93 36.0725L865.162 32.5661ZM867.131 24.6407C867.067 24.4166 866.971 24.1124 866.843 23.7281C866.747 23.3118 866.619 22.9116 866.459 22.5273C866.299 22.111 866.154 21.7588 866.026 21.4706C866.443 21.3745 866.827 20.9743 867.179 20.2698C867.563 19.5333 867.964 18.6527 868.38 17.628C868.604 17.0836 868.924 16.2351 869.341 15.0823C869.757 13.8975 870.205 12.5045 870.686 10.9034C871.166 9.30236 871.63 7.5892 872.079 5.76396C872.527 3.9067 872.879 2.06545 873.135 0.24022L876.69 0.960707C876.113 3.55446 875.425 6.16423 874.624 8.79001C873.856 11.3838 873.007 13.8815 872.079 16.2831C871.15 18.6527 870.205 20.7821 869.245 22.6714V22.7675C869.245 22.7675 869.133 22.8315 868.908 22.9596C868.716 23.0877 868.476 23.2638 868.188 23.488C867.9 23.6801 867.644 23.8882 867.419 24.1124C867.227 24.3045 867.131 24.4806 867.131 24.6407ZM867.131 24.6407V21.6627L869.1 20.7021H883.318V23.9683H870.638C869.805 23.9683 869.052 24.0323 868.38 24.1604C867.74 24.2885 867.323 24.4486 867.131 24.6407ZM890.283 23.8722H904.645V27.2345H890.283V23.8722ZM903.78 23.8722H904.356L904.933 23.6321L907.478 24.8809C906.582 26.1938 905.573 27.6348 904.452 29.2038C903.364 30.7729 902.227 32.358 901.042 33.9591C899.857 35.5281 898.689 37.0171 897.536 38.4261L894.462 37.0331C895.55 35.6562 896.671 34.1672 897.824 32.5661C899.009 30.965 900.13 29.444 901.186 28.003C902.243 26.53 903.108 25.2812 903.78 24.2565V23.8722ZM888.746 34.2953L891.051 31.9897C892.716 32.9504 894.398 34.0071 896.095 35.1599C897.792 36.2806 899.377 37.4174 900.85 38.5702C902.355 39.723 903.588 40.7637 904.548 41.6923L902.147 44.4782C901.218 43.5175 900.017 42.4288 898.544 41.212C897.071 40.0272 895.47 38.8263 893.741 37.6095C892.044 36.3607 890.379 35.2559 888.746 34.2953ZM895.662 0.24022L899.265 0.720544C898.721 2.866 898.128 5.13954 897.488 7.54116C896.847 9.91077 896.175 12.3124 895.47 14.746C894.798 17.1477 894.141 19.4372 893.501 21.6147C892.893 23.7601 892.316 25.6334 891.772 27.2345H887.881C888.49 25.5373 889.146 23.584 889.851 21.3745C890.555 19.133 891.259 16.7954 891.964 14.3618C892.668 11.8961 893.341 9.46246 893.981 7.06084C894.622 4.62719 895.182 2.35365 895.662 0.24022ZM885.576 5.86002H907.575V9.2223H885.576V5.86002ZM883.702 14.8901H909.304V18.3004H883.702V14.8901ZM916.076 2.20955H937.787V5.3797H916.076V2.20955ZM914.491 12.0082H938.796V15.2264H914.491V12.0082ZM913.531 39.3867H957V42.749H913.531V39.3867ZM918.526 29.9724H952.005V33.2866H918.526V29.9724ZM929.91 3.50643H933.32V25.5534H929.91V3.50643ZM933.704 24.6407H937.403V41.6923H933.704V24.6407ZM941.774 2.97807H945.088V19.069H941.774V2.97807ZM950.756 0.528414H954.166V22.047C954.166 23.0397 954.038 23.7922 953.782 24.3045C953.558 24.8169 953.077 25.2171 952.341 25.5053C951.604 25.7615 950.644 25.9376 949.459 26.0337C948.274 26.0977 946.833 26.1298 945.136 26.1298C945.04 25.6494 944.88 25.1051 944.656 24.4966C944.431 23.8562 944.191 23.2958 943.935 22.8155C945.312 22.8475 946.545 22.8795 947.634 22.9116C948.722 22.9116 949.443 22.8956 949.795 22.8635C950.179 22.8315 950.436 22.7675 950.564 22.6714C950.692 22.5433 950.756 22.3192 950.756 21.999V0.528414ZM920.639 3.55446H923.954V11.72C923.954 13.3851 923.762 15.1303 923.377 16.9555C923.025 18.7808 922.305 20.542 921.216 22.2391C920.159 23.9363 918.574 25.4413 916.461 26.7542C916.332 26.498 916.108 26.2098 915.788 25.8896C915.5 25.5694 915.196 25.2652 914.875 24.977C914.587 24.6568 914.331 24.4166 914.107 24.2565C916.028 23.0717 917.437 21.7748 918.334 20.3658C919.262 18.9569 919.871 17.4999 920.159 15.9949C920.479 14.4899 920.639 13.0489 920.639 11.672V3.55446Z" fill="#999999"/>
</svg>
