<svg width="330" height="45" viewBox="0 0 330 45" fill="none" xmlns="http://www.w3.org/2000/svg">
<path d="M4.43643 40.5062H8.41299e-06L12.8315 5.56079H17.1997L30.0312 40.5062H25.5948L15.1521 11.0893H14.8791L4.43643 40.5062ZM6.0745 26.8556H23.9567V30.6095H6.0745V26.8556ZM39.706 5.56079V40.5062H35.4743V5.56079H39.706ZM50.3977 2.06626H85.5222V4.8051H50.3977V2.06626ZM53.2326 12.5892H63.6595V14.8475H53.2326V12.5892ZM59.2389 26.1873H76.8251V28.7339H59.2389V26.1873ZM51.2145 31.7611H81.2938V34.3558H51.2145V31.7611ZM52.1755 17.3942H63.7075V19.7486H52.1755V17.3942ZM72.0201 17.3942H83.8885V19.7486H72.0201V17.3942ZM72.0201 12.5892H82.6872V14.8475H72.0201V12.5892ZM66.0619 3.1714H69.6176V17.4903H66.0619V3.1714ZM62.8426 32.7221H66.3022V44.3502H62.8426V32.7221ZM47.6108 7.54394H88.4052V15.9527H85.0417V10.0425H50.8782V15.9527H47.6108V7.54394ZM67.7917 21.046C66.3823 22.3273 64.5884 23.6246 62.4102 24.938C60.2319 26.2193 57.8454 27.4046 55.2507 28.4937C52.6881 29.5828 50.0613 30.5118 47.3705 31.2806C47.2104 30.8642 46.9701 30.3837 46.6498 29.8391C46.3615 29.2625 46.0572 28.814 45.7368 28.4937C48.4597 27.789 51.1024 26.908 53.6651 25.851C56.2598 24.7939 58.6142 23.6246 60.7284 22.3433C62.8746 21.062 64.6205 19.7326 65.9659 18.3552H69.2332C71.0591 19.8928 73.1413 21.3022 75.4797 22.5836C77.8502 23.8329 80.3168 24.906 82.8794 25.8029C85.4741 26.6998 88.0047 27.4046 90.4713 27.9171C90.1189 28.3335 89.7666 28.83 89.4142 29.4066C89.0939 29.9512 88.8216 30.4317 88.5973 30.8481C86.8355 30.4317 84.9936 29.8871 83.0716 29.2144C81.1496 28.5417 79.2597 27.7729 77.4017 26.908C75.5438 26.0432 73.782 25.1302 72.1162 24.1692C70.4825 23.1762 69.041 22.1351 67.7917 21.046ZM79.612 31.7611H83.1197V38.392C83.1197 39.2569 83.0075 39.9296 82.7833 40.4101C82.5591 40.8585 82.0786 41.2109 81.3418 41.4672C80.6691 41.7234 79.7722 41.8676 78.651 41.8996C77.5299 41.9316 76.1204 41.9477 74.4226 41.9477C74.3265 41.4992 74.1503 41.0187 73.8941 40.5062C73.6699 39.9616 73.4296 39.4811 73.1733 39.0647C74.5508 39.0967 75.736 39.1127 76.729 39.1127C77.7221 39.1127 78.3948 39.1127 78.7471 39.1127C79.0995 39.0807 79.3237 39.0166 79.4198 38.9205C79.548 38.8244 79.612 38.6322 79.612 38.3439V31.7611ZM121.031 0.720856H124.635V44.3502H121.031V0.720856ZM112.766 2.54675L116.226 3.2675C115.778 5.4778 115.233 7.67208 114.592 9.85034C113.984 11.9966 113.279 13.9986 112.478 15.8566C111.709 17.7145 110.86 19.3802 109.931 20.8538C109.707 20.6616 109.403 20.4533 109.019 20.2291C108.666 20.0049 108.282 19.7806 107.865 19.5564C107.481 19.3322 107.145 19.156 106.856 19.0279C107.785 17.7145 108.618 16.1769 109.355 14.4151C110.124 12.6212 110.796 10.7152 111.373 8.69714C111.95 6.67904 112.414 4.62892 112.766 2.54675ZM113.199 9.99449H135.686V13.5021H112.334L113.199 9.99449ZM107.241 24.1212H137.8V27.6768H107.241V24.1212ZM104.886 0.336459L108.298 1.34551C107.273 4.06833 106.088 6.75913 104.742 9.41789C103.429 12.0446 101.987 14.5272 100.418 16.8656C98.88 19.172 97.2784 21.2382 95.6126 23.0641C95.4845 22.7758 95.2923 22.4074 95.036 21.9589C94.8118 21.5104 94.5555 21.062 94.2672 20.6135C94.011 20.133 93.7707 19.7646 93.5465 19.5084C95.052 17.9387 96.4935 16.1289 97.871 14.0787C99.2804 12.0286 100.578 9.83432 101.763 7.49589C102.98 5.12543 104.021 2.73895 104.886 0.336459ZM100.033 12.6853L103.445 9.27374L103.493 9.32179V44.2541H100.033V12.6853ZM149.429 24.5056H179.027V44.2541H175.375V27.4846H152.984V44.3502H149.429V24.5056ZM151.447 32.0013H176.673V34.8363H151.447V32.0013ZM147.603 4.1324H162.979V7.06344H147.603V4.1324ZM142.461 11.6282H164.228V14.6073H142.461V11.6282ZM151.447 39.5932H176.673V42.5723H151.447V39.5932ZM152.456 5.14145H155.867V9.89839C155.867 11.0516 155.739 12.3009 155.483 13.6463C155.227 14.9917 154.698 16.3691 153.897 17.7786C153.128 19.188 151.975 20.5655 150.438 21.9109C148.9 23.2242 146.866 24.4575 144.335 25.6107C144.079 25.2263 143.727 24.7939 143.278 24.3134C142.83 23.8008 142.397 23.4004 141.981 23.1121C144.415 22.1511 146.337 21.11 147.747 19.9889C149.156 18.8357 150.197 17.6665 150.87 16.4812C151.543 15.296 151.975 14.1428 152.167 13.0216C152.36 11.8684 152.456 10.8274 152.456 9.89839V5.14145ZM147.843 0.000108832L151.158 0.672807C150.518 2.72294 149.669 4.709 148.612 6.63099C147.587 8.52096 146.497 10.1226 145.344 11.436C145.12 11.2438 144.832 11.0356 144.479 10.8113C144.127 10.5871 143.759 10.3629 143.374 10.1386C143.022 9.9144 142.718 9.75424 142.461 9.65814C143.679 8.40884 144.752 6.93531 145.681 5.23755C146.61 3.53978 147.33 1.79397 147.843 0.000108832ZM154.81 15.28C155.259 15.5362 155.899 15.9206 156.732 16.4332C157.597 16.9137 158.494 17.4422 159.423 18.0188C160.384 18.5954 161.265 19.14 162.066 19.6525C162.898 20.133 163.491 20.5014 163.843 20.7577L161.345 23.2082C160.896 22.8558 160.272 22.3914 159.471 21.8148C158.702 21.2382 157.869 20.6295 156.972 19.9889C156.107 19.3482 155.259 18.7556 154.426 18.211C153.625 17.6665 152.968 17.234 152.456 16.9137L154.81 15.28ZM169.609 7.30369V17.5383H179.604V7.30369H169.609ZM166.246 4.0363H183.111V20.8057H166.246V4.0363ZM210.067 2.787H233.276V6.19854H210.067V2.787ZM208.722 20.0369H234.237V23.4965H208.722V20.0369ZM225.347 4.1324H228.807V44.3502H225.347V4.1324ZM214.104 4.27655H217.515V21.1421C217.515 23.1281 217.435 25.1783 217.275 27.2924C217.115 29.3746 216.794 31.4408 216.314 33.4909C215.865 35.509 215.177 37.463 214.248 39.353C213.351 41.2429 212.15 42.9727 210.644 44.5424C210.452 44.3502 210.18 44.1099 209.827 43.8216C209.507 43.5653 209.171 43.3091 208.818 43.0528C208.498 42.8286 208.178 42.6364 207.857 42.4762C209.267 41.0347 210.372 39.4491 211.173 37.7193C212.005 35.9574 212.63 34.1315 213.047 32.2416C213.495 30.3516 213.783 28.4617 213.911 26.5717C214.04 24.6817 214.104 22.8558 214.104 21.094V4.27655ZM190.559 2.787H207.473V6.10245H190.559V2.787ZM195.364 17.4903H206.656V38.2959H195.364V35.0765H203.437V20.7577H195.364V17.4903ZM196.854 4.3246L200.169 5.04535C199.625 8.05647 198.936 11.0035 198.103 13.8865C197.27 16.7695 196.293 19.4763 195.172 22.007C194.083 24.5056 192.786 26.7158 191.28 28.6378C191.216 28.3175 191.088 27.9171 190.896 27.4366C190.703 26.9561 190.495 26.4596 190.271 25.9471C190.047 25.4345 189.838 25.0341 189.646 24.7458C191.504 22.2792 193.01 19.2681 194.163 15.7124C195.316 12.1247 196.213 8.32876 196.854 4.3246ZM193.827 17.4903H196.902V42.1399H193.827V17.4903ZM264.124 7.49589H279.548V10.8113H264.124V7.49589ZM264.556 0.0962102L268.064 0.624758C267.647 3.31555 267.119 5.92626 266.478 8.45689C265.869 10.9875 265.133 13.342 264.268 15.5202C263.435 17.6665 262.442 19.5564 261.289 21.1901C261.096 20.9979 260.808 20.7737 260.424 20.5174C260.071 20.2611 259.687 20.0209 259.271 19.7967C258.886 19.5404 258.566 19.3322 258.31 19.172C259.431 17.6665 260.392 15.9046 261.193 13.8865C261.993 11.8684 262.666 9.69017 263.211 7.35174C263.755 5.01332 264.204 2.5948 264.556 0.0962102ZM278.731 7.54394H279.211L279.836 7.39979L282.238 8.07249C281.918 9.54602 281.582 11.0836 281.229 12.6853C280.877 14.2549 280.509 15.7605 280.124 17.202C279.74 18.6435 279.355 19.9088 278.971 20.9979L276.088 20.133C276.376 19.14 276.681 17.9708 277.001 16.6254C277.321 15.2479 277.626 13.8225 277.914 12.3489C278.234 10.8754 278.507 9.48195 278.731 8.16859V7.54394ZM268.064 15.3761H271.571V17.6344C271.571 19.5244 271.443 21.5905 271.187 23.8329C270.963 26.0431 270.466 28.3335 269.697 30.704C268.961 33.0745 267.791 35.4289 266.19 37.7673C264.62 40.1058 262.49 42.316 259.799 44.3982C259.607 44.1099 259.351 43.8216 259.03 43.5333C258.71 43.245 258.374 42.9567 258.021 42.6684C257.701 42.3801 257.381 42.1399 257.06 41.9477C259.655 40.0257 261.689 38.0076 263.163 35.8934C264.636 33.7471 265.725 31.6009 266.43 29.4547C267.135 27.2764 267.583 25.1783 267.775 23.1602C267.968 21.1421 268.064 19.2841 268.064 17.5864V15.3761ZM271.331 21.6226C271.876 24.5376 272.628 27.3085 273.589 29.9352C274.582 32.5299 275.816 34.8203 277.289 36.8063C278.763 38.7604 280.525 40.2819 282.575 41.3711C282.318 41.5953 282.03 41.8836 281.71 42.236C281.39 42.5883 281.085 42.9407 280.797 43.2931C280.541 43.6775 280.316 44.0138 280.124 44.3021C277.978 43.0208 276.136 41.275 274.598 39.0647C273.061 36.8544 271.78 34.3237 270.754 31.4728C269.761 28.5898 268.961 25.4826 268.352 22.1511L271.331 21.6226ZM238.561 5.81414H259.126V9.27374H238.561V5.81414ZM249.516 13.4541H252.784V44.158H249.516V13.4541ZM238.032 32.3857C239.794 32.1615 241.812 31.9052 244.087 31.6169C246.393 31.2966 248.844 30.9442 251.438 30.5598C254.033 30.1754 256.612 29.791 259.174 29.4066L259.319 32.7701C255.699 33.3467 252.079 33.9393 248.459 34.548C244.84 35.1566 241.636 35.6691 238.849 36.0856L238.032 32.3857ZM240.675 24.5536C240.611 24.3294 240.515 24.0251 240.387 23.6407C240.259 23.2242 240.115 22.8238 239.954 22.4394C239.826 22.023 239.682 21.6706 239.522 21.3823C239.971 21.2542 240.403 20.8538 240.819 20.1811C241.236 19.4763 241.668 18.5794 242.117 17.4903C242.373 16.9777 242.741 16.1449 243.222 14.9917C243.702 13.8064 244.215 12.413 244.759 10.8113C245.304 9.20967 245.849 7.49589 246.393 5.67C246.938 3.8441 247.402 2.03422 247.787 0.240358L251.342 1.00916C250.67 3.57182 249.885 6.1505 248.988 8.74519C248.123 11.3079 247.194 13.7744 246.201 16.1449C245.24 18.4833 244.263 20.6135 243.27 22.5355V22.5836C243.27 22.5836 243.142 22.6476 242.886 22.7758C242.629 22.9039 242.325 23.0801 241.973 23.3043C241.62 23.5285 241.316 23.7528 241.06 23.977C240.803 24.2012 240.675 24.3934 240.675 24.5536ZM240.675 24.5536V21.5745L242.645 20.6135H258.838V23.8809H244.423C243.494 23.8809 242.677 23.945 241.973 24.0731C241.3 24.2012 240.867 24.3614 240.675 24.5536ZM313.231 0.720856H316.834V44.3502H313.231V0.720856ZM304.966 2.54675L308.426 3.2675C307.977 5.4778 307.433 7.67208 306.792 9.85034C306.183 11.9966 305.479 13.9986 304.678 15.8566C303.909 17.7145 303.06 19.3802 302.131 20.8538C301.907 20.6616 301.602 20.4533 301.218 20.2291C300.866 20.0049 300.481 19.7806 300.065 19.5564C299.681 19.3322 299.344 19.156 299.056 19.0279C299.985 17.7145 300.818 16.1769 301.554 14.4151C302.323 12.6212 302.996 10.7152 303.573 8.69714C304.149 6.67904 304.614 4.62892 304.966 2.54675ZM305.398 9.99449H327.886V13.5021H304.534L305.398 9.99449ZM299.44 24.1212H330V27.6768H299.44V24.1212ZM297.086 0.336459L300.497 1.34551C299.472 4.06833 298.287 6.75913 296.942 9.41789C295.628 12.0446 294.187 14.5272 292.617 16.8656C291.08 19.172 289.478 21.2382 287.812 23.0641C287.684 22.7758 287.492 22.4074 287.236 21.9589C287.011 21.5104 286.755 21.062 286.467 20.6135C286.211 20.133 285.97 19.7646 285.746 19.5084C287.252 17.9387 288.693 16.1289 290.071 14.0787C291.48 12.0286 292.777 9.83432 293.963 7.49589C295.18 5.12543 296.221 2.73895 297.086 0.336459ZM292.233 12.6853L295.644 9.27374L295.692 9.32179V44.2541H292.233V12.6853Z" fill="#999999"/>
</svg>
