<svg width="520" height="115" viewBox="0 0 520 115" fill="none" xmlns="http://www.w3.org/2000/svg">
<path d="M63.1014 30.0158C62.1634 27.145 60.9269 24.5726 59.392 22.2987C57.8856 19.9963 56.0806 18.035 53.9773 16.4149C51.9023 14.7947 49.5431 13.5583 46.8997 12.7055C44.2562 11.8528 41.357 11.4265 38.2019 11.4265C33.0287 11.4265 28.3246 12.7624 24.0894 15.4343C19.8542 18.1061 16.4859 22.0428 13.9846 27.2444C11.4833 32.446 10.2327 38.8272 10.2327 46.388C10.2327 53.9488 11.4975 60.33 14.0273 65.5316C16.557 70.7332 19.9821 74.6699 24.3026 77.3418C28.623 80.0137 33.4835 81.3496 38.8841 81.3496C43.8867 81.3496 48.2924 80.2837 52.1013 78.1519C55.9385 75.9917 58.923 72.9503 61.0548 69.0278C63.2151 65.0768 64.2952 60.4295 64.2952 55.0858L67.5355 55.768H41.2717V46.388H74.5278V55.768C74.5278 62.9592 72.9929 69.2125 69.9231 74.5278C66.8818 79.8431 62.675 83.9646 57.3029 86.8923C51.9591 89.7915 45.8196 91.2412 38.8841 91.2412C31.1527 91.2412 24.3594 89.422 18.5041 85.7837C12.6771 82.1455 8.12928 76.9723 4.86051 70.2642C1.62017 63.5561 3.10107e-06 55.5974 3.10107e-06 46.388C3.10107e-06 39.481 0.923784 33.2703 2.77135 27.7561C4.64733 22.2134 7.29077 17.495 10.7017 13.6009C14.1125 9.70681 18.1488 6.72228 22.8103 4.64733C27.4718 2.57237 32.6024 1.53489 38.2019 1.53489C42.8066 1.53489 47.0986 2.23128 51.078 3.62406C55.0858 4.98841 58.653 6.93546 61.7796 9.4652C64.9347 11.9665 67.5639 14.9653 69.6673 18.4614C71.7707 21.9291 73.2203 25.7806 74.0162 30.0158H63.1014ZM118.731 91.4117C112.421 91.4117 106.977 90.0189 102.401 87.2334C97.8533 84.4194 94.3429 80.4969 91.87 75.4658C89.4256 70.4063 88.2033 64.5226 88.2033 57.8145C88.2033 51.1064 89.4256 45.1942 91.87 40.0779C94.3429 34.9331 97.7822 30.9254 102.188 28.0545C106.622 25.1553 111.795 23.7056 117.707 23.7056C121.118 23.7056 124.487 24.2741 127.812 25.4111C131.138 26.548 134.165 28.3956 136.894 30.9538C139.622 33.4835 141.797 36.8376 143.417 41.0159C145.037 45.1942 145.847 50.339 145.847 56.4501V60.7137H95.3662V52.016H135.615C135.615 48.3209 134.876 45.0237 133.398 42.1244C131.948 39.2252 129.873 36.937 127.173 35.26C124.501 33.583 121.346 32.7445 117.707 32.7445C113.7 32.7445 110.232 33.7393 107.304 35.729C104.405 37.6903 102.174 40.2484 100.61 43.4035C99.0471 46.5586 98.2655 49.941 98.2655 53.5509V59.3494C98.2655 64.2952 99.1182 68.4877 100.824 71.927C102.557 75.3379 104.959 77.9387 108.029 79.7294C111.099 81.4917 114.666 82.3729 118.731 82.3729C121.374 82.3729 123.762 82.0033 125.894 81.2643C128.054 80.4969 129.916 79.3599 131.479 77.8534C133.042 76.3185 134.25 74.4141 135.103 72.1402L144.824 74.8689C143.801 78.1661 142.081 81.0654 139.665 83.5667C137.249 86.0396 134.264 87.9724 130.711 89.3652C127.158 90.7295 123.165 91.4117 118.731 91.4117ZM187.759 91.4117C181.846 91.4117 176.659 90.0047 172.196 87.1907C167.762 84.3768 164.294 80.44 161.793 75.3805C159.32 70.3211 158.084 64.4089 158.084 57.6439C158.084 50.8222 159.32 44.8673 161.793 39.7794C164.294 34.6915 167.762 30.7406 172.196 27.9266C176.659 25.1126 181.846 23.7056 187.759 23.7056C193.671 23.7056 198.844 25.1126 203.278 27.9266C207.741 30.7406 211.208 34.6915 213.681 39.7794C216.183 44.8673 217.433 50.8222 217.433 57.6439C217.433 64.4089 216.183 70.3211 213.681 75.3805C211.208 80.44 207.741 84.3768 203.278 87.1907C198.844 90.0047 193.671 91.4117 187.759 91.4117ZM187.759 82.3729C192.25 82.3729 195.945 81.2217 198.844 78.9193C201.743 76.617 203.889 73.5898 205.282 69.8379C206.675 66.0859 207.371 62.0212 207.371 57.6439C207.371 53.2666 206.675 49.1878 205.282 45.4074C203.889 41.627 201.743 38.5714 198.844 36.2406C195.945 33.9099 192.25 32.7445 187.759 32.7445C183.268 32.7445 179.572 33.9099 176.673 36.2406C173.774 38.5714 171.628 41.627 170.235 45.4074C168.842 49.1878 168.146 53.2666 168.146 57.6439C168.146 62.0212 168.842 66.0859 170.235 69.8379C171.628 73.5898 173.774 76.617 176.673 78.9193C179.572 81.2217 183.268 82.3729 187.759 82.3729ZM307.832 46.388C307.832 55.5974 306.17 63.5561 302.844 70.2642C299.518 76.9723 294.956 82.1455 289.158 85.7837C283.359 89.422 276.736 91.2412 269.289 91.2412C261.842 91.2412 255.219 89.422 249.421 85.7837C243.622 82.1455 239.06 76.9723 235.735 70.2642C232.409 63.5561 230.746 55.5974 230.746 46.388C230.746 37.1786 232.409 29.2199 235.735 22.5118C239.06 15.8038 243.622 10.6306 249.421 6.99231C255.219 3.35403 261.842 1.53489 269.289 1.53489C276.736 1.53489 283.359 3.35403 289.158 6.99231C294.956 10.6306 299.518 15.8038 302.844 22.5118C306.17 29.2199 307.832 37.1786 307.832 46.388ZM297.6 46.388C297.6 38.8272 296.335 32.446 293.805 27.2444C291.304 22.0428 287.907 18.1061 283.615 15.4343C279.351 12.7624 274.576 11.4265 269.289 11.4265C264.002 11.4265 259.213 12.7624 254.921 15.4343C250.657 18.1061 247.261 22.0428 244.731 27.2444C242.23 32.446 240.979 38.8272 240.979 46.388C240.979 53.9488 242.23 60.33 244.731 65.5316C247.261 70.7332 250.657 74.6699 254.921 77.3418C259.213 80.0137 264.002 81.3496 269.289 81.3496C274.576 81.3496 279.351 80.0137 283.615 77.3418C287.907 74.6699 291.304 70.7332 293.805 65.5316C296.335 60.33 297.6 53.9488 297.6 46.388ZM324.247 114.606V24.5584H333.968V34.9616H335.162C335.901 33.8246 336.924 32.375 338.232 30.6127C339.568 28.822 341.472 27.2302 343.945 25.8375C346.446 24.4162 349.829 23.7056 354.092 23.7056C359.607 23.7056 364.467 25.0842 368.674 27.8413C372.881 30.5985 376.164 34.5068 378.523 39.5663C380.882 44.6257 382.062 50.5948 382.062 57.4734C382.062 64.4089 380.882 70.4206 378.523 75.5085C376.164 80.5679 372.895 84.4905 368.717 87.276C364.538 90.0331 359.72 91.4117 354.263 91.4117C350.056 91.4117 346.688 90.7153 344.158 89.3225C341.629 87.9013 339.681 86.2954 338.317 84.5047C336.953 82.6855 335.901 81.1791 335.162 79.9852H334.309V114.606H324.247ZM334.139 57.3029C334.139 62.2486 334.864 66.6117 336.313 70.3921C337.763 74.1441 339.88 77.086 342.666 79.2178C345.452 81.3212 348.862 82.3729 352.899 82.3729C357.105 82.3729 360.616 81.2643 363.43 79.0472C366.272 76.8017 368.404 73.7888 369.825 70.0084C371.275 66.1996 372 61.9644 372 57.3029C372 52.6982 371.289 48.5483 369.868 44.8531C368.475 41.1296 366.357 38.1877 363.515 36.0275C360.701 33.8388 357.162 32.7445 352.899 32.7445C348.806 32.7445 345.366 33.782 342.581 35.8569C339.795 37.9035 337.692 40.7743 336.271 44.4694C334.849 48.1361 334.139 52.4139 334.139 57.3029ZM425.892 24.5584V33.0856H391.953V24.5584H425.892ZM401.845 8.8683H411.907V71.2875C411.907 74.1299 412.319 76.2617 413.143 77.6829C413.996 79.0757 415.076 80.0137 416.384 80.4969C417.72 80.9517 419.127 81.1791 420.605 81.1791C421.713 81.1791 422.623 81.1222 423.333 81.0085C424.044 80.8664 424.612 80.7527 425.039 80.6674L427.085 89.7063C426.403 89.9621 425.451 90.2179 424.229 90.4737C423.007 90.758 421.457 90.9001 419.581 90.9001C416.739 90.9001 413.953 90.289 411.225 89.0667C408.524 87.8445 406.279 85.9827 404.488 83.4814C402.726 80.9801 401.845 77.825 401.845 74.0162V8.8683ZM441.027 90.0474V24.5584H451.089V90.0474H441.027ZM446.144 13.6435C444.182 13.6435 442.491 12.9756 441.07 11.6396C439.677 10.3037 438.981 8.69776 438.981 6.82177C438.981 4.94578 439.677 3.33982 441.07 2.00389C442.491 0.667964 444.182 0 446.144 0C448.105 0 449.782 0.667964 451.175 2.00389C452.596 3.33982 453.307 4.94578 453.307 6.82177C453.307 8.69776 452.596 10.3037 451.175 11.6396C449.782 12.9756 448.105 13.6435 446.144 13.6435ZM477.023 24.5584L492.713 51.3338L508.403 24.5584H520L498.853 57.3029L520 90.0474H508.403L492.713 64.6363L477.023 90.0474H465.426L486.232 57.3029L465.426 24.5584H477.023Z" fill="url(#paint0_linear_0_39)"/>
<defs>
<linearGradient id="paint0_linear_0_39" x1="597.813" y1="-36.4903" x2="-58.5693" y2="-36.4903" gradientUnits="userSpaceOnUse">
<stop/>
<stop offset="1" stop-opacity="0.01"/>
</linearGradient>
</defs>
</svg>
