<svg width="377" height="135" viewBox="0 0 377 135" fill="none" xmlns="http://www.w3.org/2000/svg">
<g clip-path="url(#clip0_71_186)">
<g filter="url(#filter0_d_71_186)">
<path d="M35.6792 17.0218C35.1805 15.4954 34.5269 14.124 33.7183 12.9075C32.9097 11.691 31.9501 10.652 30.8392 9.79064C29.7284 8.92925 28.4702 8.27187 27.0647 7.81852C25.6592 7.36516 24.1176 7.13848 22.44 7.13848C19.6894 7.13848 17.1882 7.84875 14.9363 9.26928C12.6844 10.6898 10.8935 12.7828 9.56353 15.5483C8.23356 18.3138 7.56858 21.7065 7.56858 25.7262C7.56858 29.746 8.24112 33.1387 9.58619 35.9041C10.9313 38.6696 12.7524 40.7627 15.0496 42.1832C17.3469 43.6037 19.9312 44.314 22.8028 44.314C25.4627 44.314 27.809 43.7435 29.8418 42.6026C31.8745 41.4616 33.4614 39.8446 34.6025 37.7516C35.7435 35.6586 36.314 33.1915 36.314 30.3505L38.0369 30.7132H24.0723V25.7262H41.7548V30.7132C41.7548 34.5365 40.9425 37.8612 39.3178 40.6871C37.6931 43.5131 35.4563 45.7005 32.6075 47.2495C29.7586 48.7985 26.4904 49.5729 22.8028 49.5729C18.692 49.5729 15.0837 48.6058 11.9779 46.6715C8.87209 44.7371 6.45396 41.9868 4.72352 38.4203C2.99304 34.8539 2.12781 30.6225 2.12781 25.7262C2.12781 22.054 2.62277 18.7483 3.61268 15.809C4.60261 12.8697 6.00435 10.3649 7.81792 8.29455C9.63154 6.22422 11.7776 4.63746 14.2562 3.53429C16.7348 2.43111 19.4627 1.87952 22.44 1.87952C24.8884 1.87952 27.1743 2.24599 29.2977 2.97892C31.4211 3.71185 33.3178 4.74702 34.9878 6.08444C36.6578 7.42185 38.052 9.01617 39.1704 10.8674C40.2888 12.7186 41.0596 14.77 41.4827 17.0218H35.6792ZM65.2407 49.6636C61.8857 49.6636 58.9952 48.9194 56.5694 47.4309C54.1438 45.9423 52.2774 43.8568 50.9701 41.1745C49.6628 38.4921 49.0091 35.3677 49.0091 31.8013C49.0091 28.2349 49.6628 25.0878 50.9701 22.3601C52.2774 19.6323 54.106 17.5015 56.456 15.9677C58.8064 14.4338 61.5532 13.6668 64.6965 13.6668C66.5102 13.6668 68.3013 13.9691 70.0696 14.5736C71.8379 15.1781 73.4475 16.1566 74.8984 17.5091C76.349 18.8616 77.505 20.6486 78.3665 22.8701C79.2279 25.0915 79.6587 27.8268 79.6587 31.0759V33.3427H52.8177V28.7184H74.218C74.218 26.7538 73.8288 25.0009 73.0503 23.4595C72.2722 21.918 71.169 20.7015 69.7408 19.8099C68.3126 18.9183 66.6312 18.4725 64.6965 18.4725C62.5657 18.4725 60.7258 18.9977 59.1766 20.0479C57.6275 21.0982 56.4373 22.462 55.6059 24.1395C54.775 25.8169 54.3595 27.6152 54.3595 29.5345V32.6173C54.3595 35.2468 54.8166 37.472 55.7309 39.293C56.6453 41.114 57.9185 42.4968 59.5506 43.4413C61.1828 44.3858 63.0795 44.858 65.2407 44.858C66.6463 44.858 67.9195 44.6578 69.0604 44.2573C70.2017 43.8569 71.188 43.2524 72.0193 42.4439C72.8503 41.6354 73.4926 40.6267 73.9462 39.4177L79.115 40.8684C78.5709 42.6214 77.6564 44.1591 76.3715 45.4814C75.0869 46.8037 73.5002 47.8313 71.6113 48.5642C69.722 49.2971 67.5985 49.6636 65.2407 49.6636ZM102.963 14.1202V18.6538H84.9184V14.1202H102.963ZM90.1776 5.77841H95.5278V38.9644C95.5278 40.4755 95.7507 41.6051 96.1965 42.3532C96.6423 43.1012 97.2167 43.5999 97.9196 43.8493C98.6222 44.0986 99.3665 44.2233 100.152 44.2233C100.742 44.2233 101.225 44.1893 101.603 44.1213C101.981 44.0533 102.284 43.9966 102.51 43.9513L103.598 48.7569C103.236 48.8929 102.729 49.0327 102.079 49.1763C101.43 49.3198 100.606 49.3916 99.6082 49.3916C98.097 49.3916 96.6196 49.0667 95.1762 48.4169C93.7331 47.7671 92.5391 46.7773 91.5943 45.4474C90.6499 44.1175 90.1776 42.4401 90.1776 40.4151V5.77841ZM126.838 48.9383V14.1202H132.188V48.9383H126.838ZM129.558 8.31721C128.515 8.31721 127.62 7.96209 126.872 7.25184C126.124 6.54155 125.749 5.68773 125.749 4.69035C125.749 3.69296 126.124 2.83913 126.872 2.12887C127.62 1.41861 128.515 1.06348 129.558 1.06348C130.601 1.06348 131.497 1.41861 132.244 2.12887C132.992 2.83913 133.366 3.69296 133.366 4.69035C133.366 5.68773 132.992 6.54155 132.244 7.25184C131.497 7.96209 130.601 8.31721 129.558 8.31721ZM147.331 27.9931V48.9383H141.981V14.1202H147.15V19.5605H147.604C148.42 17.7924 149.659 16.3681 151.321 15.2876C152.984 14.2071 155.13 13.6668 157.76 13.6668C160.117 13.6668 162.18 14.1467 163.948 15.1063C165.717 16.0659 167.092 17.5167 168.074 19.4585C169.057 21.4004 169.548 23.8524 169.548 26.8143V48.9383H164.198V27.177C164.198 24.4417 163.487 22.3071 162.067 20.7733C160.646 19.2394 158.697 18.4725 156.218 18.4725C154.51 18.4725 152.988 18.8427 151.65 19.5832C150.312 20.3237 149.258 21.4042 148.488 22.8248C147.717 24.2453 147.331 25.9681 147.331 27.9931ZM193.331 7.50116V2.51423H228.152V7.50116H213.553V48.9383H207.931V7.50116H193.331ZM250.278 49.6636C247.135 49.6636 244.38 48.9156 242.015 47.4195C239.65 45.9234 237.806 43.8304 236.484 41.1405C235.161 38.4505 234.5 35.3072 234.5 31.7106C234.5 28.0837 235.161 24.9177 236.484 22.2127C237.806 19.5076 239.65 17.4071 242.015 15.911C244.38 14.4149 247.135 13.6668 250.278 13.6668C253.422 13.6668 256.176 14.4149 258.541 15.911C260.907 17.4071 262.75 19.5076 264.073 22.2127C265.395 24.9177 266.056 28.0837 266.056 31.7106C266.056 35.3072 265.395 38.4505 264.073 41.1405C262.75 43.8304 260.907 45.9234 258.541 47.4195C256.176 48.9156 253.422 49.6636 250.278 49.6636ZM250.278 44.858C252.666 44.858 254.631 44.246 256.172 43.0219C257.714 41.7978 258.855 40.1884 259.596 38.1936C260.336 36.1988 260.707 34.0378 260.707 31.7106C260.707 29.3833 260.336 27.2148 259.596 25.2049C258.855 23.195 257.714 21.5705 256.172 20.3313C254.631 19.0921 252.666 18.4725 250.278 18.4725C247.89 18.4725 245.925 19.0921 244.384 20.3313C242.842 21.5705 241.701 23.195 240.961 25.2049C240.22 27.2148 239.85 29.3833 239.85 31.7106C239.85 34.0378 240.22 36.1988 240.961 38.1936C241.701 40.1884 242.842 41.7978 244.384 43.0219C245.925 44.246 247.89 44.858 250.278 44.858ZM296.162 34.7028V14.1202H301.512V48.9383H296.162V43.0446H295.799C294.983 44.8127 293.714 46.3125 291.991 47.5442C290.268 48.7758 288.091 49.3916 285.462 49.3916C283.285 49.3916 281.351 48.9118 279.659 47.9522C277.966 46.9926 276.636 45.5418 275.669 43.6C274.701 41.6581 274.217 39.2061 274.217 36.2442V14.1202H279.568V35.8815C279.568 38.4203 280.282 40.4453 281.71 41.9565C283.138 43.4677 284.963 44.2233 287.185 44.2233C288.515 44.2233 289.871 43.8833 291.254 43.2032C292.637 42.5232 293.801 41.4805 294.745 40.0751C295.69 38.6697 296.162 36.8789 296.162 34.7028ZM325.451 49.6636C322.187 49.6636 319.376 48.8929 317.018 47.3515C314.661 45.8101 312.847 43.6868 311.578 40.9818C310.308 38.2768 309.673 35.1864 309.673 31.7106C309.673 28.1744 310.327 25.05 311.634 22.3374C312.941 19.6248 314.77 17.5015 317.121 15.9677C319.471 14.4338 322.217 13.6668 325.361 13.6668C327.809 13.6668 330.016 14.1202 331.981 15.027C333.945 15.9337 335.555 17.2031 336.809 18.8352C338.063 20.4673 338.842 22.3714 339.144 24.5475H333.794C333.386 22.9608 332.483 21.5516 331.085 20.32C329.687 19.0883 327.809 18.4725 325.451 18.4725C323.366 18.4725 321.541 19.0128 319.977 20.0932C318.412 21.1738 317.196 22.6925 316.327 24.6495C315.458 26.6065 315.023 28.8997 315.023 31.5292C315.023 34.2192 315.45 36.5615 316.304 38.5563C317.158 40.5511 318.367 42.1001 319.932 43.2032C321.496 44.3064 323.336 44.858 325.451 44.858C326.842 44.858 328.104 44.6162 329.238 44.1326C330.371 43.6491 331.331 42.9539 332.116 42.0472C332.902 41.1405 333.461 40.0524 333.794 38.783H339.144C338.842 40.8382 338.097 42.6857 336.911 44.3253C335.725 45.965 334.16 47.2646 332.218 48.2242C330.276 49.1838 328.021 49.6636 325.451 49.6636ZM352.293 27.9931V48.9383H346.943V2.51423H352.293V19.5605H352.746C353.562 17.7622 354.79 16.3304 356.43 15.265C358.07 14.1996 360.257 13.6668 362.993 13.6668C365.366 13.6668 367.444 14.1391 369.227 15.0836C371.01 16.0281 372.397 17.4713 373.387 19.4132C374.377 21.3551 374.872 23.8221 374.872 26.8143V48.9383H369.522V27.177C369.522 24.4115 368.808 22.2694 367.38 20.7506C365.951 19.2319 363.975 18.4725 361.452 18.4725C359.698 18.4725 358.13 18.8427 356.747 19.5832C355.364 20.3237 354.276 21.4042 353.483 22.8248C352.69 24.2453 352.293 25.9681 352.293 27.9931ZM92.329 75.5073C94.882 78.5074 97.4994 82.7204 98.649 85.4652L102.735 83.2949C101.585 80.4863 98.84 76.5286 96.2231 73.5923L92.329 75.5073ZM113.076 73.5923C111.544 77.2946 108.607 82.4651 106.245 85.8482H90.2856V90.2527H101.968V97.9765L101.905 101.87H88.6897V106.339H101.394C100.309 113.552 96.7971 121.85 86.392 128.489C87.6044 129.255 89.2642 130.787 90.0303 131.808C98.2016 126.255 102.415 119.807 104.585 113.488C107.906 121.403 113.013 127.723 119.843 131.234C120.545 130.021 122.013 128.233 123.035 127.276C114.991 123.701 109.309 115.85 106.501 106.339H122.396V101.87H106.693L106.756 98.0403V90.2527H119.971V85.8482H111.225C113.459 82.7204 115.885 78.6989 117.992 75.0604L113.076 73.5923ZM63.7927 117.573L64.7503 122.169L81.3483 119.297V131.297H85.5621V118.531L90.8602 117.637L90.6048 113.488L85.5621 114.254V79.6564H88.371V75.3158H64.3678V79.6564H67.8145V116.999L63.7927 117.573ZM72.1555 79.6564H81.3483V88.7207H72.1555V79.6564ZM72.1555 92.7422H81.3483V101.87H72.1555V92.7422ZM72.1555 105.956H81.3483V114.956L72.1555 116.36V105.956ZM143.463 111.892C140.08 116.488 134.781 121.212 129.674 124.276C130.951 124.978 132.93 126.574 133.887 127.467C138.739 124.02 144.421 118.786 148.251 113.616L143.463 111.892ZM165.806 114.062C171.106 118.148 177.681 124.02 180.873 127.595L184.958 124.723C181.511 121.084 174.935 115.467 169.573 111.573L165.806 114.062ZM167.594 97.8488C169.254 99.3808 171.042 101.168 172.765 103.019L144.676 104.87C154.252 100.147 164.02 94.2742 173.467 87.1249L169.765 84.0609C166.573 86.6781 163.062 89.1675 159.678 91.5294L144.038 92.2954C148.634 89.0399 153.294 84.9546 157.572 80.4863C165.87 79.6564 173.723 78.5074 179.787 77.0393L176.467 73.0178C166.126 75.6349 147.549 77.3584 132.036 78.1244C132.547 79.2096 133.121 81.1246 133.249 82.2736C138.867 82.0182 144.868 81.6353 150.804 81.1246C146.655 85.4652 141.931 89.2952 140.271 90.3804C138.356 91.7847 136.824 92.7422 135.547 92.9337C136.058 94.1465 136.76 96.253 136.888 97.2105C138.229 96.6998 140.208 96.4445 153.166 95.6785C147.74 99.0617 143.08 101.615 140.846 102.636C136.888 104.615 134.015 105.828 131.972 106.083C132.547 107.36 133.249 109.594 133.441 110.552C135.228 109.849 137.718 109.53 155.274 108.19V124.914C155.274 125.616 155.082 125.872 153.996 125.935C152.975 125.999 149.464 125.999 145.634 125.808C146.4 127.148 147.23 129.191 147.485 130.595C152.146 130.595 155.338 130.531 157.444 129.765C159.614 128.999 160.125 127.659 160.125 124.978V107.807L176.021 106.658C177.872 108.764 179.404 110.743 180.489 112.403L184.32 110.105C181.703 106.211 176.212 100.338 171.297 95.9339L167.594 97.8488ZM233.986 76.7839C237.689 80.0394 242.03 84.6992 244.009 87.7632L247.903 84.9546C245.796 81.9544 241.328 77.4223 237.625 74.2306L233.986 76.7839ZM242.158 98.934C239.987 103.019 237.114 107.041 233.731 110.679C232.646 106.402 231.752 101.423 231.114 95.9977H249.435V91.4655H230.602C230.092 85.7206 229.836 79.5288 229.836 73.0816H224.794C224.857 79.4011 225.176 85.5929 225.687 91.4655H211.068V80.2309C214.962 79.4011 218.665 78.4436 221.793 77.3584L218.41 73.337C212.281 75.6349 201.939 77.8053 193.002 79.1458C193.577 80.2948 194.215 82.0182 194.47 83.1672C198.237 82.6566 202.323 82.0182 206.281 81.2523V91.4655H192.619V95.9977H206.281V107.296L191.661 110.169L193.065 115.02L206.281 112.02V125.106C206.281 126.191 205.897 126.51 204.812 126.574C203.663 126.638 199.897 126.638 195.811 126.51C196.513 127.85 197.343 130.021 197.535 131.361C202.833 131.361 206.281 131.234 208.259 130.468C210.366 129.702 211.068 128.233 211.068 125.106V110.871L222.878 108.126L222.495 103.849L211.068 106.275V95.9977H226.134C226.964 102.955 228.177 109.339 229.709 114.701C225.112 118.914 219.942 122.488 214.515 125.106C215.728 126.127 217.133 127.723 217.835 128.872C222.623 126.382 227.22 123.191 231.369 119.488C234.242 126.957 238.2 131.489 243.243 131.489C248.03 131.489 249.818 128.361 250.648 117.765C249.372 117.318 247.647 116.233 246.626 115.148C246.243 123.382 245.477 126.638 243.689 126.638C240.497 126.638 237.561 122.552 235.263 115.786C239.668 111.254 243.498 106.147 246.371 100.721L242.158 98.934ZM277.205 74.6136C279.95 78.5713 283.205 83.9332 284.61 87.1887L288.568 84.8907C287.099 81.6353 283.717 76.4009 280.907 72.6348L277.205 74.6136ZM274.46 85.4652V131.297H279.12V85.4652H274.46ZM289.589 74.9328V79.2734H306.954V125.169C306.954 126.255 306.634 126.574 305.613 126.638C304.528 126.701 300.952 126.701 297.314 126.574C297.952 127.85 298.654 129.893 298.846 131.106C303.889 131.106 307.209 131.042 309.124 130.34C311.039 129.51 311.742 128.106 311.742 125.233V74.9328H289.589ZM267.246 72.954C264.565 82.7204 260.224 92.5507 255.18 99.0617C256.01 100.211 257.351 102.764 257.734 103.913C259.266 101.87 260.798 99.5723 262.203 97.0828V131.234H266.735V87.9547C268.651 83.5502 270.374 78.8266 271.715 74.1668L267.246 72.954Z" fill="url(#paint0_linear_71_186)"/>
</g>
</g>
<defs>
<filter id="filter0_d_71_186" x="-1.87219" y="-0.936523" width="380.744" height="138.744" filterUnits="userSpaceOnUse" color-interpolation-filters="sRGB">
<feFlood flood-opacity="0" result="BackgroundImageFix"/>
<feColorMatrix in="SourceAlpha" type="matrix" values="0 0 0 0 0 0 0 0 0 0 0 0 0 0 0 0 0 0 127 0" result="hardAlpha"/>
<feOffset dy="2"/>
<feGaussianBlur stdDeviation="2"/>
<feComposite in2="hardAlpha" operator="out"/>
<feColorMatrix type="matrix" values="0 0 0 0 0 0 0 0 0 0 0 0 0 0 0 0 0 0 0.25 0"/>
<feBlend mode="normal" in2="BackgroundImageFix" result="effect1_dropShadow_71_186"/>
<feBlend mode="normal" in="SourceGraphic" in2="effect1_dropShadow_71_186" result="shape"/>
</filter>
<linearGradient id="paint0_linear_71_186" x1="425.101" y1="89.4974" x2="-29.1382" y2="89.4974" gradientUnits="userSpaceOnUse">
<stop stop-color="#B56969"/>
<stop offset="1" stop-color="#95B4C4" stop-opacity="0.69"/>
</linearGradient>
<clipPath id="clip0_71_186">
<rect width="377" height="135" fill="white"/>
</clipPath>
</defs>
</svg>
