<svg width="19" height="19" viewBox="0 0 19 19" fill="none" xmlns="http://www.w3.org/2000/svg">
<mask id="mask0_0_17" style="mask-type:luminance" maskUnits="userSpaceOnUse" x="-3" y="-3" width="25" height="25">
<path fill-rule="evenodd" clip-rule="evenodd" d="M-2.25744 -2.25744H21.2574V21.2574H-2.25744V-2.25744Z" fill="white"/>
</mask>
<g mask="url(#mask0_0_17)">
<mask id="path-2-inside-1_0_17" fill="white">
<path d="M12.047 10.778C13.1331 10.778 13.9891 10.7777 14.6768 10.8339C15.3725 10.8907 15.9566 11.0095 16.488 11.2802C16.7027 11.3896 16.9081 11.515 17.103 11.6566C17.2982 11.7984 17.4816 11.9552 17.6521 12.1259L17.8977 12.3914C17.9757 12.4828 18.0506 12.5776 18.1214 12.675C18.2629 12.8699 18.3884 13.0753 18.4978 13.29C18.7684 13.8213 18.8873 14.4056 18.9441 15.1012C19.0003 15.7888 19 16.6451 19 17.731V18.3181C18.9998 18.6944 18.6944 19 18.3181 19H0.681923C0.305603 19 0.000180874 18.6944 0 18.3181V17.731C0 16.6451 -0.000250889 15.7888 0.0559117 15.1012C0.112746 14.4056 0.231641 13.8213 0.502207 13.29C0.611607 13.0753 0.736997 12.8699 0.878613 12.675C1.0204 12.4798 1.17725 12.2964 1.34787 12.1259L1.61345 11.8802C1.70478 11.8023 1.79957 11.7274 1.897 11.6566C2.09191 11.515 2.29724 11.3896 2.51203 11.2802C3.04342 11.0095 3.6275 10.8907 4.32317 10.8339C5.01088 10.7777 5.86692 10.778 6.95302 10.778H12.047ZM6.95302 12.1418C5.84442 12.1418 5.05332 12.1421 4.434 12.1927C3.82278 12.2427 3.43833 12.3378 3.13106 12.4943C2.97982 12.5713 2.83522 12.66 2.69774 12.7599C2.56046 12.8596 2.43141 12.9693 2.31135 13.0893V13.0903C2.19156 13.2102 2.08154 13.3385 1.98187 13.4757C1.88211 13.613 1.79338 13.7577 1.71629 13.909C1.55986 14.2163 1.46471 14.6009 1.41477 15.212C1.36562 15.8137 1.36391 16.5775 1.36385 17.6372H17.6362C17.6361 16.5775 17.6344 15.8137 17.5852 15.212C17.5353 14.6009 17.4401 14.2163 17.2837 13.909C17.2453 13.8335 17.204 13.7594 17.1599 13.6874L17.0181 13.4757C16.9185 13.3386 16.8085 13.2102 16.6886 13.0903L16.6877 13.0893C16.6279 13.0296 16.5659 12.9723 16.5019 12.9176L16.3023 12.7599C16.1649 12.66 16.0202 12.5713 15.8689 12.4943C15.5617 12.3378 15.1772 12.2427 14.566 12.1927C13.9467 12.1421 13.1556 12.1418 12.047 12.1418H6.95302ZM9.70168 0.00499212C9.76858 0.00828327 9.8357 0.0134087 9.90236 0.0199685C9.96918 0.0265485 10.0366 0.0350755 10.103 0.0449291C10.1693 0.0547699 10.2359 0.0657807 10.3017 0.0788755C10.3676 0.0919686 10.4333 0.107482 10.4984 0.123805L10.6931 0.177719L10.8848 0.24062C10.9481 0.263254 11.0107 0.287916 11.0725 0.313505C11.1345 0.339191 11.1965 0.366691 11.2572 0.395376L11.4369 0.485234L11.4379 0.486232C11.497 0.5178 11.5554 0.550771 11.6127 0.585076C11.6705 0.619703 11.7277 0.655722 11.7834 0.692906C11.8394 0.730292 11.8942 0.769727 11.9481 0.809721L12.1079 0.933526L12.2606 1.06532C12.3104 1.11043 12.3591 1.1568 12.4064 1.2041L12.5462 1.35087C12.5911 1.40049 12.6345 1.45187 12.677 1.50363L12.8018 1.66238L12.9176 1.82712C12.9552 1.88333 12.991 1.94044 13.0254 1.99785C13.0601 2.05567 13.0937 2.11444 13.1253 2.17357C13.1569 2.23275 13.1874 2.29266 13.2161 2.35328C13.2449 2.41411 13.2714 2.47619 13.297 2.53799H13.298C13.3237 2.60002 13.3473 2.66347 13.3699 2.72669C13.3925 2.78998 13.4144 2.85344 13.4338 2.91739C13.4534 2.98198 13.4714 3.04698 13.4877 3.11209L13.5316 3.30977C13.5447 3.37538 13.5557 3.44191 13.5656 3.50846C13.5754 3.57492 13.584 3.64168 13.5905 3.70815L13.6055 3.90883V3.90983C13.6088 3.97691 13.6105 4.04436 13.6105 4.11151L13.6055 4.31319C13.6022 4.37994 13.5971 4.44696 13.5905 4.51387V4.51487C13.5839 4.58133 13.5754 4.6481 13.5656 4.71456C13.5557 4.7811 13.5447 4.84764 13.5316 4.91324L13.4877 5.10993C13.4714 5.17506 13.4534 5.24002 13.4338 5.30462C13.4143 5.36869 13.3926 5.43293 13.3699 5.49632C13.3473 5.55939 13.3236 5.62214 13.298 5.68403L13.297 5.68502L13.2161 5.86873C13.1874 5.92964 13.1571 5.99001 13.1253 6.04945C13.0937 6.10851 13.0599 6.16658 13.0254 6.22417C12.9909 6.28176 12.955 6.33888 12.9176 6.3949C12.8804 6.45061 12.8417 6.50576 12.8018 6.55964V6.56064C12.762 6.61425 12.7197 6.66729 12.677 6.71939C12.6345 6.77113 12.5911 6.82252 12.5462 6.87215L12.4064 7.01792C12.359 7.06541 12.3106 7.11246 12.2606 7.1577C12.211 7.20264 12.1596 7.246 12.1079 7.28849C12.0558 7.33123 12.0027 7.37351 11.9491 7.41329H11.9481C11.8943 7.45321 11.8391 7.49189 11.7834 7.52911C11.7274 7.56653 11.6702 7.60246 11.6127 7.63694C11.5551 7.67143 11.497 7.70522 11.4379 7.73678L11.2572 7.82764C11.1966 7.85629 11.1351 7.88297 11.0735 7.90851L11.0725 7.90951C11.0108 7.93503 10.948 7.9588 10.8848 7.9814L10.6931 8.0453C10.6287 8.06486 10.5636 8.08291 10.4984 8.09921L10.4974 8.09821C10.4326 8.11448 10.3673 8.13014 10.3017 8.14314L10.103 8.17709C10.0363 8.18704 9.96912 8.19549 9.90236 8.20205L9.70168 8.21703L9.5 8.22202L9.29832 8.21703H9.29732C9.23071 8.2137 9.1634 8.20861 9.09664 8.20205C9.02988 8.19548 8.96274 8.18705 8.89595 8.17709V8.17609C8.82984 8.16627 8.76356 8.1561 8.69827 8.14314C8.63219 8.13003 8.56599 8.11464 8.50058 8.09821V8.09921C8.43561 8.08295 8.37044 8.06491 8.30589 8.0453C8.24194 8.02586 8.17836 8.00399 8.11519 7.9814C8.05189 7.95875 7.98834 7.9351 7.92648 7.90951V7.90851C7.86474 7.88289 7.80255 7.85639 7.74178 7.82764C7.681 7.79891 7.62038 7.76853 7.56106 7.73678C7.5021 7.70524 7.44384 7.6714 7.38634 7.63694C7.32879 7.60245 7.2716 7.56654 7.21561 7.52911L7.05087 7.41329C6.99727 7.3735 6.94421 7.33124 6.89212 7.28849H6.89112C6.83958 7.24614 6.78881 7.20248 6.73936 7.1577C6.68935 7.11239 6.6401 7.06548 6.59259 7.01792V7.01692C6.54543 6.96979 6.49874 6.92174 6.45381 6.87215L6.32202 6.71939C6.27935 6.66739 6.23794 6.61413 6.19821 6.56064L6.19721 6.55964C6.15732 6.50581 6.1186 6.45055 6.0814 6.3949C6.044 6.33893 6.00804 6.2817 5.97357 6.22417C5.93907 6.16657 5.90619 6.10819 5.87472 6.04945L5.87373 6.04845L5.78387 5.86873C5.75515 5.808 5.7276 5.74672 5.702 5.68502V5.68403C5.67637 5.62207 5.65171 5.55947 5.62911 5.49632C5.60643 5.43293 5.58568 5.36869 5.56621 5.30462L5.5123 5.10993C5.49593 5.04471 5.48046 4.97919 5.46737 4.91324C5.45434 4.84763 5.44329 4.78111 5.43342 4.71456C5.42357 4.64809 5.41505 4.58133 5.40846 4.51487V4.51387L5.39348 4.31319C5.3902 4.24614 5.3885 4.17861 5.38849 4.11151C5.38849 4.04429 5.3902 3.97599 5.39348 3.90883C5.39681 3.84211 5.40189 3.77502 5.40846 3.70815L5.43342 3.50846C5.44328 3.44194 5.45436 3.37535 5.46737 3.30977C5.4805 3.2436 5.49587 3.17752 5.5123 3.11209L5.56621 2.91739C5.58562 2.85354 5.60651 2.78988 5.62911 2.72669C5.65174 2.66347 5.67634 2.60002 5.702 2.53799L5.78387 2.35428H5.78287C5.81169 2.29325 5.84283 2.23213 5.87472 2.17257C5.90618 2.11375 5.93909 2.05537 5.97357 1.99785C6.00795 1.94049 6.04384 1.88329 6.0814 1.82712C6.11855 1.77156 6.15723 1.71634 6.19721 1.66238H6.19821C6.23798 1.60881 6.27927 1.55571 6.32202 1.50363C6.3646 1.45176 6.40877 1.40059 6.45381 1.35087C6.49898 1.30101 6.54502 1.25163 6.59259 1.2041C6.64003 1.15666 6.68944 1.11055 6.73936 1.06532C6.78894 1.02039 6.83938 0.976022 6.89112 0.933526H6.89212C6.94396 0.891004 6.99703 0.849662 7.05087 0.809721C7.10477 0.769731 7.15965 0.730291 7.21561 0.692906C7.2713 0.655706 7.32852 0.619717 7.38634 0.585076C7.44382 0.550634 7.50282 0.517915 7.56206 0.486232V0.485234C7.62108 0.453716 7.68133 0.423993 7.74178 0.395376C7.80245 0.366692 7.86451 0.339192 7.92648 0.313505C7.98842 0.287866 8.0518 0.263296 8.11519 0.24062C8.17809 0.218127 8.24186 0.197159 8.30589 0.177719H8.30688C8.37087 0.158325 8.43555 0.140107 8.50058 0.123805C8.56566 0.107499 8.63152 0.0919645 8.69727 0.0788755C8.76302 0.0657923 8.82975 0.0547646 8.89595 0.0449291H8.89695C8.96323 0.0351048 9.03 0.0265387 9.09664 0.0199685C9.16348 0.0133816 9.23123 0.00829352 9.29832 0.00499212C9.3653 0.00171042 9.43298 5.60362e-06 9.5 0C9.56703 5.4417e-06 9.63469 0.00170943 9.70168 0.00499212ZM9.36521 1.36684C9.32044 1.36905 9.27505 1.37243 9.23043 1.37683C9.18583 1.38122 9.14091 1.38624 9.09664 1.3928C9.05223 1.3994 9.00773 1.40803 8.96385 1.41676C8.91981 1.42552 8.87548 1.43484 8.83205 1.44572C8.78873 1.45658 8.74527 1.46863 8.70226 1.48166C8.65937 1.49468 8.61582 1.50944 8.57346 1.52459C8.53172 1.53954 8.48991 1.55545 8.44866 1.57252L8.32486 1.62743C8.2843 1.64664 8.2437 1.66715 8.20405 1.68833C8.16479 1.70934 8.12561 1.73124 8.08723 1.75423C8.04893 1.77719 8.0109 1.80208 7.97341 1.82712C7.9362 1.85197 7.89863 1.87726 7.86259 1.90399C7.82668 1.93064 7.79135 1.95849 7.75675 1.98686C7.72204 2.01537 7.68727 2.0455 7.65391 2.07572C7.62094 2.10562 7.58873 2.13691 7.55707 2.16858H7.55607C7.5246 2.20002 7.49401 2.23254 7.46421 2.26542C7.43403 2.29874 7.4039 2.33349 7.37535 2.36826C7.34709 2.4027 7.31945 2.43877 7.29249 2.47509L7.29149 2.47409C7.26492 2.50997 7.23964 2.54749 7.21461 2.58492C7.18991 2.62186 7.16591 2.66005 7.14272 2.69874C7.11985 2.7369 7.09797 2.77601 7.07683 2.81555L7.07583 2.81655L7.01592 2.93636C6.99672 2.97696 6.97834 3.01839 6.96101 3.06017C6.9439 3.10156 6.92816 3.14383 6.91308 3.18597C6.89801 3.2281 6.88326 3.27062 6.87015 3.31377L6.83421 3.44356C6.82337 3.48676 6.81393 3.53066 6.80525 3.57436V3.57535C6.79649 3.61955 6.78785 3.66392 6.78129 3.70815L6.76532 3.84193C6.76094 3.88658 6.75759 3.93152 6.75533 3.97672C6.75315 4.02154 6.75234 4.06669 6.75234 4.11151C6.75234 4.1561 6.75317 4.2007 6.75533 4.2453L6.76532 4.38008L6.78129 4.51487C6.78785 4.55909 6.79648 4.60348 6.80525 4.64766C6.81395 4.69146 6.82334 4.73516 6.83421 4.77846V4.77945C6.84508 4.82287 6.85726 4.8658 6.87015 4.90825C6.88329 4.9515 6.89797 4.99482 6.91308 5.03705C6.92809 5.07897 6.94399 5.12067 6.96101 5.16185L7.01592 5.28565V5.28665C7.03476 5.32651 7.05487 5.36617 7.07583 5.40547C7.09726 5.44548 7.11964 5.48574 7.14272 5.52428C7.1658 5.56278 7.18979 5.60096 7.21461 5.6381C7.23957 5.67544 7.26584 5.71197 7.29249 5.74792L7.37436 5.85376H7.37535C7.40395 5.88857 7.43396 5.92319 7.46421 5.95659C7.49394 5.98941 7.52453 6.02192 7.55607 6.05344L7.55707 6.05444C7.58874 6.08615 7.62094 6.11742 7.65391 6.14729C7.68727 6.17751 7.72199 6.20659 7.75675 6.23516L7.86358 6.31802H7.86259C7.89865 6.34476 7.93595 6.37086 7.97341 6.3959C8.01054 6.42072 8.04873 6.44472 8.08723 6.46779C8.12569 6.49083 8.16542 6.51349 8.20504 6.53468L8.32486 6.59459C8.36539 6.61376 8.40695 6.63219 8.44866 6.6495H8.44766C8.48937 6.66675 8.53224 6.68331 8.57446 6.69842C8.6165 6.71345 8.65934 6.72731 8.70226 6.74036C8.7448 6.75328 8.78847 6.76539 8.83205 6.7763L8.96285 6.80625H8.96385L9.09664 6.82922L9.23043 6.84519C9.27498 6.84957 9.32011 6.85292 9.36521 6.85518H9.36421C9.40912 6.85737 9.45513 6.85916 9.5 6.85917C9.54447 6.85916 9.58928 6.85734 9.63379 6.85518C9.67899 6.85292 9.72491 6.84957 9.76957 6.84519C9.81404 6.84082 9.85861 6.83574 9.90236 6.82922L10.0362 6.80625C10.08 6.79756 10.1238 6.78715 10.1669 6.7763H10.1679C10.2112 6.76548 10.2542 6.75326 10.2967 6.74036C10.3399 6.72725 10.3833 6.71353 10.4255 6.69842C10.4674 6.68344 10.509 6.66659 10.5503 6.6495C10.592 6.6322 10.6336 6.61375 10.6741 6.59459H10.6751C10.7153 6.5756 10.7557 6.5557 10.795 6.53468C10.8346 6.51347 10.8743 6.49085 10.9128 6.46779C10.9512 6.44476 10.9895 6.42067 11.0266 6.3959C11.0639 6.37095 11.1005 6.34466 11.1364 6.31802L11.2422 6.23516C11.277 6.2066 11.3117 6.17749 11.3451 6.14729C11.378 6.11746 11.4103 6.0861 11.4419 6.05444L11.4429 6.05344C11.4746 6.02181 11.5059 5.98953 11.5358 5.95659C11.566 5.92323 11.5951 5.88852 11.6236 5.85376C11.6519 5.81937 11.6796 5.78411 11.7065 5.74792L11.7844 5.6381C11.8092 5.601 11.8332 5.56273 11.8563 5.52428C11.8794 5.48574 11.9019 5.44617 11.9232 5.40646C11.9442 5.36713 11.9641 5.32687 11.9831 5.28665V5.28565C12.0023 5.24508 12.0207 5.2036 12.038 5.16185C12.0551 5.12056 12.0719 5.07908 12.0869 5.03705C12.102 4.99481 12.1157 4.9515 12.1288 4.90825C12.1417 4.8658 12.1539 4.82288 12.1648 4.77945V4.77846C12.1757 4.73511 12.186 4.69152 12.1947 4.64766C12.2035 4.60349 12.2111 4.55908 12.2177 4.51487C12.2243 4.47045 12.2292 4.42516 12.2337 4.38008C12.2381 4.3355 12.2414 4.29043 12.2437 4.2453C12.2458 4.20069 12.2477 4.15611 12.2477 4.11151C12.2477 4.06668 12.2459 4.02155 12.2437 3.97672L12.2337 3.84193C12.2292 3.79704 12.2243 3.75239 12.2177 3.70815C12.2112 3.66396 12.2035 3.61951 12.1947 3.57535V3.57436L12.1648 3.44356C12.1539 3.39994 12.1418 3.35641 12.1288 3.31377C12.1158 3.27072 12.102 3.22801 12.0869 3.18597C12.0718 3.14378 12.0551 3.1016 12.038 3.06017L11.9831 2.93636C11.9639 2.89581 11.9443 2.8551 11.9232 2.81555C11.9019 2.77586 11.8792 2.73704 11.8563 2.69874C11.8331 2.66 11.8091 2.62191 11.7844 2.58492C11.7592 2.54729 11.7332 2.51015 11.7065 2.47409C11.6796 2.43788 11.6518 2.4026 11.6236 2.36826C11.5951 2.33349 11.566 2.29874 11.5358 2.26542C11.5058 2.23237 11.4746 2.20018 11.4429 2.16858C11.4112 2.13685 11.3781 2.10567 11.3451 2.07572C11.3117 2.0455 11.277 2.01537 11.2422 1.98686V1.98586L11.1364 1.90399C11.1005 1.87738 11.0636 1.85187 11.0266 1.82712C10.9891 1.8021 10.951 1.77716 10.9128 1.75423L10.795 1.68833C10.7552 1.66712 10.7148 1.64667 10.6741 1.62743C10.6337 1.6083 10.5927 1.58964 10.5513 1.57252C10.5098 1.55533 10.4676 1.53964 10.4255 1.52459C10.3832 1.50944 10.3396 1.49467 10.2967 1.48166V1.48066C10.2539 1.4677 10.2101 1.45652 10.1669 1.44572C10.1238 1.43492 10.0799 1.42547 10.0362 1.41676H10.0352C9.99138 1.40806 9.94666 1.39937 9.90236 1.3928C9.8582 1.38627 9.81307 1.38121 9.76858 1.37683C9.72416 1.37246 9.67935 1.36904 9.63479 1.36684C9.59003 1.36465 9.54471 1.36385 9.5 1.36385C9.45531 1.36385 9.40994 1.36465 9.36521 1.36684Z"/>
</mask>
<path d="M14.6768 10.8339L14.7878 9.47524L14.7878 9.47524L14.6768 10.8339ZM16.488 11.2802L17.1069 10.0656L17.1067 10.0655L16.488 11.2802ZM17.103 11.6566L16.3018 12.7594L17.103 11.6566ZM17.6521 12.1259L18.6529 11.2003C18.6409 11.1873 18.6287 11.1746 18.6162 11.1621L17.6521 12.1259ZM17.8977 12.3914L18.9344 11.5062C18.9227 11.4926 18.9108 11.4791 18.8985 11.4659L17.8977 12.3914ZM18.1214 12.675L19.2243 11.8738L19.2243 11.8738L18.1214 12.675ZM18.4978 13.29L19.7125 12.6714L19.7124 12.6712L18.4978 13.29ZM18.9441 15.1012L20.3027 14.9902L20.3027 14.9901L18.9441 15.1012ZM19 18.3181L20.3632 18.3187V18.3181H19ZM18.3181 19V20.3632H18.3181L18.3181 19ZM0 18.3181H-1.36318L-1.36318 18.3187L0 18.3181ZM0.0559117 15.1012L-1.30274 14.9901L-1.30275 14.9902L0.0559117 15.1012ZM0.502207 13.29L-0.712349 12.6711L-0.712539 12.6714L0.502207 13.29ZM0.878613 12.675L-0.224261 11.8738L-0.224275 11.8738L0.878613 12.675ZM1.34787 12.1259L0.422316 11.125C0.409318 11.1371 0.396556 11.1493 0.384036 11.1619L1.34787 12.1259ZM1.61345 11.8802L0.728215 10.8436C0.71454 10.8553 0.701098 10.8672 0.687897 10.8794L1.61345 11.8802ZM1.897 11.6566L1.09585 10.5537L1.09572 10.5538L1.897 11.6566ZM2.51203 11.2802L1.89334 10.0655L1.89312 10.0656L2.51203 11.2802ZM4.32317 10.8339L4.21216 9.47524L4.21216 9.47524L4.32317 10.8339ZM4.434 12.1927L4.32298 10.8341L4.32295 10.8341L4.434 12.1927ZM3.13106 12.4943L2.51237 11.2796L2.51226 11.2796L3.13106 12.4943ZM2.69774 12.7599L1.89649 11.657L1.89636 11.6571L2.69774 12.7599ZM2.31135 13.0893L1.34742 12.1254C1.09178 12.3811 0.94817 12.7278 0.94817 13.0893H2.31135ZM2.31135 13.0903L3.27536 14.0541C3.53095 13.7985 3.67453 13.4518 3.67453 13.0903H2.31135ZM1.98187 13.4757L0.879059 12.6744L0.879043 12.6745L1.98187 13.4757ZM1.71629 13.909L0.501683 13.2902L0.501502 13.2905L1.71629 13.909ZM1.41477 15.212L0.0561152 15.1009L0.056109 15.101L1.41477 15.212ZM1.36385 17.6372L0.000665578 17.6371C0.000642469 17.9986 0.144253 18.3454 0.399901 18.601C0.65555 18.8567 1.00229 19.0003 1.36385 19.0003V17.6372ZM17.6362 17.6372V19.0003C17.9977 19.0003 18.3445 18.8567 18.6001 18.601C18.8557 18.3454 18.9994 17.9986 18.9993 17.6371L17.6362 17.6372ZM17.5852 15.212L18.9439 15.101L18.9439 15.1009L17.5852 15.212ZM17.2837 13.909L18.4985 13.2905L18.4984 13.2903L17.2837 13.909ZM17.1599 13.6874L18.3223 12.9753C18.3127 12.9596 18.3027 12.9441 18.2925 12.9288L17.1599 13.6874ZM17.0181 13.4757L18.1507 12.7171C18.1411 12.7027 18.1311 12.6885 18.121 12.6745L17.0181 13.4757ZM16.6886 13.0903L17.6526 12.1265L17.6526 12.1264L16.6886 13.0903ZM16.6877 13.0893L17.6516 12.1254L17.6516 12.1254L16.6877 13.0893ZM16.5019 12.9176L17.3876 11.8813C17.3743 11.8699 17.3607 11.8588 17.347 11.8479L16.5019 12.9176ZM16.3023 12.7599L17.1473 11.6902C17.133 11.6789 17.1184 11.6678 17.1036 11.6571L16.3023 12.7599ZM15.8689 12.4943L16.4877 11.2796L16.4876 11.2796L15.8689 12.4943ZM14.566 12.1927L14.677 10.8341L14.677 10.8341L14.566 12.1927ZM9.70168 0.00499212L9.76866 -1.35654L9.7684 -1.35656L9.70168 0.00499212ZM9.90236 0.0199685L10.036 -1.33665L10.0359 -1.33666L9.90236 0.0199685ZM10.103 0.0449291L10.3032 -1.30348L10.303 -1.30351L10.103 0.0449291ZM10.3017 0.0788755L10.5676 -1.25812L10.5676 -1.25812L10.3017 0.0788755ZM10.4984 0.123805L10.8622 -1.18993C10.8514 -1.19293 10.8405 -1.1958 10.8296 -1.19853L10.4984 0.123805ZM10.6931 0.177719L11.1181 -1.11752C11.0979 -1.12416 11.0775 -1.13033 11.0569 -1.13602L10.6931 0.177719ZM10.8848 0.24062L11.344 -1.04289C11.3327 -1.04695 11.3213 -1.05086 11.3098 -1.05462L10.8848 0.24062ZM11.0725 0.313505L11.5943 -0.945843L11.5938 -0.946051L11.0725 0.313505ZM11.2572 0.395376L11.8669 -0.82389C11.8579 -0.828378 11.8489 -0.832767 11.8398 -0.837056L11.2572 0.395376ZM11.4369 0.485234L12.4009 -0.478681C12.2973 -0.582284 12.1776 -0.668508 12.0466 -0.734032L11.4369 0.485234ZM11.4379 0.486232L10.474 1.45015C10.5687 1.54486 10.6769 1.6251 10.795 1.68827L11.4379 0.486232ZM11.6127 0.585076L12.3132 -0.584314L12.3131 -0.584391L11.6127 0.585076ZM11.7834 0.692906L12.5405 -0.44069L12.5404 -0.440763L11.7834 0.692906ZM11.9481 0.809721L12.7832 -0.267757C12.7756 -0.273635 12.7679 -0.279433 12.7602 -0.28515L11.9481 0.809721ZM12.1079 0.933526L12.9984 -0.0986156C12.9803 -0.114211 12.9618 -0.129328 12.9429 -0.143953L12.1079 0.933526ZM12.2606 1.06532L13.1761 0.0552383C13.1678 0.047783 13.1595 0.0404284 13.1511 0.0331763L12.2606 1.06532ZM12.4064 1.2041L13.3935 0.263974C13.3859 0.255932 13.3781 0.247983 13.3703 0.240131L12.4064 1.2041ZM12.5462 1.35087L13.5565 0.435743C13.5489 0.427313 13.5412 0.418979 13.5333 0.410742L12.5462 1.35087ZM12.677 1.50363L13.7486 0.661126C13.7427 0.653573 13.7367 0.646083 13.7306 0.638658L12.677 1.50363ZM12.8018 1.66238L13.917 0.878376C13.903 0.858491 13.8885 0.838984 13.8734 0.819875L12.8018 1.66238ZM12.9176 1.82712L14.0508 1.06933C14.0449 1.06052 14.0389 1.05178 14.0328 1.04312L12.9176 1.82712ZM13.0254 1.99785L14.1946 1.29698L14.1946 1.29694L13.0254 1.99785ZM13.1253 2.17357L14.3275 1.53107L14.3275 1.53093L13.1253 2.17357ZM13.2161 2.35328L14.4484 1.77044L14.4483 1.77016L13.2161 2.35328ZM13.297 2.53799L12.0379 3.06045C12.2491 3.56941 12.746 3.90117 13.297 3.90117V2.53799ZM13.298 2.53799L14.5576 2.01687C14.3468 1.50719 13.8496 1.17481 13.298 1.17481V2.53799ZM13.3699 2.72669L14.6534 2.26751L14.6534 2.26739L13.3699 2.72669ZM13.4338 2.91739L14.7381 2.5211L14.7381 2.52104L13.4338 2.91739ZM13.4877 3.11209L14.8184 2.81637C14.8158 2.80459 14.813 2.79285 14.8101 2.78114L13.4877 3.11209ZM13.5316 3.30977L14.8687 3.04444C14.8667 3.03429 14.8646 3.02416 14.8624 3.01406L13.5316 3.30977ZM13.5656 3.50846L14.914 3.30867L14.914 3.30856L13.5656 3.50846ZM13.5905 3.70815L14.9499 3.6067C14.9491 3.59568 14.9482 3.58467 14.9471 3.57368L13.5905 3.70815ZM13.6055 3.90883H14.9687C14.9687 3.87498 14.9674 3.84114 14.9649 3.80738L13.6055 3.90883ZM13.6055 3.90983H12.2423C12.2423 3.93201 12.2429 3.9542 12.244 3.97636L13.6055 3.90983ZM13.6105 4.11151L14.9733 4.14524C14.9736 4.134 14.9737 4.12275 14.9737 4.11151H13.6105ZM13.6055 4.31319L14.967 4.38103C14.9676 4.36967 14.968 4.3583 14.9683 4.34692L13.6055 4.31319ZM13.5905 4.51387L12.2339 4.3806C12.2295 4.42489 12.2274 4.46937 12.2274 4.51387H13.5905ZM13.5905 4.51487L14.9471 4.64947C14.9515 4.60474 14.9537 4.55982 14.9537 4.51487H13.5905ZM13.5656 4.71456L14.914 4.91457L14.914 4.91445L13.5656 4.71456ZM13.5316 4.91324L14.862 5.21039C14.8644 5.19985 14.8666 5.18928 14.8687 5.17868L13.5316 4.91324ZM13.4877 5.10993L14.8101 5.44077C14.8129 5.42957 14.8156 5.41834 14.8181 5.40708L13.4877 5.10993ZM13.4338 5.30462L14.7381 5.70096L14.7381 5.70084L13.4338 5.30462ZM13.3699 5.49632L14.6533 5.95573L14.6534 5.9556L13.3699 5.49632ZM13.298 5.68403L14.2619 6.64794C14.3887 6.52121 14.4891 6.37073 14.5577 6.20511L13.298 5.68403ZM13.297 5.68502L12.3331 4.72111C12.2136 4.84056 12.1174 4.98118 12.0494 5.13579L13.297 5.68502ZM13.2161 5.86873L14.4486 6.45113C14.4538 6.44014 14.4589 6.42909 14.4638 6.41797L13.2161 5.86873ZM13.1253 6.04945L11.9234 5.40629L11.9232 5.40659L13.1253 6.04945ZM13.0254 6.22417L14.1948 6.92486L14.1948 6.9248L13.0254 6.22417ZM12.9176 6.3949L14.0509 7.15248L14.051 7.15238L12.9176 6.3949ZM12.8018 6.55964L11.7066 5.74792C11.5326 5.98276 11.4386 6.26733 11.4386 6.55964H12.8018ZM12.8018 6.56064L13.8963 7.3733C14.0707 7.13829 14.165 6.85335 14.165 6.56064H12.8018ZM12.677 6.71939L13.7303 7.58475L13.7308 7.58409L12.677 6.71939ZM12.5462 6.87215L13.5301 7.81563C13.5391 7.80631 13.5479 7.79686 13.5565 7.78728L12.5462 6.87215ZM12.4064 7.01792L13.3708 7.98137C13.3774 7.97478 13.3839 7.96813 13.3903 7.9614L12.4064 7.01792ZM12.2606 7.1577L13.1757 8.16811L13.1758 8.16803L12.2606 7.1577ZM12.1079 7.28849L12.9725 8.34235L12.9732 8.3418L12.1079 7.28849ZM11.9491 7.41329V8.77648C12.2418 8.77648 12.5267 8.68228 12.7617 8.50782L11.9491 7.41329ZM11.9481 7.41329V6.05011C11.6559 6.05011 11.3713 6.14406 11.1365 6.31808L11.9481 7.41329ZM11.7834 7.52911L12.5408 8.66252L12.5409 8.66243L11.7834 7.52911ZM11.6127 7.63694L12.3132 8.80632L12.3133 8.80628L11.6127 7.63694ZM11.4379 7.73678L12.0503 8.9547C12.0605 8.94956 12.0706 8.94429 12.0807 8.9389L11.4379 7.73678ZM11.2572 7.82764L11.8399 9.06002C11.8498 9.05532 11.8597 9.0505 11.8695 9.04556L11.2572 7.82764ZM11.0735 7.90851L10.5509 6.64947C10.3859 6.71797 10.236 6.81825 10.1096 6.9446L11.0735 7.90851ZM11.0725 7.90951L11.5934 9.16926C11.7591 9.10074 11.9096 9.00021 12.0364 8.87343L11.0725 7.90951ZM10.8848 7.9814L11.3159 9.27462C11.3253 9.27148 11.3347 9.26823 11.3441 9.26488L10.8848 7.9814ZM10.6931 8.0453L11.089 9.34974C11.1007 9.34616 11.1125 9.34242 11.1242 9.33852L10.6931 8.0453ZM10.4984 8.09921L9.53451 9.06313C9.87317 9.40179 10.3647 9.53788 10.8293 9.42162L10.4984 8.09921ZM10.4974 8.09821L11.4613 7.1343C11.1225 6.79547 10.6307 6.65943 10.1659 6.77596L10.4974 8.09821ZM10.3017 8.14314L10.5313 9.48685C10.5433 9.48481 10.5552 9.4826 10.5672 9.48023L10.3017 8.14314ZM10.103 8.17709L10.304 9.52538C10.3135 9.52396 10.3231 9.52243 10.3326 9.5208L10.103 8.17709ZM9.90236 8.20205L10.0038 9.56145C10.0144 9.56066 10.025 9.55974 10.0356 9.5587L9.90236 8.20205ZM9.70168 8.21703L9.73541 9.57979C9.75801 9.57923 9.78059 9.57811 9.80313 9.57643L9.70168 8.21703ZM9.5 8.22202L9.46627 9.58478C9.48875 9.58534 9.51125 9.58534 9.53373 9.58478L9.5 8.22202ZM9.29832 8.21703L9.33205 6.85426C9.32081 6.85398 9.30956 6.85384 9.29832 6.85384V8.21703ZM9.29732 8.21703L9.22932 9.57851C9.25197 9.57964 9.27464 9.58021 9.29732 9.58021V8.21703ZM9.09664 8.20205L8.96314 9.55868L8.96335 9.5587L9.09664 8.20205ZM8.89595 8.17709H7.53277C7.53277 8.85228 8.02704 9.42574 8.69485 9.52535L8.89595 8.17709ZM8.89595 8.17609H10.2591C10.2591 7.50055 9.76438 6.92691 9.09617 6.82769L8.89595 8.17609ZM8.69827 8.14314L8.43284 9.48023L8.43288 9.48024L8.69827 8.14314ZM8.50058 8.09821L8.83258 6.77608C8.4252 6.67378 7.99342 6.765 7.66222 7.02331C7.33102 7.28162 7.1374 7.67819 7.1374 8.09821H8.50058ZM8.50058 8.09921L8.16949 9.42157C8.57677 9.52355 9.00832 9.43215 9.3393 9.17383C9.67028 8.9155 9.86376 8.51907 9.86376 8.09921H8.50058ZM8.30589 8.0453L7.90943 9.34955L7.90959 9.3496L8.30589 8.0453ZM8.11519 7.9814L7.65597 9.2649L7.6561 9.26495L8.11519 7.9814ZM7.92648 7.90951H6.5633C6.5633 8.46113 6.89574 8.95837 7.40547 9.1692L7.92648 7.90951ZM7.92648 7.90851H9.28967C9.28967 7.35748 8.95792 6.86063 8.44896 6.64943L7.92648 7.90851ZM7.74178 7.82764L8.32462 6.59534L8.32431 6.5952L7.74178 7.82764ZM7.56106 7.73678L8.20423 6.53487L8.20406 6.53478L7.56106 7.73678ZM7.38634 7.63694L6.68558 8.80621L6.68568 8.80628L7.38634 7.63694ZM7.21561 7.52911L6.43161 8.64428C6.44036 8.65044 6.44918 8.65649 6.45808 8.66243L7.21561 7.52911ZM7.05087 7.41329L6.2382 8.50775C6.24767 8.51478 6.25722 8.52169 6.26687 8.52847L7.05087 7.41329ZM6.89212 7.28849L7.75682 6.23466C7.51304 6.03464 7.20746 5.92531 6.89212 5.92531V7.28849ZM6.89112 7.28849L6.02566 8.3417C6.26956 8.54211 6.57544 8.65167 6.89112 8.65167V7.28849ZM6.73936 7.1577L5.82416 8.16798L5.82432 8.16813L6.73936 7.1577ZM6.59259 7.01792H5.22941C5.22941 7.37919 5.37282 7.72568 5.62813 7.98128L6.59259 7.01792ZM6.59259 7.01692H7.95577C7.95577 6.65527 7.81206 6.30843 7.55627 6.05277L6.59259 7.01692ZM6.45381 6.87215L5.42167 7.76262C5.42887 7.77098 5.43618 7.77924 5.44359 7.78741L6.45381 6.87215ZM6.32202 6.71939L5.26815 7.58404C5.27528 7.59274 5.28253 7.60135 5.28988 7.60987L6.32202 6.71939ZM6.19821 6.56064L7.29266 5.74796C7.25291 5.69442 7.20928 5.64388 7.16213 5.59673L6.19821 6.56064ZM6.19721 6.55964L5.10198 7.37126C5.14194 7.42519 5.18584 7.47609 5.2333 7.52356L6.19721 6.55964ZM6.0814 6.3949L4.94797 7.15227L4.94808 7.15243L6.0814 6.3949ZM5.97357 6.22417L4.80415 6.92469L4.80423 6.92482L5.97357 6.22417ZM5.87472 6.04945L7.07637 5.40578C7.01326 5.28796 6.93316 5.18005 6.83864 5.08553L5.87472 6.04945ZM5.87373 6.04845L4.65446 6.65808C4.71998 6.78913 4.80621 6.90876 4.90981 7.01236L5.87373 6.04845ZM5.78387 5.86873L4.55155 6.45154C4.5558 6.46053 4.56015 6.46947 4.5646 6.47837L5.78387 5.86873ZM5.702 5.68502H4.33882C4.33882 5.86436 4.3742 6.04193 4.44294 6.20756L5.702 5.68502ZM5.702 5.68403H7.06518C7.06518 5.50521 7.03 5.32815 6.96165 5.16292L5.702 5.68403ZM5.62911 5.49632L4.34561 5.95556L4.34565 5.95567L5.62911 5.49632ZM5.56621 5.30462L4.25247 5.66843C4.25548 5.6793 4.25863 5.69013 4.2619 5.70092L5.56621 5.30462ZM5.5123 5.10993L4.19011 5.44172C4.1928 5.45242 4.19561 5.4631 4.19856 5.47374L5.5123 5.10993ZM5.46737 4.91324L6.80446 4.64785L6.80446 4.64783L5.46737 4.91324ZM5.43342 4.71456L4.08497 4.91444L4.08499 4.91454L5.43342 4.71456ZM5.40846 4.51487H4.04528C4.04528 4.55981 4.0475 4.60472 4.05194 4.64944L5.40846 4.51487ZM5.40846 4.51387H6.77164C6.77164 4.48002 6.77038 4.44618 6.76786 4.41243L5.40846 4.51387ZM5.39348 4.31319L4.03193 4.37979C4.0325 4.39142 4.03322 4.40303 4.03408 4.41464L5.39348 4.31319ZM5.38849 4.11151H4.02531L4.02531 4.11162L5.38849 4.11151ZM5.39348 3.90883L4.03199 3.84095L4.03193 3.84223L5.39348 3.90883ZM5.40846 3.70815L4.05581 3.53906C4.05432 3.55098 4.05298 3.56292 4.05181 3.57487L5.40846 3.70815ZM5.43342 3.50846L4.08498 3.30857C4.08346 3.31882 4.08205 3.32909 4.08077 3.33938L5.43342 3.50846ZM5.46737 3.30977L6.80449 3.57506L6.80449 3.57506L5.46737 3.30977ZM5.5123 3.11209L4.19856 2.74828C4.19562 2.75889 4.19281 2.76953 4.19013 2.7802L5.5123 3.11209ZM5.56621 2.91739L4.26193 2.52102C4.25864 2.53184 4.25549 2.5427 4.25247 2.55359L5.56621 2.91739ZM5.62911 2.72669L4.34563 2.26742L4.34557 2.26758L5.62911 2.72669ZM5.702 2.53799L4.45687 1.9831C4.45187 1.9943 4.44703 2.00557 4.44235 2.0169L5.702 2.53799ZM5.78387 2.35428L7.029 2.90918C7.21693 2.48747 7.17864 1.99929 6.92726 1.61204C6.67587 1.22479 6.24556 0.991102 5.78387 0.991102V2.35428ZM5.78287 2.35428L4.55022 1.77218C4.3508 2.19447 4.38143 2.68945 4.6314 3.08392C4.88136 3.4784 5.31586 3.71746 5.78287 3.71746V2.35428ZM5.87472 2.17257L7.07648 2.81604L7.07681 2.81541L5.87472 2.17257ZM5.97357 1.99785L4.80436 1.29699L4.8043 1.29708L5.97357 1.99785ZM6.0814 1.82712L4.94826 1.06931L4.94818 1.06944L6.0814 1.82712ZM6.19721 1.66238V0.299194C5.76537 0.299194 5.35907 0.503815 5.10196 0.850783L6.19721 1.66238ZM6.19821 1.66238V3.02556C6.62965 3.02556 7.03563 2.82131 7.29278 2.47489L6.19821 1.66238ZM6.32202 1.50363L5.26839 0.638686L5.26831 0.638774L6.32202 1.50363ZM6.45381 1.35087L5.44352 0.435671L5.44351 0.435682L6.45381 1.35087ZM6.59259 1.2041L7.55614 2.16838L7.55656 2.16796L6.59259 1.2041ZM6.73936 1.06532L5.82406 0.0551266L5.82399 0.0551882L6.73936 1.06532ZM6.89112 0.933526V-0.429655C6.57553 -0.429655 6.26972 -0.320158 6.02586 -0.119845L6.89112 0.933526ZM6.89212 0.933526V2.29671C7.20739 2.29671 7.51291 2.18743 7.75666 1.98749L6.89212 0.933526ZM7.05087 0.809721L6.23868 -0.285092L6.23864 -0.285063L7.05087 0.809721ZM7.21561 0.692906L6.45849 -0.440688L6.45834 -0.440586L7.21561 0.692906ZM7.38634 0.585076L6.68574 -0.584293L6.68569 -0.584264L7.38634 0.585076ZM7.56206 0.486232L8.20491 1.68832C8.64837 1.45116 8.92524 0.98912 8.92524 0.486232H7.56206ZM7.56206 0.485234L6.91989 -0.717216C6.47605 -0.480184 6.19888 -0.0179329 6.19888 0.485234H7.56206ZM7.74178 0.395376L7.15913 -0.837013L7.15849 -0.83671L7.74178 0.395376ZM7.92648 0.313505L7.40507 -0.946016L7.40455 -0.945799L7.92648 0.313505ZM8.11519 0.24062L7.65619 -1.04296L7.65599 -1.04289L8.11519 0.24062ZM8.30589 0.177719V-1.18546C8.1717 -1.18546 8.03825 -1.16565 7.90985 -1.12666L8.30589 0.177719ZM8.30688 0.177719V1.5409C8.44086 1.5409 8.5741 1.52115 8.70231 1.48229L8.30688 0.177719ZM8.50058 0.123805L8.16931 -1.19851L8.1691 -1.19846L8.50058 0.123805ZM8.69727 0.0788755L8.43123 -1.25809L8.43111 -1.25807L8.69727 0.0788755ZM8.89595 0.0449291V-1.31825C8.8289 -1.31825 8.76194 -1.3133 8.69562 -1.30345L8.89595 0.0449291ZM8.89695 0.0449291V1.40811C8.96385 1.40811 9.03066 1.40319 9.09683 1.39338L8.89695 0.0449291ZM9.09664 0.0199685L8.96296 -1.33664L8.96287 -1.33663L9.09664 0.0199685ZM9.29832 0.00499212L9.23161 -1.35656L9.23132 -1.35654L9.29832 0.00499212ZM9.5 0L9.50011 -1.36318H9.49989L9.5 0ZM9.36521 1.36684L9.29859 0.00528997L9.29815 0.00531127L9.36521 1.36684ZM9.23043 1.37683L9.09676 0.0202138L9.09674 0.0202162L9.23043 1.37683ZM9.09664 1.3928L8.89671 0.0443601L8.89624 0.0444297L9.09664 1.3928ZM8.96385 1.41676L9.22981 2.75375L9.22985 2.75374L8.96385 1.41676ZM8.83205 1.44572L8.50081 0.123395L8.50063 0.12344L8.83205 1.44572ZM8.70226 1.48166L8.30689 0.177073L8.30628 0.17726L8.70226 1.48166ZM8.57346 1.52459L8.11437 0.241044L8.11396 0.24119L8.57346 1.52459ZM8.44866 1.57252L7.92754 0.312876C7.91695 0.317255 7.90642 0.321768 7.89595 0.326412L8.44866 1.57252ZM8.32486 1.62743L7.77215 0.381326C7.76185 0.385893 7.75161 0.390588 7.74143 0.395409L8.32486 1.62743ZM8.20405 1.68833L7.56181 0.485922L7.56088 0.486419L8.20405 1.68833ZM8.08723 1.75423L7.38677 0.584776L7.38647 0.584961L8.08723 1.75423ZM7.97341 1.82712L7.21632 0.693506L7.21628 0.693533L7.97341 1.82712ZM7.86259 1.90399L7.0504 0.809182L7.05029 0.809259L7.86259 1.90399ZM7.75675 1.98686L6.89239 0.932757L6.89157 0.933432L7.75675 1.98686ZM7.65391 2.07572L6.73858 1.06556L6.73823 1.06588L7.65391 2.07572ZM7.55707 2.16858V3.53176C7.91864 3.53176 8.26539 3.38811 8.52104 3.13243L7.55707 2.16858ZM7.55607 2.16858V0.805395C7.19468 0.805395 6.84809 0.948895 6.59246 1.20435L7.55607 2.16858ZM7.46421 2.26542L6.4541 1.35003L6.45391 1.35024L7.46421 2.26542ZM7.37535 2.36826L6.32172 1.50332L6.32161 1.50346L7.37535 2.36826ZM7.29249 2.47509L6.32857 3.43901C6.60883 3.71927 6.9972 3.86367 7.39248 3.8346C7.78776 3.80553 8.15082 3.60585 8.38706 3.2876L7.29249 2.47509ZM7.29149 2.47409L8.2554 1.51018C7.97495 1.22972 7.58625 1.08532 7.19072 1.11464C6.79518 1.14396 6.43203 1.34409 6.19599 1.66283L7.29149 2.47409ZM7.21461 2.58492L6.08147 1.82711L6.08136 1.82729L7.21461 2.58492ZM7.14272 2.69874L5.97351 1.99788L5.9734 1.99806L7.14272 2.69874ZM7.07683 2.81555L8.04074 3.77947C8.13549 3.68472 8.21575 3.57652 8.27894 3.45835L7.07683 2.81555ZM7.07583 2.81655L6.11191 1.85264C6.00831 1.95624 5.92209 2.07587 5.85656 2.20692L7.07583 2.81655ZM7.01592 2.93636L5.79666 2.32673C5.7922 2.33563 5.78785 2.34458 5.7836 2.35358L7.01592 2.93636ZM6.96101 3.06017L5.70191 2.53773L5.70119 2.53948L6.96101 3.06017ZM6.91308 3.18597L5.6296 2.72669L5.62956 2.72682L6.91308 3.18597ZM6.87015 3.31377L5.56585 2.91745C5.56257 2.92825 5.55943 2.93909 5.55641 2.94996L6.87015 3.31377ZM6.83421 3.44356L5.52047 3.07976C5.51753 3.09037 5.51472 3.10101 5.51205 3.11168L6.83421 3.44356ZM6.80525 3.57436L5.46819 3.30881C5.45082 3.39626 5.44207 3.4852 5.44207 3.57436H6.80525ZM6.80525 3.57535L8.14238 3.84062C8.15971 3.75326 8.16844 3.66441 8.16844 3.57535H6.80525ZM6.78129 3.70815L5.43285 3.50825C5.43096 3.52098 5.42925 3.53374 5.42773 3.54653L6.78129 3.70815ZM6.76532 3.84193L5.41175 3.68031C5.41062 3.68979 5.40959 3.69928 5.40866 3.70877L6.76532 3.84193ZM6.75533 3.97672L5.39384 3.90884L5.39377 3.91038L6.75533 3.97672ZM6.75234 4.11151H5.38916V4.11167L6.75234 4.11151ZM6.75533 4.2453L5.39376 4.31148C5.39432 4.32299 5.39503 4.3345 5.39588 4.346L6.75533 4.2453ZM6.76532 4.38008L5.40586 4.48078C5.40734 4.50074 5.40926 4.52066 5.41161 4.54052L6.76532 4.38008ZM6.78129 4.51487L5.42759 4.67531C5.42916 4.68855 5.43092 4.70177 5.43288 4.71496L6.78129 4.51487ZM6.80525 4.64766L8.14235 4.38228L8.14234 4.38223L6.80525 4.64766ZM6.83421 4.77846H8.19739C8.19739 4.66657 8.18361 4.55511 8.15638 4.44659L6.83421 4.77846ZM6.83421 4.77945H5.47103C5.47103 4.89104 5.48473 5.0022 5.51182 5.11045L6.83421 4.77945ZM6.87015 4.90825L5.5658 5.30438L5.56585 5.30454L6.87015 4.90825ZM6.91308 5.03705L5.62959 5.49629L5.62967 5.4965L6.91308 5.03705ZM6.96101 5.16185L5.70114 5.68242C5.70559 5.69319 5.71018 5.7039 5.7149 5.71456L6.96101 5.16185ZM7.01592 5.28565H8.3791C8.3791 5.09526 8.33922 4.90699 8.26203 4.73295L7.01592 5.28565ZM7.01592 5.28665H5.65274C5.65274 5.4881 5.69739 5.68704 5.78347 5.86916L7.01592 5.28665ZM7.07583 5.40547L5.87308 6.04708L5.87417 6.04912L7.07583 5.40547ZM7.14272 5.52428L5.97332 6.22483L5.97345 6.22504L7.14272 5.52428ZM7.21461 5.6381L6.08123 6.39554L6.08134 6.3957L7.21461 5.6381ZM7.29249 5.74792L6.19726 6.55956C6.20285 6.5671 6.20852 6.57459 6.21427 6.58202L7.29249 5.74792ZM7.37436 5.85376L6.29614 6.68785C6.5543 7.02157 6.95244 7.21694 7.37436 7.21694V5.85376ZM7.37535 5.85376L8.4287 4.98847C8.16977 4.67326 7.78328 4.49058 7.37535 4.49058V5.85376ZM7.46421 5.95659L6.45381 6.87166L6.45396 6.87182L7.46421 5.95659ZM7.55607 6.05344L8.51998 5.08953L8.51967 5.08922L7.55607 6.05344ZM7.55707 6.05444L8.52156 5.09111L8.52098 5.09053L7.55707 6.05444ZM7.65391 6.14729L6.73863 7.1575L6.73879 7.15764L7.65391 6.14729ZM7.75675 6.23516L6.89136 7.28842C6.90121 7.29651 6.91117 7.30446 6.92123 7.31227L7.75675 6.23516ZM7.86358 6.31802V7.68121C8.44627 7.68121 8.96452 7.31086 9.15327 6.75959C9.34201 6.20833 9.15951 5.59805 8.6991 5.24091L7.86358 6.31802ZM7.86259 6.31802V4.95484C7.27443 4.95484 6.75259 5.33207 6.56816 5.89056C6.38373 6.44905 6.57829 7.06286 7.05078 7.41312L7.86259 6.31802ZM7.97341 6.3959L7.21578 7.52915L7.21595 7.52927L7.97341 6.3959ZM8.08723 6.46779L7.38647 7.63706L7.38664 7.63716L8.08723 6.46779ZM8.20504 6.53468L7.56216 7.73675C7.57317 7.74263 7.58425 7.74837 7.59541 7.75395L8.20504 6.53468ZM8.32486 6.59459L7.71522 7.81385C7.7241 7.81829 7.73303 7.82264 7.74201 7.82688L8.32486 6.59459ZM8.44866 6.6495V8.01268C9.09881 8.01268 9.65847 7.55355 9.78555 6.91594C9.91262 6.27833 9.57174 5.63972 8.97127 5.39048L8.44866 6.6495ZM8.44766 6.6495V5.28632C7.79719 5.28632 7.23733 5.7459 7.1106 6.38391C6.98387 7.02192 7.32557 7.66059 7.92666 7.90919L8.44766 6.6495ZM8.57446 6.69842L8.11514 7.98189L8.11554 7.98203L8.57446 6.69842ZM8.70226 6.74036L8.30578 8.04461L8.30596 8.04466L8.70226 6.74036ZM8.83205 6.7763L8.501 8.09867C8.5099 8.1009 8.51881 8.10304 8.52775 8.10508L8.83205 6.7763ZM8.96285 6.80625L8.65855 8.13504C8.75837 8.1579 8.86044 8.16943 8.96285 8.16943V6.80625ZM8.96385 6.80625L9.19614 5.46301C9.11942 5.44974 9.0417 5.44307 8.96385 5.44307V6.80625ZM9.09664 6.82922L8.86435 8.17246C8.88781 8.17652 8.91137 8.17996 8.93502 8.18278L9.09664 6.82922ZM9.23043 6.84519L9.06881 8.19876C9.07827 8.19989 9.08775 8.20092 9.09725 8.20185L9.23043 6.84519ZM9.36521 6.85518V8.21836C10.1048 8.21836 10.7095 7.62859 10.728 6.88921C10.7464 6.14984 10.1719 5.53061 9.43326 5.49369L9.36521 6.85518ZM9.36421 6.85518V5.49199C8.62433 5.49199 8.01952 6.0822 8.00144 6.82187C7.98336 7.56154 8.55862 8.18059 9.29762 8.21673L9.36421 6.85518ZM9.5 6.85917L9.49973 8.22235H9.50016L9.5 6.85917ZM9.63379 6.85518L9.69991 8.21675L9.70162 8.21667L9.63379 6.85518ZM9.76957 6.84519L9.90268 8.20186L9.90309 8.20182L9.76957 6.84519ZM9.90236 6.82922L10.1032 8.17752C10.1132 8.17604 10.1231 8.17445 10.133 8.17275L9.90236 6.82922ZM10.0362 6.80625L10.2668 8.14979C10.2784 8.1478 10.2899 8.14566 10.3015 8.14337L10.0362 6.80625ZM10.1669 6.7763V5.41312C10.055 5.41312 9.94354 5.4269 9.835 5.45415L10.1669 6.7763ZM10.1679 6.7763V8.13948C10.2796 8.13948 10.3908 8.12577 10.4991 8.09865L10.1679 6.7763ZM10.2967 6.74036L10.6924 8.04485L10.693 8.04467L10.2967 6.74036ZM10.4255 6.69842L10.8845 7.98202L10.8848 7.98193L10.4255 6.69842ZM10.5503 6.6495L11.0708 7.9094L11.0728 7.9086L10.5503 6.6495ZM10.6741 6.59459V5.23141C10.4726 5.23141 10.2736 5.27608 10.0915 5.36221L10.6741 6.59459ZM10.6751 6.59459V7.95777C10.8766 7.95777 11.0756 7.91311 11.2577 7.82701L10.6751 6.59459ZM10.795 6.53468L10.1522 5.33254L10.152 5.33267L10.795 6.53468ZM10.9128 6.46779L11.6133 7.63719L11.6136 7.63702L10.9128 6.46779ZM11.0266 6.3959L11.784 7.52931L11.7843 7.52912L11.0266 6.3959ZM11.1364 6.31802L11.9481 7.4132C11.9578 7.40603 11.9674 7.39874 11.9768 7.39132L11.1364 6.31802ZM11.2422 6.23516L12.0827 7.30845C12.091 7.3019 12.0993 7.29524 12.1075 7.28849L11.2422 6.23516ZM11.3451 6.14729L12.26 7.15784L12.2602 7.15763L11.3451 6.14729ZM11.4419 6.05444L10.478 5.09053L10.4776 5.09097L11.4419 6.05444ZM11.4429 6.05344L10.4795 5.08903L10.479 5.08953L11.4429 6.05344ZM11.5358 5.95659L12.546 6.87185L12.5462 6.87166L11.5358 5.95659ZM11.6236 5.85376L12.677 6.71908L12.6776 6.71829L11.6236 5.85376ZM11.7065 5.74792L12.8009 6.56072C12.8068 6.55269 12.8127 6.54459 12.8185 6.53643L11.7065 5.74792ZM11.7844 5.6381L12.8964 6.4266C12.9036 6.41638 12.9107 6.40605 12.9177 6.39563L11.7844 5.6381ZM11.8563 5.52428L13.0255 6.22517L13.0256 6.22492L11.8563 5.52428ZM11.9232 5.40646L10.7213 4.7633L10.7211 4.76365L11.9232 5.40646ZM11.9831 5.28665L13.2155 5.86927C13.3016 5.68711 13.3463 5.48814 13.3463 5.28665H11.9831ZM11.9831 5.28565L10.7508 4.70285C10.6646 4.88506 10.6199 5.0841 10.6199 5.28565H11.9831ZM12.038 5.16185L13.2971 5.68434L13.2978 5.68255L12.038 5.16185ZM12.0869 5.03705L13.3703 5.49648L13.3704 5.49633L12.0869 5.03705ZM12.1288 4.90825L13.4331 5.30456L13.4332 5.30447L12.1288 4.90825ZM12.1648 4.77945L13.4872 5.11053C13.5143 5.00226 13.528 4.89107 13.528 4.77945H12.1648ZM12.1648 4.77846L10.8426 4.44651C10.8154 4.55505 10.8016 4.66654 10.8016 4.77846H12.1648ZM12.1947 4.64766L10.8577 4.38222L10.8576 4.3823L12.1947 4.64766ZM12.2177 4.51487L13.5661 4.71502L13.5662 4.71476L12.2177 4.51487ZM12.2337 4.38008L13.5902 4.51459L13.5904 4.5131L12.2337 4.38008ZM12.2437 4.2453L13.6052 4.31315L13.6052 4.3115L12.2437 4.2453ZM12.2477 4.11151L13.6108 4.11167V4.11151H12.2477ZM12.2437 3.97672L13.6052 3.91036C13.6047 3.8989 13.604 3.88746 13.6031 3.87602L12.2437 3.97672ZM12.2337 3.84193L13.5931 3.74123C13.5923 3.7299 13.5913 3.71858 13.5902 3.70727L12.2337 3.84193ZM12.2177 3.70815L13.5662 3.50836L13.5662 3.50823L12.2177 3.70815ZM12.1947 3.57535H10.8316C10.8316 3.6644 10.8403 3.75322 10.8576 3.84056L12.1947 3.57535ZM12.1947 3.57436H13.5579C13.5579 3.47195 13.5464 3.36987 13.5235 3.27006L12.1947 3.57436ZM12.1648 3.44356L13.4936 3.13926C13.4915 3.13039 13.4894 3.12154 13.4872 3.11271L12.1648 3.44356ZM12.1288 3.31377L13.4332 2.91748L13.4331 2.91736L12.1288 3.31377ZM12.0869 3.18597L13.3705 2.7269L13.3704 2.72663L12.0869 3.18597ZM12.038 3.06017L13.2977 2.53933C13.2933 2.52865 13.2888 2.51802 13.2841 2.50746L12.038 3.06017ZM11.9831 2.93636L13.2292 2.38366C13.2246 2.37342 13.22 2.36324 13.2152 2.35312L11.9831 2.93636ZM11.9232 2.81555L13.1254 2.17297L13.1253 2.17279L11.9232 2.81555ZM11.8563 2.69874L13.0255 1.9979L13.0255 1.99782L11.8563 2.69874ZM11.7844 2.58492L12.9175 1.82712L12.9175 1.82705L11.7844 2.58492ZM11.7065 2.47409L12.8017 1.6624L12.8009 1.66126L11.7065 2.47409ZM11.6236 2.36826L10.57 3.23323L10.5701 3.23325L11.6236 2.36826ZM11.5358 2.26542L12.546 1.35016L12.5459 1.35009L11.5358 2.26542ZM11.4429 2.16858L10.4791 3.13253L10.4795 3.13299L11.4429 2.16858ZM11.3451 2.07572L12.2606 1.06569L12.2603 1.06548L11.3451 2.07572ZM11.2422 1.98686H9.87907C9.87907 2.39488 10.0618 2.78145 10.3772 3.04038L11.2422 1.98686ZM11.2422 1.98586H12.6054C12.6054 1.56395 12.4101 1.16581 12.0763 0.907647L11.2422 1.98586ZM11.1364 1.90399L11.9705 0.825777C11.9632 0.820127 11.9558 0.814551 11.9484 0.809051L11.1364 1.90399ZM11.0266 1.82712L11.7839 0.693662L11.7837 0.693492L11.0266 1.82712ZM10.9128 1.75423L11.6134 0.584894C11.6018 0.577922 11.59 0.571124 11.5782 0.564503L10.9128 1.75423ZM10.795 1.68833L11.4604 0.498607C11.4527 0.494283 11.4449 0.490034 11.4371 0.485861L10.795 1.68833ZM10.6741 1.62743L11.2573 0.395288L11.2566 0.394932L10.6741 1.62743ZM10.5513 1.57252L11.0733 0.313208L11.0725 0.312905L10.5513 1.57252ZM10.4255 1.52459L10.8848 0.241093L10.8845 0.241009L10.4255 1.52459ZM10.2967 1.48166H8.93356C8.93356 2.08208 9.32641 2.6118 9.90096 2.78612L10.2967 1.48166ZM10.2967 1.48066H11.6599C11.6599 0.879868 11.2666 0.349909 10.6915 0.175906L10.2967 1.48066ZM10.1669 1.44572L10.4982 0.1234L10.4978 0.123303L10.1669 1.44572ZM10.0362 1.41676L10.3023 0.0798138C10.2147 0.0623682 10.1255 0.053582 10.0362 0.053582V1.41676ZM10.0352 1.41676L9.76934 2.75378C9.85687 2.77118 9.94591 2.77994 10.0352 2.77994V1.41676ZM9.90236 1.3928L10.1025 0.0443863L10.1019 0.0443011L9.90236 1.3928ZM9.76858 1.37683L9.90218 0.0202077L9.90193 0.0201835L9.76858 1.37683ZM9.63479 1.36684L9.70182 0.00530975L9.7014 0.00528954L9.63479 1.36684ZM9.5 1.36385L9.50017 0.000665555L9.49988 0.00066558L9.5 1.36385ZM12.047 10.778V12.1412C13.1549 12.1412 13.9463 12.1419 14.5658 12.1925L14.6768 10.8339L14.7878 9.47524C14.0319 9.41348 13.1113 9.4148 12.047 9.4148V10.778ZM14.6768 10.8339L14.5658 12.1925C15.1762 12.2424 15.5614 12.3381 15.8693 12.4949L16.488 11.2802L17.1067 10.0655C16.3517 9.68097 15.5688 9.53906 14.7878 9.47524L14.6768 10.8339ZM16.488 11.2802L15.8691 12.4948C16.0216 12.5725 16.1659 12.6607 16.3018 12.7594L17.103 11.6566L17.9042 10.5537C17.6503 10.3693 17.3839 10.2067 17.1069 10.0656L16.488 11.2802ZM17.103 11.6566L16.3018 12.7594C16.4387 12.8589 16.5676 12.9692 16.6881 13.0896L17.6521 12.1259L18.6162 11.1621C18.3955 10.9413 18.1577 10.7379 17.9042 10.5537L17.103 11.6566ZM17.6521 12.1259L16.6513 13.0514L16.8969 13.317L17.8977 12.3914L18.8985 11.4659L18.6529 11.2003L17.6521 12.1259ZM17.8977 12.3914L16.8611 13.2766C16.9165 13.3416 16.9693 13.4084 17.0185 13.4762L18.1214 12.675L19.2243 11.8738C19.132 11.7467 19.0349 11.624 18.9344 11.5062L17.8977 12.3914ZM18.1214 12.675L17.0185 13.4762C17.1173 13.6121 17.2055 13.7565 17.2832 13.9089L18.4978 13.29L19.7124 12.6712C19.5712 12.3941 19.4086 12.1276 19.2243 11.8738L18.1214 12.675ZM18.4978 13.29L17.283 13.9086C17.4398 14.2165 17.5356 14.602 17.5854 15.2122L18.9441 15.1012L20.3027 14.9901C20.2389 14.2092 20.0969 13.4262 19.7125 12.6714L18.4978 13.29ZM18.9441 15.1012L17.5854 15.2121C17.636 15.8316 17.6368 16.6233 17.6368 17.731H19H20.3632C20.3632 16.6668 20.3645 15.746 20.3027 14.9902L18.9441 15.1012ZM19 17.731H17.6368V18.3181H19H20.3632V17.731H19ZM19 18.3181L17.6368 18.3174C17.637 17.942 17.9409 17.6368 18.3181 17.6368L18.3181 19L18.3181 20.3632C19.4479 20.3632 20.3626 19.4467 20.3632 18.3187L19 18.3181ZM18.3181 19V17.6368H0.681923V19V20.3632H18.3181V19ZM0.681923 19V17.6368C1.05912 17.6368 1.363 17.942 1.36318 18.3174L0 18.3181L-1.36318 18.3187C-1.36264 19.4467 -0.447913 20.3632 0.681923 20.3632V19ZM0 18.3181H1.36318V17.731H0H-1.36318V18.3181H0ZM0 17.731H1.36318C1.36318 16.6233 1.36397 15.8316 1.41457 15.2121L0.0559117 15.1012L-1.30275 14.9902C-1.36448 15.746 -1.36318 16.6668 -1.36318 17.731H0ZM0.0559117 15.1012L1.41456 15.2122C1.46442 14.602 1.56017 14.2165 1.71695 13.9086L0.502207 13.29L-0.712539 12.6714C-1.09688 13.4262 -1.23893 14.2092 -1.30274 14.9901L0.0559117 15.1012ZM0.502207 13.29L1.71676 13.909C1.79449 13.7565 1.88274 13.6121 1.9815 13.4762L0.878613 12.675L-0.224275 11.8738C-0.408752 12.1277 -0.571276 12.3942 -0.712349 12.6711L0.502207 13.29ZM0.878613 12.675L1.98149 13.4762C2.08087 13.3394 2.19115 13.2104 2.31171 13.0898L1.34787 12.1259L0.384036 11.1619C0.163355 11.3825 -0.04007 11.6202 -0.224261 11.8738L0.878613 12.675ZM1.34787 12.1259L2.27343 13.1267L2.53901 12.881L1.61345 11.8802L0.687897 10.8794L0.422316 11.125L1.34787 12.1259ZM1.61345 11.8802L2.49869 12.9169C2.56351 12.8615 2.63032 12.8088 2.69829 12.7594L1.897 11.6566L1.09572 10.5538C0.968809 10.646 0.846048 10.743 0.728215 10.8436L1.61345 11.8802ZM1.897 11.6566L2.69816 12.7595C2.83415 12.6607 2.97842 12.5725 3.13095 12.4948L2.51203 11.2802L1.89312 10.0656C1.61606 10.2068 1.34966 10.3693 1.09585 10.5537L1.897 11.6566ZM2.51203 11.2802L3.13073 12.4949C3.43857 12.3381 3.82381 12.2424 4.43419 12.1925L4.32317 10.8339L4.21216 9.47524C3.43118 9.53906 2.64827 9.68097 1.89334 10.0655L2.51203 11.2802ZM4.32317 10.8339L4.43418 12.1925C5.05367 12.1419 5.84514 12.1412 6.95302 12.1412V10.778V9.4148C5.88871 9.4148 4.96809 9.41348 4.21216 9.47524L4.32317 10.8339ZM6.95302 10.778V12.1412H12.047V10.778V9.4148H6.95302V10.778ZM6.95302 12.1418V10.7786C5.86762 10.7786 5.01086 10.7779 4.32298 10.8341L4.434 12.1927L4.54501 13.5514C5.09578 13.5064 5.82121 13.505 6.95302 13.505V12.1418ZM4.434 12.1927L4.32295 10.8341C3.62838 10.8909 3.04426 11.0087 2.51237 11.2796L3.13106 12.4943L3.74975 13.709C3.83239 13.6669 4.01717 13.5945 4.54504 13.5514L4.434 12.1927ZM3.13106 12.4943L2.51226 11.2796C2.29714 11.3892 2.09155 11.5153 1.89649 11.657L2.69774 12.7599L3.49899 13.8627C3.57888 13.8047 3.6625 13.7534 3.74985 13.7089L3.13106 12.4943ZM2.69774 12.7599L1.89636 11.6571C1.70326 11.7974 1.5196 11.9532 1.34742 12.1254L2.31135 13.0893L3.27528 14.0532C3.34322 13.9853 3.41765 13.9218 3.49913 13.8626L2.69774 12.7599ZM2.31135 13.0893H0.94817V13.0903H2.31135H3.67453V13.0893H2.31135ZM2.31135 13.0903L1.34734 12.1265C1.17813 12.2958 1.02152 12.4784 0.879059 12.6744L1.98187 13.4757L3.08468 14.277C3.14156 14.1987 3.20498 14.1245 3.27536 14.0541L2.31135 13.0903ZM1.98187 13.4757L0.879043 12.6745C0.737427 12.8694 0.611295 13.075 0.501683 13.2902L1.71629 13.909L2.9309 14.5279C2.97547 14.4404 3.02679 14.3567 3.0847 14.277L1.98187 13.4757ZM1.71629 13.909L0.501502 13.2905C0.230799 13.8222 0.112882 14.4064 0.0561152 15.1009L1.41477 15.212L2.77342 15.323C2.81653 14.7955 2.88893 14.6103 2.93108 14.5275L1.71629 13.909ZM1.41477 15.212L0.056109 15.101C0.00142814 15.7705 0.000732008 16.5977 0.000665578 17.6371L1.36385 17.6372L2.72703 17.6372C2.7271 16.5573 2.72981 15.8569 2.77342 15.3229L1.41477 15.212ZM1.36385 17.6372V19.0003H17.6362V17.6372V16.274H1.36385V17.6372ZM17.6362 17.6372L18.9993 17.6371C18.9993 16.5977 18.9986 15.7705 18.9439 15.101L17.5852 15.212L16.2266 15.3229C16.2702 15.8569 16.2729 16.5573 16.273 17.6372L17.6362 17.6372ZM17.5852 15.212L18.9439 15.1009C18.8871 14.4064 18.7692 13.8222 18.4985 13.2905L17.2837 13.909L16.0689 14.5275C16.1111 14.6103 16.1835 14.7955 16.2266 15.323L17.5852 15.212ZM17.2837 13.909L18.4984 13.2903C18.445 13.1854 18.3864 13.0799 18.3223 12.9753L17.1599 13.6874L15.9975 14.3995C16.0216 14.4389 16.0456 14.4817 16.069 14.5278L17.2837 13.909ZM17.1599 13.6874L18.2925 12.9288L18.1507 12.7171L17.0181 13.4757L15.8855 14.2343L16.0273 14.446L17.1599 13.6874ZM17.0181 13.4757L18.121 12.6745C17.9785 12.4784 17.8219 12.2958 17.6526 12.1265L16.6886 13.0903L15.7247 14.0542C15.795 14.1246 15.8585 14.1988 15.9153 14.277L17.0181 13.4757ZM16.6886 13.0903L17.6526 12.1264L17.6516 12.1254L16.6877 13.0893L15.7237 14.0532L15.7247 14.0542L16.6886 13.0903ZM16.6877 13.0893L17.6516 12.1254C17.5667 12.0406 17.4786 11.9591 17.3876 11.8813L16.5019 12.9176L15.6163 13.9539C15.6532 13.9855 15.6891 14.0186 15.7237 14.0533L16.6877 13.0893ZM16.5019 12.9176L17.347 11.8479L17.1473 11.6902L16.3023 12.7599L15.4572 13.8295L15.6569 13.9873L16.5019 12.9176ZM16.3023 12.7599L17.1036 11.6571C16.9085 11.5153 16.7028 11.3892 16.4877 11.2796L15.8689 12.4943L15.2502 13.7089C15.3376 13.7534 15.4212 13.8047 15.5009 13.8626L16.3023 12.7599ZM15.8689 12.4943L16.4876 11.2796C15.9557 11.0087 15.3716 10.8909 14.677 10.8341L14.566 12.1927L14.455 13.5514C14.9828 13.5945 15.1676 13.6669 15.2503 13.709L15.8689 12.4943ZM14.566 12.1927L14.677 10.8341C13.9891 10.7779 13.1324 10.7786 12.047 10.7786V12.1418V13.505C13.1788 13.505 13.9042 13.5064 14.455 13.5514L14.566 12.1927ZM12.047 12.1418V10.7786H6.95302V12.1418V13.505H12.047V12.1418ZM9.70168 0.00499212L9.6347 1.36653C9.67709 1.36861 9.72191 1.37198 9.76887 1.3766L9.90236 0.0199685L10.0359 -1.33666C9.94949 -1.34516 9.86008 -1.35205 9.76866 -1.35654L9.70168 0.00499212ZM9.90236 0.0199685L9.76877 1.37659C9.81063 1.38071 9.85575 1.38635 9.90312 1.39337L10.103 0.0449291L10.303 -1.30351C10.2174 -1.3162 10.1277 -1.32761 10.036 -1.33665L9.90236 0.0199685ZM10.103 0.0449291L9.90289 1.39334C9.95482 1.40104 9.99826 1.4084 10.0359 1.41588L10.3017 0.0788755L10.5676 -1.25812C10.4735 -1.27684 10.3839 -1.2915 10.3032 -1.30348L10.103 0.0449291ZM10.3017 0.0788755L10.0358 1.41587C10.071 1.42287 10.1128 1.43251 10.1672 1.44614L10.4984 0.123805L10.8296 -1.19853C10.7537 -1.21754 10.6641 -1.23893 10.5676 -1.25812L10.3017 0.0788755ZM10.4984 0.123805L10.1346 1.43754L10.3293 1.49146L10.6931 0.177719L11.0569 -1.13602L10.8622 -1.18993L10.4984 0.123805ZM10.6931 0.177719L10.2681 1.47296L10.4598 1.53586L10.8848 0.24062L11.3098 -1.05462L11.1181 -1.11752L10.6931 0.177719ZM10.8848 0.24062L10.4256 1.52413C10.4623 1.53725 10.5034 1.55328 10.5512 1.57306L11.0725 0.313505L11.5938 -0.946051C11.518 -0.977452 11.4339 -1.01074 11.344 -1.04289L10.8848 0.24062ZM11.0725 0.313505L10.5507 1.57285C10.5922 1.59004 10.6339 1.60856 10.6747 1.62781L11.2572 0.395376L11.8398 -0.837056C11.7591 -0.875176 11.6769 -0.911654 11.5943 -0.945843L11.0725 0.313505ZM11.2572 0.395376L10.6476 1.61464L10.8273 1.7045L11.4369 0.485234L12.0466 -0.734032L11.8669 -0.82389L11.2572 0.395376ZM11.4369 0.485234L10.473 1.44915L10.474 1.45015L11.4379 0.486232L12.4019 -0.477682L12.4009 -0.478681L11.4369 0.485234ZM11.4379 0.486232L10.795 1.68827C10.836 1.71018 10.8751 1.73233 10.9122 1.75454L11.6127 0.585076L12.3131 -0.584391C12.2356 -0.630784 12.158 -0.674576 12.0809 -0.715804L11.4379 0.486232ZM11.6127 0.585076L10.9121 1.75447C10.953 1.77895 10.9912 1.80309 11.0264 1.82658L11.7834 0.692906L12.5404 -0.440763C12.4642 -0.491646 12.388 -0.539547 12.3132 -0.584314L11.6127 0.585076ZM11.7834 0.692906L11.0263 1.8265C11.0569 1.84695 11.0922 1.87208 11.136 1.90459L11.9481 0.809721L12.7602 -0.28515C12.6962 -0.332625 12.6218 -0.386366 12.5405 -0.44069L11.7834 0.692906ZM11.9481 0.809721L11.1131 1.8872L11.2728 2.011L12.1079 0.933526L12.9429 -0.143953L12.7832 -0.267757L11.9481 0.809721ZM12.1079 0.933526L11.2174 1.96567L11.3702 2.09746L12.2606 1.06532L13.1511 0.0331763L12.9984 -0.0986156L12.1079 0.933526ZM12.2606 1.06532L11.3452 2.0754C11.3784 2.10545 11.4109 2.13644 11.4426 2.16807L12.4064 1.2041L13.3703 0.240131C13.3073 0.17716 13.2425 0.115405 13.1761 0.0552383L12.2606 1.06532ZM12.4064 1.2041L11.4193 2.14422L11.5591 2.29099L12.5462 1.35087L13.5333 0.410742L13.3935 0.263974L12.4064 1.2041ZM12.5462 1.35087L11.5358 2.26599C11.5601 2.29279 11.588 2.32549 11.6234 2.36859L12.677 1.50363L13.7306 0.638658C13.681 0.578255 13.6222 0.508189 13.5565 0.435743L12.5462 1.35087ZM12.677 1.50363L11.6053 2.34613L11.7301 2.50488L12.8018 1.66238L13.8734 0.819875L13.7486 0.661126L12.677 1.50363ZM12.8018 1.66238L11.6866 2.44637L11.8024 2.61111L12.9176 1.82712L14.0328 1.04312L13.917 0.878376L12.8018 1.66238ZM12.9176 1.82712L11.7845 2.5849C11.8074 2.61928 11.8312 2.65702 11.8562 2.69875L13.0254 1.99785L14.1946 1.29694C14.1508 1.22386 14.1029 1.14738 14.0508 1.06933L12.9176 1.82712ZM13.0254 1.99785L11.8562 2.69871C11.8812 2.74035 11.9035 2.77957 11.9231 2.81621L13.1253 2.17357L14.3275 1.53093C14.2838 1.4493 14.239 1.37099 14.1946 1.29698L13.0254 1.99785ZM13.1253 2.17357L11.923 2.81607C11.9464 2.85993 11.9666 2.89973 11.984 2.93641L13.2161 2.35328L14.4483 1.77016C14.4083 1.68559 14.3674 1.60556 14.3275 1.53107L13.1253 2.17357ZM13.2161 2.35328L11.9838 2.93613C11.9984 2.96683 12.0148 3.00483 12.0379 3.06045L13.297 2.53799L14.5561 2.01554C14.5279 1.94755 14.4914 1.8614 14.4484 1.77044L13.2161 2.35328ZM13.297 2.53799V3.90117H13.298V2.53799V1.17481H13.297V2.53799ZM13.298 2.53799L12.0384 3.05912C12.0519 3.09194 12.0671 3.1321 12.0864 3.186L13.3699 2.72669L14.6534 2.26739C14.6274 2.19484 14.5954 2.1081 14.5576 2.01687L13.298 2.53799ZM13.3699 2.72669L12.0864 3.18587C12.1057 3.23995 12.1193 3.28006 12.1295 3.31375L13.4338 2.91739L14.7381 2.52104C14.7094 2.42682 14.6793 2.34001 14.6534 2.26751L13.3699 2.72669ZM13.4338 2.91739L12.1295 3.31369C12.1426 3.35673 12.1545 3.39994 12.1653 3.44303L13.4877 3.11209L14.8101 2.78114C14.7883 2.69403 14.7643 2.60723 14.7381 2.5211L13.4338 2.91739ZM13.4877 3.11209L12.157 3.4078L12.2009 3.60549L13.5316 3.30977L14.8624 3.01406L14.8184 2.81637L13.4877 3.11209ZM13.5316 3.30977L12.1945 3.5751C12.2021 3.61331 12.2095 3.65711 12.2171 3.70836L13.5656 3.50846L14.914 3.30856C14.9019 3.22672 14.8872 3.13745 14.8687 3.04444L13.5316 3.30977ZM13.5656 3.50846L12.2171 3.70825C12.2243 3.7569 12.2299 3.80158 12.234 3.84261L13.5905 3.70815L14.9471 3.57368C14.938 3.48178 14.9265 3.39295 14.914 3.30867L13.5656 3.50846ZM13.5905 3.70815L12.2311 3.80959L12.2461 4.01028L13.6055 3.90883L14.9649 3.80738L14.9499 3.6067L13.5905 3.70815ZM13.6055 3.90883H12.2423V3.90983H13.6055H14.9687V3.90883H13.6055ZM13.6055 3.90983L12.244 3.97636C12.2462 4.0222 12.2473 4.06745 12.2473 4.11151H13.6105H14.9737C14.9737 4.02128 14.9714 3.93163 14.9671 3.84329L13.6055 3.90983ZM13.6105 4.11151L12.2477 4.07778L12.2428 4.27946L13.6055 4.31319L14.9683 4.34692L14.9733 4.14524L13.6105 4.11151ZM13.6055 4.31319L12.244 4.24535C12.2419 4.28863 12.2385 4.33377 12.2339 4.3806L13.5905 4.51387L14.9472 4.64715C14.9557 4.56015 14.9625 4.47125 14.967 4.38103L13.6055 4.31319ZM13.5905 4.51387H12.2274V4.51487H13.5905H14.9537V4.51387H13.5905ZM13.5905 4.51487L12.234 4.38028C12.2299 4.42153 12.2243 4.46627 12.2171 4.51466L13.5656 4.71456L14.914 4.91445C14.9266 4.82994 14.938 4.74113 14.9471 4.64947L13.5905 4.51487ZM13.5656 4.71456L12.2172 4.51454C12.2095 4.56605 12.2021 4.60979 12.1945 4.6478L13.5316 4.91324L14.8687 5.17868C14.8872 5.08549 14.9019 4.99616 14.914 4.91457L13.5656 4.71456ZM13.5316 4.91324L12.2012 4.6161L12.1573 4.81279L13.4877 5.10993L14.8181 5.40708L14.862 5.21039L13.5316 4.91324ZM13.4877 5.10993L12.1653 4.7791C12.1545 4.82201 12.1426 4.86517 12.1295 4.90841L13.4338 5.30462L14.7381 5.70084C14.7642 5.61486 14.7883 5.5281 14.8101 5.44077L13.4877 5.10993ZM13.4338 5.30462L12.1295 4.90829C12.1182 4.94541 12.104 4.98783 12.0864 5.03705L13.3699 5.49632L14.6534 5.9556C14.6811 5.87803 14.7104 5.79198 14.7381 5.70096L13.4338 5.30462ZM13.3699 5.49632L12.0865 5.03691C12.0691 5.08539 12.0533 5.12667 12.0383 5.16294L13.298 5.68403L14.5577 6.20511C14.5939 6.11761 14.6255 6.0334 14.6533 5.95573L13.3699 5.49632ZM13.298 5.68403L12.3341 4.72011L12.3331 4.72111L13.297 5.68502L14.2609 6.64894L14.2619 6.64794L13.298 5.68403ZM13.297 5.68502L12.0494 5.13579L11.9685 5.3195L13.2161 5.86873L14.4638 6.41797L14.5446 6.23426L13.297 5.68502ZM13.2161 5.86873L11.9836 5.28634C11.9639 5.32807 11.9438 5.3681 11.9234 5.40629L13.1253 6.04945L14.3272 6.69261C14.3704 6.61191 14.4108 6.53121 14.4486 6.45113L13.2161 5.86873ZM13.1253 6.04945L11.9232 5.40659C11.9063 5.43826 11.885 5.47532 11.8561 5.52355L13.0254 6.22417L14.1948 6.9248C14.2349 6.85783 14.2811 6.77875 14.3274 6.69231L13.1253 6.04945ZM13.0254 6.22417L11.8561 5.52349C11.8314 5.56478 11.8075 5.60267 11.7843 5.63742L12.9176 6.3949L14.051 7.15238C14.1026 7.07509 14.1505 6.99874 14.1948 6.92486L13.0254 6.22417ZM12.9176 6.3949L11.7843 5.63732C11.7581 5.67653 11.7322 5.71347 11.7066 5.74792L12.8018 6.55964L13.8969 7.37137C13.9513 7.29804 14.0026 7.22469 14.0509 7.15248L12.9176 6.3949ZM12.8018 6.55964H11.4386V6.56064H12.8018H14.165V6.55964H12.8018ZM12.8018 6.56064L11.7073 5.74799C11.6854 5.77745 11.6582 5.81197 11.6232 5.85469L12.677 6.71939L13.7308 7.58409C13.7813 7.52261 13.8385 7.45104 13.8963 7.3733L12.8018 6.56064ZM12.677 6.71939L11.6237 5.85403C11.5878 5.89775 11.56 5.93038 11.5358 5.95701L12.5462 6.87215L13.5565 7.78728C13.6223 7.71466 13.6812 7.6445 13.7303 7.58475L12.677 6.71939ZM12.5462 6.87215L11.5623 5.92866L11.4225 6.07443L12.4064 7.01792L13.3903 7.9614L13.5301 7.81563L12.5462 6.87215ZM12.4064 7.01792L11.442 6.05447C11.4032 6.09338 11.3723 6.12307 11.3455 6.14737L12.2606 7.1577L13.1758 8.16803C13.2489 8.10185 13.3148 8.03745 13.3708 7.98137L12.4064 7.01792ZM12.2606 7.1577L11.3456 6.14728C11.3189 6.17149 11.2861 6.19937 11.2426 6.23518L12.1079 7.28849L12.9732 8.3418C13.0331 8.29263 13.1032 8.23379 13.1757 8.16811L12.2606 7.1577ZM12.1079 7.28849L11.2432 6.23463C11.2004 6.26978 11.1659 6.29699 11.1366 6.31877L11.9491 7.41329L12.7617 8.50782C12.8396 8.45003 12.9112 8.39268 12.9725 8.34235L12.1079 7.28849ZM11.9491 7.41329V6.05011H11.9481V7.41329V8.77648H11.9491V7.41329ZM11.9481 7.41329L11.1365 6.31808C11.1019 6.34369 11.0649 6.36969 11.0259 6.39579L11.7834 7.52911L12.5409 8.66243C12.6132 8.61409 12.6866 8.56274 12.7598 8.5085L11.9481 7.41329ZM11.7834 7.52911L11.026 6.3957C10.9911 6.419 10.9532 6.44295 10.912 6.4676L11.6127 7.63694L12.3133 8.80628C12.3873 8.76196 12.4637 8.71407 12.5408 8.66252L11.7834 7.52911ZM11.6127 7.63694L10.9121 6.46756C10.8638 6.4965 10.8267 6.5178 10.7951 6.53467L11.4379 7.73678L12.0807 8.9389C12.1672 8.89265 12.2464 8.84635 12.3132 8.80632L11.6127 7.63694ZM11.4379 7.73678L10.8256 6.51887L10.6449 6.60972L11.2572 7.82764L11.8695 9.04556L12.0503 8.9547L11.4379 7.73678ZM11.2572 7.82764L10.6746 6.59526C10.6402 6.61149 10.6001 6.62907 10.5509 6.64947L11.0735 7.90851L11.5961 9.16755C11.67 9.13687 11.7531 9.10108 11.8399 9.06002L11.2572 7.82764ZM11.0735 7.90851L10.1096 6.9446L10.1086 6.9456L11.0725 7.90951L12.0364 8.87343L12.0374 8.87243L11.0735 7.90851ZM11.0725 7.90951L10.5516 6.64977C10.5152 6.66484 10.4737 6.68069 10.4255 6.69792L10.8848 7.9814L11.3441 9.26488C11.4223 9.23691 11.5064 9.20522 11.5934 9.16926L11.0725 7.90951ZM10.8848 7.9814L10.4537 6.68817L10.262 6.75207L10.6931 8.0453L11.1242 9.33852L11.3159 9.27462L10.8848 7.9814ZM10.6931 8.0453L10.2973 6.74085C10.2537 6.75408 10.2103 6.76611 10.1675 6.7768L10.4984 8.09921L10.8293 9.42162C10.9169 9.39971 11.0036 9.37563 11.089 9.34974L10.6931 8.0453ZM10.4984 8.09921L11.4623 7.1353L11.4613 7.1343L10.4974 8.09821L9.53351 9.06213L9.53451 9.06313L10.4984 8.09921ZM10.4974 8.09821L10.1659 6.77596C10.1082 6.79043 10.0686 6.79964 10.0363 6.80605L10.3017 8.14314L10.5672 9.48023C10.6659 9.46063 10.7569 9.43853 10.829 9.42046L10.4974 8.09821ZM10.3017 8.14314L10.0722 6.79943L9.87347 6.83338L10.103 8.17709L10.3326 9.5208L10.5313 9.48685L10.3017 8.14314ZM10.103 8.17709L9.90214 6.82879C9.85564 6.83572 9.81114 6.84127 9.76908 6.8454L9.90236 8.20205L10.0356 9.5587C10.1271 9.54971 10.2169 9.53836 10.304 9.52538L10.103 8.17709ZM9.90236 8.20205L9.80092 6.84265L9.60023 6.85762L9.70168 8.21703L9.80313 9.57643L10.0038 9.56145L9.90236 8.20205ZM9.70168 8.21703L9.66795 6.85426L9.46627 6.85925L9.5 8.22202L9.53373 9.58478L9.73541 9.57979L9.70168 8.21703ZM9.5 8.22202L9.53373 6.85925L9.33205 6.85426L9.29832 8.21703L9.26459 9.57979L9.46627 9.58478L9.5 8.22202ZM9.29832 8.21703V6.85384H9.29732V8.21703V9.58021H9.29832V8.21703ZM9.29732 8.21703L9.36532 6.85554C9.32197 6.85338 9.27648 6.84997 9.22992 6.8454L9.09664 8.20205L8.96335 9.5587C9.05033 9.56724 9.13945 9.57402 9.22932 9.57851L9.29732 8.21703ZM9.09664 8.20205L9.23013 6.84542C9.18767 6.84124 9.14313 6.8357 9.09706 6.82882L8.89595 8.17709L8.69485 9.52535C8.78235 9.53841 8.87209 9.54972 8.96314 9.55868L9.09664 8.20205ZM8.89595 8.17709H10.2591V8.17609H8.89595H7.53277V8.17709H8.89595ZM8.89595 8.17609L9.09617 6.82769C9.03081 6.81799 8.99343 6.81195 8.96365 6.80604L8.69827 8.14314L8.43288 9.48024C8.5337 9.50025 8.62887 9.51456 8.69574 9.52449L8.89595 8.17609ZM8.69827 8.14314L8.96369 6.80605C8.92606 6.79858 8.88296 6.78873 8.83258 6.77608L8.50058 8.09821L8.16858 9.42035C8.24902 9.44055 8.33832 9.46147 8.43284 9.48023L8.69827 8.14314ZM8.50058 8.09821H7.1374V8.09921H8.50058H9.86376V8.09821H8.50058ZM8.50058 8.09921L8.83167 6.77685C8.7885 6.76604 8.74507 6.75402 8.70218 6.74099L8.30589 8.0453L7.90959 9.3496C7.99581 9.3758 8.08272 9.39985 8.16949 9.42157L8.50058 8.09921ZM8.30589 8.0453L8.70234 6.74104C8.6686 6.73078 8.62831 6.71717 8.57428 6.69785L8.11519 7.9814L7.6561 9.26495C7.72841 9.29081 7.81529 9.32094 7.90943 9.34955L8.30589 8.0453ZM8.11519 7.9814L8.5744 6.69789C8.52073 6.67869 8.48034 6.66341 8.44749 6.64982L7.92648 7.90951L7.40547 9.1692C7.49634 9.20678 7.58304 9.23881 7.65597 9.2649L8.11519 7.9814ZM7.92648 7.90951H9.28967V7.90851H7.92648H6.5633V7.90951H7.92648ZM7.92648 7.90851L8.44896 6.64943C8.39337 6.62637 8.35526 6.60984 8.32462 6.59534L7.74178 7.82764L7.15893 9.05994C7.24984 9.10294 7.33611 9.13942 7.40401 9.16759L7.92648 7.90851ZM7.74178 7.82764L8.32431 6.5952C8.28251 6.57544 8.2422 6.55519 8.20423 6.53487L7.56106 7.73678L6.9179 8.9387C6.99856 8.98186 7.07949 9.02239 7.15924 9.06009L7.74178 7.82764ZM7.56106 7.73678L8.20406 6.53478C8.1723 6.51779 8.13495 6.49634 8.08699 6.46761L7.38634 7.63694L6.68568 8.80628C6.75274 8.84646 6.83189 8.89269 6.91806 8.93879L7.56106 7.73678ZM7.38634 7.63694L8.0871 6.46767C8.0457 6.44286 8.00775 6.41893 7.97313 6.39579L7.21561 7.52911L6.45808 8.66243C6.53545 8.71414 6.61188 8.76204 6.68558 8.80621L7.38634 7.63694ZM7.21561 7.52911L7.99961 6.41394L7.83487 6.29812L7.05087 7.41329L6.26687 8.52847L6.43161 8.64428L7.21561 7.52911ZM7.05087 7.41329L7.86353 6.31884C7.83406 6.29695 7.79953 6.26971 7.75682 6.23466L6.89212 7.28849L6.02742 8.34232C6.0889 8.39277 6.16047 8.45004 6.2382 8.50775L7.05087 7.41329ZM6.89212 7.28849V5.92531H6.89112V7.28849V8.65167H6.89212V7.28849ZM6.89112 7.28849L7.75658 6.23528C7.72074 6.20583 7.68658 6.17641 7.65439 6.14727L6.73936 7.1577L5.82432 8.16813C5.89104 8.22855 5.95842 8.28645 6.02566 8.3417L6.89112 7.28849ZM6.73936 7.1577L7.65455 6.14741C7.62139 6.11737 7.58857 6.08611 7.55706 6.05456L6.59259 7.01792L5.62813 7.98128C5.69163 8.04486 5.7573 8.10742 5.82416 8.16798L6.73936 7.1577ZM6.59259 7.01792H7.95577V7.01692H6.59259H5.22941V7.01792H6.59259ZM6.59259 7.01692L7.55627 6.05277C7.51778 6.0143 7.48826 5.98363 7.46403 5.95688L6.45381 6.87215L5.44359 7.78741C5.50922 7.85986 5.57308 7.92527 5.62892 7.98107L6.59259 7.01692ZM6.45381 6.87215L7.48595 5.98167L7.35416 5.82892L6.32202 6.71939L5.28988 7.60987L5.42167 7.76262L6.45381 6.87215ZM6.32202 6.71939L7.37589 5.85474C7.34817 5.82096 7.32026 5.78512 7.29266 5.74796L6.19821 6.56064L5.10377 7.37332C5.15561 7.44315 5.21054 7.51382 5.26815 7.58404L6.32202 6.71939ZM6.19821 6.56064L7.16213 5.59673L7.16113 5.59573L6.19721 6.55964L5.2333 7.52356L5.2343 7.52456L6.19821 6.56064ZM6.19721 6.55964L7.29245 5.74802C7.26684 5.71347 7.24078 5.67637 7.21472 5.63737L6.0814 6.3949L4.94808 7.15243C4.99641 7.22474 5.04781 7.29816 5.10198 7.37126L6.19721 6.55964ZM6.0814 6.3949L7.21482 5.63753C7.19153 5.60268 7.16753 5.56462 7.14291 5.52352L5.97357 6.22417L4.80423 6.92482C4.84854 6.99878 4.89646 7.07519 4.94797 7.15227L6.0814 6.3949ZM5.97357 6.22417L7.14299 5.52365C7.12095 5.48687 7.09879 5.44764 7.07637 5.40578L5.87472 6.04945L4.67308 6.69311C4.71359 6.76875 4.75718 6.84628 4.80415 6.92469L5.97357 6.22417ZM5.87472 6.04945L6.83864 5.08553L6.83764 5.08454L5.87373 6.04845L4.90981 7.01236L4.91081 7.01336L5.87472 6.04945ZM5.87373 6.04845L7.09299 5.43882L7.00313 5.2591L5.78387 5.86873L4.5646 6.47837L4.65446 6.65808L5.87373 6.04845ZM5.78387 5.86873L7.01618 5.28593C6.99486 5.24084 6.97661 5.19998 6.96105 5.16249L5.702 5.68502L4.44294 6.20756C4.47859 6.29346 4.51543 6.37517 4.55155 6.45154L5.78387 5.86873ZM5.702 5.68502H7.06518V5.68403H5.702H4.33882V5.68502H5.702ZM5.702 5.68403L6.96165 5.16292C6.94176 5.11484 6.92569 5.07363 6.91257 5.03697L5.62911 5.49632L4.34565 5.95567C4.37774 6.04531 4.41098 6.12929 4.44235 6.20513L5.702 5.68403ZM5.62911 5.49632L6.91261 5.03709C6.8993 4.99989 6.88547 4.95754 6.87052 4.90833L5.56621 5.30462L4.2619 5.70092C4.28588 5.77984 4.31356 5.86597 4.34561 5.95556L5.62911 5.49632ZM5.56621 5.30462L6.87995 4.94082L6.82604 4.74613L5.5123 5.10993L4.19856 5.47374L4.25247 5.66843L5.56621 5.30462ZM5.5123 5.10993L6.83448 4.77815C6.82093 4.72414 6.8114 4.68281 6.80446 4.64785L5.46737 4.91324L4.13027 5.17864C4.14951 5.27558 4.17093 5.36528 4.19011 5.44172L5.5123 5.10993ZM5.46737 4.91324L6.80446 4.64783C6.7969 4.60976 6.78948 4.56602 6.78185 4.51457L5.43342 4.71456L4.08499 4.91454C4.0971 4.9962 4.11178 5.0855 4.13027 5.17866L5.46737 4.91324ZM5.43342 4.71456L6.78187 4.51468C6.77469 4.46623 6.76907 4.42152 6.76498 4.3803L5.40846 4.51487L4.05194 4.64944C4.06104 4.74115 4.07245 4.82996 4.08497 4.91444L5.43342 4.71456ZM5.40846 4.51487H6.77164V4.51387H5.40846H4.04528V4.51487H5.40846ZM5.40846 4.51387L6.76786 4.41243L6.75288 4.21174L5.39348 4.31319L4.03408 4.41464L4.04906 4.61532L5.40846 4.51387ZM5.39348 4.31319L6.75504 4.24659C6.7528 4.20096 6.75168 4.15561 6.75167 4.1114L5.38849 4.11151L4.02531 4.11162C4.02532 4.20162 4.0276 4.29133 4.03193 4.37979L5.39348 4.31319ZM5.38849 4.11151H6.75167C6.75167 4.067 6.75281 4.02091 6.75504 3.97543L5.39348 3.90883L4.03193 3.84223C4.02759 3.93106 4.02531 4.02158 4.02531 4.11151H5.38849ZM5.39348 3.90883L6.75497 3.97671C6.75713 3.93342 6.76052 3.88818 6.76511 3.84142L5.40846 3.70815L4.05181 3.57487C4.04326 3.66186 4.03649 3.75081 4.03199 3.84095L5.39348 3.90883ZM5.40846 3.70815L6.76111 3.87723L6.78608 3.67754L5.43342 3.50846L4.08077 3.33938L4.05581 3.53906L5.40846 3.70815ZM5.43342 3.50846L6.78187 3.70835C6.78945 3.65717 6.7969 3.6133 6.80449 3.57506L5.46737 3.30977L4.13025 3.04448C4.11181 3.13741 4.09711 3.22671 4.08498 3.30857L5.43342 3.50846ZM5.46737 3.30977L6.80449 3.57506C6.81192 3.53757 6.82173 3.49468 6.83446 3.44397L5.5123 3.11209L4.19013 2.7802C4.17001 2.86037 4.14907 2.94963 4.13025 3.04449L5.46737 3.30977ZM5.5123 3.11209L6.82604 3.47589L6.87995 3.2812L5.56621 2.91739L4.25247 2.55359L4.19856 2.74828L5.5123 3.11209ZM5.56621 2.91739L6.87049 3.31376C6.88405 3.26916 6.89809 3.22652 6.91265 3.18581L5.62911 2.72669L4.34557 2.26758C4.31493 2.35324 4.28718 2.43792 4.26193 2.52102L5.56621 2.91739ZM5.62911 2.72669L6.91259 3.18597C6.92719 3.14518 6.94374 3.10237 6.96165 3.05909L5.702 2.53799L4.44235 2.0169C4.40893 2.09766 4.37628 2.18177 4.34563 2.26742L5.62911 2.72669ZM5.702 2.53799L6.94713 3.09289L7.029 2.90918L5.78387 2.35428L4.53874 1.79939L4.45687 1.9831L5.702 2.53799ZM5.78387 2.35428V0.991102H5.78287V2.35428V3.71746H5.78387V2.35428ZM5.78287 2.35428L7.01552 2.93638C7.03275 2.89989 7.0532 2.85952 7.07648 2.81604L5.87472 2.17257L4.67297 1.5291C4.63247 1.60474 4.59063 1.68661 4.55022 1.77218L5.78287 2.35428ZM5.87472 2.17257L7.07681 2.81541C7.09871 2.77447 7.12072 2.73551 7.14284 2.69861L5.97357 1.99785L4.8043 1.29708C4.75747 1.37522 4.71365 1.45304 4.67264 1.52972L5.87472 2.17257ZM5.97357 1.99785L7.14278 2.69871C7.16768 2.65717 7.19155 2.61929 7.21462 2.58479L6.0814 1.82712L4.94818 1.06944C4.89613 1.14728 4.84823 1.2238 4.80436 1.29699L5.97357 1.99785ZM6.0814 1.82712L7.21453 2.58492C7.24082 2.54562 7.26688 2.50849 7.29247 2.47397L6.19721 1.66238L5.10196 0.850783C5.04757 0.924181 4.99628 0.997505 4.94826 1.06931L6.0814 1.82712ZM6.19721 1.66238V3.02556H6.19821V1.66238V0.299194H6.19721V1.66238ZM6.19821 1.66238L7.29278 2.47489C7.32037 2.43773 7.34806 2.40218 7.37572 2.36848L6.32202 1.50363L5.26831 0.638774C5.21048 0.709235 5.15559 0.779886 5.10364 0.849863L6.19821 1.66238ZM6.32202 1.50363L7.37565 2.36857C7.40394 2.3341 7.43365 2.29968 7.46411 2.26605L6.45381 1.35087L5.44351 0.435682C5.38389 0.501507 5.32525 0.569417 5.26839 0.638686L6.32202 1.50363ZM6.45381 1.35087L7.4641 2.26606C7.50113 2.22519 7.53056 2.19394 7.55614 2.16837L6.59259 1.2041L5.62904 0.239823C5.55948 0.309324 5.49683 0.376827 5.44352 0.435671L6.45381 1.35087ZM6.59259 1.2041L7.55656 2.16796C7.58232 2.14219 7.61384 2.1125 7.65473 2.07545L6.73936 1.06532L5.82399 0.0551882C5.76504 0.108606 5.69773 0.17112 5.62862 0.240238L6.59259 1.2041ZM6.73936 1.06532L7.65466 2.07551C7.69498 2.03898 7.72771 2.01044 7.75638 1.9869L6.89112 0.933526L6.02586 -0.119845C5.95105 -0.0583971 5.88291 0.00180345 5.82406 0.0551266L6.73936 1.06532ZM6.89112 0.933526V2.29671H6.89212V0.933526V-0.429655H6.89112V0.933526ZM6.89212 0.933526L7.75666 1.98749C7.79078 1.9595 7.82637 1.93175 7.86309 1.90451L7.05087 0.809721L6.23864 -0.285063C6.16769 -0.232424 6.09714 -0.177492 6.02758 -0.120433L6.89212 0.933526ZM7.05087 0.809721L7.86305 1.90454C7.90663 1.87221 7.94206 1.84699 7.97288 1.8264L7.21561 0.692906L6.45834 -0.440586C6.37724 -0.386404 6.30292 -0.332748 6.23868 -0.285092L7.05087 0.809721ZM7.21561 0.692906L7.97272 1.8265C8.00771 1.80313 8.0459 1.77904 8.08698 1.75442L7.38634 0.585076L6.68569 -0.584264C6.61115 -0.539602 6.53489 -0.491718 6.45849 -0.440688L7.21561 0.692906ZM7.38634 0.585076L8.08694 1.75445C8.11902 1.73522 8.15722 1.71382 8.20491 1.68832L7.56206 0.486232L6.91921 -0.715851C6.84841 -0.677991 6.76863 -0.633954 6.68574 -0.584293L7.38634 0.585076ZM7.56206 0.486232H8.92524V0.485234H7.56206H6.19888V0.486232H7.56206ZM7.56206 0.485234L8.20423 1.68768C8.23794 1.66968 8.2773 1.65007 8.32507 1.62746L7.74178 0.395376L7.15849 -0.83671C7.08535 -0.802086 7.00422 -0.76225 6.91989 -0.717216L7.56206 0.485234ZM7.74178 0.395376L8.32443 1.62776C8.36495 1.60861 8.40676 1.59008 8.44842 1.57281L7.92648 0.313505L7.40455 -0.945799C7.32226 -0.911691 7.23995 -0.875223 7.15913 -0.837013L7.74178 0.395376ZM7.92648 0.313505L8.4479 1.57303C8.49075 1.55528 8.53337 1.5388 8.57438 1.52413L8.11519 0.24062L7.65599 -1.04289C7.57024 -1.01221 7.48608 -0.979552 7.40507 -0.946016L7.92648 0.313505ZM8.11519 0.24062L8.57418 1.5242C8.61504 1.50959 8.65776 1.49551 8.70192 1.4821L8.30589 0.177719L7.90985 -1.12666C7.82595 -1.10119 7.74113 -1.07334 7.65619 -1.04296L8.11519 0.24062ZM8.30589 0.177719V1.5409H8.30688V0.177719V-1.18546H8.30589V0.177719ZM8.30688 0.177719L8.70231 1.48229C8.74928 1.46805 8.79232 1.45603 8.83205 1.44607L8.50058 0.123805L8.1691 -1.19846C8.07878 -1.17582 7.99245 -1.1514 7.91146 -1.12685L8.30688 0.177719ZM8.50058 0.123805L8.83185 1.44612C8.88584 1.4326 8.92801 1.42287 8.96343 1.41582L8.69727 0.0788755L8.43111 -1.25807C8.33503 -1.23894 8.24549 -1.2176 8.16931 -1.19851L8.50058 0.123805ZM8.69727 0.0788755L8.9633 1.41584C9.00054 1.40844 9.04407 1.40107 9.09629 1.39331L8.89595 0.0449291L8.69562 -1.30345C8.61544 -1.29154 8.5255 -1.27685 8.43123 -1.25809L8.69727 0.0788755ZM8.89595 0.0449291V1.40811H8.89695V0.0449291V-1.31825H8.89595V0.0449291ZM8.89695 0.0449291L9.09683 1.39338C9.14576 1.38612 9.19007 1.38055 9.2304 1.37657L9.09664 0.0199685L8.96287 -1.33663C8.86993 -1.32747 8.7807 -1.31591 8.69708 -1.30352L8.89695 0.0449291ZM9.09664 0.0199685L9.23032 1.37658C9.27615 1.37206 9.32164 1.36868 9.36532 1.36653L9.29832 0.00499212L9.23132 -1.35654C9.14083 -1.35209 9.05082 -1.3453 8.96296 -1.33664L9.09664 0.0199685ZM9.29832 0.00499212L9.36503 1.36654C9.41044 1.36431 9.45591 1.36318 9.50011 1.36318L9.5 0L9.49989 -1.36318C9.41005 -1.36317 9.32015 -1.36089 9.23161 -1.35656L9.29832 0.00499212ZM9.5 0L9.49989 1.36318C9.5441 1.36318 9.58955 1.36431 9.63496 1.36654L9.70168 0.00499212L9.7684 -1.35656C9.67984 -1.3609 9.58995 -1.36317 9.50011 -1.36318L9.5 0ZM9.36521 1.36684L9.29815 0.00531127C9.23053 0.00864193 9.16292 0.0136954 9.09676 0.0202138L9.23043 1.37683L9.36409 2.73344C9.38717 2.73116 9.41035 2.72945 9.43227 2.72837L9.36521 1.36684ZM9.23043 1.37683L9.09674 0.0202162C9.04171 0.0256393 8.97217 0.0331721 8.89671 0.0443602L9.09664 1.3928L9.29656 2.74124C9.30965 2.7393 9.32995 2.7368 9.36411 2.73344L9.23043 1.37683ZM9.09664 1.3928L8.89624 0.0444297C8.81574 0.0563941 8.7424 0.0709215 8.69784 0.0797871L8.96385 1.41676L9.22985 2.75374C9.27305 2.74514 9.28872 2.74241 9.29703 2.74117L9.09664 1.3928ZM8.96385 1.41676L8.69789 0.0797782C8.6461 0.0900804 8.57638 0.104462 8.50081 0.123395L8.83205 1.44572L9.1633 2.76804C9.17458 2.76521 9.19353 2.76096 9.22981 2.75375L8.96385 1.41676ZM8.83205 1.44572L8.50063 0.12344C8.43532 0.139809 8.37054 0.157786 8.30689 0.177073L8.70226 1.48166L9.09763 2.78625C9.12 2.77947 9.14215 2.77334 9.16348 2.76799L8.83205 1.44572ZM8.70226 1.48166L8.30628 0.17726C8.23592 0.198619 8.17035 0.221021 8.11437 0.241044L8.57346 1.52459L9.03255 2.80814C9.0613 2.79786 9.08282 2.79074 9.09824 2.78606L8.70226 1.48166ZM8.57346 1.52459L8.11396 0.24119C8.05531 0.262189 7.99257 0.285972 7.92754 0.312876L8.44866 1.57252L8.96978 2.83216C8.98725 2.82493 9.00812 2.81689 9.03296 2.808L8.57346 1.52459ZM8.44866 1.57252L7.89595 0.326412L7.77215 0.381326L8.32486 1.62743L8.87756 2.87353L9.00137 2.81862L8.44866 1.57252ZM8.32486 1.62743L7.74143 0.395409C7.67977 0.424607 7.61955 0.45508 7.56181 0.485923L8.20405 1.68833L8.84628 2.89075C8.86785 2.87923 8.88883 2.86867 8.90828 2.85945L8.32486 1.62743ZM8.20405 1.68833L7.56088 0.486419C7.50714 0.515175 7.4482 0.547985 7.38677 0.584776L8.08723 1.75423L8.78769 2.92368C8.80303 2.91449 8.82244 2.9035 8.84721 2.89025L8.20405 1.68833ZM8.08723 1.75423L7.38647 0.584961C7.31897 0.625411 7.2588 0.665131 7.21632 0.693506L7.97341 1.82712L8.73051 2.96072C8.763 2.93902 8.77888 2.92896 8.788 2.9235L8.08723 1.75423ZM7.97341 1.82712L7.21628 0.693533C7.17992 0.717818 7.11665 0.760035 7.0504 0.809182L7.86259 1.90399L8.67477 2.99881C8.68061 2.99448 8.69248 2.98612 8.73055 2.9607L7.97341 1.82712ZM7.86259 1.90399L7.05029 0.809259C6.99316 0.851649 6.94022 0.893532 6.89239 0.932757L7.75675 1.98686L8.62112 3.04097C8.64248 3.02345 8.6602 3.00962 8.67488 2.99873L7.86259 1.90399ZM7.75675 1.98686L6.89157 0.933432C6.83834 0.977151 6.78684 1.02183 6.73858 1.06556L7.65391 2.07572L8.56925 3.08588C8.5877 3.06916 8.60575 3.05359 8.62194 3.04029L7.75675 1.98686ZM7.65391 2.07572L6.73823 1.06588C6.68276 1.11618 6.63342 1.16439 6.59309 1.20472L7.55707 2.16858L8.52104 3.13243C8.54404 3.10943 8.55912 3.09507 8.5696 3.08556L7.65391 2.07572ZM7.55707 2.16858V0.805395H7.55607V2.16858V3.53176H7.55707V2.16858ZM7.55607 2.16858L6.59246 1.20435C6.5414 1.25538 6.49503 1.30488 6.4541 1.35003L7.46421 2.26542L8.47432 3.18081C8.493 3.16021 8.50781 3.14466 8.51967 3.1328L7.55607 2.16858ZM7.46421 2.26542L6.45391 1.35024C6.41059 1.39807 6.36583 1.44959 6.32172 1.50332L7.37535 2.36826L8.42899 3.2332C8.44197 3.21739 8.45747 3.19942 8.47451 3.1806L7.46421 2.26542ZM7.37535 2.36826L6.32161 1.50346C6.27449 1.56087 6.23258 1.61589 6.19791 1.66258L7.29249 2.47509L8.38706 3.2876C8.40632 3.26166 8.41969 3.24453 8.4291 3.23306L7.37535 2.36826ZM7.29249 2.47509L8.2564 1.51118L8.2554 1.51018L7.29149 2.47409L6.32757 3.43801L6.32857 3.43901L7.29249 2.47509ZM7.29149 2.47409L6.19599 1.66283C6.14765 1.7281 6.10587 1.79063 6.08147 1.82711L7.21461 2.58492L8.34774 3.34272C8.3734 3.30436 8.38218 3.29185 8.38699 3.28535L7.29149 2.47409ZM7.21461 2.58492L6.08136 1.82729C6.04236 1.88563 6.00637 1.94307 5.97351 1.99788L7.14272 2.69874L8.31193 3.3996C8.32546 3.37704 8.33747 3.35809 8.34786 3.34255L7.21461 2.58492ZM7.14272 2.69874L5.9734 1.99806C5.93675 2.05923 5.90387 2.11823 5.87471 2.17276L7.07683 2.81555L8.27894 3.45835C8.29208 3.43378 8.30296 3.41457 8.31204 3.39942L7.14272 2.69874ZM7.07683 2.81555L6.11291 1.85164L6.11191 1.85264L7.07583 2.81655L8.03974 3.78047L8.04074 3.77947L7.07683 2.81555ZM7.07583 2.81655L5.85656 2.20692L5.79666 2.32673L7.01592 2.93636L8.23519 3.546L8.29509 3.42619L7.07583 2.81655ZM7.01592 2.93636L5.7836 2.35358C5.75496 2.41413 5.72766 2.47569 5.70191 2.53773L6.96101 3.06017L8.2201 3.58261C8.22903 3.5611 8.23849 3.53979 8.24825 3.51915L7.01592 2.93636ZM6.96101 3.06017L5.70119 2.53948C5.67221 2.6096 5.64817 2.67481 5.6296 2.72669L6.91308 3.18597L8.19657 3.64525C8.20816 3.61285 8.21559 3.59352 8.22083 3.58086L6.96101 3.06017ZM6.91308 3.18597L5.62956 2.72682C5.61218 2.77538 5.58865 2.84242 5.56585 2.91745L6.87015 3.31377L8.17445 3.71009C8.17787 3.69882 8.18384 3.68083 8.19661 3.64512L6.91308 3.18597ZM6.87015 3.31377L5.55641 2.94996L5.52047 3.07976L6.83421 3.44356L8.14795 3.80737L8.18389 3.67757L6.87015 3.31377ZM6.83421 3.44356L5.51205 3.11168C5.4938 3.18435 5.47947 3.25203 5.46819 3.30881L6.80525 3.57436L8.14232 3.8399C8.1484 3.80929 8.15293 3.78916 8.15637 3.77544L6.83421 3.44356ZM6.80525 3.57436H5.44207V3.57535H6.80525H8.16844V3.57436H6.80525ZM6.80525 3.57535L5.46813 3.31009C5.45957 3.35327 5.44484 3.42736 5.43285 3.50825L6.78129 3.70815L8.12974 3.90804C8.13086 3.90048 8.13341 3.88582 8.14238 3.84062L6.80525 3.57535ZM6.78129 3.70815L5.42773 3.54653L5.41175 3.68031L6.76532 3.84193L8.11888 4.00355L8.13486 3.86976L6.78129 3.70815ZM6.76532 3.84193L5.40866 3.70877C5.40218 3.77474 5.3972 3.84145 5.39384 3.90884L6.75533 3.97672L8.11682 4.0446C8.11797 4.0216 8.11969 3.99842 8.12198 3.97509L6.76532 3.84193ZM6.75533 3.97672L5.39377 3.91038C5.39024 3.9827 5.38916 4.05075 5.38916 4.11151H6.75234H8.11552C8.11552 4.08264 8.11606 4.06037 8.1169 4.04306L6.75533 3.97672ZM6.75234 4.11151L5.38916 4.11167C5.38916 4.1726 5.39028 4.23987 5.39376 4.31148L6.75533 4.2453L8.11691 4.17912C8.11605 4.16154 8.11552 4.13961 8.11552 4.11134L6.75234 4.11151ZM6.75533 4.2453L5.39588 4.346L5.40586 4.48078L6.76532 4.38008L8.12477 4.27938L8.11479 4.1446L6.75533 4.2453ZM6.76532 4.38008L5.41161 4.54052L5.42759 4.67531L6.78129 4.51487L8.135 4.35443L8.11902 4.21964L6.76532 4.38008ZM6.78129 4.51487L5.43288 4.71496C5.44485 4.79562 5.45949 4.86941 5.46817 4.9131L6.80525 4.64766L8.14234 4.38223C8.13347 4.33755 8.13086 4.32255 8.12971 4.31478L6.78129 4.51487ZM6.80525 4.64766L5.46816 4.91305C5.47949 4.97017 5.4938 5.03764 5.51204 5.11033L6.83421 4.77846L8.15638 4.44659C8.15289 4.43269 8.1484 4.41274 8.14235 4.38228L6.80525 4.64766ZM6.83421 4.77846H5.47103V4.77945H6.83421H8.19739V4.77846H6.83421ZM6.83421 4.77945L5.51182 5.11045C5.52948 5.18098 5.54815 5.24629 5.5658 5.30438L6.87015 4.90825L8.17451 4.51212C8.16637 4.48532 8.16067 4.46475 8.1566 4.44846L6.83421 4.77945ZM6.87015 4.90825L5.56585 5.30454C5.58723 5.37493 5.60949 5.44012 5.62959 5.49629L6.91308 5.03705L8.19658 4.57781C8.18646 4.54952 8.17935 4.52807 8.17446 4.51196L6.87015 4.90825ZM6.91308 5.03705L5.62967 5.4965C5.65092 5.55587 5.67462 5.61822 5.70114 5.68242L6.96101 5.16185L8.22088 4.64128C8.21337 4.62312 8.20526 4.60206 8.1965 4.57759L6.91308 5.03705ZM6.96101 5.16185L5.7149 5.71456L5.76982 5.83836L7.01592 5.28565L8.26203 4.73295L8.20711 4.60914L6.96101 5.16185ZM7.01592 5.28565H5.65274V5.28665H7.01592H8.3791V5.28565H7.01592ZM7.01592 5.28665L5.78347 5.86916C5.81305 5.93175 5.84331 5.99126 5.87308 6.04707L7.07583 5.40547L8.27857 4.76386C8.26643 4.74109 8.25647 4.72127 8.24838 4.70415L7.01592 5.28665ZM7.07583 5.40547L5.87417 6.04912C5.90183 6.10075 5.93533 6.16141 5.97332 6.22483L7.14272 5.52428L8.31212 4.82373C8.30394 4.81007 8.2927 4.79022 8.27748 4.76181L7.07583 5.40547ZM7.14272 5.52428L5.97345 6.22504C6.0063 6.27984 6.04225 6.33721 6.08123 6.39554L7.21461 5.6381L8.34798 4.88065C8.33733 4.86471 8.3253 4.84572 8.31199 4.82351L7.14272 5.52428ZM7.21461 5.6381L6.08134 6.3957C6.12303 6.45807 6.1634 6.51386 6.19726 6.55956L7.29249 5.74792L8.38771 4.93629C8.36828 4.91008 8.35611 4.89281 8.34788 4.8805L7.21461 5.6381ZM7.29249 5.74792L6.21427 6.58202L6.29614 6.68785L7.37436 5.85376L8.45257 5.01966L8.3707 4.91383L7.29249 5.74792ZM7.37436 5.85376V7.21694H7.37535V5.85376V4.49058H7.37436V5.85376ZM7.37535 5.85376L6.32201 6.71905C6.36587 6.77244 6.41034 6.82366 6.45381 6.87166L7.46421 5.95659L8.47462 5.04153C8.45758 5.02271 8.44204 5.00471 8.4287 4.98847L7.37535 5.85376ZM7.46421 5.95659L6.45396 6.87182C6.49498 6.91711 6.54138 6.96661 6.59247 7.01767L7.55607 6.05344L8.51967 5.08922C8.50768 5.07723 8.4929 5.06171 8.47447 5.04137L7.46421 5.95659ZM7.55607 6.05344L6.59215 7.01736L6.59315 7.01835L7.55707 6.05444L8.52098 5.09053L8.51998 5.08953L7.55607 6.05344ZM7.55707 6.05444L6.59257 7.01777C6.63339 7.05864 6.68295 7.10705 6.73863 7.1575L7.65391 6.14729L8.5692 5.13709C8.55893 5.12779 8.54409 5.11366 8.52156 5.09111L7.55707 6.05444ZM7.65391 6.14729L6.73879 7.15764C6.79671 7.21011 6.85146 7.25564 6.89136 7.28842L7.75675 6.23516L8.62214 5.18189C8.59251 5.15755 8.57783 5.1449 8.56904 5.13695L7.65391 6.14729ZM7.75675 6.23516L6.92123 7.31227L7.02807 7.39514L7.86358 6.31802L8.6991 5.24091L8.59227 5.15804L7.75675 6.23516ZM7.86358 6.31802V4.95484H7.86259V6.31802V7.68121H7.86358V6.31802ZM7.86259 6.31802L7.05078 7.41312C7.10682 7.45466 7.16243 7.49348 7.21578 7.52915L7.97341 6.3959L8.73104 5.26265C8.70948 5.24823 8.69047 5.23485 8.67439 5.22293L7.86259 6.31802ZM7.97341 6.3959L7.21595 7.52927C7.2743 7.56826 7.33168 7.60422 7.38647 7.63706L8.08723 6.46779L8.78799 5.29851C8.76579 5.28521 8.74679 5.27317 8.73087 5.26254L7.97341 6.3959ZM8.08723 6.46779L7.38664 7.63716C7.44172 7.67016 7.50077 7.70392 7.56216 7.73675L8.20504 6.53468L8.84793 5.33261C8.83007 5.32306 8.80965 5.31149 8.78782 5.29841L8.08723 6.46779ZM8.20504 6.53468L7.59541 7.75395L7.71522 7.81385L8.32486 6.59459L8.93449 5.37532L8.81468 5.31542L8.20504 6.53468ZM8.32486 6.59459L7.74201 7.82688C7.80268 7.85558 7.86434 7.88291 7.92606 7.90853L8.44866 6.6495L8.97127 5.39048C8.94956 5.38146 8.92809 5.37193 8.9077 5.36229L8.32486 6.59459ZM8.44866 6.6495V5.28632H8.44766V6.6495V8.01268H8.44866V6.6495ZM8.44766 6.6495L7.92666 7.90919C7.98802 7.93457 8.05145 7.9591 8.11514 7.98189L8.57446 6.69842L9.03378 5.41496C9.01302 5.40753 8.99072 5.39893 8.96866 5.38981L8.44766 6.6495ZM8.57446 6.69842L8.11554 7.98203C8.1834 8.0063 8.24789 8.02701 8.30578 8.04461L8.70226 6.74036L9.09874 5.43611C9.07078 5.42761 9.04961 5.42061 9.03338 5.41481L8.57446 6.69842ZM8.70226 6.74036L8.30596 8.04466C8.36995 8.0641 8.43537 8.08224 8.501 8.09867L8.83205 6.7763L9.16311 5.45393C9.14156 5.44854 9.11965 5.44246 9.09855 5.43605L8.70226 6.74036ZM8.83205 6.7763L8.52775 8.10508L8.65855 8.13504L8.96285 6.80625L9.26715 5.47747L9.13636 5.44752L8.83205 6.7763ZM8.96285 6.80625V8.16943H8.96385V6.80625V5.44307H8.96285V6.80625ZM8.96385 6.80625L8.73156 8.1495L8.86435 8.17246L9.09664 6.82922L9.32893 5.48597L9.19614 5.46301L8.96385 6.80625ZM9.09664 6.82922L8.93502 8.18278L9.06881 8.19876L9.23043 6.84519L9.39205 5.49163L9.25826 5.47565L9.09664 6.82922ZM9.23043 6.84519L9.09725 8.20185C9.16327 8.20833 9.23011 8.21331 9.29716 8.21666L9.36521 6.85518L9.43326 5.49369C9.41011 5.49254 9.3867 5.4908 9.36361 5.48853L9.23043 6.84519ZM9.36521 6.85518V5.49199H9.36421V6.85518V8.21836H9.36521V6.85518ZM9.36421 6.85518L9.29762 8.21673C9.34946 8.21926 9.42151 8.22234 9.49973 8.22235L9.5 6.85917L9.50027 5.49599C9.48875 5.49599 9.46878 5.49548 9.4308 5.49362L9.36421 6.85518ZM9.5 6.85917L9.50016 8.22235C9.57909 8.22234 9.65098 8.21913 9.69991 8.21675L9.63379 6.85518L9.56766 5.4936C9.52757 5.49555 9.50986 5.49599 9.49984 5.49599L9.5 6.85917ZM9.63379 6.85518L9.70162 8.21667C9.76763 8.21338 9.83534 8.20847 9.90268 8.20186L9.76957 6.84519L9.63647 5.48852C9.61448 5.49068 9.59035 5.49247 9.56596 5.49368L9.63379 6.85518ZM9.76957 6.84519L9.90309 8.20182C9.96046 8.19617 10.0292 8.18854 10.1032 8.17752L9.90236 6.82922L9.70149 5.48092C9.68797 5.48293 9.66762 5.48546 9.63605 5.48857L9.76957 6.84519ZM9.90236 6.82922L10.133 8.17275L10.2668 8.14979L10.0362 6.80625L9.80555 5.46272L9.67176 5.48568L9.90236 6.82922ZM10.0362 6.80625L10.3015 8.14337C10.3774 8.1283 10.4461 8.1117 10.4989 8.09845L10.1669 6.7763L9.835 5.45415C9.80138 5.46259 9.78248 5.46683 9.77084 5.46914L10.0362 6.80625ZM10.1669 6.7763V8.13948H10.1679V6.7763V5.41312H10.1669V6.7763ZM10.1679 6.7763L10.4991 8.09865C10.5694 8.08104 10.6347 8.06236 10.6924 8.04485L10.2967 6.74036L9.90106 5.43587C9.8737 5.44416 9.8529 5.44992 9.83682 5.45395L10.1679 6.7763ZM10.2967 6.74036L10.693 8.04467C10.7442 8.02911 10.8118 8.00802 10.8845 7.98202L10.4255 6.69842L9.96659 5.41482C9.95479 5.41904 9.93556 5.42538 9.90046 5.43605L10.2967 6.74036ZM10.4255 6.69842L10.8848 7.98193C10.9596 7.95516 11.0268 7.92761 11.0708 7.9094L10.5503 6.6495L10.0298 5.3896C9.99119 5.40557 9.97525 5.41173 9.96632 5.41492L10.4255 6.69842ZM10.5503 6.6495L11.0728 7.9086C11.1348 7.88285 11.1965 7.85549 11.2568 7.82696L10.6741 6.59459L10.0915 5.36221C10.0708 5.372 10.0493 5.38154 10.0279 5.39041L10.5503 6.6495ZM10.6741 6.59459V7.95777H10.6751V6.59459V5.23141H10.6741V6.59459ZM10.6751 6.59459L11.2577 7.82701C11.3109 7.80185 11.3727 7.77159 11.4379 7.7367L10.795 6.53468L10.152 5.33267C10.1386 5.33982 10.1197 5.34935 10.0926 5.36216L10.6751 6.59459ZM10.795 6.53468L11.4377 7.73683C11.4993 7.70386 11.5584 7.67011 11.6133 7.63719L10.9128 6.46779L10.2122 5.29838C10.1902 5.31159 10.1699 5.32308 10.1522 5.33254L10.795 6.53468ZM10.9128 6.46779L11.6136 7.63702C11.6683 7.60425 11.7257 7.56823 11.784 7.52931L11.0266 6.3959L10.2692 5.26249C10.2533 5.27311 10.2341 5.28526 10.2119 5.29856L10.9128 6.46779ZM11.0266 6.3959L11.7843 7.52912C11.8465 7.48751 11.9023 7.44717 11.9481 7.4132L11.1364 6.31802L10.3247 5.22285C10.2987 5.24214 10.2813 5.25438 10.2689 5.26268L11.0266 6.3959ZM11.1364 6.31802L11.9768 7.39132L12.0827 7.30845L11.2422 6.23516L10.4018 5.16186L10.296 5.24473L11.1364 6.31802ZM11.2422 6.23516L12.1075 7.28849C12.1478 7.25542 12.2023 7.21005 12.26 7.15784L11.3451 6.14729L10.4302 5.13675C10.4211 5.14494 10.4062 5.15778 10.377 5.18182L11.2422 6.23516ZM11.3451 6.14729L12.2602 7.15763C12.3161 7.10702 12.3658 7.05841 12.4063 7.01791L11.4419 6.05444L10.4776 5.09097C10.4548 5.1138 10.4399 5.1279 10.4299 5.13696L11.3451 6.14729ZM11.4419 6.05444L12.4058 7.01835L12.4068 7.01736L11.4429 6.05344L10.479 5.08953L10.478 5.09053L11.4419 6.05444ZM11.4429 6.05344L12.4063 7.01785C12.447 6.97722 12.4955 6.92757 12.546 6.87185L11.5358 5.95659L10.5255 5.04134C10.5164 5.05149 10.5022 5.06639 10.4795 5.08903L11.4429 6.05344ZM11.5358 5.95659L12.5462 6.87166C12.5986 6.81382 12.644 6.75915 12.677 6.71908L11.6236 5.85376L10.5703 4.98843C10.5461 5.01789 10.5334 5.03265 10.5254 5.04153L11.5358 5.95659ZM11.6236 5.85376L12.6776 6.71829C12.7171 6.67019 12.7587 6.61751 12.8009 6.56072L11.7065 5.74792L10.6122 4.93513C10.6006 4.9507 10.5866 4.96855 10.5697 4.98922L11.6236 5.85376ZM11.7065 5.74792L12.8185 6.53643L12.8964 6.4266L11.7844 5.6381L10.6724 4.84959L10.5945 4.95942L11.7065 5.74792ZM11.7844 5.6381L12.9177 6.39563C12.9568 6.33716 12.9928 6.27968 13.0255 6.22517L11.8563 5.52428L10.6871 4.82338C10.6737 4.84579 10.6616 4.86485 10.6511 4.88057L11.7844 5.6381ZM11.8563 5.52428L13.0256 6.22492C13.0587 6.16973 13.0924 6.1108 13.1253 6.04928L11.9232 5.40646L10.7211 4.76365C10.7115 4.78154 10.7 4.80175 10.6869 4.82364L11.8563 5.52428ZM11.9232 5.40646L13.1251 6.04962C13.1601 5.98413 13.1904 5.92233 13.2155 5.86927L11.9831 5.28665L10.7507 4.70404C10.7377 4.73141 10.7283 4.75013 10.7213 4.7633L11.9232 5.40646ZM11.9831 5.28665H13.3463V5.28565H11.9831H10.6199V5.28665H11.9831ZM11.9831 5.28565L13.2154 5.86846C13.2441 5.80787 13.2714 5.74628 13.2971 5.68434L12.038 5.16185L10.7789 4.63936C10.77 4.66093 10.7605 4.68229 10.7508 4.70285L11.9831 5.28565ZM12.038 5.16185L13.2978 5.68255C13.3162 5.63809 13.3436 5.57123 13.3703 5.49648L12.0869 5.03705L10.8035 4.57761C10.8002 4.58694 10.7939 4.60304 10.7782 4.64115L12.038 5.16185ZM12.0869 5.03705L13.3704 5.49633C13.3965 5.42329 13.4177 5.35554 13.4331 5.30456L12.1288 4.90825L10.8245 4.51194C10.8138 4.54747 10.8075 4.56634 10.8034 4.57777L12.0869 5.03705ZM12.1288 4.90825L13.4332 5.30447C13.4509 5.24617 13.4695 5.18093 13.4872 5.11053L12.1648 4.77945L10.8424 4.44837C10.8383 4.46482 10.8326 4.48542 10.8245 4.51203L12.1288 4.90825ZM12.1648 4.77945H13.528V4.77846H12.1648H10.8016V4.77945H12.1648ZM12.1648 4.77846L13.4869 5.1104C13.5002 5.05742 13.5168 4.98897 13.5318 4.91302L12.1947 4.64766L10.8576 4.3823C10.8553 4.39406 10.8511 4.4128 10.8426 4.44651L12.1648 4.77846ZM12.1947 4.64766L13.5318 4.91311C13.5451 4.84605 13.5565 4.77982 13.5661 4.71502L12.2177 4.51487L10.8693 4.31472C10.8658 4.33833 10.8619 4.36093 10.8577 4.38222L12.1947 4.64766ZM12.2177 4.51487L13.5662 4.71476C13.5776 4.63724 13.5851 4.5659 13.5902 4.51459L12.2337 4.38008L10.8772 4.24558C10.8733 4.28442 10.8709 4.30366 10.8693 4.31499L12.2177 4.51487ZM12.2337 4.38008L13.5904 4.5131C13.5968 4.44741 13.6018 4.38061 13.6052 4.31315L12.2437 4.2453L10.8822 4.17745C10.881 4.20026 10.8793 4.22359 10.877 4.24707L12.2337 4.38008ZM12.2437 4.2453L13.6052 4.3115C13.6076 4.26238 13.6108 4.19072 13.6108 4.11167L12.2477 4.11151L10.8845 4.11134C10.8845 4.12151 10.884 4.13901 10.8821 4.1791L12.2437 4.2453ZM12.2477 4.11151H13.6108C13.6108 4.03253 13.6077 3.96064 13.6052 3.91036L12.2437 3.97672L10.8821 4.04308C10.884 4.08245 10.8845 4.10083 10.8845 4.11151H12.2477ZM12.2437 3.97672L13.6031 3.87602L13.5931 3.74123L12.2337 3.84193L10.8742 3.94263L10.8842 4.07742L12.2437 3.97672ZM12.2337 3.84193L13.5902 3.70727C13.5848 3.6533 13.5774 3.58398 13.5662 3.50836L12.2177 3.70815L10.8692 3.90793C10.8712 3.9208 10.8736 3.94078 10.8772 3.9766L12.2337 3.84193ZM12.2177 3.70815L13.5662 3.50823C13.5565 3.44296 13.5451 3.37672 13.5319 3.31015L12.1947 3.57535L10.8576 3.84056C10.8619 3.8623 10.8658 3.88495 10.8693 3.90806L12.2177 3.70815ZM12.1947 3.57535H13.5579V3.57436H12.1947H10.8316V3.57535H12.1947ZM12.1947 3.57436L13.5235 3.27006L13.4936 3.13926L12.1648 3.44356L10.836 3.74786L10.866 3.87866L12.1947 3.57436ZM12.1648 3.44356L13.4872 3.11271C13.4707 3.04678 13.4526 2.98144 13.4332 2.91748L12.1288 3.31377L10.8245 3.71005C10.831 3.73138 10.837 3.75309 10.8424 3.77442L12.1648 3.44356ZM12.1288 3.31377L13.4331 2.91736C13.4155 2.85933 13.3948 2.79488 13.3705 2.7269L12.0869 3.18597L10.8034 3.64503C10.8091 3.66115 10.816 3.68211 10.8246 3.71017L12.1288 3.31377ZM12.0869 3.18597L13.3704 2.72663C13.3454 2.65673 13.3198 2.59275 13.2977 2.53933L12.038 3.06017L10.7782 3.58101C10.7904 3.61045 10.7983 3.63083 10.8035 3.64531L12.0869 3.18597ZM12.038 3.06017L13.2841 2.50746L13.2292 2.38366L11.9831 2.93636L10.737 3.48907L10.7919 3.61288L12.038 3.06017ZM11.9831 2.93636L13.2152 2.35312C13.195 2.31055 13.1634 2.24403 13.1254 2.17297L11.9232 2.81555L10.7209 3.45814C10.7252 3.46616 10.7327 3.48106 10.751 3.51961L11.9831 2.93636ZM11.9232 2.81555L13.1253 2.17279C13.0885 2.10397 13.0525 2.04302 13.0255 1.9979L11.8563 2.69874L10.6871 3.39958C10.7059 3.43107 10.7154 3.44775 10.721 3.45832L11.9232 2.81555ZM11.8563 2.69874L13.0255 1.99782C12.9927 1.94317 12.9567 1.88575 12.9175 1.82712L11.7844 2.58492L10.6513 3.34271C10.6615 3.35807 10.6734 3.37683 10.6871 3.39966L11.8563 2.69874ZM11.7844 2.58492L12.9175 1.82705C12.8818 1.77374 12.8432 1.71841 12.8017 1.6624L11.7065 2.47409L10.6113 3.28578C10.6233 3.3019 10.6366 3.32085 10.6513 3.34279L11.7844 2.58492ZM11.7065 2.47409L12.8009 1.66126C12.7589 1.60475 12.7172 1.55197 12.6772 1.50327L11.6236 2.36826L10.5701 3.23325C10.5865 3.25322 10.6004 3.27102 10.6122 3.28692L11.7065 2.47409ZM11.6236 2.36826L12.6773 1.50329C12.644 1.4628 12.5985 1.40804 12.546 1.35016L11.5358 2.26542L10.5256 3.18068C10.5335 3.18944 10.5462 3.20418 10.57 3.23323L11.6236 2.36826ZM11.5358 2.26542L12.5459 1.35009C12.4954 1.29432 12.447 1.24479 12.4063 1.20416L11.4429 2.16858L10.4795 3.13299C10.5021 3.15557 10.5163 3.17043 10.5256 3.18076L11.5358 2.26542ZM11.4429 2.16858L12.4068 1.20462C12.3563 1.15415 12.3066 1.10746 12.2606 1.06569L11.3451 2.07572L10.4296 3.08576C10.4496 3.10389 10.4661 3.11956 10.4791 3.13253L11.4429 2.16858ZM11.3451 2.07572L12.2603 1.06548C12.2123 1.02192 12.1608 0.977214 12.1073 0.933347L11.2422 1.98686L10.3772 3.04038C10.3932 3.05352 10.4112 3.06907 10.4298 3.08596L11.3451 2.07572ZM11.2422 1.98686H12.6054V1.98586H11.2422H9.87907V1.98686H11.2422ZM11.2422 1.98586L12.0763 0.907647L11.9705 0.825777L11.1364 1.90399L10.3023 2.98221L10.4082 3.06408L11.2422 1.98586ZM11.1364 1.90399L11.9484 0.809051C11.8889 0.764919 11.8325 0.726102 11.7839 0.693662L11.0266 1.82712L10.2693 2.96057C10.2948 2.97764 10.3121 2.98983 10.3244 2.99894L11.1364 1.90399ZM11.0266 1.82712L11.7837 0.693492C11.7413 0.665229 11.681 0.625384 11.6134 0.584894L10.9128 1.75423L10.2121 2.92357C10.2211 2.92893 10.2369 2.93897 10.2695 2.96074L11.0266 1.82712ZM10.9128 1.75423L11.5782 0.564503L11.4604 0.498607L10.795 1.68833L10.1295 2.87806L10.2473 2.94396L10.9128 1.75423ZM10.795 1.68833L11.4371 0.485861C11.3796 0.455161 11.3195 0.424703 11.2573 0.395288L10.6741 1.62743L10.091 2.85957C10.1101 2.86863 10.1309 2.87907 10.1528 2.89081L10.795 1.68833ZM10.6741 1.62743L11.2566 0.394932C11.2051 0.370614 11.1424 0.341877 11.0733 0.313208L10.5513 1.57252L10.0294 2.83183C10.0429 2.83741 10.0622 2.84598 10.0917 2.85993L10.6741 1.62743ZM10.5513 1.57252L11.0725 0.312905C11.0017 0.283592 10.9361 0.25946 10.8848 0.241093L10.4255 1.52459L9.96631 2.80809C9.99906 2.81981 10.0179 2.82707 10.0301 2.83213L10.5513 1.57252ZM10.4255 1.52459L10.8845 0.241009C10.8289 0.221099 10.7632 0.198633 10.6925 0.177198L10.2967 1.48166L9.90096 2.78612C9.91609 2.79071 9.93749 2.79779 9.96655 2.80818L10.4255 1.52459ZM10.2967 1.48166H11.6599V1.48066H10.2967H8.93356V1.48166H10.2967ZM10.2967 1.48066L10.6915 0.175906C10.6139 0.152407 10.5414 0.134215 10.4982 0.1234L10.1669 1.44572L9.83568 2.76803C9.87876 2.77883 9.89395 2.783 9.90193 2.78542L10.2967 1.48066ZM10.1669 1.44572L10.4978 0.123303C10.4261 0.105353 10.3591 0.0911238 10.3023 0.0798138L10.0362 1.41676L9.77002 2.75371C9.80072 2.75982 9.82148 2.76448 9.83607 2.76813L10.1669 1.44572ZM10.0362 1.41676V0.053582H10.0352V1.41676V2.77994H10.0362V1.41676ZM10.0352 1.41676L10.301 0.0797499C10.2571 0.0710301 10.1832 0.0563636 10.1025 0.0443864L9.90236 1.3928L9.70226 2.74122C9.71015 2.74239 9.72564 2.74509 9.76934 2.75378L10.0352 1.41676ZM9.90236 1.3928L10.1019 0.0443011C10.027 0.0332235 9.9576 0.0256661 9.90218 0.0202077L9.76858 1.37683L9.63498 2.73344C9.66853 2.73675 9.68937 2.73931 9.70284 2.7413L9.90236 1.3928ZM9.76858 1.37683L9.90193 0.0201835C9.83796 0.0138952 9.77091 0.00871146 9.70182 0.00530981L9.63479 1.36684L9.56776 2.72837C9.5878 2.72936 9.61036 2.73102 9.63522 2.73347L9.76858 1.37683ZM9.63479 1.36684L9.7014 0.00528954C9.62872 0.00173316 9.56036 0.000672898 9.50017 0.000665585L9.5 1.36385L9.49983 2.72703C9.52907 2.72703 9.55135 2.72757 9.56817 2.72839L9.63479 1.36684ZM9.5 1.36385L9.49988 0.00066558C9.43965 0.000670898 9.37123 0.00173506 9.29859 0.00529004L9.36521 1.36684L9.43184 2.72839C9.44865 2.72757 9.47097 2.72703 9.50012 2.72703L9.5 1.36385Z" fill="#6B6B6B" mask="url(#path-2-inside-1_0_17)"/>
</g>
</svg>
