<svg width="19" height="19" viewBox="0 0 19 19" fill="none" xmlns="http://www.w3.org/2000/svg">
<mask id="mask0_0_22" style="mask-type:luminance" maskUnits="userSpaceOnUse" x="-4" y="-4" width="27" height="27">
<path fill-rule="evenodd" clip-rule="evenodd" d="M-3.16667 -3.16667H22.1667V22.1667H-3.16667V-3.16667Z" fill="white"/>
</mask>
<g mask="url(#mask0_0_22)">
<path d="M9.5 0C10.8117 0 12.0447 0.249485 13.1981 0.749115C14.352 1.24943 15.3573 1.92893 16.2143 2.78667C17.0714 3.64442 17.7506 4.64937 18.2509 5.80193C18.7505 6.956 19 8.189 19 9.5C19 10.8074 18.7504 12.0387 18.2509 13.1941C17.7506 14.3496 17.0712 15.3562 16.2133 16.2133C15.3556 17.0704 14.3506 17.7498 13.1981 18.2509C12.0454 18.752 10.8124 19.0014 9.5 19C8.19267 19 6.96124 18.7504 5.80589 18.2509C4.6504 17.7506 3.64378 17.0712 2.78667 16.2133C1.92956 15.3555 1.25015 14.3489 0.749115 13.1941C0.248193 12.0395 -0.00140701 10.808 0 9.5C0 8.18829 0.249484 6.9553 0.749115 5.80193C1.24944 4.64797 1.92892 3.643 2.78667 2.78667C3.64447 1.93026 4.65111 1.25085 5.80589 0.749115C6.96124 0.249599 8.19267 8.4536e-07 9.5 0ZM6.98646 13.0328C7.26581 14.0363 7.5992 14.9218 7.98693 15.6889C8.37537 16.4559 8.88003 17.2106 9.5 17.953C10.1192 17.1572 10.6304 16.3757 11.0329 15.6087C11.4347 14.8416 11.7616 13.9828 12.0135 13.0328H6.98646ZM1.85151 13.0318C2.45664 14.3441 3.31383 15.4209 4.42344 16.2618C5.53385 17.102 6.77834 17.6131 8.15615 17.7947C7.66358 17.2142 7.21406 16.4963 6.80734 15.6414C6.4006 14.7871 6.09834 13.9171 5.8999 13.0318H1.85151ZM13.1011 13.0318C12.8337 13.9303 12.4977 14.807 12.0917 15.6611C11.685 16.5161 11.2689 17.2272 10.8439 17.7937L11.1002 17.7571C12.3764 17.5483 13.5354 17.0496 14.5766 16.2618C15.6861 15.4209 16.5434 14.3441 17.1485 13.0318H13.1011ZM1.42203 7.02307C1.30739 7.38888 1.21758 7.7873 1.15286 8.21849C1.08812 8.64916 1.05589 9.07637 1.05589 9.5C1.05589 9.92363 1.08783 10.3511 1.15188 10.7825C1.21589 11.2138 1.30567 11.6115 1.42104 11.9759L5.68021 11.9769C5.60003 11.5436 5.54334 11.1211 5.51099 10.7103C5.47724 10.3002 5.46052 9.89674 5.46052 9.5C5.46052 9.10326 5.47694 8.69984 5.51 8.28974C5.54306 7.8796 5.59973 7.45712 5.67922 7.02307H1.42203ZM13.3198 7.02406C13.4 7.45672 13.4566 7.87889 13.489 8.28974C13.5228 8.70054 13.5395 9.10397 13.5395 9.5C13.5395 9.89603 13.523 10.2995 13.49 10.7103C13.457 11.1211 13.4002 11.5435 13.3208 11.9769L17.579 11.9759C17.6937 11.6108 17.7834 11.213 17.8481 10.7825C17.9122 10.3511 17.9441 9.92363 17.9441 9.5C17.9441 9.07637 17.9122 8.64887 17.8481 8.2175C17.7841 7.78625 17.6943 7.38849 17.579 7.02406H13.3198ZM6.73411 7.02406C6.65465 7.45658 6.59895 7.87159 6.56589 8.26896C6.5328 8.66585 6.51641 9.07637 6.51641 9.5C6.51641 9.92363 6.5328 10.3342 6.56589 10.731C6.59895 11.1277 6.65465 11.5427 6.73411 11.9759H12.2649C12.3451 11.5434 12.4007 11.1284 12.4331 10.731C12.4669 10.3342 12.4836 9.92363 12.4836 9.5C12.4836 9.07637 12.4672 8.66585 12.4341 8.26896C12.4011 7.87229 12.3453 7.45728 12.2659 7.02406H6.73411ZM8.15714 1.18552C6.71181 1.40791 5.45442 1.929 4.38484 2.74807C3.3153 3.56857 2.47073 4.64149 1.85151 5.96719L5.8999 5.96818C6.12578 5.09701 6.43476 4.2437 6.82813 3.40911C7.22143 2.57466 7.66463 1.83355 8.15714 1.18552ZM9.5 1.04698C8.92085 1.73449 8.42645 2.47895 8.0176 3.28047C7.60875 4.08198 7.26541 4.97807 6.98745 5.96818H12.0135C11.7349 4.97736 11.3912 4.08129 10.9824 3.28047C10.5736 2.47965 10.0791 1.7352 9.5 1.04698ZM10.8439 1.18552C11.3364 1.83355 11.7795 2.57466 12.1729 3.40911C12.5663 4.24299 12.8752 5.0963 13.1011 5.96818H17.1485C16.53 4.62847 15.683 3.55163 14.6072 2.73818C13.5314 1.92472 12.2765 1.4072 10.8439 1.18552Z" fill="#6B6B6B"/>
</g>
</svg>
