<svg width="16" height="16" viewBox="0 0 16 16" fill="none" xmlns="http://www.w3.org/2000/svg">
<mask id="mask0_0_11" style="mask-type:luminance" maskUnits="userSpaceOnUse" x="-7" y="-7" width="30" height="30">
<path fill-rule="evenodd" clip-rule="evenodd" d="M-6.73698 -6.73511H22.9331V22.9349H-6.73698V-6.73511Z" fill="white"/>
</mask>
<g mask="url(#mask0_0_11)">
<mask id="path-2-inside-1_0_11" fill="white">
<path d="M15.997 15.0348L15.5154 15.5174L15.0328 16L10.1501 11.1173C10.1685 11.1026 10.1879 11.0892 10.2061 11.0743C10.2852 11.0094 10.363 10.9422 10.4389 10.8735L10.6607 10.6627L10.8725 10.4409C10.9412 10.3651 11.0074 10.2871 11.0723 10.2081C11.0872 10.1899 11.1006 10.1705 11.1153 10.1521L15.997 15.0348ZM6.55027 0.00799301C6.65222 0.0129717 6.75435 0.0199923 6.856 0.0299738C6.95757 0.0399496 7.05876 0.0529961 7.15974 0.0679406C7.26096 0.0829127 7.36219 0.0999682 7.46247 0.119895C7.56261 0.13979 7.66219 0.162074 7.76121 0.186837L8.05695 0.268765C8.15465 0.298369 8.25159 0.330317 8.3477 0.364681C8.44404 0.399108 8.53996 0.436476 8.63444 0.475584C8.72867 0.514617 8.82195 0.555873 8.9142 0.599475C9.00658 0.643142 9.09782 0.689225 9.18796 0.737355C9.27812 0.785496 9.3671 0.835679 9.45473 0.888223L9.7145 1.05208C9.79941 1.10878 9.88327 1.16815 9.96528 1.22892C10.047 1.28957 10.1273 1.35215 10.2061 1.41676L10.4389 1.61758C10.5144 1.68606 10.5885 1.75628 10.6607 1.8284L10.8715 2.05021C10.9402 2.12595 11.0074 2.20385 11.0723 2.283C11.1372 2.36205 11.2003 2.44267 11.2611 2.52479C11.322 2.60686 11.3812 2.69062 11.438 2.77557C11.4946 2.86029 11.5493 2.94687 11.6018 3.03434L11.7527 3.30111C11.8009 3.39123 11.8469 3.48247 11.8906 3.57487L12.0155 3.85463C12.0547 3.94915 12.091 4.04508 12.1254 4.14138C12.1598 4.23749 12.1916 4.33443 12.2213 4.43212C12.251 4.53003 12.2784 4.62868 12.3032 4.72786L12.3712 5.0276C12.3911 5.12763 12.4082 5.22843 12.4231 5.32934C12.4381 5.43021 12.451 5.53165 12.4611 5.63307L12.4831 5.9388L12.4911 6.24554L12.4831 6.55227L12.4611 6.858C12.451 6.95941 12.4381 7.06086 12.4231 7.16173C12.4082 7.26265 12.3911 7.36342 12.3712 7.46347L12.3032 7.76321L12.2213 8.05895L12.1254 8.34969C12.0909 8.44611 12.0547 8.54194 12.0155 8.63644L11.8906 8.9162L11.7527 9.18996C11.7045 9.28011 11.6544 9.36911 11.6018 9.45673C11.5493 9.54425 11.4946 9.63074 11.438 9.7155V9.7165L11.2611 9.96628C11.2143 10.0294 11.1646 10.0907 11.1153 10.1521L10.8055 9.84239L9.84039 10.8075L10.1501 11.1173C10.089 11.1663 10.0281 11.2155 9.96528 11.2621H9.96428C9.88231 11.3229 9.79937 11.3823 9.7145 11.439H9.7135C9.62866 11.4956 9.54217 11.5494 9.45473 11.6018C9.36699 11.6545 9.27823 11.7055 9.18796 11.7537V11.7547C9.09786 11.8028 9.00642 11.848 8.9142 11.8916L8.63444 12.0155C8.53989 12.0547 8.44411 12.0919 8.3477 12.1264C8.25162 12.1608 8.15469 12.1927 8.05695 12.2223L7.76121 12.3042C7.662 12.329 7.56181 12.3513 7.46147 12.3712C7.36147 12.391 7.26074 12.4082 7.15974 12.4231C7.05876 12.4381 6.95757 12.4511 6.856 12.4611C6.75435 12.4711 6.65222 12.4781 6.55027 12.4831H6.54927C6.44746 12.488 6.34551 12.4911 6.24354 12.4911L5.93681 12.4831L5.63107 12.4601L5.32734 12.4231L5.0256 12.3702C4.92534 12.3502 4.82496 12.3281 4.72586 12.3032C4.62696 12.2785 4.52876 12.251 4.43112 12.2213C4.33328 12.1916 4.23572 12.16 4.13938 12.1254C4.04332 12.091 3.94789 12.0536 3.85363 12.0145L3.57387 11.8906C3.48152 11.8468 3.39007 11.8008 3.30011 11.7527V11.7517C3.21021 11.7037 3.12089 11.6544 3.03335 11.6018C2.94572 11.5493 2.85952 11.4938 2.77457 11.437C2.68979 11.3803 2.60575 11.322 2.52379 11.2611C2.44183 11.2003 2.36183 11.137 2.283 11.0723C2.20399 11.0074 2.12589 10.9411 2.05021 10.8725C1.97456 10.8039 1.90063 10.7329 1.8284 10.6607L1.61758 10.4389C1.54917 10.3633 1.48239 10.2858 1.41776 10.2071C1.35294 10.1281 1.2898 10.0474 1.22892 9.96528L1.05208 9.7145C0.995395 9.62958 0.940694 9.54325 0.888223 9.45573L0.737355 9.18896C0.689273 9.09889 0.643099 9.00739 0.599475 8.9152C0.555866 8.82301 0.51461 8.72973 0.475584 8.63544L0.36568 8.34869C0.331283 8.25253 0.298404 8.15571 0.268765 8.05795C0.239187 7.96042 0.212609 7.86206 0.187836 7.76321V7.76221C0.163053 7.66317 0.139802 7.56355 0.119895 7.46347C0.0999905 7.36337 0.082914 7.26275 0.0679406 7.16173C0.0529702 7.06082 0.0399875 6.95957 0.0299738 6.858C0.0199731 6.75642 0.0130072 6.6542 0.00799301 6.55227C0.0029794 6.45015 7.9817e-09 6.34769 0 6.24554C1.18573e-09 6.14338 0.00297939 6.04092 0.00799301 5.9388C0.0130072 5.83687 0.0199731 5.73465 0.0299738 5.63307C0.039986 5.53153 0.0529725 5.43028 0.0679406 5.32934C0.0829142 5.22837 0.099989 5.12773 0.119895 5.0276L0.187836 4.72886C0.212643 4.62981 0.239127 4.53084 0.268765 4.43312C0.2984 4.33539 0.331282 4.23855 0.36568 4.14238C0.400107 4.04613 0.436493 3.95002 0.475584 3.85563C0.514621 3.76136 0.555873 3.66808 0.599475 3.57587L0.737355 3.30211C0.785504 3.212 0.835688 3.123 0.888223 3.03534C0.940724 2.94773 0.995369 2.86147 1.05208 2.77657L1.22892 2.52579C1.28976 2.44374 1.353 2.36293 1.41776 2.284C1.48248 2.20514 1.54915 2.12775 1.61758 2.0522C1.6861 1.9766 1.75628 1.90256 1.8284 1.8304C1.90058 1.75821 1.97452 1.68721 2.05021 1.61858H2.05121C2.12672 1.55014 2.20413 1.48351 2.283 1.41876C2.36187 1.35402 2.44186 1.29072 2.52379 1.22992C2.60575 1.16911 2.68973 1.1108 2.77457 1.05408V1.05308C2.85947 0.996332 2.94577 0.941745 3.03335 0.889222C3.12094 0.836692 3.21 0.78654 3.30011 0.738354C3.39021 0.690169 3.48152 0.644189 3.57387 0.600475C3.66608 0.556841 3.75942 0.515641 3.85363 0.476583C3.94801 0.437463 4.04418 0.40013 4.14038 0.36568C4.23645 0.331276 4.33349 0.299408 4.43112 0.269764C4.52871 0.240131 4.62692 0.212652 4.72586 0.187836C4.82498 0.162978 4.92538 0.140862 5.0256 0.120894C5.12573 0.100949 5.22635 0.0829532 5.32734 0.0679406C5.42826 0.0529397 5.52957 0.0410105 5.63107 0.0309729C5.7327 0.0209309 5.83481 0.0130445 5.93681 0.00799301C6.0389 0.00295359 6.1414 3.7016e-05 6.24354 0C6.34573 -3.43152e-05 6.44818 0.00300858 6.55027 0.00799301ZM6.00475 1.3708C5.92514 1.37474 5.84528 1.37996 5.76595 1.38779C5.6866 1.39563 5.60707 1.40604 5.52816 1.41776C5.44917 1.4295 5.36969 1.44312 5.29137 1.45872C5.21338 1.47427 5.13573 1.49133 5.05857 1.51068C4.9813 1.53005 4.90402 1.55148 4.82778 1.57462L4.59998 1.65056C4.5248 1.67748 4.44994 1.7059 4.37617 1.73648C4.30245 1.76704 4.22946 1.79928 4.15736 1.8334C4.08519 1.86756 4.01397 1.90364 3.94355 1.9413C3.87332 1.97886 3.80406 2.01823 3.73573 2.0592C3.66721 2.1003 3.59931 2.1437 3.53291 2.18809C3.4666 2.23242 3.40115 2.27842 3.33708 2.32596C3.27302 2.3735 3.2099 2.42223 3.14825 2.47284C3.08662 2.52343 3.02657 2.57607 2.9674 2.6297C2.9083 2.68329 2.85003 2.73808 2.79356 2.79455C2.73711 2.85102 2.68232 2.90924 2.6287 2.9684C2.57509 3.02759 2.52245 3.08756 2.47184 3.14924C2.42128 3.21087 2.37243 3.27407 2.32497 3.33808C2.27748 3.40213 2.23134 3.46766 2.18709 3.53391C2.14271 3.60034 2.09924 3.66824 2.0582 3.73673C2.01721 3.80513 1.97791 3.87517 1.9403 3.94555C1.90281 4.01573 1.86641 4.08645 1.8324 4.15836L1.8334 4.15936C1.79927 4.23153 1.76601 4.30443 1.73548 4.37817C1.70495 4.4519 1.67642 4.52689 1.64956 4.60197C1.62274 4.67697 1.59774 4.75256 1.57462 4.82877C1.55146 4.90513 1.53006 4.98218 1.51068 5.05957C1.49129 5.13699 1.47429 5.21511 1.45872 5.29337C1.44317 5.37158 1.42946 5.45028 1.41776 5.52916C1.40605 5.60809 1.39561 5.68756 1.38779 5.76695C1.37997 5.84633 1.37472 5.92609 1.3708 6.00574C1.36688 6.0856 1.36481 6.16571 1.36481 6.24554C1.36481 6.32536 1.36688 6.40547 1.3708 6.48533C1.37472 6.56498 1.37997 6.64474 1.38779 6.72412C1.39561 6.80351 1.40606 6.88302 1.41776 6.96191C1.42946 7.04081 1.44218 7.11954 1.45772 7.1977C1.4733 7.27602 1.49127 7.35394 1.51068 7.4315L1.57462 7.6623C1.59773 7.73851 1.62274 7.8141 1.64956 7.8891C1.67643 7.96423 1.70496 8.03924 1.73548 8.1129C1.76595 8.18654 1.79837 8.25977 1.8324 8.33171C1.86642 8.40361 1.90182 8.47526 1.9393 8.54552H1.9403C1.97792 8.61591 2.01721 8.68596 2.0582 8.75434C2.0993 8.8229 2.14265 8.89059 2.18709 8.95716C2.23135 9.02339 2.27753 9.08903 2.32497 9.15299C2.37232 9.21691 2.42141 9.27941 2.47184 9.34083V9.34183C2.52248 9.40354 2.57514 9.4635 2.6287 9.52267C2.6823 9.58178 2.73709 9.64002 2.79356 9.69652C2.84999 9.75296 2.90824 9.80771 2.9674 9.86137C3.02656 9.91502 3.08659 9.96761 3.14825 10.0182C3.20993 10.0689 3.27305 10.1176 3.33708 10.1651C3.40122 10.2127 3.46646 10.2595 3.53291 10.304C3.59913 10.3483 3.66641 10.3909 3.73473 10.4319H3.73573L3.94355 10.5498L4.15736 10.6577L4.37617 10.7546L4.59998 10.8405C4.675 10.8674 4.75143 10.8933 4.82778 10.9164C4.90376 10.9395 4.98047 10.9601 5.05757 10.9794L5.05857 10.9804C5.13596 10.9998 5.21421 11.0168 5.29237 11.0323H5.29137C5.36995 11.0479 5.44889 11.0615 5.52816 11.0733H5.52716C5.6063 11.085 5.68629 11.0954 5.76595 11.1033C5.84504 11.1111 5.92432 11.1164 6.00375 11.1203H6.00475C6.08434 11.1242 6.16392 11.1263 6.24354 11.1263C6.32344 11.1263 6.40343 11.1251 6.48333 11.1213L6.72212 11.1033L6.95991 11.0743C7.03906 11.0626 7.11835 11.0489 7.1967 11.0333C7.27479 11.0179 7.35226 10.9997 7.4295 10.9804C7.50718 10.9609 7.58458 10.9397 7.6613 10.9164C7.73753 10.8934 7.81315 10.8683 7.8881 10.8415H7.8891C7.96408 10.8147 8.03834 10.7861 8.1119 10.7556L8.33171 10.6587C8.40396 10.6245 8.4751 10.5883 8.54552 10.5508L8.75334 10.4329H8.75434C8.82295 10.3918 8.89071 10.3483 8.95716 10.304C9.02336 10.2597 9.08899 10.2135 9.15299 10.1661C9.21685 10.1187 9.27939 10.0697 9.34083 10.0192H9.34183C9.40354 9.96863 9.46356 9.91593 9.52267 9.86237C9.58186 9.80866 9.64002 9.75394 9.69652 9.69751L9.86137 9.52367C9.91505 9.46449 9.96764 9.40446 10.0182 9.34283C10.0688 9.28121 10.1176 9.21803 10.1651 9.15399C10.2128 9.08967 10.2595 9.02463 10.304 8.95816C10.3484 8.89164 10.3908 8.82385 10.4319 8.75534C10.4728 8.68713 10.5122 8.6178 10.5498 8.54752V8.54652C10.5873 8.47626 10.6236 8.40481 10.6577 8.33271L10.7546 8.1139L10.8415 7.8901C10.8684 7.81493 10.8932 7.73871 10.9164 7.6623C10.9395 7.58619 10.9611 7.50966 10.9804 7.4325V7.4315C10.9998 7.35426 11.0169 7.27577 11.0323 7.1977C11.0479 7.1194 11.0616 7.04083 11.0733 6.96191C11.085 6.88285 11.0954 6.80364 11.1033 6.72412L11.1203 6.48533V6.48433C11.1242 6.40478 11.1263 6.3252 11.1263 6.24554C11.1263 6.16587 11.1242 6.08629 11.1203 6.00674V6.00574L11.1033 5.76695C11.0954 5.68742 11.085 5.60821 11.0733 5.52916C11.0616 5.45024 11.0479 5.37164 11.0323 5.29337V5.29237C11.0169 5.21442 10.9998 5.13678 10.9804 5.05957V5.05857C10.9611 4.9814 10.9395 4.90486 10.9164 4.82877C10.8933 4.75236 10.8684 4.67615 10.8415 4.60097C10.8146 4.5258 10.7851 4.4509 10.7546 4.37717L10.6577 4.15836C10.6236 4.08629 10.5874 4.01488 10.5498 3.94455L10.4319 3.73573C10.3907 3.66723 10.3484 3.59938 10.304 3.53291C10.2596 3.46646 10.2127 3.40127 10.1651 3.33708C10.1176 3.27303 10.0688 3.20986 10.0182 3.14825C9.9677 3.08668 9.91503 3.02652 9.86137 2.9674L9.69652 2.79356C9.63987 2.73697 9.58193 2.68144 9.52267 2.6277C9.46368 2.57428 9.4034 2.52231 9.34183 2.47184H9.34083C9.27938 2.42142 9.21685 2.37236 9.15299 2.32497L8.95616 2.18609C8.88989 2.14184 8.82267 2.09913 8.75434 2.0582H8.75334C8.68509 2.01727 8.61585 1.97786 8.54552 1.9403C8.47506 1.90268 8.40388 1.86651 8.33171 1.8324L8.1119 1.73548C8.03833 1.70504 7.96409 1.67636 7.8891 1.64956C7.81404 1.62272 7.73771 1.59778 7.6613 1.57462C7.58499 1.55149 7.50788 1.53004 7.4305 1.51068C7.35306 1.49131 7.27499 1.47328 7.1967 1.45772C7.11847 1.44218 7.039 1.42846 6.95991 1.41676C6.88095 1.40508 6.80147 1.39558 6.72212 1.38779C6.64267 1.37999 6.56297 1.37369 6.48333 1.3698C6.40354 1.36591 6.32339 1.36478 6.24354 1.36481C6.16395 1.36484 6.08437 1.36688 6.00475 1.3708Z"/>
</mask>
<path d="M15.997 15.0348L16.9626 15.9984L17.9251 15.0339L16.9617 14.0704L15.997 15.0348ZM15.5154 15.5174L16.48 16.482L16.481 16.481L15.5154 15.5174ZM15.0328 16L14.0683 16.9646L15.0328 17.9292L15.9974 16.9646L15.0328 16ZM10.2061 11.0743L9.34121 10.0194L9.3407 10.0198L10.2061 11.0743ZM10.4389 10.8735L11.3548 11.8844L11.3669 11.8735L11.3787 11.8623L10.4389 10.8735ZM10.6607 10.6627L11.6005 11.6514L11.6244 11.6287L11.6472 11.6048L10.6607 10.6627ZM10.8725 10.4409L11.859 11.383L11.8711 11.3703L11.8828 11.3574L10.8725 10.4409ZM11.0723 10.2081L12.1267 11.0736L12.1267 11.0736L11.0723 10.2081ZM6.55027 0.00799301L6.61681 -1.35452L6.61679 -1.35452L6.55027 0.00799301ZM6.856 0.0299738L6.98934 -1.32763L6.9893 -1.32764L6.856 0.0299738ZM7.15974 0.0679406L6.96002 1.41738L6.96015 1.4174L7.15974 0.0679406ZM7.46247 0.119895L7.1966 1.45787L7.19665 1.45788L7.46247 0.119895ZM7.76121 0.186837L8.1254 -1.12779L8.10884 -1.13238L8.09217 -1.13655L7.76121 0.186837ZM8.05695 0.268765L8.45252 -1.03676L8.43689 -1.0415L8.42114 -1.04586L8.05695 0.268765ZM8.3477 0.364681L7.88841 1.64918L7.88865 1.64926L8.3477 0.364681ZM8.63444 0.475584L9.15655 -0.784688L9.15614 -0.784858L8.63444 0.475584ZM8.9142 0.599475L8.33125 1.83278L8.33126 1.83278L8.9142 0.599475ZM9.18796 0.737355L9.8305 -0.465982L9.83048 -0.465995L9.18796 0.737355ZM9.45473 0.888223L10.1825 -0.265564L10.1695 -0.27379L10.1562 -0.281718L9.45473 0.888223ZM9.7145 1.05208L10.472 -0.0823909L10.4573 -0.0922425L10.4423 -0.101707L9.7145 1.05208ZM9.96528 1.22892L10.7781 0.133395L10.7775 0.132948L9.96528 1.22892ZM10.2061 1.41676L11.0971 0.38385L11.0844 0.372844L11.0713 0.362156L10.2061 1.41676ZM10.4389 1.61758L11.3552 0.607072L11.3427 0.595716L11.3299 0.584674L10.4389 1.61758ZM10.6607 1.8284L11.6495 0.888616L11.6373 0.875812L11.6248 0.863327L10.6607 1.8284ZM10.8715 2.05021L11.8816 1.13339L11.8711 1.12178L11.8603 1.11042L10.8715 2.05021ZM11.0723 2.283L10.0178 3.14844L10.0179 3.1485L11.0723 2.283ZM11.2611 2.52479L10.1654 3.33733L10.1654 3.33734L11.2611 2.52479ZM11.438 2.77557L12.5722 2.01764L12.5721 2.01756L11.438 2.77557ZM11.6018 3.03434L12.7893 2.36282L12.7805 2.34739L12.7714 2.3322L11.6018 3.03434ZM11.7527 3.30111L12.9557 2.65795L12.9481 2.64367L12.9401 2.62958L11.7527 3.30111ZM11.8906 3.57487L13.1362 3.01878L13.1302 3.00529L13.1239 2.99193L11.8906 3.57487ZM12.0155 3.85463L13.2757 3.33239L13.2686 3.31537L13.2611 3.29853L12.0155 3.85463ZM12.1254 4.14138L13.4099 3.68205L13.4099 3.68203L12.1254 4.14138ZM12.2213 4.43212L13.5266 4.03584L13.5266 4.03581L12.2213 4.43212ZM12.3032 4.72786L13.6336 4.42631L13.6303 4.41153L13.6266 4.39684L12.3032 4.72786ZM12.3712 5.0276L13.709 4.76119L13.7055 4.74357L13.7016 4.72605L12.3712 5.0276ZM12.4231 5.32934L13.7725 5.12939L13.7725 5.12934L12.4231 5.32934ZM12.4611 5.63307L13.8217 5.53525L13.8204 5.51681L13.8186 5.49841L12.4611 5.63307ZM12.4831 5.9388L13.8468 5.90327L13.8459 5.87209L13.8437 5.84098L12.4831 5.9388ZM12.4911 6.24554L13.8547 6.28107L13.8557 6.24554L13.8547 6.21L12.4911 6.24554ZM12.4831 6.55227L13.8437 6.65009L13.8459 6.61898L13.8468 6.5878L12.4831 6.55227ZM12.4611 6.858L13.8186 6.99269L13.8204 6.97428L13.8217 6.95582L12.4611 6.858ZM12.4231 7.16173L13.7725 7.36172L13.7725 7.36168L12.4231 7.16173ZM12.3712 7.46347L13.7016 7.76502L13.7055 7.74747L13.7091 7.72982L12.3712 7.46347ZM12.3032 7.76321L13.6179 8.12739L13.6265 8.09627L13.6336 8.06476L12.3032 7.76321ZM12.2213 8.05895L13.5168 8.48632L13.5271 8.45496L13.5359 8.42314L12.2213 8.05895ZM12.1254 8.34969L13.41 8.80877L13.4156 8.79299L13.4209 8.77706L12.1254 8.34969ZM12.0155 8.63644L13.2611 9.19254L13.2686 9.17587L13.2756 9.159L12.0155 8.63644ZM11.8906 8.9162L13.1089 9.52981L13.1233 9.50137L13.1362 9.47229L11.8906 8.9162ZM11.7527 9.18996L12.9559 9.83287L12.9636 9.81831L12.9711 9.80358L11.7527 9.18996ZM11.6018 9.45673L12.7715 10.1587L12.7717 10.1584L11.6018 9.45673ZM11.438 9.7155L10.3036 8.9578L10.0739 9.30181V9.7155H11.438ZM11.438 9.7165L12.5513 10.5047L12.8021 10.1505V9.7165H11.438ZM11.2611 9.96628L12.3567 10.7791L12.3657 10.7669L12.3745 10.7545L11.2611 9.96628ZM10.8055 9.84239L11.7701 8.8778L10.8055 7.9132L9.84095 8.8778L10.8055 9.84239ZM9.84039 10.8075L8.8758 9.84295L7.9112 10.8075L8.8758 11.7721L9.84039 10.8075ZM9.96528 11.2621V12.6263H10.4161L10.7781 12.3577L9.96528 11.2621ZM9.96428 11.2621V9.89801H9.51393L9.1521 10.1661L9.96428 11.2621ZM9.7145 11.439V12.8031H10.1283L10.4723 12.5733L9.7145 11.439ZM9.7135 11.439V10.0749H9.30028L8.95653 10.3041L9.7135 11.439ZM9.45473 11.6018L8.75351 10.4317L8.75299 10.432L9.45473 11.6018ZM9.18796 11.7537L8.54511 10.5505L7.82382 10.9359V11.7537H9.18796ZM9.18796 11.7547L9.82995 12.9583L10.5521 12.5732V11.7547H9.18796ZM8.9142 11.8916L9.46658 13.1389L9.48188 13.1321L9.49701 13.125L8.9142 11.8916ZM8.63444 12.0155L9.15654 13.2758L9.17176 13.2695L9.18682 13.2628L8.63444 12.0155ZM8.3477 12.1264L7.88866 10.8418L7.88831 10.8419L8.3477 12.1264ZM8.05695 12.2223L8.42114 13.5369L8.43661 13.5326L8.45197 13.528L8.05695 12.2223ZM7.76121 12.3042L8.0921 13.6276L8.10881 13.6235L8.1254 13.6189L7.76121 12.3042ZM7.46147 12.3712L7.19614 11.0331L7.196 11.0331L7.46147 12.3712ZM7.15974 12.4231L6.95991 11.0737L6.9598 11.0737L7.15974 12.4231ZM6.856 12.4611L6.9893 13.8187L6.98946 13.8187L6.856 12.4611ZM6.55027 12.4831V13.8472H6.58366L6.61702 13.8456L6.55027 12.4831ZM6.54927 12.4831V11.1189H6.51659L6.48394 11.1205L6.54927 12.4831ZM6.24354 12.4911L6.208 13.8547L6.22577 13.8552H6.24354V12.4911ZM5.93681 12.4831L5.83456 13.8434L5.86787 13.8459L5.90127 13.8468L5.93681 12.4831ZM5.63107 12.4601L5.46626 13.8142L5.49747 13.818L5.52883 13.8204L5.63107 12.4601ZM5.32734 12.4231L5.09154 13.7667L5.12689 13.7729L5.16252 13.7773L5.32734 12.4231ZM5.0256 12.3702L4.75882 13.708L4.77428 13.7111L4.7898 13.7138L5.0256 12.3702ZM4.72586 12.3032L5.05802 10.9802L5.05714 10.9799L4.72586 12.3032ZM4.43112 12.2213L4.03463 13.5266L4.03469 13.5266L4.43112 12.2213ZM4.13938 12.1254L4.60011 10.8414L4.59903 10.841L4.13938 12.1254ZM3.85363 12.0145L3.30125 13.2618L3.31615 13.2684L3.33119 13.2746L3.85363 12.0145ZM3.57387 11.8906L2.98981 13.1234L3.00556 13.1308L3.0215 13.1379L3.57387 11.8906ZM3.30011 11.7527H1.93597V12.5701L2.65671 12.9556L3.30011 11.7527ZM3.30011 11.7517H4.66425V10.9338L3.94284 10.5485L3.30011 11.7517ZM3.03335 11.6018L3.735 10.432L3.73494 10.432L3.03335 11.6018ZM2.77457 11.437L2.01624 12.5709L2.0163 12.571L2.77457 11.437ZM2.52379 11.2611L1.71093 12.3567L1.71098 12.3567L2.52379 11.2611ZM2.283 11.0723L1.41732 12.1266L1.41736 12.1266L2.283 11.0723ZM2.05021 10.8725L2.9666 9.86199L2.9666 9.86199L2.05021 10.8725ZM1.8284 10.6607L0.839622 11.6005L0.851511 11.613L0.863712 11.6252L1.8284 10.6607ZM1.61758 10.4389L0.606304 11.3544L0.617408 11.3667L0.628806 11.3787L1.61758 10.4389ZM1.41776 10.2071L2.47228 9.3417L2.472 9.34136L1.41776 10.2071ZM1.22892 9.96528L0.114097 10.7514L0.123317 10.7645L0.13284 10.7774L1.22892 9.96528ZM1.05208 9.7145L-0.0824992 10.4719L-0.0728078 10.4864L-0.0627481 10.5007L1.05208 9.7145ZM0.888223 9.45573L-0.299181 10.1273L-0.29067 10.1423L-0.28178 10.1571L0.888223 9.45573ZM0.737355 9.18896L-0.466042 9.83139L-0.458223 9.84603L-0.450049 9.86049L0.737355 9.18896ZM0.599475 8.9152L-0.633654 9.49853L-0.633594 9.49865L0.599475 8.9152ZM0.475584 8.63544L-0.798201 9.12365L-0.791748 9.14049L-0.784853 9.15715L0.475584 8.63544ZM0.36568 8.34869L-0.918771 8.80811L-0.9136 8.82257L-0.908105 8.83691L0.36568 8.34869ZM0.268765 8.05795L1.57422 7.66214L1.5742 7.66207L0.268765 8.05795ZM0.187836 7.76321H-1.1763V7.93154L-1.13538 8.09482L0.187836 7.76321ZM0.187836 7.76221H1.55198V7.59413L1.51118 7.43107L0.187836 7.76221ZM0.119895 7.46347L-1.21805 7.72952L-1.21804 7.72958L0.119895 7.46347ZM0.0679406 7.16173L1.41734 6.96171L1.41731 6.96156L0.0679406 7.16173ZM0.0299738 6.858L-1.3276 6.99166L-1.32758 6.99184L0.0299738 6.858ZM0.00799301 6.55227L-1.35451 6.61916L-1.3545 6.61929L0.00799301 6.55227ZM0 6.24554H-1.36414H0ZM0.00799301 5.9388L-1.3545 5.87178L-1.35451 5.87191L0.00799301 5.9388ZM0.0299738 5.63307L-1.32758 5.49921L-1.3276 5.49941L0.0299738 5.63307ZM0.0679406 5.32934L-1.28144 5.12923L-1.28144 5.12924L0.0679406 5.32934ZM0.119895 5.0276L-1.21028 4.72509L-1.21442 4.7433L-1.21806 4.76162L0.119895 5.0276ZM0.187836 4.72886L-1.13543 4.39745L-1.13904 4.41186L-1.14234 4.42635L0.187836 4.72886ZM0.268765 4.43312L1.57418 4.82905L1.57421 4.82898L0.268765 4.43312ZM0.36568 4.14238L-0.918757 3.68292L-0.918769 3.68296L0.36568 4.14238ZM0.475584 3.85563L1.73592 4.37757L1.73593 4.37756L0.475584 3.85563ZM0.599475 3.57587L-0.618864 2.96225L-0.626494 2.9774L-0.633745 2.99274L0.599475 3.57587ZM0.737355 3.30211L-0.465793 2.65922L-0.473566 2.67376L-0.480985 2.68849L0.737355 3.30211ZM0.888223 3.03534L2.05832 3.73659L2.05837 3.73651L0.888223 3.03534ZM1.05208 2.77657L-0.0627481 1.99042L-0.0726994 2.00453L-0.0822903 2.01889L1.05208 2.77657ZM1.22892 2.52579L0.133129 1.71332L0.123456 1.72636L0.114097 1.73964L1.22892 2.52579ZM1.41776 2.284L0.363236 1.41864L0.363147 1.41874L1.41776 2.284ZM1.61758 2.0522L0.60674 1.1362L0.606552 1.1364L1.61758 2.0522ZM1.8284 1.8304L0.863715 0.865899L0.863573 0.866041L1.8284 1.8304ZM2.05021 1.61858V0.254444H1.52384L1.13389 0.608014L2.05021 1.61858ZM2.05121 1.61858V2.98272H2.57741L2.96731 2.62934L2.05121 1.61858ZM2.283 1.41876L1.41746 0.364377L1.41743 0.364403L2.283 1.41876ZM2.52379 1.22992L3.33669 2.3254L3.33672 2.32538L2.52379 1.22992ZM2.77457 1.05408L3.53278 2.1881L4.13871 1.78297V1.05408H2.77457ZM2.77457 1.05308L2.01652 -0.0810462L1.41043 0.324065V1.05308H2.77457ZM3.03335 0.889222L2.33175 -0.280665L2.33171 -0.280643L3.03335 0.889222ZM3.30011 0.738354L3.94339 1.9413L3.94345 1.94126L3.30011 0.738354ZM3.57387 0.600475L2.99037 -0.63257L2.99026 -0.63252L3.57387 0.600475ZM3.85363 0.476583L3.33131 -0.783598L3.33118 -0.783546L3.85363 0.476583ZM4.14038 0.36568L3.68046 -0.918593L3.68044 -0.918583L4.14038 0.36568ZM4.43112 0.269764L4.82745 1.57506L4.82746 1.57506L4.43112 0.269764ZM4.72586 0.187836L5.05772 1.51099L5.05773 1.51099L4.72586 0.187836ZM5.0256 0.120894L4.75911 -1.21696L4.75906 -1.21695L5.0256 0.120894ZM5.32734 0.0679406L5.12679 -1.28138L5.12675 -1.28137L5.32734 0.0679406ZM5.63107 0.0309729L5.49694 -1.32656L5.49683 -1.32655L5.63107 0.0309729ZM5.93681 0.00799301L5.86955 -1.35449L5.86933 -1.35448L5.93681 0.00799301ZM6.24354 0L6.24308 -1.36414H6.24304L6.24354 0ZM6.00475 1.3708L5.93762 0.00831354L5.93729 0.00832941L6.00475 1.3708ZM5.76595 1.38779L5.63195 0.0302435L5.63178 0.0302607L5.76595 1.38779ZM5.52816 1.41776L5.32766 0.0684348L5.32758 0.0684471L5.52816 1.41776ZM5.29137 1.45872L5.02482 0.120878L5.02469 0.120904L5.29137 1.45872ZM5.05857 1.51068L4.72684 0.187488L4.72682 0.187495L5.05857 1.51068ZM4.82778 1.57462L4.43155 0.269293L4.4139 0.274651L4.3964 0.280486L4.82778 1.57462ZM4.59998 1.65056L4.1686 0.356419L4.15425 0.361201L4.14002 0.366299L4.59998 1.65056ZM4.37617 1.73648L3.85385 0.476298L3.85377 0.476333L4.37617 1.73648ZM4.15736 1.8334L3.57386 0.600352L3.57373 0.60041L4.15736 1.8334ZM3.94355 1.9413L4.58681 3.14426L4.58689 3.14421L3.94355 1.9413ZM3.73573 2.0592L3.03427 0.889231L3.0341 0.889327L3.73573 2.0592ZM3.53291 2.18809L2.77484 1.05397L2.77473 1.05405L3.53291 2.18809ZM3.33708 2.32596L4.14999 3.42144L4.15001 3.42142L3.33708 2.32596ZM3.14825 2.47284L2.2827 1.41846L2.28268 1.41848L3.14825 2.47284ZM2.9674 2.6297L2.05127 1.61897L2.05111 1.61911L2.9674 2.6297ZM2.79356 2.79455L1.82891 1.83002L1.82878 1.83015L2.79356 2.79455ZM2.6287 2.9684L1.61786 2.05239L1.61766 2.05261L2.6287 2.9684ZM2.47184 3.14924L1.41728 2.28392L1.41723 2.28399L2.47184 3.14924ZM2.32497 3.33808L1.22922 2.52554L1.22915 2.52564L2.32497 3.33808ZM2.18709 3.53391L1.05275 2.77618L1.05274 2.7762L2.18709 3.53391ZM2.0582 3.73673L3.22832 4.43794L3.22835 4.43789L2.0582 3.73673ZM1.9403 3.94555L0.737153 3.30266L0.737078 3.3028L1.9403 3.94555ZM1.8324 4.15836L0.599242 3.57509L0.188445 4.4436L0.867804 5.12295L1.8324 4.15836ZM1.8334 4.15936L3.06662 4.74249L3.47726 3.87404L2.79799 3.19477L1.8334 4.15936ZM1.73548 4.37817L2.99585 4.90003L2.99587 4.9L1.73548 4.37817ZM1.64956 4.60197L0.36512 4.14252L0.365072 4.14265L1.64956 4.60197ZM1.57462 4.82877L2.88003 5.22475L2.88005 5.22467L1.57462 4.82877ZM1.51068 5.05957L0.187422 4.7281L0.187397 4.72821L1.51068 5.05957ZM1.45872 5.29337L0.120796 5.02723L0.120776 5.02733L1.45872 5.29337ZM1.41776 5.52916L0.0683911 5.32896L0.0683751 5.32906L1.41776 5.52916ZM1.38779 5.76695L0.0302297 5.63309L0.0302095 5.6333L1.38779 5.76695ZM1.3708 6.00574L0.00830947 5.9387L0.00830196 5.93885L1.3708 6.00574ZM1.36481 6.24554H0.000666043H1.36481ZM1.3708 6.48533L0.00830195 6.55222L0.00830949 6.55237L1.3708 6.48533ZM1.38779 6.72412L0.0302095 6.85777L0.0302275 6.85796L1.38779 6.72412ZM1.41776 6.96191L2.76714 6.76181L2.76713 6.76173L1.41776 6.96191ZM1.45772 7.1977L0.119791 7.46381L0.119796 7.46383L1.45772 7.1977ZM1.51068 7.4315L0.187353 7.76269L0.1915 7.77926L0.196061 7.79572L1.51068 7.4315ZM1.57462 7.6623L0.260005 8.02652L0.2644 8.04238L0.269176 8.05813L1.57462 7.6623ZM1.64956 7.8891L0.365072 8.34842L0.36512 8.34855L1.64956 7.8891ZM1.73548 8.1129L2.99598 7.59134L2.99576 7.5908L1.73548 8.1129ZM1.8324 8.33171L0.599239 8.91498L0.599327 8.91516L1.8324 8.33171ZM1.9393 8.54552L0.735734 9.18763L1.12094 9.90966H1.9393V8.54552ZM1.9403 8.54552L3.14341 7.90255L2.758 7.18138H1.9403V8.54552ZM2.0582 8.75434L0.888188 9.45573L0.888197 9.45575L2.0582 8.75434ZM2.18709 8.95716L1.05251 9.71454L1.05294 9.71518L2.18709 8.95716ZM2.32497 9.15299L3.42108 8.34095L3.42065 8.34038L2.32497 9.15299ZM2.47184 9.34083H3.83598V8.85254L3.52612 8.47517L2.47184 9.34083ZM2.47184 9.34183H1.1077V9.82987L1.41729 10.2072L2.47184 9.34183ZM2.6287 9.52267L1.61738 10.4381L1.61814 10.439L2.6287 9.52267ZM2.79356 9.69652L1.82877 10.6609L1.82891 10.6611L2.79356 9.69652ZM2.9674 9.86137L2.051 10.8719L2.05104 10.8719L2.9674 9.86137ZM3.14825 10.0182L2.28256 11.0725L2.28258 11.0725L3.14825 10.0182ZM3.33708 10.1651L2.52422 11.2606L2.52427 11.2606L3.33708 10.1651ZM3.53291 10.304L2.77463 11.438L2.7747 11.438L3.53291 10.304ZM3.73473 10.4319L3.03309 11.6017L3.35702 11.796H3.73473V10.4319ZM3.73573 10.4319L4.40884 9.24537L4.09573 9.06773H3.73573V10.4319ZM3.94355 10.5498L3.27044 11.7363L3.29931 11.7527L3.32894 11.7676L3.94355 10.5498ZM4.15736 10.6577L3.54275 11.8755L3.57346 11.891L3.60492 11.9049L4.15736 10.6577ZM4.37617 10.7546L3.82373 12.0019L3.85515 12.0158L3.88724 12.0281L4.37617 10.7546ZM4.59998 10.8405L4.11104 12.114L4.12509 12.1194L4.13926 12.1245L4.59998 10.8405ZM4.82778 10.9164L4.43129 12.2217L4.43141 12.2217L4.82778 10.9164ZM5.05757 10.9794L6.02217 10.0148L5.75513 9.74777L5.38879 9.65607L5.05757 10.9794ZM5.05857 10.9804L4.09398 11.945L4.36068 12.2117L4.7265 12.3035L5.05857 10.9804ZM5.29237 11.0323V12.3965L5.55916 9.69455L5.29237 11.0323ZM5.29137 11.0323V9.66821L5.02585 12.3704L5.29137 11.0323ZM5.52816 11.0733V12.4375L5.72956 9.72412L5.52816 11.0733ZM5.52716 11.0733V9.70917L5.32706 12.4227L5.52716 11.0733ZM5.76595 11.1033L5.63123 12.4608L5.63133 12.4608L5.76595 11.1033ZM6.00375 11.1203L5.93695 12.4828L5.97033 12.4844H6.00375V11.1203ZM6.00475 11.1203L6.07265 9.75782L6.03872 9.75613H6.00475V11.1203ZM6.24354 11.1263L6.24351 12.4904H6.24354V11.1263ZM6.48333 11.1213L6.54848 12.4839L6.56714 12.483L6.58578 12.4816L6.48333 11.1213ZM6.72212 11.1033L6.82457 12.4636L6.85591 12.4612L6.88712 12.4574L6.72212 11.1033ZM6.95991 11.0743L7.12491 12.4284L7.14236 12.4263L7.15976 12.4237L6.95991 11.0743ZM7.1967 11.0333L6.93134 9.69527L6.93114 9.69531L7.1967 11.0333ZM7.4295 10.9804L7.76021 12.3038L7.76144 12.3035L7.4295 10.9804ZM7.6613 10.9164L7.26641 9.61071L7.26611 9.6108L7.6613 10.9164ZM7.8881 10.8415V9.47737H7.6515L7.42872 9.55705L7.8881 10.8415ZM7.8891 10.8415V12.2057H8.12557L8.34825 12.1261L7.8891 10.8415ZM8.1119 10.7556L8.63396 12.0159L8.64817 12.01L8.66224 12.0038L8.1119 10.7556ZM8.33171 10.6587L8.88205 11.9069L8.8984 11.8997L8.91455 11.892L8.33171 10.6587ZM8.54552 10.5508L9.18744 11.7544L9.20315 11.7461L9.21864 11.7373L8.54552 10.5508ZM8.75334 10.4329V9.06873H8.39335L8.08023 9.24637L8.75334 10.4329ZM8.75434 10.4329V11.797H9.13181L9.45559 11.603L8.75434 10.4329ZM8.95716 10.304L9.71415 11.4388L9.71515 11.4381L8.95716 10.304ZM9.15299 10.1661L9.96518 11.2621L9.96604 11.2615L9.15299 10.1661ZM9.34083 10.0192V8.65509H8.85268L8.47536 8.9648L9.34083 10.0192ZM9.34183 10.0192V11.3834H9.82957L10.2067 11.0741L9.34183 10.0192ZM9.52267 9.86237L10.4386 10.8733L10.4393 10.8726L9.52267 9.86237ZM9.69652 9.69751L10.6605 10.6627L10.6736 10.6496L10.6864 10.6362L9.69652 9.69751ZM9.86137 9.52367L10.8512 10.4623L10.8616 10.4514L10.8717 10.4402L9.86137 9.52367ZM10.0182 9.34283L11.0726 10.2083L11.0726 10.2083L10.0182 9.34283ZM10.1651 9.15399L11.2606 9.96691L11.2611 9.96618L10.1651 9.15399ZM10.304 8.95816L11.4379 9.71656L11.4383 9.71588L10.304 8.95816ZM10.4319 8.75534L11.6015 9.4574L11.6017 9.45708L10.4319 8.75534ZM10.5498 8.54752L11.7529 9.19051L11.9139 8.88918V8.54752H10.5498ZM10.5498 8.54652L9.34688 7.90314L9.18563 8.20462V8.54652H10.5498ZM10.6577 8.33271L11.8911 8.91551L11.8982 8.90042L11.9049 8.88515L10.6577 8.33271ZM10.7546 8.1139L12.0019 8.66634L12.0147 8.63734L12.0262 8.60778L10.7546 8.1139ZM10.8415 7.8901L12.1131 8.38398L12.1198 8.36681L12.126 8.34946L10.8415 7.8901ZM10.9164 7.6623L12.2217 8.05867L12.2219 8.05823L10.9164 7.6623ZM10.9804 7.4325L12.3038 7.7635L12.3445 7.60051V7.4325H10.9804ZM10.9804 7.4315L9.65733 7.09925L9.61625 7.26283V7.4315H10.9804ZM11.0323 7.1977L9.69451 6.93113L9.69426 6.93238L11.0323 7.1977ZM11.0733 6.96191L12.4227 7.1619L12.4227 7.16189L11.0733 6.96191ZM11.1033 6.72412L12.4607 6.85894L12.4626 6.83994L12.464 6.8209L11.1033 6.72412ZM11.1203 6.48533L12.481 6.58211L12.4844 6.53378V6.48533H11.1203ZM11.1203 6.48433L9.75782 6.41648L9.75613 6.45038V6.48433H11.1203ZM11.1263 6.24554H12.4904H11.1263ZM11.1203 6.00674H9.75613V6.04069L9.75782 6.07459L11.1203 6.00674ZM11.1203 6.00574H12.4844V5.95729L12.481 5.90896L11.1203 6.00574ZM11.1033 5.76695L12.464 5.67017L12.4626 5.65115L12.4607 5.63217L11.1033 5.76695ZM11.0733 5.52916L12.4227 5.32918L12.4227 5.32916L11.0733 5.52916ZM11.0323 5.29337H9.66821V5.42799L9.69452 5.56001L11.0323 5.29337ZM11.0323 5.29237H12.3965V5.15835L12.3704 5.02688L11.0323 5.29237ZM10.9804 5.05957H9.61625V5.22811L9.65727 5.39158L10.9804 5.05957ZM10.9804 5.05857H12.3445V4.89052L12.3037 4.7275L10.9804 5.05857ZM10.9164 4.82877L12.2218 4.43259L12.2218 4.4325L10.9164 4.82877ZM10.8415 4.60097L12.126 4.14175L12.126 4.14164L10.8415 4.60097ZM10.7546 4.37717L12.0148 3.85494L12.0085 3.83975L12.0019 3.82473L10.7546 4.37717ZM10.6577 4.15836L11.9049 3.60592L11.8982 3.59062L11.891 3.57549L10.6577 4.15836ZM10.5498 3.94455L11.7528 3.30143L11.7454 3.28756L11.7377 3.27388L10.5498 3.94455ZM10.4319 3.73573L11.6198 3.06506L11.6108 3.04915L11.6014 3.0335L10.4319 3.73573ZM10.304 3.53291L11.4381 2.7749L11.4381 2.77488L10.304 3.53291ZM10.1651 3.33708L11.2608 2.52454L11.2608 2.52445L10.1651 3.33708ZM10.0182 3.14825L8.96375 4.01366L8.96382 4.01374L10.0182 3.14825ZM9.86137 2.9674L10.8715 2.05058L10.8615 2.03956L10.8512 2.02875L9.86137 2.9674ZM9.69652 2.79356L10.6864 1.8549L10.6737 1.84152L10.6606 1.82848L9.69652 2.79356ZM9.52267 2.6277L10.439 1.61719L10.4384 1.61658L9.52267 2.6277ZM9.34183 2.47184L10.2066 1.41684L9.82948 1.1077H9.34183V2.47184ZM9.34083 2.47184L8.4755 3.52639L8.85278 3.83598H9.34083V2.47184ZM9.15299 2.32497L9.96599 1.22956L9.95283 1.2198L9.93945 1.21035L9.15299 2.32497ZM8.95616 2.18609L9.74262 1.07147L9.72824 1.06133L9.7136 1.05156L8.95616 2.18609ZM8.75434 2.0582L9.45534 0.887956L9.13166 0.694059H8.75434V2.0582ZM8.75334 2.0582L8.0518 3.22812L8.37569 3.42234H8.75334V2.0582ZM8.54552 1.9403L9.18805 0.736959L9.18803 0.736946L8.54552 1.9403ZM8.33171 1.8324L8.91472 0.599116L8.89848 0.591442L8.88205 0.584198L8.33171 1.8324ZM8.1119 1.73548L8.66224 0.487282L8.64794 0.480973L8.63349 0.474994L8.1119 1.73548ZM7.8891 1.64956L7.42976 2.93404L7.42995 2.9341L7.8891 1.64956ZM7.6613 1.57462L7.26559 2.88011L7.26572 2.88015L7.6613 1.57462ZM7.4305 1.51068L7.76167 0.187349L7.76147 0.187297L7.4305 1.51068ZM7.1967 1.45772L6.93083 2.7957L6.93087 2.79571L7.1967 1.45772ZM6.95991 1.41676L6.76024 2.76621L6.76032 2.76622L6.95991 1.41676ZM6.72212 1.38779L6.8554 0.0301725L6.85534 0.030167L6.72212 1.38779ZM6.48333 1.3698L6.41684 2.73232L6.41686 2.73232L6.48333 1.3698ZM6.24354 1.36481L6.24304 0.00066613L6.24295 0.000666169L6.24354 1.36481ZM15.997 15.0348L15.0314 14.0713L14.5498 14.5538L15.5154 15.5174L16.481 16.481L16.9626 15.9984L15.997 15.0348ZM15.5154 15.5174L14.5508 14.5528L14.0683 15.0354L15.0328 16L15.9974 16.9646L16.48 16.482L15.5154 15.5174ZM15.0328 16L15.9974 15.0354L11.1147 10.1527L10.1501 11.1173L9.18553 12.0819L14.0683 16.9646L15.0328 16ZM10.1501 11.1173L11.0032 12.1818C10.995 12.1883 10.9892 12.1927 10.9881 12.1936C10.9879 12.1937 10.9875 12.194 10.9945 12.1888C10.9996 12.185 11.0104 12.1769 11.0226 12.1676C11.0352 12.1579 11.0521 12.1447 11.0714 12.1288L10.2061 11.0743L9.3407 10.0198C9.35092 10.0114 9.3586 10.0055 9.3619 10.0029C9.36477 10.0007 9.36615 9.99972 9.36179 10.003C9.35942 10.0047 9.34957 10.0121 9.33999 10.0193C9.32947 10.0273 9.31441 10.0389 9.29703 10.0528L10.1501 11.1173ZM10.2061 11.0743L11.0709 12.1292C11.1682 12.0495 11.2631 11.9675 11.3548 11.8844L10.4389 10.8735L9.52293 9.86257C9.463 9.91687 9.40221 9.96937 9.34121 10.0194L10.2061 11.0743ZM10.4389 10.8735L11.3787 11.8623L11.6005 11.6514L10.6607 10.6627L9.72089 9.67389L9.49908 9.88471L10.4389 10.8735ZM10.6607 10.6627L11.6472 11.6048L11.859 11.383L10.8725 10.4409L9.88593 9.49875L9.67412 9.72055L10.6607 10.6627ZM10.8725 10.4409L11.8828 11.3574C11.9712 11.26 12.0526 11.1638 12.1267 11.0736L11.0723 10.2081L10.0179 9.34254C9.96219 9.41043 9.9112 9.47023 9.86213 9.52432L10.8725 10.4409ZM11.0723 10.2081L12.1267 11.0736C12.1427 11.0541 12.156 11.037 12.1657 11.0244C12.1751 11.0121 12.1832 11.0013 12.1869 10.9963C12.1921 10.9893 12.1918 10.9898 12.1915 10.9902C12.1905 10.9915 12.186 10.9975 12.1792 11.0059L11.1153 10.1521L10.0514 9.29831C10.0372 9.31593 10.0255 9.33121 10.0174 9.34188C10.01 9.35163 10.0026 9.36156 10.0008 9.36401C9.99749 9.36845 9.99854 9.36702 10.0008 9.36411C10.0033 9.36077 10.0094 9.35295 10.0179 9.34257L11.0723 10.2081ZM11.1153 10.1521L10.1506 11.1166L15.0323 15.9993L15.997 15.0348L16.9617 14.0704L12.08 9.18762L11.1153 10.1521ZM6.55027 0.00799301L6.48373 1.37051C6.56786 1.37462 6.6473 1.38018 6.7227 1.38758L6.856 0.0299738L6.9893 -1.32764C6.86139 -1.3402 6.73657 -1.34867 6.61681 -1.35452L6.55027 0.00799301ZM6.856 0.0299738L6.72266 1.38758C6.79709 1.39489 6.87556 1.40488 6.96002 1.41738L7.15974 0.0679406L7.35945 -1.2815C7.24196 -1.29889 7.11804 -1.31499 6.98934 -1.32763L6.856 0.0299738ZM7.15974 0.0679406L6.96015 1.4174C7.04352 1.42973 7.12222 1.4431 7.1966 1.45787L7.46247 0.119895L7.72834 -1.21808C7.60216 -1.24316 7.47841 -1.26391 7.35933 -1.28152L7.15974 0.0679406ZM7.46247 0.119895L7.19665 1.45788C7.27536 1.47352 7.35322 1.49096 7.43025 1.51022L7.76121 0.186837L8.09217 -1.13655C7.97117 -1.16681 7.84985 -1.19394 7.72829 -1.21809L7.46247 0.119895ZM7.76121 0.186837L7.39702 1.50146L7.69276 1.58339L8.05695 0.268765L8.42114 -1.04586L8.1254 -1.12779L7.76121 0.186837ZM8.05695 0.268765L7.66138 1.57429C7.73805 1.59752 7.81373 1.62248 7.88841 1.64918L8.3477 0.364681L8.80698 -0.919818C8.68944 -0.961843 8.57126 -1.00079 8.45252 -1.03676L8.05695 0.268765ZM8.3477 0.364681L7.88865 1.64926C7.96089 1.67508 8.03575 1.70415 8.11275 1.73603L8.63444 0.475584L9.15614 -0.784858C9.04417 -0.831202 8.92719 -0.876862 8.80674 -0.919903L8.3477 0.364681ZM8.63444 0.475584L8.11234 1.73586C8.18671 1.76667 8.25969 1.79896 8.33125 1.83278L8.9142 0.599475L9.49715 -0.633831C9.38422 -0.687211 9.27062 -0.737431 9.15655 -0.784688L8.63444 0.475584ZM8.9142 0.599475L8.33126 1.83278C8.40214 1.86629 8.4735 1.90229 8.54544 1.9407L9.18796 0.737355L9.83048 -0.465995C9.72214 -0.523841 9.61102 -0.580008 9.49715 -0.633834L8.9142 0.599475ZM9.18796 0.737355L8.54542 1.94069C8.6171 1.97897 8.68633 2.01805 8.75322 2.05816L9.45473 0.888223L10.1562 -0.281718C10.0479 -0.346697 9.93914 -0.407974 9.8305 -0.465982L9.18796 0.737355ZM9.45473 0.888223L8.72695 2.04201L8.98673 2.20587L9.7145 1.05208L10.4423 -0.101707L10.1825 -0.265564L9.45473 0.888223ZM9.7145 1.05208L8.95697 2.18655C9.02129 2.2295 9.08686 2.27584 9.15305 2.3249L9.96528 1.22892L10.7775 0.132948C10.6797 0.0604492 10.5775 -0.0119374 10.472 -0.0823909L9.7145 1.05208ZM9.96528 1.22892L9.15245 2.32445C9.21691 2.37228 9.2797 2.42123 9.3408 2.47136L10.2061 1.41676L11.0713 0.362156C10.9749 0.283068 10.8771 0.206863 10.7781 0.133395L9.96528 1.22892ZM10.2061 1.41676L9.31502 2.44967L9.54781 2.6505L10.4389 1.61758L11.3299 0.584674L11.0971 0.38385L10.2061 1.41676ZM10.4389 1.61758L9.52249 2.6281C9.58327 2.68321 9.64131 2.73828 9.69656 2.79347L10.6607 1.8284L11.6248 0.863327C11.5356 0.774269 11.4455 0.688911 11.3552 0.607072L10.4389 1.61758ZM10.6607 1.8284L9.67189 2.76818L9.88271 2.98999L10.8715 2.05021L11.8603 1.11042L11.6495 0.888616L10.6607 1.8284ZM10.8715 2.05021L9.86138 2.96702C9.91431 3.02534 9.96666 3.08607 10.0178 3.14844L11.0723 2.283L12.1268 1.41756C12.048 1.32164 11.9662 1.22656 11.8816 1.13339L10.8715 2.05021ZM11.0723 2.283L10.0179 3.1485C10.0692 3.21098 10.1184 3.27396 10.1654 3.33733L11.2611 2.52479L12.3569 1.71225C12.2821 1.61138 12.2052 1.51311 12.1267 1.41751L11.0723 2.283ZM11.2611 2.52479L10.1654 3.33734C10.214 3.40282 10.2603 3.4684 10.3038 3.53358L11.438 2.77557L12.5721 2.01756C12.5022 1.91284 12.43 1.81089 12.3569 1.71225L11.2611 2.52479ZM11.438 2.77557L10.3038 3.53351C10.3476 3.59901 10.3905 3.66693 10.4323 3.73649L11.6018 3.03434L12.7714 2.3322C12.7081 2.22681 12.6416 2.12157 12.5722 2.01764L11.438 2.77557ZM11.6018 3.03434L10.4144 3.70587L10.5653 3.97264L11.7527 3.30111L12.9401 2.62958L12.7893 2.36282L11.6018 3.03434ZM11.7527 3.30111L10.5497 3.94427C10.5877 4.01532 10.6236 4.08649 10.6573 4.15781L11.8906 3.57487L13.1239 2.99193C13.0703 2.87845 13.0141 2.76713 12.9557 2.65795L11.7527 3.30111ZM11.8906 3.57487L10.6449 4.13096L10.7698 4.41072L12.0155 3.85463L13.2611 3.29853L13.1362 3.01878L11.8906 3.57487ZM12.0155 3.85463L10.7553 4.37686C10.7837 4.44557 10.8119 4.51972 10.8409 4.60072L12.1254 4.14138L13.4099 3.68203C13.37 3.57044 13.3256 3.45273 13.2757 3.33239L12.0155 3.85463ZM12.1254 4.14138L10.8409 4.60071C10.8674 4.67486 10.8924 4.75074 10.916 4.82844L12.2213 4.43212L13.5266 4.03581C13.4909 3.91813 13.4521 3.80013 13.4099 3.68205L12.1254 4.14138ZM12.2213 4.43212L10.916 4.8284C10.9394 4.90555 10.9607 4.98243 10.9799 5.05889L12.3032 4.72786L13.6266 4.39684C13.5961 4.27492 13.5626 4.15451 13.5266 4.03584L12.2213 4.43212ZM12.3032 4.72786L10.9728 5.02942L11.0408 5.32916L12.3712 5.0276L13.7016 4.72605L13.6336 4.42631L12.3032 4.72786ZM12.3712 5.0276L11.0333 5.29401C11.0482 5.36858 11.0615 5.44691 11.0737 5.52933L12.4231 5.32934L13.7725 5.12934C13.7548 5.00995 13.734 4.88668 13.709 4.76119L12.3712 5.0276ZM12.4231 5.32934L11.0737 5.52928C11.086 5.6123 11.0961 5.69168 11.1036 5.76773L12.4611 5.63307L13.8186 5.49841C13.806 5.37162 13.7901 5.24812 13.7725 5.12939L12.4231 5.32934ZM12.4611 5.63307L11.1005 5.73089L11.1224 6.03663L12.4831 5.9388L13.8437 5.84098L13.8217 5.53525L12.4611 5.63307ZM12.4831 5.9388L11.1194 5.97434L11.1274 6.28107L12.4911 6.24554L13.8547 6.21L13.8468 5.90327L12.4831 5.9388ZM12.4911 6.24554L11.1274 6.21L11.1194 6.51673L12.4831 6.55227L13.8468 6.5878L13.8547 6.28107L12.4911 6.24554ZM12.4831 6.55227L11.1224 6.45444L11.1005 6.76018L12.4611 6.858L13.8217 6.95582L13.8437 6.65009L12.4831 6.55227ZM12.4611 6.858L11.1036 6.7233C11.0961 6.79939 11.086 6.8788 11.0737 6.96179L12.4231 7.16173L13.7725 7.36168C13.7901 7.24292 13.806 7.11942 13.8186 6.99269L12.4611 6.858ZM12.4231 7.16173L11.0737 6.96175C11.0615 7.04412 11.0482 7.12246 11.0333 7.19712L12.3712 7.46347L13.7091 7.72982C13.734 7.60438 13.7548 7.48117 13.7725 7.36172L12.4231 7.16173ZM12.3712 7.46347L11.0408 7.16191L10.9728 7.46165L12.3032 7.76321L13.6336 8.06476L13.7016 7.76502L12.3712 7.46347ZM12.3032 7.76321L10.9886 7.39902L10.9067 7.69476L12.2213 8.05895L13.5359 8.42314L13.6179 8.12739L12.3032 7.76321ZM12.2213 8.05895L10.9258 7.63158L10.8299 7.92232L12.1254 8.34969L13.4209 8.77706L13.5168 8.48632L12.2213 8.05895ZM12.1254 8.34969L10.8408 7.89061C10.8119 7.97159 10.7838 8.04544 10.7554 8.11388L12.0155 8.63644L13.2756 9.159C13.3256 9.03844 13.37 8.92062 13.41 8.80877L12.1254 8.34969ZM12.0155 8.63644L10.7698 8.08035L10.6449 8.36011L11.8906 8.9162L13.1362 9.47229L13.2611 9.19254L12.0155 8.63644ZM11.8906 8.9162L10.6723 8.30258L10.5344 8.57634L11.7527 9.18996L12.9711 9.80358L13.1089 9.52981L11.8906 8.9162ZM11.7527 9.18996L10.5496 8.54705C10.5109 8.61935 10.4719 8.68861 10.432 8.75504L11.6018 9.45673L12.7717 10.1584C12.8369 10.0496 12.8981 9.94086 12.9559 9.83287L11.7527 9.18996ZM11.6018 9.45673L10.4322 8.75475C10.3907 8.82396 10.3477 8.89185 10.3036 8.9578L11.438 9.7155L12.5724 10.4732C12.6415 10.3696 12.708 10.2645 12.7715 10.1587L11.6018 9.45673ZM11.438 9.7155H10.0739V9.7165H11.438H12.8021V9.7155H11.438ZM11.438 9.7165L10.3246 8.92825L10.1478 9.17803L11.2611 9.96628L12.3745 10.7545L12.5513 10.5047L11.438 9.7165ZM11.2611 9.96628L10.1656 9.15347C10.138 9.19063 10.1084 9.22725 10.0514 9.29831L11.1153 10.1521L12.1792 11.0059C12.2208 10.9541 12.2905 10.8683 12.3567 10.7791L11.2611 9.96628ZM11.1153 10.1521L12.0799 9.18752L11.7701 8.8778L10.8055 9.84239L9.84095 10.807L10.1507 11.1167L11.1153 10.1521ZM10.8055 9.84239L9.84095 8.8778L8.8758 9.84295L9.84039 10.8075L10.805 11.7721L11.7701 10.807L10.8055 9.84239ZM9.84039 10.8075L8.8758 11.7721L9.18553 12.0819L10.1501 11.1173L11.1147 10.1527L10.805 9.84295L9.84039 10.8075ZM10.1501 11.1173L9.29703 10.0528C9.22732 10.1087 9.18997 10.1388 9.15242 10.1666L9.96528 11.2621L10.7781 12.3577C10.8663 12.2922 10.9507 12.2239 11.0032 12.1818L10.1501 11.1173ZM9.96528 11.2621V9.89801H9.96428V11.2621V12.6263H9.96528V11.2621ZM9.96428 11.2621L9.1521 10.1661C9.0815 10.2185 9.01749 10.2641 8.95668 10.3047L9.7145 11.439L10.4723 12.5733C10.5812 12.5005 10.6831 12.4273 10.7765 12.3582L9.96428 11.2621ZM9.7145 11.439V10.0749H9.7135V11.439V12.8031H9.7145V11.439ZM9.7135 11.439L8.95653 10.3041C8.89494 10.3452 8.828 10.3871 8.75351 10.4317L9.45473 11.6018L10.1559 12.772C10.2563 12.7118 10.3624 12.6459 10.4705 12.5738L9.7135 11.439ZM9.45473 11.6018L8.75299 10.432C8.67961 10.4761 8.61093 10.5154 8.54511 10.5505L9.18796 11.7537L9.83082 12.9569C9.94554 12.8956 10.0544 12.8329 10.1565 12.7717L9.45473 11.6018ZM9.18796 11.7537H7.82382V11.7547H9.18796H10.5521V11.7537H9.18796ZM9.18796 11.7547L8.54597 10.5511C8.48002 10.5863 8.40907 10.6215 8.33139 10.6582L8.9142 11.8916L9.49701 13.125C9.60376 13.0745 9.71571 13.0193 9.82995 12.9583L9.18796 11.7547ZM8.9142 11.8916L8.36182 10.6443L8.08207 10.7682L8.63444 12.0155L9.18682 13.2628L9.46658 13.1389L8.9142 11.8916ZM8.63444 12.0155L8.11235 10.7552C8.03584 10.7869 7.9612 10.8159 7.88866 10.8418L8.3477 12.1264L8.80673 13.411C8.92702 13.368 9.04395 13.3224 9.15654 13.2758L8.63444 12.0155ZM8.3477 12.1264L7.88831 10.8419C7.81343 10.8687 7.73796 10.8936 7.66193 10.9166L8.05695 12.2223L8.45197 13.528C8.57142 13.4919 8.6898 13.4528 8.80708 13.4109L8.3477 12.1264ZM8.05695 12.2223L7.69276 10.9077L7.39702 10.9896L7.76121 12.3042L8.1254 13.6189L8.42114 13.5369L8.05695 12.2223ZM7.76121 12.3042L7.43031 10.9808C7.35452 10.9998 7.27629 11.0172 7.19614 11.0331L7.46147 12.3712L7.7268 13.7093C7.84734 13.6854 7.96947 13.6583 8.0921 13.6276L7.76121 12.3042ZM7.46147 12.3712L7.196 11.0331C7.12016 11.0482 7.04148 11.0616 6.95991 11.0737L7.15974 12.4231L7.35956 13.7726C7.48 13.7547 7.60278 13.7339 7.72694 13.7092L7.46147 12.3712ZM7.15974 12.4231L6.9598 11.0737C6.87575 11.0862 6.79724 11.0962 6.72255 11.1035L6.856 12.4611L6.98946 13.8187C7.11789 13.8061 7.24177 13.79 7.35967 13.7725L7.15974 12.4231ZM6.856 12.4611L6.7227 11.1035C6.64743 11.1109 6.56795 11.1164 6.48352 11.1206L6.55027 12.4831L6.61702 13.8456C6.73648 13.8397 6.86127 13.8313 6.9893 13.8187L6.856 12.4611ZM6.55027 12.4831V11.1189H6.54927V12.4831V13.8472H6.55027V12.4831ZM6.54927 12.4831L6.48394 11.1205C6.39753 11.1246 6.31817 11.1269 6.24354 11.1269V12.4911V13.8552C6.37285 13.8552 6.49739 13.8513 6.6146 13.8457L6.54927 12.4831ZM6.24354 12.4911L6.27907 11.1274L5.97234 11.1194L5.93681 12.4831L5.90127 13.8468L6.208 13.8547L6.24354 12.4911ZM5.93681 12.4831L6.03905 11.1228L5.73332 11.0998L5.63107 12.4601L5.52883 13.8204L5.83456 13.8434L5.93681 12.4831ZM5.63107 12.4601L5.79589 11.106L5.49215 11.069L5.32734 12.4231L5.16252 13.7773L5.46626 13.8142L5.63107 12.4601ZM5.32734 12.4231L5.56314 11.0795L5.2614 11.0266L5.0256 12.3702L4.7898 13.7138L5.09154 13.7667L5.32734 12.4231ZM5.0256 12.3702L5.29239 11.0324C5.20934 11.0158 5.13125 10.9985 5.05802 10.9802L4.72586 12.3032L4.39371 13.6263C4.51866 13.6577 4.64135 13.6845 4.75882 13.708L5.0256 12.3702ZM4.72586 12.3032L5.05714 10.9799C4.98276 10.9613 4.90642 10.94 4.82756 10.916L4.43112 12.2213L4.03469 13.5266C4.1511 13.5619 4.27116 13.5956 4.39459 13.6265L4.72586 12.3032ZM4.43112 12.2213L4.82761 10.9161C4.74558 10.8911 4.67021 10.8666 4.60011 10.8414L4.13938 12.1254L3.67865 13.4094C3.80124 13.4534 3.92098 13.492 4.03463 13.5266L4.43112 12.2213ZM4.13938 12.1254L4.59903 10.841C4.52861 10.8158 4.45456 10.7869 4.37606 10.7544L3.85363 12.0145L3.33119 13.2746C3.44121 13.3202 3.55802 13.3662 3.67972 13.4098L4.13938 12.1254ZM3.85363 12.0145L4.406 10.7672L4.12625 10.6433L3.57387 11.8906L3.0215 13.1379L3.30125 13.2618L3.85363 12.0145ZM3.57387 11.8906L4.15794 10.6578C4.08501 10.6233 4.01337 10.5872 3.94352 10.5498L3.30011 11.7527L2.65671 12.9556C2.76678 13.0145 2.87803 13.0704 2.98981 13.1234L3.57387 11.8906ZM3.30011 11.7527H4.66425V11.7517H3.30011H1.93597V11.7527H3.30011ZM3.30011 11.7517L3.94284 10.5485C3.8633 10.506 3.7957 10.4684 3.735 10.432L3.03335 11.6018L2.33169 12.7717C2.44607 12.8403 2.55712 12.9014 2.65738 12.955L3.30011 11.7517ZM3.03335 11.6018L3.73494 10.432C3.67175 10.3941 3.6051 10.3513 3.53285 10.303L2.77457 11.437L2.0163 12.571C2.11393 12.6363 2.21968 12.7045 2.33175 12.7717L3.03335 11.6018ZM2.77457 11.437L3.5329 10.3031C3.46086 10.2549 3.39593 10.2096 3.3366 10.1656L2.52379 11.2611L1.71098 12.3567C1.81557 12.4343 1.91872 12.5057 2.01624 12.5709L2.77457 11.437ZM2.52379 11.2611L3.33665 10.1656C3.27702 10.1214 3.21506 10.0725 3.14864 10.018L2.283 11.0723L1.41736 12.1266C1.50861 12.2015 1.60663 12.2793 1.71093 12.3567L2.52379 11.2611ZM2.283 11.0723L3.14868 10.018C3.08074 9.96226 3.02071 9.91107 2.9666 9.86199L2.05021 10.8725L1.13381 11.883C1.23106 11.9712 1.32723 12.0526 1.41732 12.1266L2.283 11.0723ZM2.05021 10.8725L2.9666 9.86199C2.90996 9.81063 2.85223 9.75532 2.79309 9.69618L1.8284 10.6607L0.863712 11.6252C0.949033 11.7105 1.03915 11.7971 1.13381 11.883L2.05021 10.8725ZM1.8284 10.6607L2.81718 9.72089L2.60636 9.49908L1.61758 10.4389L0.628806 11.3787L0.839622 11.6005L1.8284 10.6607ZM1.61758 10.4389L2.62887 9.52334C2.57529 9.46416 2.52293 9.40342 2.47228 9.3417L1.41776 10.2071L0.36324 11.0724C0.44186 11.1682 0.52305 11.2624 0.606304 11.3544L1.61758 10.4389ZM1.41776 10.2071L2.472 9.34136C2.42076 9.27895 2.37164 9.21614 2.32501 9.1532L1.22892 9.96528L0.13284 10.7774C0.207965 10.8788 0.285127 10.9773 0.363519 11.0728L1.41776 10.2071ZM1.22892 9.96528L2.34375 9.17913L2.16691 8.92835L1.05208 9.7145L-0.0627481 10.5007L0.114097 10.7514L1.22892 9.96528ZM1.05208 9.7145L2.18666 8.95713C2.142 8.89023 2.09913 8.82255 2.05823 8.75432L0.888223 9.45573L-0.28178 10.1571C-0.217744 10.264 -0.151212 10.3689 -0.0824992 10.4719L1.05208 9.7145ZM0.888223 9.45573L2.07563 8.7842L1.92476 8.51743L0.737355 9.18896L-0.450049 9.86049L-0.299181 10.1273L0.888223 9.45573ZM0.737355 9.18896L1.94075 8.54653C1.90251 8.4749 1.86629 8.40306 1.83255 8.33175L0.599475 8.9152L-0.633594 9.49865C-0.580092 9.61172 -0.523963 9.72289 -0.466042 9.83139L0.737355 9.18896ZM0.599475 8.9152L1.8326 8.33187C1.79889 8.2606 1.76671 8.18789 1.73602 8.11374L0.475584 8.63544L-0.784853 9.15715C-0.737491 9.27158 -0.687156 9.38542 -0.633654 9.49853L0.599475 8.9152ZM0.475584 8.63544L1.74937 8.14723L1.63947 7.86048L0.36568 8.34869L-0.908105 8.83691L-0.798201 9.12365L0.475584 8.63544ZM0.36568 8.34869L1.65013 7.88928C1.62045 7.8063 1.59535 7.73182 1.57422 7.66214L0.268765 8.05795L-1.03669 8.45375C-0.998537 8.57959 -0.957884 8.69876 -0.918771 8.80811L0.36568 8.34869ZM0.268765 8.05795L1.5742 7.66207C1.55258 7.59077 1.53185 7.51458 1.51106 7.4316L0.187836 7.76321L-1.13538 8.09482C-1.10663 8.20954 -1.0742 8.33006 -1.03667 8.45383L0.268765 8.05795ZM0.187836 7.76321H1.55198V7.76221H0.187836H-1.1763V7.76321H0.187836ZM0.187836 7.76221L1.51118 7.43107C1.48973 7.34536 1.47201 7.26868 1.45783 7.19736L0.119895 7.46347L-1.21804 7.72958C-1.19241 7.85843 -1.16362 7.98097 -1.1355 8.09334L0.187836 7.76221ZM0.119895 7.46347L1.45784 7.19742C1.44291 7.12235 1.42954 7.04401 1.41734 6.96171L0.0679406 7.16173L-1.28145 7.36176C-1.26371 7.48148 -1.24293 7.60439 -1.21805 7.72952L0.119895 7.46347ZM0.0679406 7.16173L1.41731 6.96156C1.40495 6.87821 1.39496 6.79946 1.38753 6.72415L0.0299738 6.858L-1.32758 6.99184C-1.31498 7.11967 -1.29901 7.24343 -1.28143 7.36191L0.0679406 7.16173ZM0.0299738 6.858L1.38755 6.72434C1.3802 6.64972 1.37467 6.57032 1.37049 6.48525L0.00799301 6.55227L-1.3545 6.61929C-1.34866 6.73808 -1.34026 6.86312 -1.3276 6.99166L0.0299738 6.858ZM0.00799301 6.55227L1.37049 6.48537C1.36636 6.4012 1.36414 6.32142 1.36414 6.24554H0H-1.36414C-1.36414 6.37395 -1.3604 6.4991 -1.35451 6.61916L0.00799301 6.55227ZM0 6.24554H1.36414C1.36414 6.16965 1.36636 6.08987 1.37049 6.0057L0.00799301 5.9388L-1.35451 5.87191C-1.3604 5.99197 -1.36414 6.11712 -1.36414 6.24554H0ZM0.00799301 5.9388L1.37049 6.00582C1.37467 5.92075 1.3802 5.84135 1.38755 5.76673L0.0299738 5.63307L-1.3276 5.49941C-1.34026 5.62795 -1.34866 5.75299 -1.3545 5.87178L0.00799301 5.9388ZM0.0299738 5.63307L1.38753 5.76693C1.39495 5.69168 1.40495 5.61291 1.41733 5.52943L0.0679406 5.32934L-1.28144 5.12924C-1.299 5.24764 -1.31498 5.37139 -1.32758 5.49921L0.0299738 5.63307ZM0.0679406 5.32934L1.41732 5.52945C1.42953 5.44711 1.44292 5.36871 1.45785 5.29358L0.119895 5.0276L-1.21806 4.76162C-1.24294 4.88675 -1.26371 5.00962 -1.28144 5.12923L0.0679406 5.32934ZM0.119895 5.0276L1.45007 5.33012L1.51801 5.03138L0.187836 4.72886L-1.14234 4.42635L-1.21028 4.72509L0.119895 5.0276ZM0.187836 4.72886L1.51111 5.06027C1.53253 4.97473 1.55307 4.89867 1.57418 4.82905L0.268765 4.43312L-1.03665 4.03719C-1.07482 4.16302 -1.10724 4.28488 -1.13543 4.39745L0.187836 4.72886ZM0.268765 4.43312L1.57421 4.82898C1.59534 4.75926 1.62047 4.68473 1.65013 4.6018L0.36568 4.14238L-0.918769 3.68296C-0.957902 3.79236 -0.998544 3.91152 -1.03668 4.03726L0.268765 4.43312ZM0.36568 4.14238L1.65012 4.60183C1.67904 4.52097 1.7074 4.44645 1.73592 4.37757L0.475584 3.85563L-0.784756 3.33369C-0.834409 3.45359 -0.878828 3.5713 -0.918757 3.68292L0.36568 4.14238ZM0.475584 3.85563L1.73593 4.37756C1.7667 4.30326 1.79893 4.23041 1.8327 4.159L0.599475 3.57587L-0.633745 2.99274C-0.687186 3.10576 -0.737454 3.21946 -0.78476 3.3337L0.475584 3.85563ZM0.599475 3.57587L1.81782 4.18949L1.95569 3.91573L0.737355 3.30211L-0.480985 2.68849L-0.618864 2.96225L0.599475 3.57587ZM0.737355 3.30211L1.9405 3.945C1.97894 3.87307 2.01815 3.80363 2.05832 3.73659L0.888223 3.03534L-0.281873 2.33409C-0.34677 2.44238 -0.407933 2.55093 -0.465793 2.65922L0.737355 3.30211ZM0.888223 3.03534L2.05837 3.73651C2.09924 3.6683 2.14194 3.60089 2.18645 3.53425L1.05208 2.77657L-0.0822903 2.01889C-0.151204 2.12206 -0.217793 2.22715 -0.281924 2.33418L0.888223 3.03534ZM1.05208 2.77657L2.16691 3.56272L2.34375 3.31194L1.22892 2.52579L0.114097 1.73964L-0.0627481 1.99042L1.05208 2.77657ZM1.22892 2.52579L2.32472 3.33826C2.37146 3.27522 2.4209 3.212 2.47237 3.14926L1.41776 2.284L0.363147 1.41874C0.285113 1.51386 0.208056 1.61226 0.133129 1.71332L1.22892 2.52579ZM1.41776 2.284L2.47228 3.14937C2.52316 3.08737 2.57535 3.02682 2.62862 2.96801L1.61758 2.0522L0.606552 1.1364C0.522963 1.22869 0.441797 1.3229 0.363236 1.41864L1.41776 2.284ZM1.61758 2.0522L2.62843 2.96821C2.68329 2.90768 2.73813 2.84988 2.79323 2.79476L1.8284 1.8304L0.863573 0.866041C0.774419 0.955239 0.688909 1.04552 0.60674 1.1362L1.61758 2.0522ZM1.8284 1.8304L2.79309 2.7949C2.85224 2.73573 2.90995 2.68044 2.96652 2.62915L2.05021 1.61858L1.13389 0.608014C1.03908 0.693987 0.948911 0.780686 0.863715 0.865899L1.8284 1.8304ZM2.05021 1.61858V2.98272H2.05121V1.61858V0.254444H2.05021V1.61858ZM2.05121 1.61858L2.96731 2.62934C3.02557 2.57653 3.08608 2.52442 3.14857 2.47311L2.283 1.41876L1.41743 0.364403C1.32218 0.442602 1.22787 0.523742 1.1351 0.607824L2.05121 1.61858ZM2.283 1.41876L3.14854 2.47314C3.2151 2.41851 3.27709 2.36963 3.33669 2.3254L2.52379 1.22992L1.71089 0.134448C1.60663 0.211815 1.50864 0.289532 1.41746 0.364377L2.283 1.41876ZM2.52379 1.22992L3.33672 2.32538C3.39597 2.28141 3.46077 2.23624 3.53278 2.1881L2.77457 1.05408L2.01636 -0.0799404C1.91869 -0.0146385 1.81553 0.0567982 1.71086 0.134468L2.52379 1.22992ZM2.77457 1.05408H4.13871V1.05308H2.77457H1.41043V1.05408H2.77457ZM2.77457 1.05308L3.53262 2.1872C3.59846 2.1432 3.66592 2.1005 3.73498 2.05909L3.03335 0.889222L2.33171 -0.280643C2.22562 -0.217014 2.12048 -0.150532 2.01652 -0.0810462L2.77457 1.05308ZM3.03335 0.889222L3.73495 2.05911C3.80124 2.01935 3.87067 1.98018 3.94339 1.9413L3.30011 0.738354L2.65683 -0.464588C2.54934 -0.407103 2.44063 -0.345967 2.33175 -0.280665L3.03335 0.889222ZM3.30011 0.738354L3.94345 1.94126C4.0138 1.90364 4.08519 1.86769 4.15748 1.83347L3.57387 0.600475L2.99026 -0.63252C2.87784 -0.579309 2.76661 -0.523301 2.65677 -0.464555L3.30011 0.738354ZM3.57387 0.600475L4.15738 1.83352C4.22796 1.80012 4.30086 1.7679 4.37608 1.73671L3.85363 0.476583L3.33118 -0.783546C3.21798 -0.736615 3.10419 -0.686433 2.99037 -0.63257L3.57387 0.600475ZM3.85363 0.476583L4.37595 1.73676C4.45134 1.70552 4.52668 1.67631 4.60032 1.64994L4.14038 0.36568L3.68044 -0.918583C3.56169 -0.876054 3.44468 -0.830591 3.33131 -0.783598L3.85363 0.476583ZM4.14038 0.36568L4.60029 1.64995C4.67363 1.62369 4.74937 1.59877 4.82745 1.57506L4.43112 0.269764L4.03479 -1.03553C3.91761 -0.999952 3.79927 -0.961137 3.68046 -0.918593L4.14038 0.36568ZM4.43112 0.269764L4.82746 1.57506C4.90601 1.55121 4.98262 1.52983 5.05772 1.51099L4.72586 0.187836L4.39401 -1.13532C4.27121 -1.10452 4.15142 -1.07095 4.03479 -1.03553L4.43112 0.269764ZM4.72586 0.187836L5.05773 1.51099C5.13147 1.4925 5.2097 1.47517 5.29214 1.45874L5.0256 0.120894L4.75906 -1.21695C4.64106 -1.19344 4.51848 -1.16654 4.394 -1.13532L4.72586 0.187836ZM5.0256 0.120894L5.29209 1.45875C5.37493 1.44225 5.45317 1.42836 5.52792 1.41725L5.32734 0.0679406L5.12675 -1.28137C4.99952 -1.26246 4.87653 -1.24035 4.75911 -1.21696L5.0256 0.120894ZM5.32734 0.0679406L5.52789 1.41726C5.60184 1.40627 5.68038 1.39689 5.76531 1.38849L5.63107 0.0309729L5.49683 -1.32655C5.37876 -1.31487 5.25469 -1.30039 5.12679 -1.28138L5.32734 0.0679406ZM5.63107 0.0309729L5.76521 1.3885C5.84756 1.38036 5.92727 1.37428 6.00428 1.37046L5.93681 0.00799301L5.86933 -1.35448C5.74235 -1.34819 5.61784 -1.3385 5.49694 -1.32656L5.63107 0.0309729ZM5.93681 0.00799301L6.00406 1.37047C6.08732 1.36636 6.16733 1.36417 6.24403 1.36414L6.24354 0L6.24304 -1.36414C6.11547 -1.36409 5.99047 -1.36046 5.86955 -1.35449L5.93681 0.00799301ZM6.24354 0L6.244 1.36414C6.31915 1.36411 6.39871 1.36636 6.48375 1.37051L6.55027 0.00799301L6.61679 -1.35452C6.49765 -1.36034 6.37232 -1.36418 6.24308 -1.36414L6.24354 0ZM6.00475 1.3708L5.93729 0.00832941C5.84413 0.0129416 5.74064 0.0195156 5.63195 0.0302435L5.76595 1.38779L5.89996 2.74533C5.94993 2.74039 6.00615 2.73654 6.0722 2.73327L6.00475 1.3708ZM5.76595 1.38779L5.63178 0.0302607C5.52428 0.0408856 5.42174 0.0544554 5.32766 0.0684348L5.52816 1.41776L5.72866 2.76708C5.79239 2.75762 5.84891 2.75037 5.90013 2.74531L5.76595 1.38779ZM5.52816 1.41776L5.32758 0.0684471C5.22876 0.0831371 5.12717 0.100488 5.02482 0.120878L5.29137 1.45872L5.55792 2.79657C5.61222 2.78575 5.66957 2.77587 5.72875 2.76707L5.52816 1.41776ZM5.29137 1.45872L5.02469 0.120904C4.92947 0.139887 4.82964 0.161715 4.72684 0.187488L5.05857 1.51068L5.3903 2.83387C5.44181 2.82095 5.4973 2.80865 5.55805 2.79654L5.29137 1.45872ZM5.05857 1.51068L4.72682 0.187495C4.62767 0.212354 4.52889 0.239747 4.43155 0.269293L4.82778 1.57462L5.224 2.87995C5.27914 2.86321 5.33494 2.84775 5.39033 2.83386L5.05857 1.51068ZM4.82778 1.57462L4.3964 0.280486L4.1686 0.356419L4.59998 1.65056L5.03135 2.94469L5.25915 2.86876L4.82778 1.57462ZM4.59998 1.65056L4.14002 0.366299C4.04887 0.398943 3.9526 0.435367 3.85385 0.476298L4.37617 1.73648L4.89849 2.99666C4.94728 2.97644 5.00072 2.95602 5.05993 2.93481L4.59998 1.65056ZM4.37617 1.73648L3.85377 0.476333C3.76085 0.514854 3.66741 0.556079 3.57386 0.600352L4.15736 1.8334L4.74087 3.06644C4.79151 3.04247 4.84405 3.01923 4.89857 2.99663L4.37617 1.73648ZM4.15736 1.8334L3.57373 0.60041C3.47956 0.644985 3.38839 0.691232 3.30021 0.738394L3.94355 1.9413L4.58689 3.14421C4.63956 3.11604 4.69083 3.09013 4.74099 3.06638L4.15736 1.8334ZM3.94355 1.9413L3.30029 0.738348C3.2093 0.787006 3.12063 0.837449 3.03427 0.889231L3.73573 2.0592L4.4372 3.22917C4.48749 3.19901 4.53734 3.17071 4.58681 3.14426L3.94355 1.9413ZM3.73573 2.0592L3.0341 0.889327C2.94341 0.943718 2.85654 0.999365 2.77484 1.05397L3.53291 2.18809L4.29097 3.3222C4.34209 3.28803 4.391 3.25687 4.43736 3.22907L3.73573 2.0592ZM3.53291 2.18809L2.77473 1.05405C2.6908 1.11016 2.60704 1.169 2.52415 1.23051L3.33708 2.32596L4.15001 3.42142C4.19526 3.38784 4.2424 3.35468 4.29109 3.32212L3.53291 2.18809ZM3.33708 2.32596L2.52417 1.23049C2.44649 1.28814 2.36522 1.35072 2.2827 1.41846L3.14825 2.47284L4.01379 3.52721C4.05458 3.49373 4.09955 3.45886 4.14999 3.42144L3.33708 2.32596ZM3.14825 2.47284L2.28268 1.41848C2.19872 1.4874 2.12116 1.55562 2.05127 1.61897L2.9674 2.6297L3.88354 3.64043C3.93198 3.59652 3.97452 3.55945 4.01381 3.52719L3.14825 2.47284ZM2.9674 2.6297L2.05111 1.61911C1.98009 1.6835 1.90495 1.75396 1.82891 1.83002L2.79356 2.79455L3.7582 3.75909C3.7951 3.72219 3.8365 3.68308 3.8837 3.64029L2.9674 2.6297ZM2.79356 2.79455L1.82878 1.83015C1.7532 1.90575 1.68283 1.98069 1.61786 2.05239L2.6287 2.9684L3.63954 3.88442C3.6818 3.83778 3.72102 3.79629 3.75833 3.75896L2.79356 2.79455ZM2.6287 2.9684L1.61766 2.05261C1.55498 2.12181 1.4866 2.19944 1.41728 2.28392L2.47184 3.14924L3.52639 4.01457C3.55831 3.97568 3.5952 3.93337 3.63974 3.8842L2.6287 2.9684ZM2.47184 3.14924L1.41723 2.28399C1.34999 2.36593 1.28735 2.44715 1.22922 2.52554L2.32497 3.33808L3.42071 4.15061C3.4575 4.101 3.49256 4.05581 3.52645 4.0145L2.47184 3.14924ZM2.32497 3.33808L1.22915 2.52564C1.16839 2.60759 1.1094 2.69136 1.05275 2.77618L2.18709 3.53391L3.32142 4.29164C3.35327 4.24396 3.38656 4.19667 3.42078 4.15052L2.32497 3.33808ZM2.18709 3.53391L1.05274 2.7762C0.998702 2.85709 0.94284 2.94413 0.88805 3.03557L2.0582 3.73673L3.22835 4.43789C3.25564 4.39235 3.28671 4.3436 3.32144 4.29162L2.18709 3.53391ZM2.0582 3.73673L0.888076 3.03553C0.833817 3.12607 0.783513 3.2159 0.737153 3.30266L1.9403 3.94555L3.14345 4.58844C3.1723 4.53445 3.2006 4.4842 3.22832 4.43794L2.0582 3.73673ZM1.9403 3.94555L0.737078 3.3028C0.693416 3.38453 0.64597 3.4763 0.599242 3.57509L1.8324 4.15836L3.06555 4.74163C3.08685 4.69661 3.11221 4.64692 3.14353 4.5883L1.9403 3.94555ZM1.8324 4.15836L0.867804 5.12295L0.868803 5.12395L1.8334 4.15936L2.79799 3.19477L2.79699 3.19377L1.8324 4.15836ZM1.8334 4.15936L0.600174 3.57623C0.561218 3.65862 0.51756 3.75378 0.475096 3.85634L1.73548 4.37817L2.99587 4.9C3.01446 4.85508 3.03732 4.80445 3.06662 4.74249L1.8334 4.15936ZM1.73548 4.37817L0.475111 3.8563C0.434585 3.95418 0.398076 4.05039 0.36512 4.14252L1.64956 4.60197L2.93399 5.06143C2.95476 5.00339 2.97532 4.94961 2.99585 4.90003L1.73548 4.37817ZM1.64956 4.60197L0.365072 4.14265C0.330912 4.23818 0.298902 4.33492 0.269194 4.43288L1.57462 4.82877L2.88005 5.22467C2.89657 5.1702 2.91457 5.11575 2.93404 5.0613L1.64956 4.60197ZM1.57462 4.82877L0.269218 4.4328C0.239818 4.52972 0.212426 4.62829 0.187422 4.7281L1.51068 5.05957L2.83393 5.39104C2.8477 5.33608 2.86311 5.28053 2.88003 5.22475L1.57462 4.82877ZM1.51068 5.05957L0.187397 4.72821C0.161243 4.83265 0.139467 4.93337 0.120796 5.02723L1.45872 5.29337L2.79665 5.5595C2.80911 5.49685 2.82134 5.44132 2.83396 5.39094L1.51068 5.05957ZM1.45872 5.29337L0.120776 5.02733C0.101002 5.12678 0.0834529 5.22744 0.0683911 5.32896L1.41776 5.52916L2.76713 5.72937C2.77547 5.67313 2.78534 5.61637 2.79667 5.5594L1.45872 5.29337ZM1.41776 5.52916L0.0683751 5.32906C0.0545466 5.42232 0.0408901 5.52498 0.0302297 5.63309L1.38779 5.76695L2.74534 5.90082C2.75034 5.85014 2.75756 5.79387 2.76714 5.72926L1.41776 5.52916ZM1.38779 5.76695L0.0302095 5.6333C0.0195639 5.74143 0.0129409 5.84458 0.00830948 5.9387L1.3708 6.00574L2.73329 6.07279C2.7365 6.00759 2.74038 5.95123 2.74536 5.90061L1.38779 5.76695ZM1.3708 6.00574L0.00830196 5.93885C0.00334957 6.03972 0.000666045 6.14217 0.000666043 6.24554H1.36481H2.72895C2.72895 6.18926 2.73041 6.13149 2.7333 6.07264L1.3708 6.00574ZM1.36481 6.24554H0.000666043C0.000666054 6.3489 0.00334957 6.45135 0.00830196 6.55222L1.3708 6.48533L2.7333 6.41843C2.73041 6.35959 2.72895 6.30182 2.72895 6.24554H1.36481ZM1.3708 6.48533L0.00830949 6.55237C0.0129409 6.64649 0.0195639 6.74964 0.0302095 6.85777L1.38779 6.72412L2.74536 6.59046C2.74038 6.53984 2.7365 6.48348 2.73329 6.41828L1.3708 6.48533ZM1.38779 6.72412L0.0302275 6.85796C0.040885 6.96606 0.0545459 7.06879 0.0683868 7.16208L1.41776 6.96191L2.76713 6.76173C2.75757 6.69726 2.75034 6.64096 2.74534 6.59028L1.38779 6.72412ZM1.41776 6.96191L0.0683751 7.16201C0.0816169 7.2513 0.0980712 7.3546 0.119791 7.46381L1.45772 7.1977L2.79566 6.9316C2.78629 6.88448 2.7773 6.83031 2.76714 6.76181L1.41776 6.96191ZM1.45772 7.1977L0.119796 7.46383C0.140683 7.56884 0.163907 7.66901 0.187353 7.76269L1.51068 7.4315L2.834 7.1003C2.81863 7.03887 2.80592 6.98321 2.79565 6.93157L1.45772 7.1977ZM1.51068 7.4315L0.196061 7.79572L0.260005 8.02652L1.57462 7.6623L2.88924 7.29807L2.8253 7.06727L1.51068 7.4315ZM1.57462 7.6623L0.269176 8.05813C0.298903 8.15617 0.330924 8.25292 0.365072 8.34842L1.64956 7.8891L2.93404 7.42977C2.91455 7.37528 2.89656 7.32085 2.88007 7.26646L1.57462 7.6623ZM1.64956 7.8891L0.36512 8.34855C0.398033 8.44056 0.434574 8.53691 0.475207 8.635L1.73548 8.1129L2.99576 7.5908C2.97536 7.54156 2.95483 7.48789 2.93399 7.42964L1.64956 7.8891ZM1.73548 8.1129L0.474987 8.63447C0.513946 8.72862 0.555466 8.82243 0.599239 8.91498L1.8324 8.33171L3.06555 7.74844C3.04127 7.6971 3.01796 7.64446 2.99598 7.59134L1.73548 8.1129ZM1.8324 8.33171L0.599327 8.91516C0.63973 9.00055 0.68512 9.09276 0.735734 9.18763L1.9393 8.54552L3.14287 7.90342C3.11852 7.85777 3.0931 7.80667 3.06547 7.74826L1.8324 8.33171ZM1.9393 8.54552V9.90966H1.9403V8.54552V7.18138H1.9393V8.54552ZM1.9403 8.54552L0.737195 9.18849C0.783437 9.27502 0.833762 9.36494 0.888188 9.45573L2.0582 8.75434L3.22821 8.05295C3.20066 8.00698 3.1724 7.9568 3.14341 7.90255L1.9403 8.54552ZM2.0582 8.75434L0.888197 9.45575C0.942988 9.54714 0.998619 9.6338 1.05251 9.71454L2.18709 8.95716L3.32166 8.19979C3.28667 8.14737 3.25562 8.09866 3.2282 8.05293L2.0582 8.75434ZM2.18709 8.95716L1.05294 9.71518C1.10928 9.79948 1.16826 9.88334 1.22928 9.96561L2.32497 9.15299L3.42065 8.34038C3.38679 8.29471 3.35342 8.2473 3.32123 8.19915L2.18709 8.95716ZM2.32497 9.15299L1.22885 9.96503C1.2914 10.0495 1.35467 10.1299 1.41756 10.2065L2.47184 9.34083L3.52612 8.47517C3.48814 8.42892 3.45324 8.38436 3.42108 8.34095L2.32497 9.15299ZM2.47184 9.34083H1.1077V9.34183H2.47184H3.83598V9.34083H2.47184ZM2.47184 9.34183L1.41729 10.2072C1.48676 10.2918 1.55519 10.3695 1.61738 10.4381L2.6287 9.52267L3.64002 8.60719C3.59509 8.55755 3.5582 8.51526 3.52639 8.47649L2.47184 9.34183ZM2.6287 9.52267L1.61814 10.439C1.68269 10.5102 1.75302 10.5851 1.82877 10.6609L2.79356 9.69652L3.75834 8.73212C3.72116 8.69492 3.68191 8.65339 3.63926 8.60634L2.6287 9.52267ZM2.79356 9.69652L1.82891 10.6611C1.90496 10.7371 1.98006 10.8075 2.051 10.8719L2.9674 9.86137L3.8838 8.85088C3.83641 8.8079 3.79502 8.7688 3.7582 8.73197L2.79356 9.69652ZM2.9674 9.86137L2.05104 10.8719C2.12135 10.9356 2.19883 11.0037 2.28256 11.0725L3.14825 10.0182L4.01393 8.96397C3.97435 8.93147 3.93178 8.89439 3.88376 8.85085L2.9674 9.86137ZM3.14825 10.0182L2.28258 11.0725C2.36526 11.1404 2.44661 11.203 2.52422 11.2606L3.33708 10.1651L4.14994 9.0696C4.0995 9.03217 4.0546 8.99737 4.01391 8.96396L3.14825 10.0182ZM3.33708 10.1651L2.52427 11.2606C2.59907 11.3161 2.6835 11.377 2.77463 11.438L3.53291 10.304L4.29119 9.17001C4.24941 9.14208 4.20337 9.10924 4.14989 9.06956L3.33708 10.1651ZM3.53291 10.304L2.7747 11.438C2.85945 11.4947 2.9456 11.5493 3.03309 11.6017L3.73473 10.4319L4.43637 9.26201C4.38722 9.23253 4.3388 9.20185 4.29112 9.16997L3.53291 10.304ZM3.73473 10.4319V11.796H3.73573V10.4319V9.06773H3.73473V10.4319ZM3.73573 10.4319L3.06262 11.6184L3.27044 11.7363L3.94355 10.5498L4.61666 9.36326L4.40884 9.24537L3.73573 10.4319ZM3.94355 10.5498L3.32894 11.7676L3.54275 11.8755L4.15736 10.6577L4.77197 9.43984L4.55816 9.33193L3.94355 10.5498ZM4.15736 10.6577L3.60492 11.9049L3.82373 12.0019L4.37617 10.7546L4.92861 9.50732L4.70981 9.4104L4.15736 10.6577ZM4.37617 10.7546L3.88724 12.0281L4.11104 12.114L4.59998 10.8405L5.08891 9.56701L4.86511 9.48108L4.37617 10.7546ZM4.59998 10.8405L4.13926 12.1245C4.22993 12.157 4.32835 12.1904 4.4313 12.2217L4.82778 10.9164L5.22426 9.6112C5.17451 9.59609 5.12007 9.57783 5.06069 9.55653L4.59998 10.8405ZM4.82778 10.9164L4.43141 12.2217C4.53538 12.2533 4.63505 12.2799 4.72636 12.3027L5.05757 10.9794L5.38879 9.65607C5.3259 9.64033 5.27215 9.62574 5.22414 9.61116L4.82778 10.9164ZM5.05757 10.9794L4.09298 11.944L4.09398 11.945L5.05857 10.9804L6.02317 10.0158L6.02217 10.0148L5.05757 10.9794ZM5.05857 10.9804L4.7265 12.3035C4.83209 12.33 4.93338 12.3518 5.02558 12.3701L5.29237 11.0323L5.55916 9.69455C5.49504 9.68176 5.43982 9.66963 5.39065 9.65729L5.05857 10.9804ZM5.29237 11.0323V9.66821H5.29137V11.0323V12.3965H5.29237V11.0323ZM5.29137 11.0323L5.02585 12.3704C5.12763 12.3906 5.22806 12.4078 5.32677 12.4225L5.52816 11.0733L5.72956 9.72412C5.66972 9.71519 5.61227 9.70529 5.55689 9.6943L5.29137 11.0323ZM5.52816 11.0733V9.70917H5.52716V11.0733V12.4375H5.52816V11.0733ZM5.52716 11.0733L5.32706 12.4227C5.4228 12.4369 5.5251 12.4502 5.63123 12.4608L5.76595 11.1033L5.90068 9.74581C5.84749 9.74053 5.78981 9.7332 5.72726 9.72393L5.52716 11.0733ZM5.76595 11.1033L5.63133 12.4608C5.7395 12.4715 5.84255 12.4781 5.93695 12.4828L6.00375 11.1203L6.07054 9.75777C6.0061 9.75461 5.95057 9.75076 5.90058 9.7458L5.76595 11.1033ZM6.00375 11.1203V12.4844H6.00475V11.1203V9.75613H6.00375V11.1203ZM6.00475 11.1203L5.93684 12.4827C6.03854 12.4878 6.14076 12.4904 6.24351 12.4904L6.24354 11.1263L6.24356 9.76213C6.18709 9.76212 6.13015 9.76069 6.07265 9.75782L6.00475 11.1203ZM6.24354 11.1263V12.4904C6.33601 12.4904 6.43933 12.4891 6.54848 12.4839L6.48333 11.1213L6.41817 9.75869C6.36753 9.76111 6.31088 9.76213 6.24354 9.76213V11.1263ZM6.48333 11.1213L6.58578 12.4816L6.82457 12.4636L6.72212 11.1033L6.61967 9.743L6.38088 9.76098L6.48333 11.1213ZM6.72212 11.1033L6.88712 12.4574L7.12491 12.4284L6.95991 11.0743L6.79491 9.72019L6.55712 9.74916L6.72212 11.1033ZM6.95991 11.0743L7.15976 12.4237C7.26044 12.4088 7.36164 12.3914 7.46227 12.3714L7.1967 11.0333L6.93114 9.69531C6.87505 9.70644 6.81768 9.71635 6.76006 9.72489L6.95991 11.0743ZM7.1967 11.0333L7.46207 12.3714C7.57007 12.35 7.67105 12.3261 7.76021 12.3038L7.4295 10.9804L7.09879 9.65695C7.03347 9.67327 6.9795 9.68571 6.93134 9.69527L7.1967 11.0333ZM7.4295 10.9804L7.76144 12.3035C7.85847 12.2792 7.95706 12.2522 8.05648 12.2221L7.6613 10.9164L7.26611 9.6108C7.2121 9.62715 7.15589 9.64262 7.09755 9.65726L7.4295 10.9804ZM7.6613 10.9164L8.05618 12.2222C8.15547 12.1922 8.25261 12.1599 8.34747 12.126L7.8881 10.8415L7.42872 9.55705C7.3737 9.57673 7.3196 9.59463 7.26641 9.61071L7.6613 10.9164ZM7.8881 10.8415V12.2057H7.8891V10.8415V9.47737H7.8881V10.8415ZM7.8891 10.8415L8.34825 12.1261C8.44458 12.0916 8.53981 12.0549 8.63396 12.0159L8.1119 10.7556L7.58984 9.4953C7.53687 9.51724 7.48358 9.5378 7.42994 9.55697L7.8891 10.8415ZM8.1119 10.7556L8.66224 12.0038L8.88205 11.9069L8.33171 10.6587L7.78137 9.41047L7.56156 9.50739L8.1119 10.7556ZM8.33171 10.6587L8.91455 11.892C9.01068 11.8466 9.10185 11.8001 9.18744 11.7544L8.54552 10.5508L7.90361 9.3471C7.84836 9.37656 7.79724 9.40246 7.74887 9.42532L8.33171 10.6587ZM8.54552 10.5508L9.21864 11.7373L9.42645 11.6194L8.75334 10.4329L8.08023 9.24637L7.87241 9.36426L8.54552 10.5508ZM8.75334 10.4329V11.797H8.75434V10.4329V9.06873H8.75334V10.4329ZM8.75434 10.4329L9.45559 11.603C9.54746 11.5479 9.63424 11.4921 9.71415 11.4388L8.95716 10.304L8.20017 9.16915C8.14718 9.2045 8.09844 9.2356 8.05309 9.26278L8.75434 10.4329ZM8.95716 10.304L9.71515 11.4381C9.79976 11.3816 9.88345 11.3227 9.96518 11.2621L9.15299 10.1661L8.34081 9.0701C8.29453 9.10439 8.24697 9.13787 8.19917 9.16982L8.95716 10.304ZM9.15299 10.1661L9.96604 11.2615C10.0492 11.1997 10.1292 11.1369 10.2063 11.0737L9.34083 10.0192L8.47536 8.9648C8.42953 9.00241 8.38448 9.03768 8.33994 9.07074L9.15299 10.1661ZM9.34083 10.0192V11.3834H9.34183V10.0192V8.65509H9.34083V10.0192ZM9.34183 10.0192L10.2067 11.0741C10.2917 11.0045 10.3696 10.9358 10.4386 10.8733L9.52267 9.86237L8.60673 8.85146C8.5575 8.89606 8.51541 8.93278 8.47691 8.96434L9.34183 10.0192ZM9.52267 9.86237L10.4393 10.8726C10.5104 10.8081 10.585 10.7381 10.6605 10.6627L9.69652 9.69751L8.73252 8.73233C8.69501 8.76979 8.65329 8.80921 8.60599 8.85214L9.52267 9.86237ZM9.69652 9.69751L10.6864 10.6362L10.8512 10.4623L9.86137 9.52367L8.87152 8.58501L8.70666 8.75886L9.69652 9.69751ZM9.86137 9.52367L10.8717 10.4402C10.9357 10.3697 11.0038 10.2922 11.0726 10.2083L10.0182 9.34283L8.96383 8.47731C8.93145 8.51676 8.89445 8.55924 8.851 8.60713L9.86137 9.52367ZM10.0182 9.34283L11.0726 10.2083C11.1403 10.1259 11.2029 10.0446 11.2606 9.96691L10.1651 9.15399L9.06964 8.34107C9.03225 8.39147 8.99731 8.43652 8.96382 8.47732L10.0182 9.34283ZM10.1651 9.15399L11.2611 9.96618C11.3161 9.89203 11.3768 9.80785 11.4379 9.71656L10.304 8.95816L9.17009 8.19976C9.14224 8.24141 9.10948 8.28731 9.0691 8.3418L10.1651 9.15399ZM10.304 8.95816L11.4383 9.71588C11.4981 9.62647 11.5523 9.53928 11.6015 9.4574L10.4319 8.75534L9.26226 8.05328C9.22917 8.10842 9.19878 8.15682 9.16964 8.20044L10.304 8.95816ZM10.4319 8.75534L11.6017 9.45708C11.6535 9.37067 11.7041 9.28175 11.7529 9.19051L10.5498 8.54752L9.34667 7.90454C9.32031 7.95385 9.29207 8.00359 9.26207 8.0536L10.4319 8.75534ZM10.5498 8.54752H11.9139V8.54652H10.5498H9.18563V8.54752H10.5498ZM10.5498 8.54652L11.7527 9.1899C11.7994 9.10243 11.8461 9.01066 11.8911 8.91551L10.6577 8.33271L9.4243 7.74991C9.40112 7.79895 9.37525 7.8501 9.34688 7.90314L10.5498 8.54652ZM10.6577 8.33271L11.9049 8.88515L12.0019 8.66634L10.7546 8.1139L9.50732 7.56146L9.4104 7.78027L10.6577 8.33271ZM10.7546 8.1139L12.0262 8.60778L12.1131 8.38398L10.8415 7.8901L9.56992 7.39622L9.48299 7.62002L10.7546 8.1139ZM10.8415 7.8901L12.126 8.34946C12.1615 8.25017 12.1932 8.15261 12.2217 8.05867L10.9164 7.6623L9.61116 7.26592C9.59328 7.32481 9.5753 7.37968 9.55704 7.43073L10.8415 7.8901ZM10.9164 7.6623L12.2219 8.05823C12.2501 7.96503 12.278 7.86649 12.3038 7.7635L10.9804 7.4325L9.65702 7.10149C9.64418 7.15282 9.62893 7.20734 9.61103 7.26636L10.9164 7.6623ZM10.9804 7.4325H12.3445V7.4315H10.9804H9.61625V7.4325H10.9804ZM10.9804 7.4315L12.3035 7.76375C12.3298 7.65885 12.3518 7.55719 12.3704 7.46303L11.0323 7.1977L9.69426 6.93238C9.68197 6.99436 9.66978 7.04968 9.65733 7.09925L10.9804 7.4315ZM11.0323 7.1977L12.3702 7.46427C12.3901 7.36414 12.4077 7.26338 12.4227 7.1619L11.0733 6.96191L9.72391 6.76191C9.71556 6.81828 9.70576 6.87465 9.69451 6.93113L11.0323 7.1977ZM11.0733 6.96191L12.4227 7.16189C12.4366 7.06791 12.4501 6.9661 12.4607 6.85894L11.1033 6.72412L9.74582 6.58929C9.74067 6.64117 9.73342 6.69778 9.72391 6.76193L11.0733 6.96191ZM11.1033 6.72412L12.464 6.8209L12.481 6.58211L11.1203 6.48533L9.75957 6.38854L9.74258 6.62733L11.1033 6.72412ZM11.1203 6.48533H12.4844V6.48433H11.1203H9.75613V6.48533H11.1203ZM11.1203 6.48433L12.4827 6.55217C12.4878 6.45064 12.4904 6.34844 12.4904 6.24554H11.1263H9.76213C9.76213 6.30197 9.76068 6.35892 9.75782 6.41648L11.1203 6.48433ZM11.1263 6.24554H12.4904C12.4904 6.14263 12.4878 6.04043 12.4827 5.9389L11.1203 6.00674L9.75782 6.07459C9.76068 6.13215 9.76213 6.1891 9.76213 6.24554H11.1263ZM11.1203 6.00674H12.4844V6.00574H11.1203H9.75613V6.00674H11.1203ZM11.1203 6.00574L12.481 5.90896L12.464 5.67017L11.1033 5.76695L9.74258 5.86374L9.75957 6.10253L11.1203 6.00574ZM11.1033 5.76695L12.4607 5.63217C12.4501 5.52494 12.4366 5.42311 12.4227 5.32918L11.0733 5.52916L9.72391 5.72914C9.73342 5.79332 9.74067 5.84989 9.74582 5.90174L11.1033 5.76695ZM11.0733 5.52916L12.4227 5.32916C12.4077 5.22774 12.3901 5.12692 12.3702 5.02673L11.0323 5.29337L9.69452 5.56001C9.70575 5.61637 9.71555 5.67275 9.72391 5.72916L11.0733 5.52916ZM11.0323 5.29337H12.3965V5.29237H11.0323H9.66821V5.29337H11.0323ZM11.0323 5.29237L12.3704 5.02688C12.3512 4.93022 12.3292 4.8301 12.3035 4.72757L10.9804 5.05957L9.65727 5.39158C9.67029 5.44346 9.68254 5.49862 9.69429 5.55785L11.0323 5.29237ZM10.9804 5.05957H12.3445V5.05857H10.9804H9.61625V5.05957H10.9804ZM10.9804 5.05857L12.3037 4.7275C12.278 4.62472 12.2502 4.52617 12.2218 4.43259L10.9164 4.82877L9.61111 5.22496C9.62889 5.28355 9.64414 5.33808 9.65704 5.38965L10.9804 5.05857ZM10.9164 4.82877L12.2218 4.4325C12.1932 4.33831 12.1614 4.24081 12.126 4.14175L10.8415 4.60097L9.55699 5.0602C9.57533 5.11148 9.59333 5.16641 9.61113 5.22505L10.9164 4.82877ZM10.8415 4.60097L12.126 4.14164C12.0896 4.03978 12.0514 3.94319 12.0148 3.85494L10.7546 4.37717L9.49437 4.8994C9.51891 4.95861 9.5397 5.01183 9.55703 5.06031L10.8415 4.60097ZM10.7546 4.37717L12.0019 3.82473L11.9049 3.60592L10.6577 4.15836L9.4104 4.71081L9.50732 4.92961L10.7546 4.37717ZM10.6577 4.15836L11.891 3.57549C11.846 3.48031 11.7994 3.38868 11.7528 3.30143L10.5498 3.94455L9.34674 4.58767C9.3753 4.64108 9.40119 4.69228 9.42433 4.74123L10.6577 4.15836ZM10.5498 3.94455L11.7377 3.27388L11.6198 3.06506L10.4319 3.73573L9.24399 4.4064L9.36188 4.61522L10.5498 3.94455ZM10.4319 3.73573L11.6014 3.0335C11.5525 2.95212 11.4982 2.86469 11.4381 2.7749L10.304 3.53291L9.16984 4.29092C9.19867 4.33407 9.22896 4.38233 9.26237 4.43797L10.4319 3.73573ZM10.304 3.53291L11.4381 2.77488C11.3769 2.68334 11.3159 2.59879 11.2608 2.52454L10.1651 3.33708L9.06936 4.14962C9.1095 4.20375 9.1422 4.24958 9.16985 4.29094L10.304 3.53291ZM10.1651 3.33708L11.2608 2.52445C11.2028 2.44633 11.1402 2.36502 11.0726 2.28275L10.0182 3.14825L8.96382 4.01374C8.99744 4.0547 9.03236 4.09973 9.06943 4.14971L10.1651 3.33708ZM10.0182 3.14825L11.0727 2.28283C11.004 2.19912 10.9357 2.12134 10.8715 2.05058L9.86137 2.9674L8.85126 3.88422C8.89436 3.93171 8.93139 3.97423 8.96375 4.01366L10.0182 3.14825ZM9.86137 2.9674L10.8512 2.02875L10.6864 1.8549L9.69652 2.79356L8.70666 3.73221L8.87152 3.90606L9.86137 2.9674ZM9.69652 2.79356L10.6606 1.82848C10.5907 1.75862 10.5168 1.68768 10.439 1.61719L9.52267 2.6277L8.60629 3.63821C8.64708 3.6752 8.68905 3.71532 8.7324 3.75863L9.69652 2.79356ZM9.52267 2.6277L10.4384 1.61658C10.3629 1.54825 10.2857 1.48164 10.2066 1.41684L9.34183 2.47184L8.47704 3.52683C8.52113 3.56298 8.56444 3.60031 8.60696 3.63882L9.52267 2.6277ZM9.34183 2.47184V1.1077H9.34083V2.47184V3.83598H9.34183V2.47184ZM9.34083 2.47184L10.2062 1.41728C10.1293 1.35424 10.0493 1.29141 9.96599 1.22956L9.15299 2.32497L8.33999 3.42037C8.38437 3.45331 8.42944 3.48859 8.4755 3.52639L9.34083 2.47184ZM9.15299 2.32497L9.93945 1.21035L9.74262 1.07147L8.95616 2.18609L8.16971 3.3007L8.36654 3.43958L9.15299 2.32497ZM8.95616 2.18609L9.7136 1.05156C9.63025 0.995906 9.5442 0.94118 9.45534 0.887956L8.75434 2.0582L8.05334 3.22844C8.10114 3.25708 8.14954 3.28778 8.19872 3.32062L8.95616 2.18609ZM8.75434 2.0582V0.694059H8.75334V2.0582V3.42234H8.75434V2.0582ZM8.75334 2.0582L9.45488 0.888278C9.36902 0.836788 9.28007 0.786095 9.18805 0.736959L8.54552 1.9403L7.90299 3.14365C7.95164 3.16962 8.00117 3.19776 8.0518 3.22812L8.75334 2.0582ZM8.54552 1.9403L9.18803 0.736946C9.10142 0.690702 9.0102 0.644255 8.91472 0.599116L8.33171 1.8324L7.7487 3.06568C7.79756 3.08877 7.8487 3.11466 7.90302 3.14366L8.54552 1.9403ZM8.33171 1.8324L8.88205 0.584198L8.66224 0.487282L8.1119 1.73548L7.56156 2.98368L7.78137 3.0806L8.33171 1.8324ZM8.1119 1.73548L8.63349 0.474994C8.53997 0.436298 8.44491 0.399562 8.34824 0.36501L7.8891 1.64956L7.42995 2.9341C7.48327 2.95316 7.5367 2.97378 7.59032 2.99597L8.1119 1.73548ZM7.8891 1.64956L8.34844 0.365078C8.24977 0.329795 8.15198 0.297914 8.05688 0.269098L7.6613 1.57462L7.26572 2.88015C7.32345 2.89764 7.37831 2.91564 7.42976 2.93404L7.8891 1.64956ZM7.6613 1.57462L8.057 0.269136C7.9607 0.239946 7.86205 0.212468 7.76167 0.187349L7.4305 1.51068L7.09932 2.83401C7.15371 2.84762 7.20929 2.86304 7.26559 2.88011L7.6613 1.57462ZM7.4305 1.51068L7.76147 0.187297C7.66847 0.16404 7.56801 0.140692 7.46253 0.119737L7.1967 1.45772L6.93087 2.79571C6.98198 2.80587 7.03764 2.81858 7.09953 2.83406L7.4305 1.51068ZM7.1967 1.45772L7.46258 0.119746C7.36184 0.0997283 7.26026 0.0822043 7.1595 0.0673008L6.95991 1.41676L6.76032 2.76622C6.81774 2.77471 6.87509 2.78463 6.93083 2.7957L7.1967 1.45772ZM6.95991 1.41676L7.15958 0.0673121C7.05561 0.051929 6.95377 0.0398299 6.8554 0.0301725L6.72212 1.38779L6.58884 2.7454C6.64918 2.75132 6.70629 2.75822 6.76024 2.76621L6.95991 1.41676ZM6.72212 1.38779L6.85534 0.030167C6.75911 0.0207236 6.65658 0.0124907 6.54979 0.00728173L6.48333 1.3698L6.41686 2.73232C6.46937 2.73488 6.52624 2.73926 6.58889 2.7454L6.72212 1.38779ZM6.48333 1.3698L6.54981 0.00728281C6.43949 0.00189932 6.3351 0.000632758 6.24304 0.000666133L6.24354 1.36481L6.24403 2.72895C6.31168 2.72892 6.3676 2.72992 6.41684 2.73232L6.48333 1.3698ZM6.24354 1.36481L6.24295 0.000666169C6.14047 0.000710217 6.03869 0.00333371 5.93762 0.00831358L6.00475 1.3708L6.07188 2.73329C6.13006 2.73042 6.18744 2.72897 6.24412 2.72895L6.24354 1.36481Z" fill="#6B6B6B" mask="url(#path-2-inside-1_0_11)"/>
</g>
</svg>
