<svg width="1732" height="897" viewBox="0 0 1732 897" fill="none" xmlns="http://www.w3.org/2000/svg">
<path d="M0 93.3245C0 93.3245 113.5 183.075 182.25 183.075C251 183.075 380.5 156.825 471 156.825C740.312 156.825 789.58 286.966 1057 318.824C1195.5 335.324 1396 272.825 1503 183.075C1610 93.3245 1732 93.3245 1732 93.3245V896.576H0V93.3245Z" fill="url(#paint0_linear_78_269)"/>
<path d="M0 3.57556C0 3.57556 113.5 93.3255 182.25 93.3255C251 93.3255 380.5 67.0755 471 67.0755C740.312 67.0755 789.58 8.96623 1057 40.825C1195.5 57.325 1396 156.826 1503 67.0755C1610 -22.6745 1732 3.57556 1732 3.57556V896.576H0V3.57556Z" fill="url(#paint1_linear_78_269)"/>
<defs>
<linearGradient id="paint0_linear_78_269" x1="942" y1="-541" x2="943" y2="1258.83" gradientUnits="userSpaceOnUse">
<stop offset="0.1" stop-color="white" stop-opacity="0.35"/>
<stop offset="0.475962" stop-color="#979CA7" stop-opacity="0.16"/>
<stop offset="0.954723" stop-color="#C4C4C4"/>
</linearGradient>
<linearGradient id="paint1_linear_78_269" x1="942" y1="-541" x2="943" y2="1258.83" gradientUnits="userSpaceOnUse">
<stop offset="0.1" stop-color="white" stop-opacity="0.35"/>
<stop offset="0.475962" stop-color="#979CA7" stop-opacity="0.16"/>
<stop offset="0.954723" stop-color="#C4C4C4"/>
</linearGradient>
</defs>
</svg>
