<svg xmlns="http://www.w3.org/2000/svg" xmlns:xlink="http://www.w3.org/1999/xlink" width="108" height="111" viewBox="0 0 108 111" fill="none"><path d="M89.0999 59.7783L19.8 89.8409C18.3 90.4574 16.875 90.3219 15.525 89.4339C14.175 88.5459 13.5 87.2555 13.5 85.5627L13.5 25.4377C13.5 23.7419 14.175 22.4515 15.525 21.5666C16.875 20.6817 18.3 20.546 19.8 21.1596L89.0999 51.222C90.9751 52.07 91.9124 53.496 91.9124 55.5002C91.9124 57.5044 90.9751 58.9304 89.0999 59.7783ZM22.5 78.6252L75.8249 55.5002L22.5 32.3752L22.5 48.5627L49.5 55.5002L22.5 62.4377L22.5 78.6252ZM22.5 78.6252L22.5 32.3752L22.5 78.6252Z"   fill="#6AA7D9" ></path></svg>