<svg xmlns="http://www.w3.org/2000/svg" xmlns:xlink="http://www.w3.org/1999/xlink" width="22" height="22.70166015625" viewBox="0 0 22 22.70166015625" fill="none"><g filter="url(#filter_0_192)"><path d="M11.7787 2C11.8278 2 11.8754 2.00489 11.9236 2.01463C11.9719 2.02437 12.02 2.03943 12.0657 2.05851C12.1113 2.07759 12.1524 2.10099 12.1938 2.12873C12.2353 2.15646 12.2751 2.18694 12.3108 2.22235C12.3465 2.25776 12.3796 2.29756 12.4084 2.33938C12.4371 2.3812 12.46 2.42429 12.4808 2.47104C12.5016 2.51778 12.5189 2.56731 12.5309 2.61732C12.543 2.66733 12.5504 2.71797 12.5532 2.76946C12.5561 2.82094 12.554 2.87046 12.5477 2.92159C12.5413 2.97273 12.5296 3.02475 12.5142 3.07373C12.4988 3.12269 12.4796 3.1691 12.4557 3.21416C12.4318 3.25923 12.4036 3.30042 12.3721 3.33997C12.3406 3.37952 12.3071 3.41559 12.2691 3.44822C12.231 3.48085 12.1896 3.51144 12.1465 3.53599C12.1033 3.56054 12.0596 3.5789 12.0127 3.5945C11.966 3.6101 11.9166 3.62059 11.8679 3.62668L11.7787 3.63254L5.55463 3.63254L5.55463 15.0691L16.4454 15.0691L16.4454 8.53307C16.4454 8.48151 16.45 8.43157 16.4593 8.38093C16.4686 8.33024 16.4802 8.27964 16.4983 8.23172C16.5165 8.1838 16.5388 8.14059 16.5652 8.09714C16.5915 8.05363 16.6234 8.01177 16.6571 7.97426C16.6909 7.9368 16.7259 7.90208 16.7658 7.87186C16.8056 7.8417 16.8494 7.81763 16.8939 7.79579C16.9385 7.77401 16.9828 7.75577 17.0304 7.74313C17.078 7.7305 17.1262 7.72277 17.1753 7.71973C17.2244 7.71672 17.2743 7.71887 17.323 7.72558C17.3717 7.73227 17.4185 7.74451 17.4651 7.76069C17.5117 7.77686 17.5587 7.79703 17.6016 7.82212C17.6445 7.84722 17.6837 7.87679 17.7214 7.9099C17.7591 7.943 17.7934 7.97823 17.8245 8.01815C17.8555 8.05811 17.8819 8.10152 17.9053 8.14688C17.9287 8.19223 17.9489 8.23814 17.9638 8.28731C17.9786 8.33642 17.9886 8.38821 17.9944 8.43945L18 8.53307L18 15.0691C18 15.12 17.9989 15.1705 17.9944 15.2212C17.9899 15.2719 17.9812 15.3203 17.9721 15.3704C17.9632 15.4205 17.9522 15.4707 17.9387 15.5196C17.9252 15.5685 17.909 15.6184 17.8913 15.6659C17.8736 15.7134 17.8547 15.7579 17.8328 15.8034C17.811 15.8489 17.7889 15.8948 17.7632 15.938C17.7374 15.9811 17.7091 16.0234 17.6796 16.0638C17.65 16.1042 17.6178 16.1406 17.5849 16.1779C17.5519 16.2153 17.518 16.2523 17.4818 16.2861C17.4456 16.3201 17.4066 16.3524 17.3676 16.3827C17.3285 16.413 17.2893 16.4412 17.2478 16.4675C17.2062 16.4938 17.1633 16.5186 17.1196 16.5407C17.0759 16.5628 17.0314 16.5815 16.9859 16.5992C16.9404 16.6169 16.8934 16.6329 16.8466 16.646C16.7997 16.6592 16.7523 16.6696 16.7045 16.6782C16.6566 16.6868 16.6108 16.6948 16.5624 16.6987L16.4454 16.7016L5.55463 16.7016C5.50611 16.7016 5.45806 16.7005 5.40975 16.6957C5.36144 16.691 5.31534 16.6818 5.26766 16.6723C5.21999 16.6629 5.1722 16.6514 5.12557 16.6372C5.07894 16.6231 5.03144 16.606 4.98627 16.5875C4.9411 16.5689 4.89864 16.549 4.85532 16.5261C4.812 16.5031 4.76825 16.4799 4.72716 16.4529C4.68608 16.4258 4.64587 16.3961 4.60736 16.3651C4.56886 16.3341 4.53428 16.3003 4.49871 16.2657C4.46313 16.231 4.42796 16.1954 4.39562 16.1574C4.36328 16.1194 4.33251 16.0785 4.30368 16.0375C4.27486 15.9965 4.24794 15.9553 4.22289 15.9117C4.19784 15.868 4.1743 15.823 4.15323 15.7771C4.13217 15.7312 4.1144 15.6844 4.09751 15.6366C4.08062 15.5889 4.0655 15.5395 4.05294 15.4904C4.04037 15.4411 4.03043 15.3914 4.02229 15.3412C4.01415 15.2909 4.00643 15.2427 4.00279 15.1919L4 15.0691L4 3.63254C4 3.58159 4.00106 3.53113 4.00557 3.4804C4.01008 3.42967 4.01885 3.38126 4.02786 3.33119C4.03687 3.28113 4.04787 3.23094 4.06129 3.18198C4.07471 3.13301 4.09094 3.08313 4.10866 3.03569C4.12637 2.98827 4.14531 2.94367 4.16716 2.89819C4.18901 2.85269 4.21101 2.80675 4.23682 2.76361C4.26262 2.72046 4.29087 2.67823 4.3204 2.6378C4.34992 2.59737 4.38213 2.56106 4.41512 2.5237C4.44811 2.48634 4.48204 2.44941 4.51821 2.41545C4.55438 2.38149 4.59341 2.34917 4.63244 2.3189C4.67147 2.28864 4.71069 2.26037 4.75224 2.23406C4.79379 2.20775 4.83669 2.18304 4.8804 2.16091C4.92411 2.1388 4.96865 2.12013 5.01413 2.1024C5.05961 2.08466 5.10657 2.06879 5.15343 2.05559C5.20029 2.04239 5.24769 2.03195 5.29552 2.02341C5.34335 2.01486 5.38923 2.00675 5.43761 2.00293L5.55463 2L11.7787 2ZM16.6348 2.28087C16.6695 2.24457 16.7057 2.21022 16.7463 2.18139C16.7868 2.15256 16.8295 2.12861 16.8744 2.10825C16.9195 2.08789 16.966 2.0726 17.0137 2.06144C17.0616 2.05028 17.1097 2.04096 17.1586 2.04096C17.2075 2.04096 17.2552 2.04458 17.3035 2.05266C17.3519 2.06074 17.3995 2.07326 17.4456 2.0907C17.4916 2.10814 17.5371 2.12888 17.5793 2.15506C17.6215 2.18125 17.6596 2.21175 17.6963 2.24576C17.733 2.27976 17.7666 2.31631 17.7966 2.35693C17.8266 2.39756 17.8524 2.44279 17.8746 2.48859C17.8969 2.53439 17.9167 2.57966 17.9303 2.62902C17.944 2.67839 17.9508 2.72997 17.9554 2.78116C17.9601 2.83235 17.9628 2.88504 17.9582 2.93622C17.9536 2.98742 17.944 3.03604 17.9303 3.08543C17.9167 3.13482 17.8968 3.18295 17.8746 3.22879C17.8525 3.27463 17.8266 3.31685 17.7966 3.35752L17.7325 3.43651L10.0318 11.5202C9.99715 11.5565 9.96094 11.5908 9.92039 11.6197C9.8799 11.6485 9.83719 11.6725 9.79224 11.6928C9.74723 11.7132 9.70069 11.7285 9.65293 11.7396C9.60512 11.7508 9.557 11.7601 9.50806 11.7601C9.45913 11.7601 9.41154 11.7565 9.36318 11.7484C9.31483 11.7403 9.26715 11.7278 9.22109 11.7104C9.17503 11.693 9.12949 11.6722 9.08736 11.646C9.04523 11.6198 9.00707 11.5894 8.97035 11.5553C8.93363 11.5213 8.90006 11.4847 8.87005 11.4441C8.84003 11.4035 8.81427 11.3583 8.79204 11.3125C8.76979 11.2667 8.75 11.2214 8.73632 11.172C8.72264 11.1226 8.71589 11.0711 8.71124 11.0199C8.7066 10.9687 8.70389 10.9161 8.70846 10.8648C8.71302 10.8136 8.72271 10.765 8.73632 10.7156C8.74992 10.6662 8.76987 10.6181 8.79204 10.5723C8.81421 10.5265 8.8401 10.4842 8.87005 10.4435L8.93413 10.3675L16.6348 2.28087Z"   fill="#000000" ></path></g><defs><filter id="filter_0_192" x="0" y="0" width="22" height="22.70166015625" filterUnits="userSpaceOnUse" color-interpolation-filters="sRGB"><feFlood flood-opacity="0" result="feFloodId_0_192"/><feColorMatrix in="SourceAlpha" type="matrix" values="0 0 0 0 0 0 0 0 0 0 0 0 0 0 0 0 0 0 127 0" result="hardAlpha_0_192"/><feOffset dx="0" dy="2"/><feGaussianBlur stdDeviation="2"/><feComposite in2="hardAlpha_0_192" operator="out"/><feColorMatrix type="matrix" values="0 0 0 0 0 0 0 0 0 0 0 0 0 0 0 0 0 0 0.25 0"/><feBlend mode="normal" in2="feFloodId_0_192" result="dropShadow_1_0_192"/><feBlend mode="normal" in="SourceGraphic" in2="dropShadow_1_0_192" result="shape_0_192"/></filter></defs></svg>